<?xml version="1.0" encoding="UTF-8" standalone="no"?><svg xmlns="http://www.w3.org/2000/svg" xmlns:xlink="http://www.w3.org/1999/xlink" contentScriptType="application/ecmascript" contentStyleType="text/css" height="314px" preserveAspectRatio="none" style="width:406px;height:314px;background:#FFFFFF;" version="1.1" viewBox="0 0 406 314" width="406px" zoomAndPan="magnify"><defs><filter height="300%" id="f1vzi4hk59c39b" width="300%" x="-1" y="-1"><feGaussianBlur result="blurOut" stdDeviation="2.0"/><feColorMatrix in="blurOut" result="blurOut2" type="matrix" values="0 0 0 0 0 0 0 0 0 0 0 0 0 0 0 0 0 0 .4 0"/><feOffset dx="4.0" dy="4.0" in="blurOut2" result="blurOut3"/><feBlend in="SourceGraphic" in2="blurOut3" mode="normal"/></filter></defs><g><ellipse cx="200" cy="20" fill="#000000" filter="url(#f1vzi4hk59c39b)" rx="10" ry="10" style="stroke:none;stroke-width:1.0;"/><polygon fill="#FEFECE" filter="url(#f1vzi4hk59c39b)" points="182.5,50,217.5,50,229.5,62,217.5,74,182.5,74,170.5,62,182.5,50" style="stroke:#A80036;stroke-width:1.5;"/><text fill="#000000" font-family="sans-serif" font-size="11" lengthAdjust="spacing" textLength="35" x="182.5" y="65.8081">Player</text><text fill="#000000" font-family="sans-serif" font-size="11" lengthAdjust="spacing" textLength="25" x="145.5" y="59.4058">then</text><text fill="#000000" font-family="sans-serif" font-size="11" lengthAdjust="spacing" textLength="24" x="229.5" y="59.4058">else</text><rect fill="#FEFECE" filter="url(#f1vzi4hk59c39b)" height="33.9688" rx="12.5" ry="12.5" style="stroke:#A80036;stroke-width:1.5;" width="96" x="52.5" y="84"/><text fill="#000000" font-family="sans-serif" font-size="12" lengthAdjust="spacing" textLength="76" x="62.5" y="105.1387">Insert token</text><rect fill="#FEFECE" filter="url(#f1vzi4hk59c39b)" height="33.9688" rx="12.5" ry="12.5" style="stroke:#A80036;stroke-width:1.5;" width="179" x="11" y="137.9688"/><text fill="#000000" font-family="sans-serif" font-size="12" lengthAdjust="spacing" textLength="155" x="21" y="159.1074">Player1 have 3 O+ token</text><rect fill="#FEFECE" filter="url(#f1vzi4hk59c39b)" height="33.9688" rx="12.5" ry="12.5" style="stroke:#A80036;stroke-width:1.5;" width="58" x="71.5" y="191.9375"/><text fill="#000000" font-family="sans-serif" font-size="12" lengthAdjust="spacing" textLength="34" x="85.5" y="213.0762">4 line</text><rect fill="#FEFECE" filter="url(#f1vzi4hk59c39b)" height="33.9688" rx="12.5" ry="12.5" style="stroke:#A80036;stroke-width:1.5;" width="96" x="251.5" y="84"/><text fill="#000000" font-family="sans-serif" font-size="12" lengthAdjust="spacing" textLength="76" x="261.5" y="105.1387">Insert token</text><rect fill="#FEFECE" filter="url(#f1vzi4hk59c39b)" height="33.9688" rx="12.5" ry="12.5" style="stroke:#A80036;stroke-width:1.5;" width="179" x="210" y="137.9688"/><text fill="#000000" font-family="sans-serif" font-size="12" lengthAdjust="spacing" textLength="155" x="220" y="159.1074">Player2 have 3 O+ token</text><rect fill="#FEFECE" filter="url(#f1vzi4hk59c39b)" height="33.9688" rx="12.5" ry="12.5" style="stroke:#A80036;stroke-width:1.5;" width="58" x="270.5" y="191.9375"/><text fill="#000000" font-family="sans-serif" font-size="12" lengthAdjust="spacing" textLength="34" x="284.5" y="213.0762">4 line</text><polygon fill="#FEFECE" filter="url(#f1vzi4hk59c39b)" points="200,231.9063,212,243.9063,200,255.9063,188,243.9063,200,231.9063" style="stroke:#A80036;stroke-width:1.5;"/><ellipse cx="200" cy="286.9063" fill="#FFFFFF" filter="url(#f1vzi4hk59c39b)" rx="11" ry="11" style="stroke:#000000;stroke-width:1.0;"/><ellipse cx="200" cy="286.9063" fill="#000000" rx="6" ry="6" style="stroke:#7F7F7F;stroke-width:1.0;"/><line style="stroke:#A80036;stroke-width:1.5;" x1="100.5" x2="100.5" y1="117.9688" y2="137.9688"/><polygon fill="#A80036" points="96.5,127.9688,100.5,137.9688,104.5,127.9688,100.5,131.9688" style="stroke:#A80036;stroke-width:1.0;"/><line style="stroke:#A80036;stroke-width:1.5;" x1="100.5" x2="100.5" y1="171.9375" y2="191.9375"/><polygon fill="#A80036" points="96.5,181.9375,100.5,191.9375,104.5,181.9375,100.5,185.9375" style="stroke:#A80036;stroke-width:1.0;"/><line style="stroke:#A80036;stroke-width:1.5;" x1="299.5" x2="299.5" y1="117.9688" y2="137.9688"/><polygon fill="#A80036" points="295.5,127.9688,299.5,137.9688,303.5,127.9688,299.5,131.9688" style="stroke:#A80036;stroke-width:1.0;"/><line style="stroke:#A80036;stroke-width:1.5;" x1="299.5" x2="299.5" y1="171.9375" y2="191.9375"/><polygon fill="#A80036" points="295.5,181.9375,299.5,191.9375,303.5,181.9375,299.5,185.9375" style="stroke:#A80036;stroke-width:1.0;"/><line style="stroke:#A80036;stroke-width:1.5;" x1="170.5" x2="100.5" y1="62" y2="62"/><line style="stroke:#A80036;stroke-width:1.5;" x1="100.5" x2="100.5" y1="62" y2="84"/><polygon fill="#A80036" points="96.5,74,100.5,84,104.5,74,100.5,78" style="stroke:#A80036;stroke-width:1.0;"/><line style="stroke:#A80036;stroke-width:1.5;" x1="229.5" x2="299.5" y1="62" y2="62"/><line style="stroke:#A80036;stroke-width:1.5;" x1="299.5" x2="299.5" y1="62" y2="84"/><polygon fill="#A80036" points="295.5,74,299.5,84,303.5,74,299.5,78" style="stroke:#A80036;stroke-width:1.0;"/><line style="stroke:#A80036;stroke-width:1.5;" x1="100.5" x2="100.5" y1="225.9063" y2="243.9063"/><line style="stroke:#A80036;stroke-width:1.5;" x1="100.5" x2="188" y1="243.9063" y2="243.9063"/><polygon fill="#A80036" points="178,239.9063,188,243.9063,178,247.9063,182,243.9063" style="stroke:#A80036;stroke-width:1.0;"/><line style="stroke:#A80036;stroke-width:1.5;" x1="299.5" x2="299.5" y1="225.9063" y2="243.9063"/><line style="stroke:#A80036;stroke-width:1.5;" x1="299.5" x2="212" y1="243.9063" y2="243.9063"/><polygon fill="#A80036" points="222,239.9063,212,243.9063,222,247.9063,218,243.9063" style="stroke:#A80036;stroke-width:1.0;"/><line style="stroke:#A80036;stroke-width:1.5;" x1="200" x2="200" y1="30" y2="50"/><polygon fill="#A80036" points="196,40,200,50,204,40,200,44" style="stroke:#A80036;stroke-width:1.0;"/><line style="stroke:#A80036;stroke-width:1.5;" x1="200" x2="200" y1="255.9063" y2="275.9063"/><polygon fill="#A80036" points="196,265.9063,200,275.9063,204,265.9063,200,269.9063" style="stroke:#A80036;stroke-width:1.0;"/><!--MD5=[27bb04f1a97ee3af51068bdc944e1219]
@startuml
start
if (Player) then (then)
  :Insert token;
:Player1 have 3 O+ token ;
: 4 line;
else (else)
:Insert token;
:Player2 have 3 O+ token ;
: 4 line;
endif
stop
@enduml

PlantUML version 1.2021.16(Wed Dec 08 17:25:22 UTC 2021)
(GPL source distribution)
Java Runtime: OpenJDK Runtime Environment
JVM: OpenJDK 64-Bit Server VM
Default Encoding: UTF-8
Language: en
Country: US
--></g></svg>