<?xml version="1.0" encoding="UTF-8" standalone="no"?><svg xmlns="http://www.w3.org/2000/svg" xmlns:xlink="http://www.w3.org/1999/xlink" contentScriptType="application/ecmascript" contentStyleType="text/css" height="378px" preserveAspectRatio="none" style="width:335px;height:378px;background:#FFFFFF;" version="1.1" viewBox="0 0 335 378" width="335px" zoomAndPan="magnify"><defs><filter height="300%" id="fn443shy4ke74" width="300%" x="-1" y="-1"><feGaussianBlur result="blurOut" stdDeviation="2.0"/><feColorMatrix in="blurOut" result="blurOut2" type="matrix" values="0 0 0 0 0 0 0 0 0 0 0 0 0 0 0 0 0 0 .4 0"/><feOffset dx="4.0" dy="4.0" in="blurOut2" result="blurOut3"/><feBlend in="SourceGraphic" in2="blurOut3" mode="normal"/></filter></defs><g><ellipse cx="82.5" cy="20" fill="#000000" filter="url(#fn443shy4ke74)" rx="10" ry="10" style="stroke:none;stroke-width:1.0;"/><rect fill="#FEFECE" filter="url(#fn443shy4ke74)" height="33.9688" rx="12.5" ry="12.5" style="stroke:#A80036;stroke-width:1.5;" width="140" x="12.5" y="103.9688"/><text fill="#000000" font-family="sans-serif" font-size="12" lengthAdjust="spacing" textLength="120" x="22.5" y="125.1074">Player1: Token Red</text><rect fill="#FEFECE" filter="url(#fn443shy4ke74)" height="33.9688" rx="12.5" ry="12.5" style="stroke:#A80036;stroke-width:1.5;" width="143" x="11" y="172.9375"/><text fill="#000000" font-family="sans-serif" font-size="12" lengthAdjust="spacing" textLength="123" x="21" y="194.0762">Player2: Token Blue</text><rect fill="#FEFECE" filter="url(#fn443shy4ke74)" height="33.9688" rx="12.5" ry="12.5" style="stroke:#A80036;stroke-width:1.5;" width="57" x="54" y="241.9063"/><text fill="#000000" font-family="sans-serif" font-size="12" lengthAdjust="spacing" textLength="37" x="64" y="263.0449">Board</text><rect fill="#FEFECE" filter="url(#fn443shy4ke74)" height="33.9688" rx="12.5" ry="12.5" style="stroke:#A80036;stroke-width:1.5;" width="107" x="29" y="50"/><text fill="#000000" font-family="sans-serif" font-size="12" lengthAdjust="spacing" textLength="87" x="39" y="71.1387">Insert: tokens</text><polygon fill="#FEFECE" filter="url(#fn443shy4ke74)" points="55.5,295.875,109.5,295.875,121.5,307.875,109.5,319.875,55.5,319.875,43.5,307.875,55.5,295.875" style="stroke:#A80036;stroke-width:1.5;"/><text fill="#000000" font-family="sans-serif" font-size="11" lengthAdjust="spacing" textLength="54" x="55.5" y="311.6831">Movemen</text><path d="M178.5,127.2383 L178.5,152.3711 L255.5,152.3711 L255.5,137.2383 L245.5,127.2383 L178.5,127.2383 " fill="#FBFB77" filter="url(#fn443shy4ke74)" style="stroke:#A80036;stroke-width:1.0;"/><path d="M245.5,127.2383 L245.5,137.2383 L255.5,137.2383 L245.5,127.2383 " fill="#FBFB77" style="stroke:#A80036;stroke-width:1.0;"/><text fill="#000000" font-family="sans-serif" font-size="13" lengthAdjust="spacing" textLength="56" x="184.5" y="144.3052">Diagonal</text><path d="M174,172.3711 L174,197.5039 L260,197.5039 L260,182.3711 L250,172.3711 L174,172.3711 " fill="#FBFB77" filter="url(#fn443shy4ke74)" style="stroke:#A80036;stroke-width:1.0;"/><path d="M250,172.3711 L250,182.3711 L260,182.3711 L250,172.3711 " fill="#FBFB77" style="stroke:#A80036;stroke-width:1.0;"/><text fill="#000000" font-family="sans-serif" font-size="13" lengthAdjust="spacing" textLength="65" x="180" y="189.438">Horizontal</text><path d="M182.5,217.5039 L182.5,242.6367 L251.5,242.6367 L251.5,227.5039 L241.5,217.5039 L182.5,217.5039 " fill="#FBFB77" filter="url(#fn443shy4ke74)" style="stroke:#A80036;stroke-width:1.0;"/><path d="M241.5,217.5039 L241.5,227.5039 L251.5,227.5039 L241.5,217.5039 " fill="#FBFB77" style="stroke:#A80036;stroke-width:1.0;"/><text fill="#000000" font-family="sans-serif" font-size="13" lengthAdjust="spacing" textLength="48" x="188.5" y="234.5708">Vertical</text><rect fill="#FEFECE" filter="url(#fn443shy4ke74)" height="33.9688" rx="12.5" ry="12.5" style="stroke:#A80036;stroke-width:1.5;" width="48" x="270" y="167.9531"/><text fill="#000000" font-family="sans-serif" font-size="12" lengthAdjust="spacing" textLength="28" x="280" y="189.0918">Turn</text><ellipse cx="82.5" cy="350.875" fill="#FFFFFF" filter="url(#fn443shy4ke74)" rx="11" ry="11" style="stroke:#000000;stroke-width:1.0;"/><ellipse cx="82.5" cy="350.875" fill="#000000" rx="6" ry="6" style="stroke:#7F7F7F;stroke-width:1.0;"/><line style="stroke:#A80036;stroke-width:1.5;" x1="82.5" x2="82.5" y1="137.9375" y2="172.9375"/><polygon fill="#A80036" points="78.5,162.9375,82.5,172.9375,86.5,162.9375,82.5,166.9375" style="stroke:#A80036;stroke-width:1.0;"/><line style="stroke:#A80036;stroke-width:1.5;" x1="82.5" x2="82.5" y1="206.9063" y2="241.9063"/><polygon fill="#A80036" points="78.5,231.9063,82.5,241.9063,86.5,231.9063,82.5,235.9063" style="stroke:#A80036;stroke-width:1.0;"/><line style="stroke:#A80036;stroke-width:1.5;" x1="82.5" x2="82.5" y1="83.9688" y2="103.9688"/><polygon fill="#A80036" points="78.5,93.9688,82.5,103.9688,86.5,93.9688,82.5,97.9688" style="stroke:#A80036;stroke-width:1.0;"/><line style="stroke:#A80036;stroke-width:1.5;" x1="121.5" x2="294" y1="307.875" y2="307.875"/><line style="stroke:#A80036;stroke-width:1.5;" x1="294" x2="294" y1="201.9219" y2="307.875"/><polygon fill="#A80036" points="290,211.9219,294,201.9219,298,211.9219,294,207.9219" style="stroke:#A80036;stroke-width:1.0;"/><line style="stroke:#A80036;stroke-width:1.5;" x1="294" x2="294" y1="66.9844" y2="167.9531"/><line style="stroke:#A80036;stroke-width:1.5;" x1="294" x2="136" y1="66.9844" y2="66.9844"/><polygon fill="#A80036" points="146,62.9844,136,66.9844,146,70.9844,142,66.9844" style="stroke:#A80036;stroke-width:1.0;"/><line style="stroke:#A80036;stroke-width:1.5;" x1="82.5" x2="82.5" y1="275.875" y2="295.875"/><polygon fill="#A80036" points="78.5,285.875,82.5,295.875,86.5,285.875,82.5,289.875" style="stroke:#A80036;stroke-width:1.0;"/><line style="stroke:#A80036;stroke-width:1.5;" x1="82.5" x2="82.5" y1="30" y2="50"/><polygon fill="#A80036" points="78.5,40,82.5,50,86.5,40,82.5,44" style="stroke:#A80036;stroke-width:1.0;"/><line style="stroke:#A80036;stroke-width:1.5;" x1="82.5" x2="82.5" y1="319.875" y2="339.875"/><polygon fill="#A80036" points="78.5,329.875,82.5,339.875,86.5,329.875,82.5,333.875" style="stroke:#A80036;stroke-width:1.0;"/><!--MD5=[ac6fc5ea1ca81a782ccdc03df778dde3]
@startuml
start

repeat :Insert: tokens;
  :Player1: Token Red;
  :Player2: Token Blue;
  :Board;
backward:Turn;
floating note left:Diagonal
  floating note left:Horizontal
  floating note left:Vertical
repeat while (Movemen)



stop
@enduml

PlantUML version 1.2021.16(Wed Dec 08 17:25:22 UTC 2021)
(GPL source distribution)
Java Runtime: OpenJDK Runtime Environment
JVM: OpenJDK 64-Bit Server VM
Default Encoding: UTF-8
Language: en
Country: US
--></g></svg>