<?xml version="1.0" encoding="UTF-8" standalone="no"?><svg xmlns="http://www.w3.org/2000/svg" xmlns:xlink="http://www.w3.org/1999/xlink" contentScriptType="application/ecmascript" contentStyleType="text/css" height="917px" preserveAspectRatio="none" style="width:805px;height:917px;background:#FFFFFF;" version="1.1" viewBox="0 0 805 917" width="805px" zoomAndPan="magnify"><defs><filter height="300%" id="fb0fyuwktq0gg" width="300%" x="-1" y="-1"><feGaussianBlur result="blurOut" stdDeviation="2.0"/><feColorMatrix in="blurOut" result="blurOut2" type="matrix" values="0 0 0 0 0 0 0 0 0 0 0 0 0 0 0 0 0 0 .4 0"/><feOffset dx="4.0" dy="4.0" in="blurOut2" result="blurOut3"/><feBlend in="SourceGraphic" in2="blurOut3" mode="normal"/></filter></defs><g><text fill="#000000" font-family="sans-serif" font-size="18" lengthAdjust="spacing" textLength="83" x="354.5" y="16.708">Conecta4</text><!--MD5=[098beadbf69e9cfe04b4f8d619d193b2]
class Conecta4--><rect codeLine="3" fill="#FEFECE" filter="url(#fb0fyuwktq0gg)" height="48" id="Conecta4" style="stroke:#A80036;stroke-width:1.5;" width="92" x="162.5" y="27.9531"/><ellipse cx="177.5" cy="43.9531" fill="#ADD1B2" rx="11" ry="11" style="stroke:#A80036;stroke-width:1.0;"/><path d="M180.4688,49.5938 Q179.8906,49.8906 179.25,50.0313 Q178.6094,50.1875 177.9063,50.1875 Q175.4063,50.1875 174.0781,48.5469 Q172.7656,46.8906 172.7656,43.7656 Q172.7656,40.6406 174.0781,38.9844 Q175.4063,37.3281 177.9063,37.3281 Q178.6094,37.3281 179.25,37.4844 Q179.9063,37.6406 180.4688,37.9375 L180.4688,40.6563 Q179.8438,40.0781 179.25,39.8125 Q178.6563,39.5313 178.0313,39.5313 Q176.6875,39.5313 176,40.6094 Q175.3125,41.6719 175.3125,43.7656 Q175.3125,45.8594 176,46.9375 Q176.6875,48 178.0313,48 Q178.6563,48 179.25,47.7344 Q179.8438,47.4531 180.4688,46.875 L180.4688,49.5938 Z " fill="#000000"/><text fill="#000000" font-family="sans-serif" font-size="12" lengthAdjust="spacing" textLength="60" x="191.5" y="48.1074">Conecta4</text><line style="stroke:#A80036;stroke-width:1.5;" x1="163.5" x2="253.5" y1="59.9531" y2="59.9531"/><line style="stroke:#A80036;stroke-width:1.5;" x1="163.5" x2="253.5" y1="67.9531" y2="67.9531"/><!--MD5=[dd91eae41778c45e12552e5329e240e8]
class Turn--><rect codeLine="4" fill="#FEFECE" filter="url(#fb0fyuwktq0gg)" height="48" id="Turn" style="stroke:#A80036;stroke-width:1.5;" width="60" x="178.5" y="136.9531"/><ellipse cx="193.5" cy="152.9531" fill="#ADD1B2" rx="11" ry="11" style="stroke:#A80036;stroke-width:1.0;"/><path d="M196.4688,158.5938 Q195.8906,158.8906 195.25,159.0313 Q194.6094,159.1875 193.9063,159.1875 Q191.4063,159.1875 190.0781,157.5469 Q188.7656,155.8906 188.7656,152.7656 Q188.7656,149.6406 190.0781,147.9844 Q191.4063,146.3281 193.9063,146.3281 Q194.6094,146.3281 195.25,146.4844 Q195.9063,146.6406 196.4688,146.9375 L196.4688,149.6563 Q195.8438,149.0781 195.25,148.8125 Q194.6563,148.5313 194.0313,148.5313 Q192.6875,148.5313 192,149.6094 Q191.3125,150.6719 191.3125,152.7656 Q191.3125,154.8594 192,155.9375 Q192.6875,157 194.0313,157 Q194.6563,157 195.25,156.7344 Q195.8438,156.4531 196.4688,155.875 L196.4688,158.5938 Z " fill="#000000"/><text fill="#000000" font-family="sans-serif" font-size="12" lengthAdjust="spacing" textLength="28" x="207.5" y="157.1074">Turn</text><line style="stroke:#A80036;stroke-width:1.5;" x1="179.5" x2="237.5" y1="168.9531" y2="168.9531"/><line style="stroke:#A80036;stroke-width:1.5;" x1="179.5" x2="237.5" y1="176.9531" y2="176.9531"/><!--MD5=[2cb47ba637a0d19583e6199456f6ad0b]
class Player--><rect codeLine="5" fill="#FEFECE" filter="url(#fb0fyuwktq0gg)" height="60.8047" id="Player" style="stroke:#A80036;stroke-width:1.5;" width="122" x="230.5" y="245.9531"/><ellipse cx="268.9" cy="261.9531" fill="#ADD1B2" rx="11" ry="11" style="stroke:#A80036;stroke-width:1.0;"/><path d="M271.8688,267.5938 Q271.2906,267.8906 270.65,268.0313 Q270.0094,268.1875 269.3063,268.1875 Q266.8063,268.1875 265.4781,266.5469 Q264.1656,264.8906 264.1656,261.7656 Q264.1656,258.6406 265.4781,256.9844 Q266.8063,255.3281 269.3063,255.3281 Q270.0094,255.3281 270.65,255.4844 Q271.3063,255.6406 271.8688,255.9375 L271.8688,258.6563 Q271.2438,258.0781 270.65,257.8125 Q270.0563,257.5313 269.4313,257.5313 Q268.0875,257.5313 267.4,258.6094 Q266.7125,259.6719 266.7125,261.7656 Q266.7125,263.8594 267.4,264.9375 Q268.0875,266 269.4313,266 Q270.0563,266 270.65,265.7344 Q271.2438,265.4531 271.8688,264.875 L271.8688,267.5938 Z " fill="#000000"/><text fill="#000000" font-family="sans-serif" font-size="12" lengthAdjust="spacing" textLength="38" x="288.1" y="266.1074">Player</text><line style="stroke:#A80036;stroke-width:1.5;" x1="231.5" x2="351.5" y1="277.9531" y2="277.9531"/><text fill="#000000" font-family="sans-serif" font-size="11" lengthAdjust="spacing" textLength="110" x="236.5" y="292.1636">Player Turn:"Value"</text><line style="stroke:#A80036;stroke-width:1.5;" x1="231.5" x2="351.5" y1="298.7578" y2="298.7578"/><path d="M90,263.9531 L90,289.0859 A0,0 0 0 0 90,289.0859 L195,289.0859 A0,0 0 0 0 195,289.0859 L195,281.9531 L230.17,276.4531 L195,273.9531 L195,273.9531 L185,263.9531 L90,263.9531 A0,0 0 0 0 90,263.9531 " fill="#FBFB77" filter="url(#fb0fyuwktq0gg)" style="stroke:#A80036;stroke-width:1.0;"/><path d="M185,263.9531 L185,273.9531 L195,273.9531 L185,263.9531 " fill="#FBFB77" style="stroke:#A80036;stroke-width:1.0;"/><text fill="#000000" font-family="sans-serif" font-size="13" lengthAdjust="spacing" textLength="84" x="96" y="281.02">Red and Blue</text><!--MD5=[9563755d011c5cec7ec66dc53565a59e]
class Board--><rect codeLine="9" fill="#FEFECE" filter="url(#fb0fyuwktq0gg)" height="48" id="Board" style="stroke:#A80036;stroke-width:1.5;" width="69" x="85" y="367.9531"/><ellipse cx="100" cy="383.9531" fill="#ADD1B2" rx="11" ry="11" style="stroke:#A80036;stroke-width:1.0;"/><path d="M102.9688,389.5938 Q102.3906,389.8906 101.75,390.0313 Q101.1094,390.1875 100.4063,390.1875 Q97.9063,390.1875 96.5781,388.5469 Q95.2656,386.8906 95.2656,383.7656 Q95.2656,380.6406 96.5781,378.9844 Q97.9063,377.3281 100.4063,377.3281 Q101.1094,377.3281 101.75,377.4844 Q102.4063,377.6406 102.9688,377.9375 L102.9688,380.6563 Q102.3438,380.0781 101.75,379.8125 Q101.1563,379.5313 100.5313,379.5313 Q99.1875,379.5313 98.5,380.6094 Q97.8125,381.6719 97.8125,383.7656 Q97.8125,385.8594 98.5,386.9375 Q99.1875,388 100.5313,388 Q101.1563,388 101.75,387.7344 Q102.3438,387.4531 102.9688,386.875 L102.9688,389.5938 Z " fill="#000000"/><text fill="#000000" font-family="sans-serif" font-size="12" lengthAdjust="spacing" textLength="37" x="114" y="388.1074">Board</text><line style="stroke:#A80036;stroke-width:1.5;" x1="86" x2="153" y1="399.9531" y2="399.9531"/><line style="stroke:#A80036;stroke-width:1.5;" x1="86" x2="153" y1="407.9531" y2="407.9531"/><!--MD5=[0992d3fdc9d3d7c02b735131bb70871d]
class Goal--><rect codeLine="10" fill="#FEFECE" filter="url(#fb0fyuwktq0gg)" height="48" id="Goal" style="stroke:#A80036;stroke-width:1.5;" width="60" x="599.5" y="367.9531"/><ellipse cx="614.5" cy="383.9531" fill="#ADD1B2" rx="11" ry="11" style="stroke:#A80036;stroke-width:1.0;"/><path d="M617.4688,389.5938 Q616.8906,389.8906 616.25,390.0313 Q615.6094,390.1875 614.9063,390.1875 Q612.4063,390.1875 611.0781,388.5469 Q609.7656,386.8906 609.7656,383.7656 Q609.7656,380.6406 611.0781,378.9844 Q612.4063,377.3281 614.9063,377.3281 Q615.6094,377.3281 616.25,377.4844 Q616.9063,377.6406 617.4688,377.9375 L617.4688,380.6563 Q616.8438,380.0781 616.25,379.8125 Q615.6563,379.5313 615.0313,379.5313 Q613.6875,379.5313 613,380.6094 Q612.3125,381.6719 612.3125,383.7656 Q612.3125,385.8594 613,386.9375 Q613.6875,388 615.0313,388 Q615.6563,388 616.25,387.7344 Q616.8438,387.4531 617.4688,386.875 L617.4688,389.5938 Z " fill="#000000"/><text fill="#000000" font-family="sans-serif" font-size="12" lengthAdjust="spacing" textLength="28" x="628.5" y="388.1074">Goal</text><line style="stroke:#A80036;stroke-width:1.5;" x1="600.5" x2="658.5" y1="399.9531" y2="399.9531"/><line style="stroke:#A80036;stroke-width:1.5;" x1="600.5" x2="658.5" y1="407.9531" y2="407.9531"/><path d="M296.5,379.4531 L296.5,404.5859 A0,0 0 0 0 296.5,404.5859 L564.5,404.5859 A0,0 0 0 0 564.5,404.5859 L564.5,397.4531 L599.33,391.9531 L564.5,389.4531 L564.5,389.4531 L554.5,379.4531 L296.5,379.4531 A0,0 0 0 0 296.5,379.4531 " fill="#FBFB77" filter="url(#fb0fyuwktq0gg)" style="stroke:#A80036;stroke-width:1.0;"/><path d="M554.5,379.4531 L554.5,389.4531 L564.5,389.4531 L554.5,379.4531 " fill="#FBFB77" style="stroke:#A80036;stroke-width:1.0;"/><text fill="#000000" font-family="sans-serif" font-size="13" lengthAdjust="spacing" textLength="247" x="302.5" y="396.52">Insert 4 tokens of the same color class</text><!--MD5=[a135607b44036ad87f368405615013d9]
class Diagonal--><rect codeLine="12" fill="#FEFECE" filter="url(#fb0fyuwktq0gg)" height="48" id="Diagonal" style="stroke:#A80036;stroke-width:1.5;" width="87" x="704" y="476.9531"/><ellipse cx="719" cy="492.9531" fill="#ADD1B2" rx="11" ry="11" style="stroke:#A80036;stroke-width:1.0;"/><path d="M721.9688,498.5938 Q721.3906,498.8906 720.75,499.0313 Q720.1094,499.1875 719.4063,499.1875 Q716.9063,499.1875 715.5781,497.5469 Q714.2656,495.8906 714.2656,492.7656 Q714.2656,489.6406 715.5781,487.9844 Q716.9063,486.3281 719.4063,486.3281 Q720.1094,486.3281 720.75,486.4844 Q721.4063,486.6406 721.9688,486.9375 L721.9688,489.6563 Q721.3438,489.0781 720.75,488.8125 Q720.1563,488.5313 719.5313,488.5313 Q718.1875,488.5313 717.5,489.6094 Q716.8125,490.6719 716.8125,492.7656 Q716.8125,494.8594 717.5,495.9375 Q718.1875,497 719.5313,497 Q720.1563,497 720.75,496.7344 Q721.3438,496.4531 721.9688,495.875 L721.9688,498.5938 Z " fill="#000000"/><text fill="#000000" font-family="sans-serif" font-size="12" lengthAdjust="spacing" textLength="55" x="733" y="497.1074">Diagonal</text><line style="stroke:#A80036;stroke-width:1.5;" x1="705" x2="790" y1="508.9531" y2="508.9531"/><line style="stroke:#A80036;stroke-width:1.5;" x1="705" x2="790" y1="516.9531" y2="516.9531"/><!--MD5=[2808de09be71fab9caf2df132bae0681]
class Horizontal--><rect codeLine="13" fill="#FEFECE" filter="url(#fb0fyuwktq0gg)" height="48" id="Horizontal" style="stroke:#A80036;stroke-width:1.5;" width="94" x="460.5" y="476.9531"/><ellipse cx="475.5" cy="492.9531" fill="#ADD1B2" rx="11" ry="11" style="stroke:#A80036;stroke-width:1.0;"/><path d="M478.4688,498.5938 Q477.8906,498.8906 477.25,499.0313 Q476.6094,499.1875 475.9063,499.1875 Q473.4063,499.1875 472.0781,497.5469 Q470.7656,495.8906 470.7656,492.7656 Q470.7656,489.6406 472.0781,487.9844 Q473.4063,486.3281 475.9063,486.3281 Q476.6094,486.3281 477.25,486.4844 Q477.9063,486.6406 478.4688,486.9375 L478.4688,489.6563 Q477.8438,489.0781 477.25,488.8125 Q476.6563,488.5313 476.0313,488.5313 Q474.6875,488.5313 474,489.6094 Q473.3125,490.6719 473.3125,492.7656 Q473.3125,494.8594 474,495.9375 Q474.6875,497 476.0313,497 Q476.6563,497 477.25,496.7344 Q477.8438,496.4531 478.4688,495.875 L478.4688,498.5938 Z " fill="#000000"/><text fill="#000000" font-family="sans-serif" font-size="12" lengthAdjust="spacing" textLength="62" x="489.5" y="497.1074">Horizontal</text><line style="stroke:#A80036;stroke-width:1.5;" x1="461.5" x2="553.5" y1="508.9531" y2="508.9531"/><line style="stroke:#A80036;stroke-width:1.5;" x1="461.5" x2="553.5" y1="516.9531" y2="516.9531"/><!--MD5=[9ddfc9bd1e3a4b04466623ab197feef8]
class Vertical--><rect codeLine="14" fill="#FEFECE" filter="url(#fb0fyuwktq0gg)" height="48" id="Vertical" style="stroke:#A80036;stroke-width:1.5;" width="79" x="590" y="476.9531"/><ellipse cx="605" cy="492.9531" fill="#ADD1B2" rx="11" ry="11" style="stroke:#A80036;stroke-width:1.0;"/><path d="M607.9688,498.5938 Q607.3906,498.8906 606.75,499.0313 Q606.1094,499.1875 605.4063,499.1875 Q602.9063,499.1875 601.5781,497.5469 Q600.2656,495.8906 600.2656,492.7656 Q600.2656,489.6406 601.5781,487.9844 Q602.9063,486.3281 605.4063,486.3281 Q606.1094,486.3281 606.75,486.4844 Q607.4063,486.6406 607.9688,486.9375 L607.9688,489.6563 Q607.3438,489.0781 606.75,488.8125 Q606.1563,488.5313 605.5313,488.5313 Q604.1875,488.5313 603.5,489.6094 Q602.8125,490.6719 602.8125,492.7656 Q602.8125,494.8594 603.5,495.9375 Q604.1875,497 605.5313,497 Q606.1563,497 606.75,496.7344 Q607.3438,496.4531 607.9688,495.875 L607.9688,498.5938 Z " fill="#000000"/><text fill="#000000" font-family="sans-serif" font-size="12" lengthAdjust="spacing" textLength="47" x="619" y="497.1074">Vertical</text><line style="stroke:#A80036;stroke-width:1.5;" x1="591" x2="668" y1="508.9531" y2="508.9531"/><line style="stroke:#A80036;stroke-width:1.5;" x1="591" x2="668" y1="516.9531" y2="516.9531"/><!--MD5=[90c81c5abb68fc1cf50baa0b36284b44]
class Insert--><rect codeLine="15" fill="#FEFECE" filter="url(#fb0fyuwktq0gg)" height="48" id="Insert" style="stroke:#A80036;stroke-width:1.5;" width="68" x="122.5" y="476.9531"/><ellipse cx="137.5" cy="492.9531" fill="#ADD1B2" rx="11" ry="11" style="stroke:#A80036;stroke-width:1.0;"/><path d="M140.4688,498.5938 Q139.8906,498.8906 139.25,499.0313 Q138.6094,499.1875 137.9063,499.1875 Q135.4063,499.1875 134.0781,497.5469 Q132.7656,495.8906 132.7656,492.7656 Q132.7656,489.6406 134.0781,487.9844 Q135.4063,486.3281 137.9063,486.3281 Q138.6094,486.3281 139.25,486.4844 Q139.9063,486.6406 140.4688,486.9375 L140.4688,489.6563 Q139.8438,489.0781 139.25,488.8125 Q138.6563,488.5313 138.0313,488.5313 Q136.6875,488.5313 136,489.6094 Q135.3125,490.6719 135.3125,492.7656 Q135.3125,494.8594 136,495.9375 Q136.6875,497 138.0313,497 Q138.6563,497 139.25,496.7344 Q139.8438,496.4531 140.4688,495.875 L140.4688,498.5938 Z " fill="#000000"/><text fill="#000000" font-family="sans-serif" font-size="12" lengthAdjust="spacing" textLength="36" x="151.5" y="497.1074">Insert</text><line style="stroke:#A80036;stroke-width:1.5;" x1="123.5" x2="189.5" y1="508.9531" y2="508.9531"/><line style="stroke:#A80036;stroke-width:1.5;" x1="123.5" x2="189.5" y1="516.9531" y2="516.9531"/><!--MD5=[d8c8cfd5ca149094f5b67f9f607a5ec7]
class Token--><rect codeLine="16" fill="#FEFECE" filter="url(#fb0fyuwktq0gg)" height="48" id="Token" style="stroke:#A80036;stroke-width:1.5;" width="70" x="143.5" y="707.9531"/><ellipse cx="158.5" cy="723.9531" fill="#ADD1B2" rx="11" ry="11" style="stroke:#A80036;stroke-width:1.0;"/><path d="M161.4688,729.5938 Q160.8906,729.8906 160.25,730.0313 Q159.6094,730.1875 158.9063,730.1875 Q156.4063,730.1875 155.0781,728.5469 Q153.7656,726.8906 153.7656,723.7656 Q153.7656,720.6406 155.0781,718.9844 Q156.4063,717.3281 158.9063,717.3281 Q159.6094,717.3281 160.25,717.4844 Q160.9063,717.6406 161.4688,717.9375 L161.4688,720.6563 Q160.8438,720.0781 160.25,719.8125 Q159.6563,719.5313 159.0313,719.5313 Q157.6875,719.5313 157,720.6094 Q156.3125,721.6719 156.3125,723.7656 Q156.3125,725.8594 157,726.9375 Q157.6875,728 159.0313,728 Q159.6563,728 160.25,727.7344 Q160.8438,727.4531 161.4688,726.875 L161.4688,729.5938 Z " fill="#000000"/><text fill="#000000" font-family="sans-serif" font-size="12" lengthAdjust="spacing" textLength="38" x="172.5" y="728.1074">Token</text><line style="stroke:#A80036;stroke-width:1.5;" x1="144.5" x2="212.5" y1="739.9531" y2="739.9531"/><line style="stroke:#A80036;stroke-width:1.5;" x1="144.5" x2="212.5" y1="747.9531" y2="747.9531"/><!--MD5=[5655ee3e2a0d028d03fe20f829576392]
class Square--><rect codeLine="17" fill="#FEFECE" filter="url(#fb0fyuwktq0gg)" height="48" id="Square" style="stroke:#A80036;stroke-width:1.5;" width="77" x="33" y="585.9531"/><ellipse cx="48" cy="601.9531" fill="#ADD1B2" rx="11" ry="11" style="stroke:#A80036;stroke-width:1.0;"/><path d="M50.9688,607.5938 Q50.3906,607.8906 49.75,608.0313 Q49.1094,608.1875 48.4063,608.1875 Q45.9063,608.1875 44.5781,606.5469 Q43.2656,604.8906 43.2656,601.7656 Q43.2656,598.6406 44.5781,596.9844 Q45.9063,595.3281 48.4063,595.3281 Q49.1094,595.3281 49.75,595.4844 Q50.4063,595.6406 50.9688,595.9375 L50.9688,598.6563 Q50.3438,598.0781 49.75,597.8125 Q49.1563,597.5313 48.5313,597.5313 Q47.1875,597.5313 46.5,598.6094 Q45.8125,599.6719 45.8125,601.7656 Q45.8125,603.8594 46.5,604.9375 Q47.1875,606 48.5313,606 Q49.1563,606 49.75,605.7344 Q50.3438,605.4531 50.9688,604.875 L50.9688,607.5938 Z " fill="#000000"/><text fill="#000000" font-family="sans-serif" font-size="12" lengthAdjust="spacing" textLength="45" x="62" y="606.1074">Square</text><line style="stroke:#A80036;stroke-width:1.5;" x1="34" x2="109" y1="617.9531" y2="617.9531"/><line style="stroke:#A80036;stroke-width:1.5;" x1="34" x2="109" y1="625.9531" y2="625.9531"/><!--MD5=[8c7d7abc12e214c3cc12c9ab70edee11]
class Coordinate--><rect codeLine="18" fill="#FEFECE" filter="url(#fb0fyuwktq0gg)" height="73.6094" id="Coordinate" style="stroke:#A80036;stroke-width:1.5;" width="101" x="7" y="694.9531"/><ellipse cx="22" cy="710.9531" fill="#ADD1B2" rx="11" ry="11" style="stroke:#A80036;stroke-width:1.0;"/><path d="M24.9688,716.5938 Q24.3906,716.8906 23.75,717.0313 Q23.1094,717.1875 22.4063,717.1875 Q19.9063,717.1875 18.5781,715.5469 Q17.2656,713.8906 17.2656,710.7656 Q17.2656,707.6406 18.5781,705.9844 Q19.9063,704.3281 22.4063,704.3281 Q23.1094,704.3281 23.75,704.4844 Q24.4063,704.6406 24.9688,704.9375 L24.9688,707.6563 Q24.3438,707.0781 23.75,706.8125 Q23.1563,706.5313 22.5313,706.5313 Q21.1875,706.5313 20.5,707.6094 Q19.8125,708.6719 19.8125,710.7656 Q19.8125,712.8594 20.5,713.9375 Q21.1875,715 22.5313,715 Q23.1563,715 23.75,714.7344 Q24.3438,714.4531 24.9688,713.875 L24.9688,716.5938 Z " fill="#000000"/><text fill="#000000" font-family="sans-serif" font-size="12" lengthAdjust="spacing" textLength="69" x="36" y="715.1074">Coordinate</text><line style="stroke:#A80036;stroke-width:1.5;" x1="8" x2="107" y1="726.9531" y2="726.9531"/><text fill="#000000" font-family="sans-serif" font-size="11" lengthAdjust="spacing" textLength="30" x="13" y="741.1636">RawX</text><text fill="#000000" font-family="sans-serif" font-size="11" lengthAdjust="spacing" textLength="43" x="13" y="753.9683">ColumY</text><line style="stroke:#A80036;stroke-width:1.5;" x1="8" x2="107" y1="760.5625" y2="760.5625"/><!--MD5=[18eee71c88ab61f27581b8cbdd3ef5ee]
class Color--><rect codeLine="22" fill="#FEFECE" filter="url(#fb0fyuwktq0gg)" height="73.6094" id="Color" style="stroke:#A80036;stroke-width:1.5;" width="64" x="146.5" y="829.9531"/><ellipse cx="161.5" cy="845.9531" fill="#EB937F" rx="11" ry="11" style="stroke:#A80036;stroke-width:1.0;"/><path d="M165.6094,851.9531 L157.8906,851.9531 L157.8906,839.5625 L165.6094,839.5625 L165.6094,841.7188 L160.3438,841.7188 L160.3438,844.3906 L165.1094,844.3906 L165.1094,846.5469 L160.3438,846.5469 L160.3438,849.7969 L165.6094,849.7969 L165.6094,851.9531 Z " fill="#000000"/><text fill="#000000" font-family="sans-serif" font-size="12" lengthAdjust="spacing" textLength="32" x="175.5" y="850.1074">Color</text><line style="stroke:#A80036;stroke-width:1.5;" x1="147.5" x2="209.5" y1="861.9531" y2="861.9531"/><text fill="#000000" font-family="sans-serif" font-size="11" lengthAdjust="spacing" textLength="25" x="152.5" y="876.1636">Blue</text><text fill="#000000" font-family="sans-serif" font-size="11" lengthAdjust="spacing" textLength="21" x="152.5" y="888.9683">Red</text><line style="stroke:#A80036;stroke-width:1.5;" x1="147.5" x2="209.5" y1="895.5625" y2="895.5625"/><!--MD5=[d1b33a06e11883aa1e2def855c8d24d4]
link Conecta4 to Turn--><path codeLine="27" d="M208.5,88.1731 C208.5,88.1731 208.5,112.4531 208.5,123.5131 " fill="none" id="Conecta4-Turn" style="stroke:#A80036;stroke-width:1.0;"/><polygon fill="#A80036" points="208.5,136.7831,212.5,127.7831,208.5,131.7831,204.5,127.7831,208.5,136.7831" style="stroke:#A80036;stroke-width:1.0;"/><line style="stroke:#A80036;stroke-width:1.0;" x1="208.5" x2="208.5" y1="131.7831" y2="123.7831"/><polygon fill="#A80036" points="208.5,76.1731,204.5,82.1731,208.5,88.1731,212.5,82.1731,208.5,76.1731" style="stroke:#A80036;stroke-width:1.0;"/><!--MD5=[d81713d91ad05be3b975338c4816ee0b]
link Turn to Player--><path codeLine="28" d="M225.5,185.1931 C237.4,201.4731 253.5,223.4831 266.81,241.6931 " fill="none" id="Turn-to-Player" style="stroke:#A80036;stroke-width:1.0;"/><polygon fill="#A80036" points="269.79,245.7631,267.7274,236.1327,266.8474,241.7207,261.2594,240.8408,269.79,245.7631" style="stroke:#A80036;stroke-width:1.0;"/><text fill="#000000" font-family="sans-serif" font-size="13" lengthAdjust="spacing" textLength="8" x="256.4873" y="234.9872">2</text><!--MD5=[25c3150e50da74dcc810ca1839027bfc]
link Conecta4 to Player--><path codeLine="29" d="M230.2608,86.1835 C230.2608,86.1835 249.61,119.8631 256.5,136.9531 C269.06,168.0831 278.12,205.0131 283.87,232.9031 " fill="none" id="Conecta4-Player" style="stroke:#A80036;stroke-width:1.0;"/><polygon fill="#A80036" points="286.43,245.8131,288.6018,236.2067,285.4568,240.9087,280.7548,237.7638,286.43,245.8131" style="stroke:#A80036;stroke-width:1.0;"/><line style="stroke:#A80036;stroke-width:1.0;" x1="285.4568" x2="283.9" y1="240.9087" y2="233.0581"/><polygon fill="#A80036" points="223.94,75.9831,223.7003,83.1902,230.2608,86.1835,230.5005,78.9764,223.94,75.9831" style="stroke:#A80036;stroke-width:1.0;"/><text fill="#000000" font-family="sans-serif" font-size="13" lengthAdjust="spacing" textLength="8" x="276.5593" y="235.0475">2</text><!--MD5=[e018ed0913258b803264571def57fa62]
link Conecta4 to Board--><path codeLine="30" d="M176.465,84.8331 C176.465,84.8331 92.62,182.4731 72.5,245.9531 C64.31,271.7931 65.66,280.7231 72.5,306.9531 C77.06,324.4331 86.15,342.1331 95.13,356.7431 " fill="none" id="Conecta4-Board" style="stroke:#A80036;stroke-width:1.0;"/><polygon fill="#A80036" points="102.22,367.7331,100.707,358.0012,99.5115,363.5303,93.9824,362.3348,102.22,367.7331" style="stroke:#A80036;stroke-width:1.0;"/><line style="stroke:#A80036;stroke-width:1.0;" x1="99.5115" x2="95.175" y1="363.5303" y2="356.8081"/><polygon fill="#A80036" points="184.73,76.1331,177.6975,77.7281,176.465,84.8331,183.4975,83.2381,184.73,76.1331" style="stroke:#A80036;stroke-width:1.0;"/><!--MD5=[525e20984b3f0335f86e1ed389de5b3d]
link Player to Token--><path codeLine="31" d="M271.14,307.3231 C258.06,329.4231 243.5,360.7831 243.5,390.9531 C243.5,390.9531 243.5,390.9531 243.5,610.9531 C243.5,645.9731 221.83,680.5531 203.52,703.5331 " fill="none" id="Player-to-Token" style="stroke:#A80036;stroke-width:1.0;"/><polygon fill="#A80036" points="200.14,707.6831,208.9099,703.201,203.2843,703.7956,202.6898,698.17,200.14,707.6831" style="stroke:#A80036;stroke-width:1.0;"/><text fill="#000000" font-family="sans-serif" font-size="13" lengthAdjust="spacing" textLength="16" x="187.4647" y="697.0223">21</text><!--MD5=[1571e4e0b7cdbae74b04c97a95677c54]
link Player to Goal--><path codeLine="32" d="M352.63,293.5131 C412.18,309.8431 504.82,337.0731 582.5,367.9531 C586.5,369.5431 590.64,371.3331 594.72,373.2031 " fill="none" id="Player-to-Goal" style="stroke:#A80036;stroke-width:1.0;"/><polygon fill="#A80036" points="599.47,375.4131,592.9879,367.9981,594.934,373.3097,589.6224,375.2557,599.47,375.4131" style="stroke:#A80036;stroke-width:1.0;"/><!--MD5=[dedaf8e9d94fd584b64552bee4f3e762]
link Goal to Insert--><path codeLine="33" d="M599.4,409.1131 C593.88,411.6531 588.1,414.0731 582.5,415.9531 C444.54,462.4231 272.31,486.5831 196.01,495.6531 " fill="none" id="Goal-to-Insert" style="stroke:#A80036;stroke-width:1.0;stroke-dasharray:7.0,7.0;"/><polygon fill="#A80036" points="190.69,496.2731,200.0962,499.1926,195.6557,495.6881,199.1602,491.2475,190.69,496.2731" style="stroke:#A80036;stroke-width:1.0;"/><text fill="#000000" font-family="sans-serif" font-size="13" lengthAdjust="spacing" textLength="40" x="198.6492" y="491.5608">...4.21</text><!--MD5=[c1f7e88598f78d9459764ed93737eb14]
link Player to Board--><path codeLine="34" d="M246.76,306.9731 C219.47,324.9831 184.92,347.7831 158.71,365.0831 " fill="none" id="Player-to-Board" style="stroke:#A80036;stroke-width:1.0;"/><polygon fill="#A80036" points="154.25,368.0231,163.9676,366.4207,158.4278,365.2761,159.5724,359.7362,154.25,368.0231" style="stroke:#A80036;stroke-width:1.0;"/><!--MD5=[5a16bdf27515cf253385e973d6fbc781]
reverse link Goal to Diagonal--><path codeLine="35" d="M670.06,429.7331 C687.27,445.3331 706.8,463.0531 721.95,476.7831 " fill="none" id="Goal-backto-Diagonal" style="stroke:#A80036;stroke-width:1.0;"/><polygon fill="none" points="665.22,434.7931,655.1,416.1731,674.62,424.4231,665.22,434.7931" style="stroke:#A80036;stroke-width:1.0;"/><!--MD5=[9c078bc154f9dba995e32f4ec3d43872]
reverse link Goal to Horizontal--><path codeLine="36" d="M587.84,429.4931 C569.98,445.1531 549.66,462.9831 533.92,476.7831 " fill="none" id="Goal-backto-Horizontal" style="stroke:#A80036;stroke-width:1.0;"/><polygon fill="none" points="583.38,424.0931,603.03,416.1731,592.61,434.6231,583.38,424.0931" style="stroke:#A80036;stroke-width:1.0;"/><!--MD5=[3e26d6834a71a9527f7b0beabb13c375]
reverse link Goal to Vertical--><path codeLine="37" d="M629.5,436.5331 C629.5,450.3131 629.5,465.0131 629.5,476.7831 " fill="none" id="Goal-backto-Vertical" style="stroke:#A80036;stroke-width:1.0;"/><polygon fill="none" points="622.5,436.1731,629.5,416.1731,636.5,436.1731,622.5,436.1731" style="stroke:#A80036;stroke-width:1.0;"/><!--MD5=[4ad96441c8a01d959d4bf4f2a5e1a798]
link Board to Square--><path codeLine="38" d="M99.7197,426.8589 C99.7197,426.8589 83.85,460.0931 79.5,476.9531 C71.34,508.5631 69.78,545.7931 70,572.6331 " fill="none" id="Board-Square" style="stroke:#A80036;stroke-width:1.0;"/><polygon fill="#A80036" points="70.26,585.6431,74.0912,576.57,70.1666,580.644,66.0926,576.7194,70.26,585.6431" style="stroke:#A80036;stroke-width:1.0;"/><line style="stroke:#A80036;stroke-width:1.0;" x1="70.1666" x2="70" y1="580.644" y2="572.6481"/><polygon fill="#A80036" points="105.39,416.2831,99.0296,419.6809,99.7197,426.8589,106.0801,423.4611,105.39,416.2831" style="stroke:#A80036;stroke-width:1.0;"/><text fill="#000000" font-family="sans-serif" font-size="13" lengthAdjust="spacing" textLength="23" x="80.5" y="505.52">6x7</text><!--MD5=[68b60e1c14d37edd3429fdbc431cc9de]
link Board to Insert--><path codeLine="39" d="M127.53,416.1731 C133.2,432.5731 140.83,454.6431 146.84,472.0131 " fill="none" id="Board-to-Insert" style="stroke:#A80036;stroke-width:1.0;"/><polygon fill="#A80036" points="148.49,476.7831,149.3412,466.9711,146.8618,472.0557,141.7773,469.5762,148.49,476.7831" style="stroke:#A80036;stroke-width:1.0;"/><text fill="#000000" font-family="sans-serif" font-size="13" lengthAdjust="spacing" textLength="36" x="105.8249" y="465.7516">..7.42</text><!--MD5=[4fe3ac5689c8257d474b476b22c0b48c]
link Insert to Token--><path codeLine="40" d="M158.73,525.1731 C162.79,567.4331 171.37,656.7831 175.77,702.5731 " fill="none" id="Insert-to-Token" style="stroke:#A80036;stroke-width:1.0;"/><polygon fill="#A80036" points="176.26,707.6731,179.395,698.3365,175.7893,702.6953,171.4305,699.0896,176.26,707.6731" style="stroke:#A80036;stroke-width:1.0;"/><!--MD5=[3130c0f37610df3462578b7b627ac436]
link Insert to Square--><path codeLine="41" d="M138.06,525.1731 C124.91,541.7131 107.19,564.0231 93.34,581.4631 " fill="none" id="Insert-to-Square" style="stroke:#A80036;stroke-width:1.0;"/><polygon fill="#A80036" points="89.91,585.7831,98.6436,581.2307,93.023,581.8704,92.3833,576.2499,89.91,585.7831" style="stroke:#A80036;stroke-width:1.0;"/><!--MD5=[d1718f8040beedd4df7f7517ac9b645a]
link Square to Coordinate--><path codeLine="42" d="M67.4025,646.0115 C67.4025,646.0115 64.61,669.9731 63.27,681.4931 " fill="none" id="Square-Coordinate" style="stroke:#A80036;stroke-width:1.0;"/><polygon fill="#A80036" points="61.73,694.6631,66.7509,686.1902,62.3123,689.6971,58.8053,685.2585,61.73,694.6631" style="stroke:#A80036;stroke-width:1.0;"/><line style="stroke:#A80036;stroke-width:1.0;" x1="62.3123" x2="63.24" y1="689.6971" y2="681.7531"/><polygon fill="#A80036" points="68.8,634.0931,64.1285,639.5865,67.4025,646.0115,72.074,640.5181,68.8,634.0931" style="stroke:#A80036;stroke-width:1.0;"/><!--MD5=[149cae8cf32ad8a543109e418a1d624f]
reverse link Square to Token--><path codeLine="43" d="M95.55,637.9231 C114.32,658.9731 140.11,687.9031 157.93,707.8831 " fill="none" id="Square-backto-Token" style="stroke:#A80036;stroke-width:1.0;stroke-dasharray:7.0,7.0;"/><polygon fill="#A80036" points="92.13,634.0931,95.1397,643.4709,95.4598,637.8231,101.1076,638.1432,92.13,634.0931" style="stroke:#A80036;stroke-width:1.0;"/><text fill="#000000" font-family="sans-serif" font-size="13" lengthAdjust="spacing" textLength="28" x="121.0714" y="696.8772">..0.1</text><!--MD5=[304335c530676c0c2555e056aeeb939b]
link Token to Color--><path codeLine="44" d="M178.5,756.1231 C178.5,775.0131 178.5,802.1631 178.5,824.7431 " fill="none" id="Token-to-Color" style="stroke:#A80036;stroke-width:1.0;"/><polygon fill="#A80036" points="178.5,829.7831,182.5,820.7831,178.5,824.7831,174.5,820.7831,178.5,829.7831" style="stroke:#A80036;stroke-width:1.0;"/><!--MD5=[c9623824a657a7ed954464799b664239]
@startuml
title Conecta4 

class Conecta4
class Turn
class Player{
Player Turn:"Value"
}
note left: Red and Blue
class Board
class Goal
note left: Insert 4 tokens of the same color class
class Diagonal
class Horizontal
class Vertical
class Insert
class Token
class Square
class Coordinate{
RawX
ColumY
}
enum Color{
Blue
Red
}

Conecta4 *- -> Turn
Turn  - -> "2" Player
Conecta4 *- -> "2" Player
Conecta4 *- -> Board
Player  - -> "21" Token
Player - -> Goal
Goal ..> "...4.21" Insert
Player  - -> Board 
Goal <|- - Diagonal
Goal <|- - Horizontal
Goal <|- - Vertical
Board *- -> Square : 6x7
Board  - -> "..7.42" Insert
Insert  - -> Token
Insert  - -> Square
Square *- -> Coordinate
Square <.. "..0.1" Token
Token - -> Color
@enduml

PlantUML version 1.2021.16(Wed Dec 08 17:25:22 UTC 2021)
(GPL source distribution)
Java Runtime: OpenJDK Runtime Environment
JVM: OpenJDK 64-Bit Server VM
Default Encoding: UTF-8
Language: en
Country: US
--></g></svg>