<?xml version="1.0" encoding="UTF-8" standalone="no"?><svg xmlns="http://www.w3.org/2000/svg" xmlns:xlink="http://www.w3.org/1999/xlink" contentScriptType="application/ecmascript" contentStyleType="text/css" height="984px" preserveAspectRatio="none" style="width:644px;height:984px;" version="1.1" viewBox="0 0 644 984" width="644px" zoomAndPan="magnify"><defs><filter height="300%" id="f1qay6r6awha5b" width="300%" x="-1" y="-1"><feGaussianBlur result="blurOut" stdDeviation="2.0"/><feColorMatrix in="blurOut" result="blurOut2" type="matrix" values="0 0 0 0 0 0 0 0 0 0 0 0 0 0 0 0 0 0 .4 0"/><feOffset dx="4.0" dy="4.0" in="blurOut2" result="blurOut3"/><feBlend in="SourceGraphic" in2="blurOut3" mode="normal"/></filter></defs><g><!--MD5=[5d3822d29342fbd355d1b65ea3562ec9]
class GameView--><rect fill="#FEFECE" filter="url(#f1qay6r6awha5b)" height="150.4375" id="GameView" style="stroke: #A80036; stroke-width: 1.5;" width="329" x="86.5" y="8"/><ellipse cx="214.75" cy="24" fill="#ADD1B2" rx="11" ry="11" style="stroke: #A80036; stroke-width: 1.0;"/><path d="M217.7188,29.6406 Q217.1406,29.9375 216.5,30.0781 Q215.8594,30.2344 215.1563,30.2344 Q212.6563,30.2344 211.3281,28.5938 Q210.0156,26.9375 210.0156,23.8125 Q210.0156,20.6875 211.3281,19.0313 Q212.6563,17.375 215.1563,17.375 Q215.8594,17.375 216.5,17.5313 Q217.1563,17.6875 217.7188,17.9844 L217.7188,20.7031 Q217.0938,20.125 216.5,19.8594 Q215.9063,19.5781 215.2813,19.5781 Q213.9375,19.5781 213.25,20.6563 Q212.5625,21.7188 212.5625,23.8125 Q212.5625,25.9063 213.25,26.9844 Q213.9375,28.0469 215.2813,28.0469 Q215.9063,28.0469 216.5,27.7813 Q217.0938,27.5 217.7188,26.9219 L217.7188,29.6406 Z "/><text fill="#000000" font-family="sans-serif" font-size="12" lengthAdjust="spacingAndGlyphs" textLength="64" x="235.25" y="28.1543">GameView</text><line style="stroke: #A80036; stroke-width: 1.5;" x1="87.5" x2="414.5" y1="40" y2="40"/><rect fill="none" height="6" style="stroke: #C82930; stroke-width: 1.0;" width="6" x="94.5" y="48"/><text fill="#000000" font-family="sans-serif" font-size="11" lengthAdjust="spacingAndGlyphs" textLength="32" x="106.5" y="54.2104">game</text><rect fill="none" height="6" style="stroke: #C82930; stroke-width: 1.0;" width="6" x="94.5" y="60.8047"/><text fill="#000000" font-family="sans-serif" font-size="11" lengthAdjust="spacingAndGlyphs" textLength="49" x="106.5" y="67.0151">turnView</text><rect fill="none" height="6" style="stroke: #C82930; stroke-width: 1.0;" width="6" x="94.5" y="73.6094"/><text fill="#000000" font-family="sans-serif" font-size="11" lengthAdjust="spacingAndGlyphs" textLength="59" x="106.5" y="79.8198">boardView</text><line style="stroke: #A80036; stroke-width: 1.5;" x1="87.5" x2="414.5" y1="86.4141" y2="86.4141"/><text fill="#000000" font-family="sans-serif" font-size="11" lengthAdjust="spacingAndGlyphs" textLength="70" x="106.5" y="100.6245">askPlayers()</text><rect fill="#F24D5C" height="6" style="stroke: #C82930; stroke-width: 1.0;" width="6" x="94.5" y="107.2188"/><text fill="#000000" font-family="sans-serif" font-size="11" lengthAdjust="spacingAndGlyphs" textLength="303" x="106.5" y="113.4292">createNumOfPlayerButton(buttonText, numOfPlayers)</text><rect fill="#F24D5C" height="6" style="stroke: #C82930; stroke-width: 1.0;" width="6" x="94.5" y="120.0234"/><text fill="#000000" font-family="sans-serif" font-size="11" lengthAdjust="spacingAndGlyphs" textLength="173" x="106.5" y="126.2339">startNewGame(numOfPlayers)</text><rect fill="#F24D5C" height="6" style="stroke: #C82930; stroke-width: 1.0;" width="6" x="94.5" y="132.8281"/><text fill="#000000" font-family="sans-serif" font-size="11" lengthAdjust="spacingAndGlyphs" textLength="109" x="106.5" y="139.0386">dropToken(column)</text><rect fill="#F24D5C" height="6" style="stroke: #C82930; stroke-width: 1.0;" width="6" x="94.5" y="145.6328"/><text fill="#000000" font-family="sans-serif" font-size="11" lengthAdjust="spacingAndGlyphs" textLength="125" x="106.5" y="151.8433">drawPlayAgainDialog()</text><!--MD5=[0f1adae5684a082996b24e2018afd4c9]
class TurnView--><rect fill="#FEFECE" filter="url(#f1qay6r6awha5b)" height="124.8281" id="TurnView" style="stroke: #A80036; stroke-width: 1.5;" width="207" x="304.5" y="224.5"/><ellipse cx="375.75" cy="240.5" fill="#ADD1B2" rx="11" ry="11" style="stroke: #A80036; stroke-width: 1.0;"/><path d="M378.7188,246.1406 Q378.1406,246.4375 377.5,246.5781 Q376.8594,246.7344 376.1563,246.7344 Q373.6563,246.7344 372.3281,245.0938 Q371.0156,243.4375 371.0156,240.3125 Q371.0156,237.1875 372.3281,235.5313 Q373.6563,233.875 376.1563,233.875 Q376.8594,233.875 377.5,234.0313 Q378.1563,234.1875 378.7188,234.4844 L378.7188,237.2031 Q378.0938,236.625 377.5,236.3594 Q376.9063,236.0781 376.2813,236.0781 Q374.9375,236.0781 374.25,237.1563 Q373.5625,238.2188 373.5625,240.3125 Q373.5625,242.4063 374.25,243.4844 Q374.9375,244.5469 376.2813,244.5469 Q376.9063,244.5469 377.5,244.2813 Q378.0938,244 378.7188,243.4219 L378.7188,246.1406 Z "/><text fill="#000000" font-family="sans-serif" font-size="12" lengthAdjust="spacingAndGlyphs" textLength="56" x="396.25" y="244.6543">TurnView</text><line style="stroke: #A80036; stroke-width: 1.5;" x1="305.5" x2="510.5" y1="256.5" y2="256.5"/><rect fill="none" height="6" style="stroke: #C82930; stroke-width: 1.0;" width="6" x="312.5" y="264.5"/><text fill="#000000" font-family="sans-serif" font-size="11" lengthAdjust="spacingAndGlyphs" textLength="23" x="324.5" y="270.7104">turn</text><line style="stroke: #A80036; stroke-width: 1.5;" x1="305.5" x2="510.5" y1="277.3047" y2="277.3047"/><text fill="#000000" font-family="sans-serif" font-size="11" lengthAdjust="spacingAndGlyphs" textLength="96" x="310.5" y="291.5151">constructor(turn)</text><text fill="#000000" font-family="sans-serif" font-size="11" lengthAdjust="spacingAndGlyphs" textLength="109" x="310.5" y="304.3198">dropToken(column)</text><text fill="#000000" font-family="sans-serif" font-size="11" lengthAdjust="spacingAndGlyphs" textLength="154" x="310.5" y="317.1245">visitUserPlayer(userPlayer)</text><text fill="#000000" font-family="sans-serif" font-size="11" lengthAdjust="spacingAndGlyphs" textLength="195" x="310.5" y="329.9292">visitMachinePlayer(machinePlayer)</text><text fill="#000000" font-family="sans-serif" font-size="11" lengthAdjust="spacingAndGlyphs" textLength="113" x="310.5" y="342.7339">drawTurnMessage()</text><!--MD5=[9b237e88d697a058bd530d6510c96c00]
class BoardView--><rect fill="#FEFECE" filter="url(#f1qay6r6awha5b)" height="137.6328" id="BoardView" style="stroke: #A80036; stroke-width: 1.5;" width="192" x="6" y="218"/><ellipse cx="65.25" cy="234" fill="#ADD1B2" rx="11" ry="11" style="stroke: #A80036; stroke-width: 1.0;"/><path d="M68.2188,239.6406 Q67.6406,239.9375 67,240.0781 Q66.3594,240.2344 65.6563,240.2344 Q63.1563,240.2344 61.8281,238.5938 Q60.5156,236.9375 60.5156,233.8125 Q60.5156,230.6875 61.8281,229.0313 Q63.1563,227.375 65.6563,227.375 Q66.3594,227.375 67,227.5313 Q67.6563,227.6875 68.2188,227.9844 L68.2188,230.7031 Q67.5938,230.125 67,229.8594 Q66.4063,229.5781 65.7813,229.5781 Q64.4375,229.5781 63.75,230.6563 Q63.0625,231.7188 63.0625,233.8125 Q63.0625,235.9063 63.75,236.9844 Q64.4375,238.0469 65.7813,238.0469 Q66.4063,238.0469 67,237.7813 Q67.5938,237.5 68.2188,236.9219 L68.2188,239.6406 Z "/><text fill="#000000" font-family="sans-serif" font-size="12" lengthAdjust="spacingAndGlyphs" textLength="65" x="85.75" y="238.1543">BoardView</text><line style="stroke: #A80036; stroke-width: 1.5;" x1="7" x2="197" y1="250" y2="250"/><rect fill="none" height="6" style="stroke: #C82930; stroke-width: 1.0;" width="6" x="14" y="258"/><text fill="#000000" font-family="sans-serif" font-size="11" lengthAdjust="spacingAndGlyphs" textLength="33" x="26" y="264.2104">board</text><line style="stroke: #A80036; stroke-width: 1.5;" x1="7" x2="197" y1="270.8047" y2="270.8047"/><text fill="#000000" font-family="sans-serif" font-size="11" lengthAdjust="spacingAndGlyphs" textLength="106" x="26" y="285.0151">constructor(board)</text><rect fill="#F24D5C" height="6" style="stroke: #C82930; stroke-width: 1.0;" width="6" x="14" y="291.6094"/><text fill="#000000" font-family="sans-serif" font-size="11" lengthAdjust="spacingAndGlyphs" textLength="35" x="26" y="297.8198">build()</text><text fill="#000000" font-family="sans-serif" font-size="11" lengthAdjust="spacingAndGlyphs" textLength="166" x="26" y="310.6245">setControlsCallback(callback)</text><text fill="#000000" font-family="sans-serif" font-size="11" lengthAdjust="spacingAndGlyphs" textLength="99" x="26" y="323.4292">removeControls()</text><text fill="#000000" font-family="sans-serif" font-size="11" lengthAdjust="spacingAndGlyphs" textLength="68" x="26" y="336.2339">dropToken()</text><text fill="#000000" font-family="sans-serif" font-size="11" lengthAdjust="spacingAndGlyphs" textLength="82" x="26" y="349.0386">resultActions()</text><!--MD5=[93d865571f3eb9eddb1d48cbc1646a59]
class MachinePlayerView--><rect fill="#FEFECE" filter="url(#f1qay6r6awha5b)" height="73.6094" id="MachinePlayerView" style="stroke: #A80036; stroke-width: 1.5;" width="150" x="321" y="683"/><ellipse cx="336" cy="699" fill="#ADD1B2" rx="11" ry="11" style="stroke: #A80036; stroke-width: 1.0;"/><path d="M338.9688,704.6406 Q338.3906,704.9375 337.75,705.0781 Q337.1094,705.2344 336.4063,705.2344 Q333.9063,705.2344 332.5781,703.5938 Q331.2656,701.9375 331.2656,698.8125 Q331.2656,695.6875 332.5781,694.0313 Q333.9063,692.375 336.4063,692.375 Q337.1094,692.375 337.75,692.5313 Q338.4063,692.6875 338.9688,692.9844 L338.9688,695.7031 Q338.3438,695.125 337.75,694.8594 Q337.1563,694.5781 336.5313,694.5781 Q335.1875,694.5781 334.5,695.6563 Q333.8125,696.7188 333.8125,698.8125 Q333.8125,700.9063 334.5,701.9844 Q335.1875,703.0469 336.5313,703.0469 Q337.1563,703.0469 337.75,702.7813 Q338.3438,702.5 338.9688,701.9219 L338.9688,704.6406 Z "/><text fill="#000000" font-family="sans-serif" font-size="12" lengthAdjust="spacingAndGlyphs" textLength="118" x="350" y="703.1543">MachinePlayerView</text><line style="stroke: #A80036; stroke-width: 1.5;" x1="322" x2="470" y1="715" y2="715"/><line style="stroke: #A80036; stroke-width: 1.5;" x1="322" x2="470" y1="723" y2="723"/><text fill="#000000" font-family="sans-serif" font-size="11" lengthAdjust="spacingAndGlyphs" textLength="108" x="327" y="737.2104">constructor(player)</text><text fill="#000000" font-family="sans-serif" font-size="11" lengthAdjust="spacingAndGlyphs" textLength="69" x="327" y="750.0151">getColumn()</text><!--MD5=[af194e474b2c37e443a340884399de77]
class PlayerView--><rect fill="#FEFECE" filter="url(#f1qay6r6awha5b)" height="99.2188" id="PlayerView" style="stroke: #A80036; stroke-width: 1.5;" width="121" x="347.5" y="524"/><ellipse cx="372.4" cy="540" fill="#A9DCDF" rx="11" ry="11" style="stroke: #A80036; stroke-width: 1.0;"/><path d="M372.5094,535.3438 L371.3531,540.4219 L373.6813,540.4219 L372.5094,535.3438 Z M371.025,533.1094 L374.0094,533.1094 L377.3688,545.5 L374.9156,545.5 L374.15,542.4375 L370.8688,542.4375 L370.1188,545.5 L367.6813,545.5 L371.025,533.1094 Z "/><text fill="#000000" font-family="sans-serif" font-size="12" font-style="italic" lengthAdjust="spacingAndGlyphs" textLength="67" x="388.6" y="544.1543">PlayerView</text><line style="stroke: #A80036; stroke-width: 1.5;" x1="348.5" x2="467.5" y1="556" y2="556"/><rect fill="none" height="6" style="stroke: #C82930; stroke-width: 1.0;" width="6" x="355.5" y="564"/><text fill="#000000" font-family="sans-serif" font-size="11" lengthAdjust="spacingAndGlyphs" textLength="35" x="367.5" y="570.2104">player</text><line style="stroke: #A80036; stroke-width: 1.5;" x1="348.5" x2="467.5" y1="576.8047" y2="576.8047"/><text fill="#000000" font-family="sans-serif" font-size="11" lengthAdjust="spacingAndGlyphs" textLength="108" x="353.5" y="591.0151">constructor(player)</text><text fill="#000000" font-family="sans-serif" font-size="11" lengthAdjust="spacingAndGlyphs" textLength="109" x="353.5" y="603.8198">dropToken(column)</text><text fill="#000000" font-family="sans-serif" font-size="11" lengthAdjust="spacingAndGlyphs" textLength="69" x="353.5" y="616.6245">getColumn()</text><!--MD5=[1fa50a3f0c715c6cbffb2c1cd24af35f]
class UserPlayerView--><rect fill="#FEFECE" filter="url(#f1qay6r6awha5b)" height="73.6094" id="UserPlayerView" style="stroke: #A80036; stroke-width: 1.5;" width="127" x="506.5" y="683"/><ellipse cx="521.5" cy="699" fill="#ADD1B2" rx="11" ry="11" style="stroke: #A80036; stroke-width: 1.0;"/><path d="M524.4688,704.6406 Q523.8906,704.9375 523.25,705.0781 Q522.6094,705.2344 521.9063,705.2344 Q519.4063,705.2344 518.0781,703.5938 Q516.7656,701.9375 516.7656,698.8125 Q516.7656,695.6875 518.0781,694.0313 Q519.4063,692.375 521.9063,692.375 Q522.6094,692.375 523.25,692.5313 Q523.9063,692.6875 524.4688,692.9844 L524.4688,695.7031 Q523.8438,695.125 523.25,694.8594 Q522.6563,694.5781 522.0313,694.5781 Q520.6875,694.5781 520,695.6563 Q519.3125,696.7188 519.3125,698.8125 Q519.3125,700.9063 520,701.9844 Q520.6875,703.0469 522.0313,703.0469 Q522.6563,703.0469 523.25,702.7813 Q523.8438,702.5 524.4688,701.9219 L524.4688,704.6406 Z "/><text fill="#000000" font-family="sans-serif" font-size="12" lengthAdjust="spacingAndGlyphs" textLength="95" x="535.5" y="703.1543">UserPlayerView</text><line style="stroke: #A80036; stroke-width: 1.5;" x1="507.5" x2="632.5" y1="715" y2="715"/><line style="stroke: #A80036; stroke-width: 1.5;" x1="507.5" x2="632.5" y1="723" y2="723"/><text fill="#000000" font-family="sans-serif" font-size="11" lengthAdjust="spacingAndGlyphs" textLength="108" x="512.5" y="737.2104">constructor(player)</text><text fill="#000000" font-family="sans-serif" font-size="11" lengthAdjust="spacingAndGlyphs" textLength="110" x="512.5" y="750.0151">getColumn(column)</text><!--MD5=[2cb47ba637a0d19583e6199456f6ad0b]
class Player--><rect fill="#FEFECE" filter="url(#f1qay6r6awha5b)" height="48" id="Player" style="stroke: #A80036; stroke-width: 1.5;" width="70" x="273" y="817"/><ellipse cx="288" cy="833" fill="#A9DCDF" rx="11" ry="11" style="stroke: #A80036; stroke-width: 1.0;"/><path d="M288.1094,828.3438 L286.9531,833.4219 L289.2813,833.4219 L288.1094,828.3438 Z M286.625,826.1094 L289.6094,826.1094 L292.9688,838.5 L290.5156,838.5 L289.75,835.4375 L286.4688,835.4375 L285.7188,838.5 L283.2813,838.5 L286.625,826.1094 Z "/><text fill="#000000" font-family="sans-serif" font-size="12" font-style="italic" lengthAdjust="spacingAndGlyphs" textLength="38" x="302" y="837.1543">Player</text><line style="stroke: #A80036; stroke-width: 1.5;" x1="274" x2="342" y1="849" y2="849"/><line style="stroke: #A80036; stroke-width: 1.5;" x1="274" x2="342" y1="857" y2="857"/><!--MD5=[bed9476c332430e0fd8ad70c4aac2ffe]
class RandomMachinePlayer--><rect fill="#FEFECE" filter="url(#f1qay6r6awha5b)" height="48" id="RandomMachinePlayer" style="stroke: #A80036; stroke-width: 1.5;" width="173" x="265.5" y="925"/><ellipse cx="280.5" cy="941" fill="#ADD1B2" rx="11" ry="11" style="stroke: #A80036; stroke-width: 1.0;"/><path d="M283.4688,946.6406 Q282.8906,946.9375 282.25,947.0781 Q281.6094,947.2344 280.9063,947.2344 Q278.4063,947.2344 277.0781,945.5938 Q275.7656,943.9375 275.7656,940.8125 Q275.7656,937.6875 277.0781,936.0313 Q278.4063,934.375 280.9063,934.375 Q281.6094,934.375 282.25,934.5313 Q282.9063,934.6875 283.4688,934.9844 L283.4688,937.7031 Q282.8438,937.125 282.25,936.8594 Q281.6563,936.5781 281.0313,936.5781 Q279.6875,936.5781 279,937.6563 Q278.3125,938.7188 278.3125,940.8125 Q278.3125,942.9063 279,943.9844 Q279.6875,945.0469 281.0313,945.0469 Q281.6563,945.0469 282.25,944.7813 Q282.8438,944.5 283.4688,943.9219 L283.4688,946.6406 Z "/><text fill="#000000" font-family="sans-serif" font-size="12" lengthAdjust="spacingAndGlyphs" textLength="141" x="294.5" y="945.1543">RandomMachinePlayer</text><line style="stroke: #A80036; stroke-width: 1.5;" x1="266.5" x2="437.5" y1="957" y2="957"/><line style="stroke: #A80036; stroke-width: 1.5;" x1="266.5" x2="437.5" y1="965" y2="965"/><!--MD5=[d159557bab43e1f13b9627fe22d6ac69]
class UserPlayer--><rect fill="#FEFECE" filter="url(#f1qay6r6awha5b)" height="48" id="UserPlayer" style="stroke: #A80036; stroke-width: 1.5;" width="99" x="496.5" y="925"/><ellipse cx="511.5" cy="941" fill="#ADD1B2" rx="11" ry="11" style="stroke: #A80036; stroke-width: 1.0;"/><path d="M514.4688,946.6406 Q513.8906,946.9375 513.25,947.0781 Q512.6094,947.2344 511.9063,947.2344 Q509.4063,947.2344 508.0781,945.5938 Q506.7656,943.9375 506.7656,940.8125 Q506.7656,937.6875 508.0781,936.0313 Q509.4063,934.375 511.9063,934.375 Q512.6094,934.375 513.25,934.5313 Q513.9063,934.6875 514.4688,934.9844 L514.4688,937.7031 Q513.8438,937.125 513.25,936.8594 Q512.6563,936.5781 512.0313,936.5781 Q510.6875,936.5781 510,937.6563 Q509.3125,938.7188 509.3125,940.8125 Q509.3125,942.9063 510,943.9844 Q510.6875,945.0469 512.0313,945.0469 Q512.6563,945.0469 513.25,944.7813 Q513.8438,944.5 514.4688,943.9219 L514.4688,946.6406 Z "/><text fill="#000000" font-family="sans-serif" font-size="12" lengthAdjust="spacingAndGlyphs" textLength="67" x="525.5" y="945.1543">UserPlayer</text><line style="stroke: #A80036; stroke-width: 1.5;" x1="497.5" x2="594.5" y1="957" y2="957"/><line style="stroke: #A80036; stroke-width: 1.5;" x1="497.5" x2="594.5" y1="965" y2="965"/><!--MD5=[b6dcce5e5ef3c84b0b048d11301373dd]
class Game--><rect fill="#FEFECE" filter="url(#f1qay6r6awha5b)" height="48" id="Game" style="stroke: #A80036; stroke-width: 1.5;" width="68" x="216" y="416"/><ellipse cx="231" cy="432" fill="#ADD1B2" rx="11" ry="11" style="stroke: #A80036; stroke-width: 1.0;"/><path d="M233.9688,437.6406 Q233.3906,437.9375 232.75,438.0781 Q232.1094,438.2344 231.4063,438.2344 Q228.9063,438.2344 227.5781,436.5938 Q226.2656,434.9375 226.2656,431.8125 Q226.2656,428.6875 227.5781,427.0313 Q228.9063,425.375 231.4063,425.375 Q232.1094,425.375 232.75,425.5313 Q233.4063,425.6875 233.9688,425.9844 L233.9688,428.7031 Q233.3438,428.125 232.75,427.8594 Q232.1563,427.5781 231.5313,427.5781 Q230.1875,427.5781 229.5,428.6563 Q228.8125,429.7188 228.8125,431.8125 Q228.8125,433.9063 229.5,434.9844 Q230.1875,436.0469 231.5313,436.0469 Q232.1563,436.0469 232.75,435.7813 Q233.3438,435.5 233.9688,434.9219 L233.9688,437.6406 Z "/><text fill="#000000" font-family="sans-serif" font-size="12" lengthAdjust="spacingAndGlyphs" textLength="36" x="245" y="436.1543">Game</text><line style="stroke: #A80036; stroke-width: 1.5;" x1="217" x2="283" y1="448" y2="448"/><line style="stroke: #A80036; stroke-width: 1.5;" x1="217" x2="283" y1="456" y2="456"/><!--MD5=[9563755d011c5cec7ec66dc53565a59e]
class Board--><rect fill="#FEFECE" filter="url(#f1qay6r6awha5b)" height="48" id="Board" style="stroke: #A80036; stroke-width: 1.5;" width="69" x="110.5" y="549.5"/><ellipse cx="125.5" cy="565.5" fill="#ADD1B2" rx="11" ry="11" style="stroke: #A80036; stroke-width: 1.0;"/><path d="M128.4688,571.1406 Q127.8906,571.4375 127.25,571.5781 Q126.6094,571.7344 125.9063,571.7344 Q123.4063,571.7344 122.0781,570.0938 Q120.7656,568.4375 120.7656,565.3125 Q120.7656,562.1875 122.0781,560.5313 Q123.4063,558.875 125.9063,558.875 Q126.6094,558.875 127.25,559.0313 Q127.9063,559.1875 128.4688,559.4844 L128.4688,562.2031 Q127.8438,561.625 127.25,561.3594 Q126.6563,561.0781 126.0313,561.0781 Q124.6875,561.0781 124,562.1563 Q123.3125,563.2188 123.3125,565.3125 Q123.3125,567.4063 124,568.4844 Q124.6875,569.5469 126.0313,569.5469 Q126.6563,569.5469 127.25,569.2813 Q127.8438,569 128.4688,568.4219 L128.4688,571.1406 Z "/><text fill="#000000" font-family="sans-serif" font-size="12" lengthAdjust="spacingAndGlyphs" textLength="37" x="139.5" y="569.6543">Board</text><line style="stroke: #A80036; stroke-width: 1.5;" x1="111.5" x2="178.5" y1="581.5" y2="581.5"/><line style="stroke: #A80036; stroke-width: 1.5;" x1="111.5" x2="178.5" y1="589.5" y2="589.5"/><!--MD5=[dd91eae41778c45e12552e5329e240e8]
class Turn--><rect fill="#FEFECE" filter="url(#f1qay6r6awha5b)" height="48" id="Turn" style="stroke: #A80036; stroke-width: 1.5;" width="60" x="238" y="549.5"/><ellipse cx="253" cy="565.5" fill="#ADD1B2" rx="11" ry="11" style="stroke: #A80036; stroke-width: 1.0;"/><path d="M255.9688,571.1406 Q255.3906,571.4375 254.75,571.5781 Q254.1094,571.7344 253.4063,571.7344 Q250.9063,571.7344 249.5781,570.0938 Q248.2656,568.4375 248.2656,565.3125 Q248.2656,562.1875 249.5781,560.5313 Q250.9063,558.875 253.4063,558.875 Q254.1094,558.875 254.75,559.0313 Q255.4063,559.1875 255.9688,559.4844 L255.9688,562.2031 Q255.3438,561.625 254.75,561.3594 Q254.1563,561.0781 253.5313,561.0781 Q252.1875,561.0781 251.5,562.1563 Q250.8125,563.2188 250.8125,565.3125 Q250.8125,567.4063 251.5,568.4844 Q252.1875,569.5469 253.5313,569.5469 Q254.1563,569.5469 254.75,569.2813 Q255.3438,569 255.9688,568.4219 L255.9688,571.1406 Z "/><text fill="#000000" font-family="sans-serif" font-size="12" lengthAdjust="spacingAndGlyphs" textLength="28" x="267" y="569.6543">Turn</text><line style="stroke: #A80036; stroke-width: 1.5;" x1="239" x2="297" y1="581.5" y2="581.5"/><line style="stroke: #A80036; stroke-width: 1.5;" x1="239" x2="297" y1="589.5" y2="589.5"/><!--MD5=[ca04c0eda4482e2f74e8c9b82fcb79bf]
link GameView to Game--><path d="M250.79,158.42 C250.57,237.01 250.23,356.85 250.08,410.87 " fill="none" id="GameView-&gt;Game" style="stroke: #A80036; stroke-width: 1.0;"/><polygon fill="#A80036" points="250.07,415.89,254.0957,406.9015,250.0843,410.89,246.0957,406.8786,250.07,415.89" style="stroke: #A80036; stroke-width: 1.0;"/><!--MD5=[7df4e8fc8ef15cc8ca9effbcc2622283]
link GameView to TurnView--><path d="M308.57,158.07 C324.27,178.27 341.18,200.03 356.52,219.77 " fill="none" id="GameView-&gt;TurnView" style="stroke: #A80036; stroke-width: 1.0;"/><polygon fill="#A80036" points="359.97,224.21,357.6331,214.6424,356.9132,220.2533,351.3023,219.5333,359.97,224.21" style="stroke: #A80036; stroke-width: 1.0;"/><!--MD5=[c2d12ea21a8ed9d7b07c5ed2223bb09d]
link GameView to BoardView--><path d="M196.36,158.07 C182.93,176.28 168.56,195.76 155.2,213.88 " fill="none" id="GameView-&gt;BoardView" style="stroke: #A80036; stroke-width: 1.0;"/><polygon fill="#A80036" points="152.18,217.97,160.7301,213.0818,155.1387,213.9393,154.2811,208.3479,152.18,217.97" style="stroke: #A80036; stroke-width: 1.0;"/><!--MD5=[87ac28f7ff846e55e34c2c863c6ff220]
link BoardView to Board--><path d="M112.3,356.14 C121.37,416.17 134.14,500.63 140.71,544.13 " fill="none" id="BoardView-&gt;Board" style="stroke: #A80036; stroke-width: 1.0;"/><polygon fill="#A80036" points="141.48,549.23,144.0712,539.7281,140.7229,544.2876,136.1634,540.9394,141.48,549.23" style="stroke: #A80036; stroke-width: 1.0;"/><!--MD5=[b90c15517c5612720f6d3b5735a27f0e]
link TurnView to Turn--><path d="M377.62,349.73 C347.83,410.28 303.75,499.85 281.66,544.73 " fill="none" id="TurnView-&gt;Turn" style="stroke: #A80036; stroke-width: 1.0;"/><polygon fill="#A80036" points="279.34,549.46,286.9105,543.1603,281.5532,544.9765,279.7369,539.6191,279.34,549.46" style="stroke: #A80036; stroke-width: 1.0;"/><!--MD5=[d81713d91ad05be3b975338c4816ee0b]
link Turn to Player--><path d="M273.273,609.4653 C273.273,609.4653 294.92,753.17 302.56,803.91 " fill="none" id="Turn-Player" style="stroke: #A80036; stroke-width: 1.0;"/><polygon fill="#A80036" points="304.5,816.77,307.1104,807.2734,303.7529,811.8261,299.2002,808.4687,304.5,816.77" style="stroke: #A80036; stroke-width: 1.0;"/><line style="stroke: #A80036; stroke-width: 1.0;" x1="303.7529" x2="302.56" y1="811.8261" y2="803.91"/><polygon fill="#A80036" points="271.48,597.6,268.4214,604.1303,273.273,609.4653,276.3316,602.935,271.48,597.6" style="stroke: #A80036; stroke-width: 1.0;"/><text fill="#000000" font-family="sans-serif" font-size="13" lengthAdjust="spacingAndGlyphs" textLength="8" x="294.6719" y="806.1189">2</text><!--MD5=[b9f1e39ad85d50fe6f3a071a4341c320]
link Game to Turn--><path d="M254.8014,476.1 C254.8014,476.1 260.49,517.62 263,535.94 " fill="none" id="Game-Turn" style="stroke: #A80036; stroke-width: 1.0;"/><polygon fill="#A80036" points="264.79,549.08,267.5373,539.6221,264.1144,544.1258,259.6107,540.703,264.79,549.08" style="stroke: #A80036; stroke-width: 1.0;"/><line style="stroke: #A80036; stroke-width: 1.0;" x1="264.1144" x2="263.03" y1="544.1258" y2="536.205"/><polygon fill="#A80036" points="253.18,464.21,250.0274,470.6954,254.8014,476.1,257.954,469.6145,253.18,464.21" style="stroke: #A80036; stroke-width: 1.0;"/><!--MD5=[15c8f9ca3aac13d865864b4eb5314ef1]
link Game to Board--><path d="M223.9882,473.592 C223.9882,473.592 187.67,519.06 171.96,538.74 " fill="none" id="Game-Board" style="stroke: #A80036; stroke-width: 1.0;"/><polygon fill="#A80036" points="163.7,549.08,172.4395,544.539,166.8181,545.1714,166.1857,539.55,163.7,549.08" style="stroke: #A80036; stroke-width: 1.0;"/><line style="stroke: #A80036; stroke-width: 1.0;" x1="166.8181" x2="171.81" y1="545.1714" y2="538.92"/><polygon fill="#A80036" points="231.47,464.21,224.6017,466.4071,223.9882,473.592,230.8564,471.3949,231.47,464.21" style="stroke: #A80036; stroke-width: 1.0;"/><!--MD5=[ed779b550861d9265ce54ae19c07d8f5]
link TurnView to PlayerView--><path d="M408,349.73 C408,400.03 408,470.36 408,518.46 " fill="none" id="TurnView-&gt;PlayerView" style="stroke: #A80036; stroke-width: 1.0; stroke-dasharray: 7.0,7.0;"/><polygon fill="#A80036" points="408,523.63,412,514.63,408,518.63,404,514.63,408,523.63" style="stroke: #A80036; stroke-width: 1.0;"/><text fill="#000000" font-family="sans-serif" font-size="13" lengthAdjust="spacingAndGlyphs" textLength="8" x="399.4625" y="512.982">2</text><!--MD5=[3c587cbf4be9dbf34cf594a9bef1205b]
reverse link PlayerView to UserPlayerView--><path d="M477.42,636.42 C495.23,652.3 513.79,668.86 529.58,682.95 " fill="none" id="PlayerView&lt;-UserPlayerView" style="stroke: #A80036; stroke-width: 1.0;"/><polygon fill="none" points="472.66,641.56,462.39,623.02,481.98,631.11,472.66,641.56" style="stroke: #A80036; stroke-width: 1.0;"/><!--MD5=[ba8530eccc4b223b8ea5d55a1f2be3ba]
reverse link PlayerView to MachinePlayerView--><path d="M402.29,643.31 C401.15,656.93 400.01,670.72 399.01,682.72 " fill="none" id="PlayerView&lt;-MachinePlayerView" style="stroke: #A80036; stroke-width: 1.0;"/><polygon fill="none" points="395.34,642.37,403.97,623.02,409.29,643.53,395.34,642.37" style="stroke: #A80036; stroke-width: 1.0;"/><!--MD5=[83e73cc634b6a0fa1d7bbb56c08baf04]
reverse link Player to RandomMachinePlayer--><path d="M325.26,883.57 C331.06,897.54 337.31,912.62 342.32,924.68 " fill="none" id="Player&lt;-RandomMachinePlayer" style="stroke: #A80036; stroke-width: 1.0;"/><polygon fill="none" points="318.75,886.16,317.55,865,331.68,880.79,318.75,886.16" style="stroke: #A80036; stroke-width: 1.0;"/><!--MD5=[5f3eff46017ea40d2ca7f35522a8d7fb]
reverse link Player to UserPlayer--><path d="M361.62,865.88 C401.97,883.85 456.84,908.29 496.22,925.83 " fill="none" id="Player&lt;-UserPlayer" style="stroke: #A80036; stroke-width: 1.0;"/><polygon fill="none" points="358.54,872.17,343.12,857.64,364.24,859.38,358.54,872.17" style="stroke: #A80036; stroke-width: 1.0;"/><!--MD5=[f695d238f6ca42d482d901ed1bcdf0d9]
link MachinePlayerView to RandomMachinePlayer--><path d="M388.98,757.22 C380.23,802.35 365.46,878.54 357.49,919.65 " fill="none" id="MachinePlayerView-&gt;RandomMachinePlayer" style="stroke: #A80036; stroke-width: 1.0;"/><polygon fill="#A80036" points="356.51,924.73,362.1568,916.6607,357.4659,919.8222,354.3044,915.1313,356.51,924.73" style="stroke: #A80036; stroke-width: 1.0;"/><!--MD5=[d6557f2efc94e7918d805d6325298755]
link UserPlayerView to UserPlayer--><path d="M566.17,757.22 C561.4,802.35 553.34,878.54 549,919.65 " fill="none" id="UserPlayerView-&gt;UserPlayer" style="stroke: #A80036; stroke-width: 1.0;"/><polygon fill="#A80036" points="548.46,924.73,553.3891,916.2033,548.9886,919.758,545.434,915.3575,548.46,924.73" style="stroke: #A80036; stroke-width: 1.0;"/><!--MD5=[9892314f449c1023eca9c98d5df0f351]
@startuml
class GameView{
-game
-turnView
-boardView
askPlayers()
-createNumOfPlayerButton(buttonText, numOfPlayers)
-startNewGame(numOfPlayers)
-dropToken(column)
-drawPlayAgainDialog()
}
class TurnView{
-turn
constructor(turn)
dropToken(column)
visitUserPlayer(userPlayer)
visitMachinePlayer(machinePlayer)
drawTurnMessage()
}
class BoardView{
-board
constructor(board)
-build()
setControlsCallback(callback)
removeControls()
dropToken()
resultActions()
}
class MachinePlayerView{
constructor(player)
getColumn()
}
abstract class PlayerView{
-player
constructor(player)
dropToken(column)
getColumn()
}

class UserPlayerView{
constructor(player)
getColumn(column)
}
Abstract    class Player
class RandomMachinePlayer
class UserPlayer

GameView - - -> Game
GameView - -> TurnView
GameView -> BoardView
BoardView - -> Board
TurnView - -> Turn
Turn *- - -> "2" Player
Game *- -> Turn
Game *- -> Board
TurnView -.-> "2" PlayerView
PlayerView <|- - UserPlayerView
PlayerView <|- - MachinePlayerView
Player <|- - RandomMachinePlayer
Player <|- - UserPlayer
MachinePlayerView - - -> RandomMachinePlayer
UserPlayerView - - -> UserPlayer



@enduml

PlantUML version 1.2020.02(Sun Mar 01 06:22:07 VET 2020)
(GPL source distribution)
Java Runtime: OpenJDK Runtime Environment
JVM: OpenJDK 64-Bit Server VM
Java Version: 11.0.17+8-post-Ubuntu-1ubuntu222.04
Operating System: Linux
Default Encoding: UTF-8
Language: en
Country: US
--></g></svg>