<?xml version="1.0" encoding="UTF-8" standalone="no"?><svg xmlns="http://www.w3.org/2000/svg" xmlns:xlink="http://www.w3.org/1999/xlink" contentScriptType="application/ecmascript" contentStyleType="text/css" height="1245px" preserveAspectRatio="none" style="width:654px;height:1245px;background:#FFFFFF;" version="1.1" viewBox="0 0 654 1245" width="654px" zoomAndPan="magnify"><defs><filter height="300%" id="fz6iojssoffxj" width="300%" x="-1" y="-1"><feGaussianBlur result="blurOut" stdDeviation="2.0"/><feColorMatrix in="blurOut" result="blurOut2" type="matrix" values="0 0 0 0 0 0 0 0 0 0 0 0 0 0 0 0 0 0 .4 0"/><feOffset dx="4.0" dy="4.0" in="blurOut2" result="blurOut3"/><feBlend in="SourceGraphic" in2="blurOut3" mode="normal"/></filter></defs><g><!--MD5=[ce135f397e71694d574a1221b16fe9d6]
class Klondike--><rect codeLine="1" fill="#FEFECE" filter="url(#fz6iojssoffxj)" height="48" id="Klondike" style="stroke:#A80036;stroke-width:1.5;" width="84" x="331.5" y="7"/><ellipse cx="346.5" cy="23" fill="#ADD1B2" rx="11" ry="11" style="stroke:#A80036;stroke-width:1.0;"/><path d="M349.4688,28.6406 Q348.8906,28.9375 348.25,29.0781 Q347.6094,29.2344 346.9063,29.2344 Q344.4063,29.2344 343.0781,27.5938 Q341.7656,25.9375 341.7656,22.8125 Q341.7656,19.6875 343.0781,18.0313 Q344.4063,16.375 346.9063,16.375 Q347.6094,16.375 348.25,16.5313 Q348.9063,16.6875 349.4688,16.9844 L349.4688,19.7031 Q348.8438,19.125 348.25,18.8594 Q347.6563,18.5781 347.0313,18.5781 Q345.6875,18.5781 345,19.6563 Q344.3125,20.7188 344.3125,22.8125 Q344.3125,24.9063 345,25.9844 Q345.6875,27.0469 347.0313,27.0469 Q347.6563,27.0469 348.25,26.7813 Q348.8438,26.5 349.4688,25.9219 L349.4688,28.6406 Z " fill="#000000"/><text fill="#000000" font-family="sans-serif" font-size="12" lengthAdjust="spacing" textLength="52" x="360.5" y="27.1543">Klondike</text><line style="stroke:#A80036;stroke-width:1.5;" x1="332.5" x2="414.5" y1="39" y2="39"/><line style="stroke:#A80036;stroke-width:1.5;" x1="332.5" x2="414.5" y1="47" y2="47"/><!--MD5=[2cb47ba637a0d19583e6199456f6ad0b]
class Player--><rect codeLine="2" fill="#FEFECE" filter="url(#fz6iojssoffxj)" height="48" id="Player" style="stroke:#A80036;stroke-width:1.5;" width="70" x="338.5" y="115"/><ellipse cx="353.5" cy="131" fill="#ADD1B2" rx="11" ry="11" style="stroke:#A80036;stroke-width:1.0;"/><path d="M356.4688,136.6406 Q355.8906,136.9375 355.25,137.0781 Q354.6094,137.2344 353.9063,137.2344 Q351.4063,137.2344 350.0781,135.5938 Q348.7656,133.9375 348.7656,130.8125 Q348.7656,127.6875 350.0781,126.0313 Q351.4063,124.375 353.9063,124.375 Q354.6094,124.375 355.25,124.5313 Q355.9063,124.6875 356.4688,124.9844 L356.4688,127.7031 Q355.8438,127.125 355.25,126.8594 Q354.6563,126.5781 354.0313,126.5781 Q352.6875,126.5781 352,127.6563 Q351.3125,128.7188 351.3125,130.8125 Q351.3125,132.9063 352,133.9844 Q352.6875,135.0469 354.0313,135.0469 Q354.6563,135.0469 355.25,134.7813 Q355.8438,134.5 356.4688,133.9219 L356.4688,136.6406 Z " fill="#000000"/><text fill="#000000" font-family="sans-serif" font-size="12" lengthAdjust="spacing" textLength="38" x="367.5" y="135.1543">Player</text><line style="stroke:#A80036;stroke-width:1.5;" x1="339.5" x2="407.5" y1="147" y2="147"/><line style="stroke:#A80036;stroke-width:1.5;" x1="339.5" x2="407.5" y1="155" y2="155"/><!--MD5=[a4cb0f987c11031dc931233a0e7767af]
class Stock--><rect codeLine="3" fill="#FEFECE" filter="url(#fz6iojssoffxj)" height="48" id="Stock" style="stroke:#A80036;stroke-width:1.5;" width="67" x="573" y="585"/><ellipse cx="588" cy="601" fill="#ADD1B2" rx="11" ry="11" style="stroke:#A80036;stroke-width:1.0;"/><path d="M590.9688,606.6406 Q590.3906,606.9375 589.75,607.0781 Q589.1094,607.2344 588.4063,607.2344 Q585.9063,607.2344 584.5781,605.5938 Q583.2656,603.9375 583.2656,600.8125 Q583.2656,597.6875 584.5781,596.0313 Q585.9063,594.375 588.4063,594.375 Q589.1094,594.375 589.75,594.5313 Q590.4063,594.6875 590.9688,594.9844 L590.9688,597.7031 Q590.3438,597.125 589.75,596.8594 Q589.1563,596.5781 588.5313,596.5781 Q587.1875,596.5781 586.5,597.6563 Q585.8125,598.7188 585.8125,600.8125 Q585.8125,602.9063 586.5,603.9844 Q587.1875,605.0469 588.5313,605.0469 Q589.1563,605.0469 589.75,604.7813 Q590.3438,604.5 590.9688,603.9219 L590.9688,606.6406 Z " fill="#000000"/><text fill="#000000" font-family="sans-serif" font-size="12" lengthAdjust="spacing" textLength="35" x="602" y="605.1543">Stock</text><line style="stroke:#A80036;stroke-width:1.5;" x1="574" x2="639" y1="617" y2="617"/><line style="stroke:#A80036;stroke-width:1.5;" x1="574" x2="639" y1="625" y2="625"/><!--MD5=[c033d16283544a66478df33ee92fe5a6]
class Tableau--><rect codeLine="4" fill="#FEFECE" filter="url(#fz6iojssoffxj)" height="48" id="Tableau" style="stroke:#A80036;stroke-width:1.5;" width="82" x="278.5" y="585"/><ellipse cx="293.5" cy="601" fill="#ADD1B2" rx="11" ry="11" style="stroke:#A80036;stroke-width:1.0;"/><path d="M296.4688,606.6406 Q295.8906,606.9375 295.25,607.0781 Q294.6094,607.2344 293.9063,607.2344 Q291.4063,607.2344 290.0781,605.5938 Q288.7656,603.9375 288.7656,600.8125 Q288.7656,597.6875 290.0781,596.0313 Q291.4063,594.375 293.9063,594.375 Q294.6094,594.375 295.25,594.5313 Q295.9063,594.6875 296.4688,594.9844 L296.4688,597.7031 Q295.8438,597.125 295.25,596.8594 Q294.6563,596.5781 294.0313,596.5781 Q292.6875,596.5781 292,597.6563 Q291.3125,598.7188 291.3125,600.8125 Q291.3125,602.9063 292,603.9844 Q292.6875,605.0469 294.0313,605.0469 Q294.6563,605.0469 295.25,604.7813 Q295.8438,604.5 296.4688,603.9219 L296.4688,606.6406 Z " fill="#000000"/><text fill="#000000" font-family="sans-serif" font-size="12" lengthAdjust="spacing" textLength="50" x="307.5" y="605.1543">Tableau</text><line style="stroke:#A80036;stroke-width:1.5;" x1="279.5" x2="359.5" y1="617" y2="617"/><line style="stroke:#A80036;stroke-width:1.5;" x1="279.5" x2="359.5" y1="625" y2="625"/><!--MD5=[c3c256aac7e3870d53c0042288b21bdc]
class Waste--><rect codeLine="5" fill="#FEFECE" filter="url(#fz6iojssoffxj)" height="48" id="Waste" style="stroke:#A80036;stroke-width:1.5;" width="71" x="467" y="585"/><ellipse cx="482" cy="601" fill="#ADD1B2" rx="11" ry="11" style="stroke:#A80036;stroke-width:1.0;"/><path d="M484.9688,606.6406 Q484.3906,606.9375 483.75,607.0781 Q483.1094,607.2344 482.4063,607.2344 Q479.9063,607.2344 478.5781,605.5938 Q477.2656,603.9375 477.2656,600.8125 Q477.2656,597.6875 478.5781,596.0313 Q479.9063,594.375 482.4063,594.375 Q483.1094,594.375 483.75,594.5313 Q484.4063,594.6875 484.9688,594.9844 L484.9688,597.7031 Q484.3438,597.125 483.75,596.8594 Q483.1563,596.5781 482.5313,596.5781 Q481.1875,596.5781 480.5,597.6563 Q479.8125,598.7188 479.8125,600.8125 Q479.8125,602.9063 480.5,603.9844 Q481.1875,605.0469 482.5313,605.0469 Q483.1563,605.0469 483.75,604.7813 Q484.3438,604.5 484.9688,603.9219 L484.9688,606.6406 Z " fill="#000000"/><text fill="#000000" font-family="sans-serif" font-size="12" lengthAdjust="spacing" textLength="39" x="496" y="605.1543">Waste</text><line style="stroke:#A80036;stroke-width:1.5;" x1="468" x2="537" y1="617" y2="617"/><line style="stroke:#A80036;stroke-width:1.5;" x1="468" x2="537" y1="625" y2="625"/><!--MD5=[d01ad859d436f6e28b36a553834670aa]
class Foundation--><rect codeLine="6" fill="#FEFECE" filter="url(#fz6iojssoffxj)" height="48" id="Foundation" style="stroke:#A80036;stroke-width:1.5;" width="103" x="140" y="585"/><ellipse cx="155" cy="601" fill="#ADD1B2" rx="11" ry="11" style="stroke:#A80036;stroke-width:1.0;"/><path d="M157.9688,606.6406 Q157.3906,606.9375 156.75,607.0781 Q156.1094,607.2344 155.4063,607.2344 Q152.9063,607.2344 151.5781,605.5938 Q150.2656,603.9375 150.2656,600.8125 Q150.2656,597.6875 151.5781,596.0313 Q152.9063,594.375 155.4063,594.375 Q156.1094,594.375 156.75,594.5313 Q157.4063,594.6875 157.9688,594.9844 L157.9688,597.7031 Q157.3438,597.125 156.75,596.8594 Q156.1563,596.5781 155.5313,596.5781 Q154.1875,596.5781 153.5,597.6563 Q152.8125,598.7188 152.8125,600.8125 Q152.8125,602.9063 153.5,603.9844 Q154.1875,605.0469 155.5313,605.0469 Q156.1563,605.0469 156.75,604.7813 Q157.3438,604.5 157.9688,603.9219 L157.9688,606.6406 Z " fill="#000000"/><text fill="#000000" font-family="sans-serif" font-size="12" lengthAdjust="spacing" textLength="71" x="169" y="605.1543">Foundation</text><line style="stroke:#A80036;stroke-width:1.5;" x1="141" x2="242" y1="617" y2="617"/><line style="stroke:#A80036;stroke-width:1.5;" x1="141" x2="242" y1="625" y2="625"/><!--MD5=[0992d3fdc9d3d7c02b735131bb70871d]
class Goal--><rect codeLine="7" fill="#FEFECE" filter="url(#fz6iojssoffxj)" height="48" id="Goal" style="stroke:#A80036;stroke-width:1.5;" width="60" x="302.5" y="223"/><ellipse cx="317.5" cy="239" fill="#ADD1B2" rx="11" ry="11" style="stroke:#A80036;stroke-width:1.0;"/><path d="M320.4688,244.6406 Q319.8906,244.9375 319.25,245.0781 Q318.6094,245.2344 317.9063,245.2344 Q315.4063,245.2344 314.0781,243.5938 Q312.7656,241.9375 312.7656,238.8125 Q312.7656,235.6875 314.0781,234.0313 Q315.4063,232.375 317.9063,232.375 Q318.6094,232.375 319.25,232.5313 Q319.9063,232.6875 320.4688,232.9844 L320.4688,235.7031 Q319.8438,235.125 319.25,234.8594 Q318.6563,234.5781 318.0313,234.5781 Q316.6875,234.5781 316,235.6563 Q315.3125,236.7188 315.3125,238.8125 Q315.3125,240.9063 316,241.9844 Q316.6875,243.0469 318.0313,243.0469 Q318.6563,243.0469 319.25,242.7813 Q319.8438,242.5 320.4688,241.9219 L320.4688,244.6406 Z " fill="#000000"/><text fill="#000000" font-family="sans-serif" font-size="12" lengthAdjust="spacing" textLength="28" x="331.5" y="243.1543">Goal</text><line style="stroke:#A80036;stroke-width:1.5;" x1="303.5" x2="361.5" y1="255" y2="255"/><line style="stroke:#A80036;stroke-width:1.5;" x1="303.5" x2="361.5" y1="263" y2="263"/><!--MD5=[1981719fa3982d92ef7fd3f06d73b3e7]
class Move--><rect codeLine="9" fill="#FEFECE" filter="url(#fz6iojssoffxj)" height="86.4141" id="Move" style="stroke:#A80036;stroke-width:1.5;" width="118" x="356.5" y="331"/><ellipse cx="395.8" cy="347" fill="#ADD1B2" rx="11" ry="11" style="stroke:#A80036;stroke-width:1.0;"/><path d="M398.7688,352.6406 Q398.1906,352.9375 397.55,353.0781 Q396.9094,353.2344 396.2063,353.2344 Q393.7063,353.2344 392.3781,351.5938 Q391.0656,349.9375 391.0656,346.8125 Q391.0656,343.6875 392.3781,342.0313 Q393.7063,340.375 396.2063,340.375 Q396.9094,340.375 397.55,340.5313 Q398.2063,340.6875 398.7688,340.9844 L398.7688,343.7031 Q398.1438,343.125 397.55,342.8594 Q396.9563,342.5781 396.3313,342.5781 Q394.9875,342.5781 394.3,343.6563 Q393.6125,344.7188 393.6125,346.8125 Q393.6125,348.9063 394.3,349.9844 Q394.9875,351.0469 396.3313,351.0469 Q396.9563,351.0469 397.55,350.7813 Q398.1438,350.5 398.7688,349.9219 L398.7688,352.6406 Z " fill="#000000"/><text fill="#000000" font-family="sans-serif" font-size="12" lengthAdjust="spacing" textLength="32" x="415.2" y="351.1543">Move</text><line style="stroke:#A80036;stroke-width:1.5;" x1="357.5" x2="473.5" y1="363" y2="363"/><rect fill="none" height="6" style="stroke:#C82930;stroke-width:1.0;" width="6" x="364.5" y="371"/><text fill="#000000" font-family="sans-serif" font-size="11" lengthAdjust="spacing" textLength="92" x="376.5" y="377.2104">Destination: Pile</text><rect fill="none" height="6" style="stroke:#C82930;stroke-width:1.0;" width="6" x="364.5" y="383.8047"/><text fill="#000000" font-family="sans-serif" font-size="11" lengthAdjust="spacing" textLength="62" x="376.5" y="390.0151">Origin: Pile</text><rect fill="none" height="6" style="stroke:#C82930;stroke-width:1.0;" width="6" x="364.5" y="396.6094"/><text fill="#000000" font-family="sans-serif" font-size="11" lengthAdjust="spacing" textLength="73" x="376.5" y="402.8198">carList: Card</text><line style="stroke:#A80036;stroke-width:1.5;" x1="357.5" x2="473.5" y1="409.4141" y2="409.4141"/><!--MD5=[9d65f55e1ae89a5b4cf38812aa4a03f3]
class Pile--><rect codeLine="17" fill="#FEFECE" filter="url(#fz6iojssoffxj)" height="48" id="Pile" style="stroke:#A80036;stroke-width:1.5;" width="54" x="388.5" y="477"/><ellipse cx="403.5" cy="493" fill="#A9DCDF" rx="11" ry="11" style="stroke:#A80036;stroke-width:1.0;"/><path d="M403.6094,488.3438 L402.4531,493.4219 L404.7813,493.4219 L403.6094,488.3438 Z M402.125,486.1094 L405.1094,486.1094 L408.4688,498.5 L406.0156,498.5 L405.25,495.4375 L401.9688,495.4375 L401.2188,498.5 L398.7813,498.5 L402.125,486.1094 Z " fill="#000000"/><text fill="#000000" font-family="sans-serif" font-size="12" font-style="italic" lengthAdjust="spacing" textLength="22" x="417.5" y="497.1543">Pile</text><line style="stroke:#A80036;stroke-width:1.5;" x1="389.5" x2="441.5" y1="509" y2="509"/><line style="stroke:#A80036;stroke-width:1.5;" x1="389.5" x2="441.5" y1="517" y2="517"/><!--MD5=[5e305716458bbdabbd2d7f572ed2bae2]
class Card--><rect codeLine="19" fill="#FEFECE" filter="url(#fz6iojssoffxj)" height="48" id="Card" style="stroke:#A80036;stroke-width:1.5;" width="61" x="336" y="693"/><ellipse cx="351" cy="709" fill="#ADD1B2" rx="11" ry="11" style="stroke:#A80036;stroke-width:1.0;"/><path d="M353.9688,714.6406 Q353.3906,714.9375 352.75,715.0781 Q352.1094,715.2344 351.4063,715.2344 Q348.9063,715.2344 347.5781,713.5938 Q346.2656,711.9375 346.2656,708.8125 Q346.2656,705.6875 347.5781,704.0313 Q348.9063,702.375 351.4063,702.375 Q352.1094,702.375 352.75,702.5313 Q353.4063,702.6875 353.9688,702.9844 L353.9688,705.7031 Q353.3438,705.125 352.75,704.8594 Q352.1563,704.5781 351.5313,704.5781 Q350.1875,704.5781 349.5,705.6563 Q348.8125,706.7188 348.8125,708.8125 Q348.8125,710.9063 349.5,711.9844 Q350.1875,713.0469 351.5313,713.0469 Q352.1563,713.0469 352.75,712.7813 Q353.3438,712.5 353.9688,711.9219 L353.9688,714.6406 Z " fill="#000000"/><text fill="#000000" font-family="sans-serif" font-size="12" lengthAdjust="spacing" textLength="29" x="365" y="713.1543">Card</text><line style="stroke:#A80036;stroke-width:1.5;" x1="337" x2="396" y1="725" y2="725"/><line style="stroke:#A80036;stroke-width:1.5;" x1="337" x2="396" y1="733" y2="733"/><!--MD5=[8afaa0cc9be9ac1cdc24999fa1642fa3]
class Suit--><rect codeLine="21" fill="#FEFECE" filter="url(#fz6iojssoffxj)" height="48" id="Suit" style="stroke:#A80036;stroke-width:1.5;" width="56" x="235.5" y="884"/><ellipse cx="250.5" cy="900" fill="#A9DCDF" rx="11" ry="11" style="stroke:#A80036;stroke-width:1.0;"/><path d="M250.6094,895.3438 L249.4531,900.4219 L251.7813,900.4219 L250.6094,895.3438 Z M249.125,893.1094 L252.1094,893.1094 L255.4688,905.5 L253.0156,905.5 L252.25,902.4375 L248.9688,902.4375 L248.2188,905.5 L245.7813,905.5 L249.125,893.1094 Z " fill="#000000"/><text fill="#000000" font-family="sans-serif" font-size="12" font-style="italic" lengthAdjust="spacing" textLength="24" x="264.5" y="904.1543">Suit</text><line style="stroke:#A80036;stroke-width:1.5;" x1="236.5" x2="290.5" y1="916" y2="916"/><line style="stroke:#A80036;stroke-width:1.5;" x1="236.5" x2="290.5" y1="924" y2="924"/><!--MD5=[0f690a215a17a0cf4b9f948ca5dd1b3e]
class Rank--><rect codeLine="22" fill="#FEFECE" filter="url(#fz6iojssoffxj)" height="214.4609" id="Rank" style="stroke:#A80036;stroke-width:1.5;" width="63" x="335" y="801"/><ellipse cx="350" cy="817" fill="#EB937F" rx="11" ry="11" style="stroke:#A80036;stroke-width:1.0;"/><path d="M354.1094,823 L346.3906,823 L346.3906,810.6094 L354.1094,810.6094 L354.1094,812.7656 L348.8438,812.7656 L348.8438,815.4375 L353.6094,815.4375 L353.6094,817.5938 L348.8438,817.5938 L348.8438,820.8438 L354.1094,820.8438 L354.1094,823 Z " fill="#000000"/><text fill="#000000" font-family="sans-serif" font-size="12" lengthAdjust="spacing" textLength="31" x="364" y="821.1543">Rank</text><line style="stroke:#A80036;stroke-width:1.5;" x1="336" x2="397" y1="833" y2="833"/><text fill="#000000" font-family="sans-serif" font-size="11" lengthAdjust="spacing" textLength="7" x="341" y="847.2104">A</text><text fill="#000000" font-family="sans-serif" font-size="11" lengthAdjust="spacing" textLength="7" x="341" y="860.0151">2</text><text fill="#000000" font-family="sans-serif" font-size="11" lengthAdjust="spacing" textLength="7" x="341" y="872.8198">3</text><text fill="#000000" font-family="sans-serif" font-size="11" lengthAdjust="spacing" textLength="7" x="341" y="885.6245">4</text><text fill="#000000" font-family="sans-serif" font-size="11" lengthAdjust="spacing" textLength="7" x="341" y="898.4292">5</text><text fill="#000000" font-family="sans-serif" font-size="11" lengthAdjust="spacing" textLength="7" x="341" y="911.2339">6</text><text fill="#000000" font-family="sans-serif" font-size="11" lengthAdjust="spacing" textLength="7" x="341" y="924.0386">7</text><text fill="#000000" font-family="sans-serif" font-size="11" lengthAdjust="spacing" textLength="7" x="341" y="936.8433">8</text><text fill="#000000" font-family="sans-serif" font-size="11" lengthAdjust="spacing" textLength="7" x="341" y="949.6479">9</text><text fill="#000000" font-family="sans-serif" font-size="11" lengthAdjust="spacing" textLength="14" x="341" y="962.4526">10</text><text fill="#000000" font-family="sans-serif" font-size="11" lengthAdjust="spacing" textLength="3" x="341" y="975.2573">J</text><text fill="#000000" font-family="sans-serif" font-size="11" lengthAdjust="spacing" textLength="9" x="341" y="988.062">Q</text><text fill="#000000" font-family="sans-serif" font-size="11" lengthAdjust="spacing" textLength="7" x="341" y="1000.8667">K</text><line style="stroke:#A80036;stroke-width:1.5;" x1="336" x2="397" y1="1007.4609" y2="1007.4609"/><!--MD5=[9bb5813e59df3e2529d11a5afaed7800]
class Heart--><rect codeLine="37" fill="#FEFECE" filter="url(#fz6iojssoffxj)" height="48" id="Heart" style="stroke:#A80036;stroke-width:1.5;" width="67" x="129" y="1075"/><ellipse cx="144" cy="1091" fill="#ADD1B2" rx="11" ry="11" style="stroke:#A80036;stroke-width:1.0;"/><path d="M146.9688,1096.6406 Q146.3906,1096.9375 145.75,1097.0781 Q145.1094,1097.2344 144.4063,1097.2344 Q141.9063,1097.2344 140.5781,1095.5938 Q139.2656,1093.9375 139.2656,1090.8125 Q139.2656,1087.6875 140.5781,1086.0313 Q141.9063,1084.375 144.4063,1084.375 Q145.1094,1084.375 145.75,1084.5313 Q146.4063,1084.6875 146.9688,1084.9844 L146.9688,1087.7031 Q146.3438,1087.125 145.75,1086.8594 Q145.1563,1086.5781 144.5313,1086.5781 Q143.1875,1086.5781 142.5,1087.6563 Q141.8125,1088.7188 141.8125,1090.8125 Q141.8125,1092.9063 142.5,1093.9844 Q143.1875,1095.0469 144.5313,1095.0469 Q145.1563,1095.0469 145.75,1094.7813 Q146.3438,1094.5 146.9688,1093.9219 L146.9688,1096.6406 Z " fill="#000000"/><text fill="#000000" font-family="sans-serif" font-size="12" lengthAdjust="spacing" textLength="35" x="158" y="1095.1543">Heart</text><line style="stroke:#A80036;stroke-width:1.5;" x1="130" x2="195" y1="1107" y2="1107"/><line style="stroke:#A80036;stroke-width:1.5;" x1="130" x2="195" y1="1115" y2="1115"/><!--MD5=[c0ff7312a1fc0055a007a9765d4a1220]
class Diamond--><rect codeLine="38" fill="#FEFECE" filter="url(#fz6iojssoffxj)" height="48" id="Diamond" style="stroke:#A80036;stroke-width:1.5;" width="87" x="7" y="1075"/><ellipse cx="22" cy="1091" fill="#ADD1B2" rx="11" ry="11" style="stroke:#A80036;stroke-width:1.0;"/><path d="M24.9688,1096.6406 Q24.3906,1096.9375 23.75,1097.0781 Q23.1094,1097.2344 22.4063,1097.2344 Q19.9063,1097.2344 18.5781,1095.5938 Q17.2656,1093.9375 17.2656,1090.8125 Q17.2656,1087.6875 18.5781,1086.0313 Q19.9063,1084.375 22.4063,1084.375 Q23.1094,1084.375 23.75,1084.5313 Q24.4063,1084.6875 24.9688,1084.9844 L24.9688,1087.7031 Q24.3438,1087.125 23.75,1086.8594 Q23.1563,1086.5781 22.5313,1086.5781 Q21.1875,1086.5781 20.5,1087.6563 Q19.8125,1088.7188 19.8125,1090.8125 Q19.8125,1092.9063 20.5,1093.9844 Q21.1875,1095.0469 22.5313,1095.0469 Q23.1563,1095.0469 23.75,1094.7813 Q24.3438,1094.5 24.9688,1093.9219 L24.9688,1096.6406 Z " fill="#000000"/><text fill="#000000" font-family="sans-serif" font-size="12" lengthAdjust="spacing" textLength="55" x="36" y="1095.1543">Diamond</text><line style="stroke:#A80036;stroke-width:1.5;" x1="8" x2="93" y1="1107" y2="1107"/><line style="stroke:#A80036;stroke-width:1.5;" x1="8" x2="93" y1="1115" y2="1115"/><!--MD5=[18eee71c88ab61f27581b8cbdd3ef5ee]
class Color--><rect codeLine="39" fill="#FEFECE" filter="url(#fz6iojssoffxj)" height="48" id="Color" style="stroke:#A80036;stroke-width:1.5;" width="64" x="231.5" y="1075"/><ellipse cx="246.5" cy="1091" fill="#A9DCDF" rx="11" ry="11" style="stroke:#A80036;stroke-width:1.0;"/><path d="M246.6094,1086.3438 L245.4531,1091.4219 L247.7813,1091.4219 L246.6094,1086.3438 Z M245.125,1084.1094 L248.1094,1084.1094 L251.4688,1096.5 L249.0156,1096.5 L248.25,1093.4375 L244.9688,1093.4375 L244.2188,1096.5 L241.7813,1096.5 L245.125,1084.1094 Z " fill="#000000"/><text fill="#000000" font-family="sans-serif" font-size="12" font-style="italic" lengthAdjust="spacing" textLength="32" x="260.5" y="1095.1543">Color</text><line style="stroke:#A80036;stroke-width:1.5;" x1="232.5" x2="294.5" y1="1107" y2="1107"/><line style="stroke:#A80036;stroke-width:1.5;" x1="232.5" x2="294.5" y1="1115" y2="1115"/><!--MD5=[42e4d1a820b627bfee841fddf8f5555e]
class club--><rect codeLine="40" fill="#FEFECE" filter="url(#fz6iojssoffxj)" height="48" id="club" style="stroke:#A80036;stroke-width:1.5;" width="58" x="437.5" y="1075"/><ellipse cx="452.5" cy="1091" fill="#ADD1B2" rx="11" ry="11" style="stroke:#A80036;stroke-width:1.0;"/><path d="M455.4688,1096.6406 Q454.8906,1096.9375 454.25,1097.0781 Q453.6094,1097.2344 452.9063,1097.2344 Q450.4063,1097.2344 449.0781,1095.5938 Q447.7656,1093.9375 447.7656,1090.8125 Q447.7656,1087.6875 449.0781,1086.0313 Q450.4063,1084.375 452.9063,1084.375 Q453.6094,1084.375 454.25,1084.5313 Q454.9063,1084.6875 455.4688,1084.9844 L455.4688,1087.7031 Q454.8438,1087.125 454.25,1086.8594 Q453.6563,1086.5781 453.0313,1086.5781 Q451.6875,1086.5781 451,1087.6563 Q450.3125,1088.7188 450.3125,1090.8125 Q450.3125,1092.9063 451,1093.9844 Q451.6875,1095.0469 453.0313,1095.0469 Q453.6563,1095.0469 454.25,1094.7813 Q454.8438,1094.5 455.4688,1093.9219 L455.4688,1096.6406 Z " fill="#000000"/><text fill="#000000" font-family="sans-serif" font-size="12" lengthAdjust="spacing" textLength="26" x="466.5" y="1095.1543">club</text><line style="stroke:#A80036;stroke-width:1.5;" x1="438.5" x2="494.5" y1="1107" y2="1107"/><line style="stroke:#A80036;stroke-width:1.5;" x1="438.5" x2="494.5" y1="1115" y2="1115"/><!--MD5=[e07683d003131b9e2f36793e1d14f746]
class Spade--><rect codeLine="41" fill="#FEFECE" filter="url(#fz6iojssoffxj)" height="48" id="Spade" style="stroke:#A80036;stroke-width:1.5;" width="72" x="330.5" y="1075"/><ellipse cx="345.5" cy="1091" fill="#ADD1B2" rx="11" ry="11" style="stroke:#A80036;stroke-width:1.0;"/><path d="M348.4688,1096.6406 Q347.8906,1096.9375 347.25,1097.0781 Q346.6094,1097.2344 345.9063,1097.2344 Q343.4063,1097.2344 342.0781,1095.5938 Q340.7656,1093.9375 340.7656,1090.8125 Q340.7656,1087.6875 342.0781,1086.0313 Q343.4063,1084.375 345.9063,1084.375 Q346.6094,1084.375 347.25,1084.5313 Q347.9063,1084.6875 348.4688,1084.9844 L348.4688,1087.7031 Q347.8438,1087.125 347.25,1086.8594 Q346.6563,1086.5781 346.0313,1086.5781 Q344.6875,1086.5781 344,1087.6563 Q343.3125,1088.7188 343.3125,1090.8125 Q343.3125,1092.9063 344,1093.9844 Q344.6875,1095.0469 346.0313,1095.0469 Q346.6563,1095.0469 347.25,1094.7813 Q347.8438,1094.5 348.4688,1093.9219 L348.4688,1096.6406 Z " fill="#000000"/><text fill="#000000" font-family="sans-serif" font-size="12" lengthAdjust="spacing" textLength="40" x="359.5" y="1095.1543">Spade</text><line style="stroke:#A80036;stroke-width:1.5;" x1="331.5" x2="401.5" y1="1107" y2="1107"/><line style="stroke:#A80036;stroke-width:1.5;" x1="331.5" x2="401.5" y1="1115" y2="1115"/><!--MD5=[dda496a2ed7283fc728b8870bbd50c15]
class Read--><rect codeLine="42" fill="#FEFECE" filter="url(#fz6iojssoffxj)" height="48" id="Read" style="stroke:#A80036;stroke-width:1.5;" width="64" x="130.5" y="1183"/><ellipse cx="145.5" cy="1199" fill="#ADD1B2" rx="11" ry="11" style="stroke:#A80036;stroke-width:1.0;"/><path d="M148.4688,1204.6406 Q147.8906,1204.9375 147.25,1205.0781 Q146.6094,1205.2344 145.9063,1205.2344 Q143.4063,1205.2344 142.0781,1203.5938 Q140.7656,1201.9375 140.7656,1198.8125 Q140.7656,1195.6875 142.0781,1194.0313 Q143.4063,1192.375 145.9063,1192.375 Q146.6094,1192.375 147.25,1192.5313 Q147.9063,1192.6875 148.4688,1192.9844 L148.4688,1195.7031 Q147.8438,1195.125 147.25,1194.8594 Q146.6563,1194.5781 146.0313,1194.5781 Q144.6875,1194.5781 144,1195.6563 Q143.3125,1196.7188 143.3125,1198.8125 Q143.3125,1200.9063 144,1201.9844 Q144.6875,1203.0469 146.0313,1203.0469 Q146.6563,1203.0469 147.25,1202.7813 Q147.8438,1202.5 148.4688,1201.9219 L148.4688,1204.6406 Z " fill="#000000"/><text fill="#000000" font-family="sans-serif" font-size="12" lengthAdjust="spacing" textLength="32" x="159.5" y="1203.1543">Read</text><line style="stroke:#A80036;stroke-width:1.5;" x1="131.5" x2="193.5" y1="1215" y2="1215"/><line style="stroke:#A80036;stroke-width:1.5;" x1="131.5" x2="193.5" y1="1223" y2="1223"/><!--MD5=[365150d8163e865a226452c70cc7ad9f]
class Black--><rect codeLine="43" fill="#FEFECE" filter="url(#fz6iojssoffxj)" height="48" id="Black" style="stroke:#A80036;stroke-width:1.5;" width="65" x="334" y="1183"/><ellipse cx="349" cy="1199" fill="#ADD1B2" rx="11" ry="11" style="stroke:#A80036;stroke-width:1.0;"/><path d="M351.9688,1204.6406 Q351.3906,1204.9375 350.75,1205.0781 Q350.1094,1205.2344 349.4063,1205.2344 Q346.9063,1205.2344 345.5781,1203.5938 Q344.2656,1201.9375 344.2656,1198.8125 Q344.2656,1195.6875 345.5781,1194.0313 Q346.9063,1192.375 349.4063,1192.375 Q350.1094,1192.375 350.75,1192.5313 Q351.4063,1192.6875 351.9688,1192.9844 L351.9688,1195.7031 Q351.3438,1195.125 350.75,1194.8594 Q350.1563,1194.5781 349.5313,1194.5781 Q348.1875,1194.5781 347.5,1195.6563 Q346.8125,1196.7188 346.8125,1198.8125 Q346.8125,1200.9063 347.5,1201.9844 Q348.1875,1203.0469 349.5313,1203.0469 Q350.1563,1203.0469 350.75,1202.7813 Q351.3438,1202.5 351.9688,1201.9219 L351.9688,1204.6406 Z " fill="#000000"/><text fill="#000000" font-family="sans-serif" font-size="12" lengthAdjust="spacing" textLength="33" x="363" y="1203.1543">Black</text><line style="stroke:#A80036;stroke-width:1.5;" x1="335" x2="398" y1="1215" y2="1215"/><line style="stroke:#A80036;stroke-width:1.5;" x1="335" x2="398" y1="1223" y2="1223"/><!--MD5=[9c96613f90e0ef613e532dfde2be76fd]
link Move to Pile--><path codeLine="15" d="M403.36,417.32 C402.25,435.14 402.66,455.41 404.59,471.42 " fill="none" id="Move-to-Pile" style="stroke:#A80036;stroke-width:1.0;"/><polygon fill="#A80036" points="405.31,476.67,408.0658,467.2146,404.6389,471.7152,400.1382,468.2883,405.31,476.67" style="stroke:#A80036;stroke-width:1.0;"/><text fill="#000000" font-family="sans-serif" font-size="13" lengthAdjust="spacing" textLength="37" x="361.3168" y="465.9945">Origin</text><!--MD5=[9c96613f90e0ef613e532dfde2be76fd]
link Move to Pile--><path codeLine="16" d="M428.35,417.32 C429.53,435.14 429.1,455.41 427.05,471.42 " fill="none" id="Move-to-Pile-1" style="stroke:#A80036;stroke-width:1.0;"/><polygon fill="#A80036" points="426.29,476.67,431.5327,468.3325,427.0031,471.7211,423.6145,467.1915,426.29,476.67" style="stroke:#A80036;stroke-width:1.0;"/><text fill="#000000" font-family="sans-serif" font-size="13" lengthAdjust="spacing" textLength="73" x="437.8169" y="465.9945">Destination</text><!--MD5=[d0e37a71a001f6053d69fd29d330fd4f]
link Klondike to Player--><path codeLine="45" d="M373.5,67 C373.5,67 373.5,90.68 373.5,101.36 " fill="none" id="Klondike-Player" style="stroke:#A80036;stroke-width:1.0;"/><polygon fill="#A80036" points="373.5,114.68,377.5,105.68,373.5,109.68,369.5,105.68,373.5,114.68" style="stroke:#A80036;stroke-width:1.0;"/><line style="stroke:#A80036;stroke-width:1.0;" x1="373.5" x2="373.5" y1="109.68" y2="101.68"/><polygon fill="#A80036" points="373.5,55,369.5,61,373.5,67,377.5,61,373.5,55" style="stroke:#A80036;stroke-width:1.0;"/><!--MD5=[d3883b6e5521bc1a4fbc628d87a10151]
link Klondike to Stock--><path codeLine="46" d="M426.6284,53.4348 C426.6284,53.4348 603.5,150.5 603.5,246 C603.5,246 603.5,246 603.5,375 C603.5,444.66 604.86,526.02 605.75,571.83 " fill="none" id="Klondike-Stock" style="stroke:#A80036;stroke-width:1.0;"/><polygon fill="#A80036" points="606,584.85,609.8212,575.7727,605.9011,579.851,601.8228,575.9309,606,584.85" style="stroke:#A80036;stroke-width:1.0;"/><line style="stroke:#A80036;stroke-width:1.0;" x1="605.9011" x2="605.75" y1="579.851" y2="571.85"/><polygon fill="#A80036" points="415.69,48.5,419.5142,54.6135,426.6284,53.4348,422.8041,47.3213,415.69,48.5" style="stroke:#A80036;stroke-width:1.0;"/><!--MD5=[b1c209f4aa9271d424a51362b3ae8562]
link Klondike to Tableau--><path codeLine="47" d="M336.0361,63.0215 C336.0361,63.0215 232.5,171.19 232.5,246 C232.5,246 232.5,246 232.5,375 C232.5,449.56 272.08,529.54 297.85,573.71 " fill="none" id="Klondike-Tableau" style="stroke:#A80036;stroke-width:1.0;"/><polygon fill="#A80036" points="304.54,584.92,303.3635,575.1417,301.978,580.6262,296.4935,579.2408,304.54,584.92" style="stroke:#A80036;stroke-width:1.0;"/><line style="stroke:#A80036;stroke-width:1.0;" x1="301.978" x2="297.875" y1="580.6262" y2="573.76"/><polygon fill="#A80036" points="344.97,55.01,337.8325,56.0378,336.0361,63.0215,343.1736,61.9938,344.97,55.01" style="stroke:#A80036;stroke-width:1.0;"/><text fill="#000000" font-family="sans-serif" font-size="13" lengthAdjust="spacing" textLength="8" x="291.6815" y="573.9115">7</text><!--MD5=[fc362caf7996dc1cff37dff6c24ba86b]
link Klondike to Waste--><path codeLine="48" d="M414.7507,62.5433 C414.7507,62.5433 527.5,169.14 527.5,246 C527.5,246 527.5,246 527.5,375 C527.5,445.05 516.19,526.28 508.78,571.96 " fill="none" id="Klondike-Waste" style="stroke:#A80036;stroke-width:1.0;"/><polygon fill="#A80036" points="506.63,584.94,512.0492,576.7161,507.4484,580.0074,504.1571,575.4066,506.63,584.94" style="stroke:#A80036;stroke-width:1.0;"/><line style="stroke:#A80036;stroke-width:1.0;" x1="507.4484" x2="508.76" y1="580.0074" y2="572.115"/><polygon fill="#A80036" points="405.41,55.01,407.5693,61.8902,414.7507,62.5433,412.5915,55.6631,405.41,55.01" style="stroke:#A80036;stroke-width:1.0;"/><!--MD5=[6a4057357f913d5657fa9fe87f0edd29]
link Klondike to Foundation--><path codeLine="49" d="M320.7071,56.5842 C320.7071,56.5842 161.5,156.21 161.5,246 C161.5,246 161.5,246 161.5,375 C161.5,445.23 175.07,526.39 183.96,572.01 " fill="none" id="Klondike-Foundation" style="stroke:#A80036;stroke-width:1.0;"/><polygon fill="#A80036" points="186.55,584.98,188.7114,575.3712,185.5715,580.0767,180.8661,576.9368,186.55,584.98" style="stroke:#A80036;stroke-width:1.0;"/><line style="stroke:#A80036;stroke-width:1.0;" x1="185.5715" x2="184" y1="580.0767" y2="572.23"/><polygon fill="#A80036" points="331.36,51.06,324.1922,50.2711,320.7071,56.5842,327.875,57.373,331.36,51.06" style="stroke:#A80036;stroke-width:1.0;"/><text fill="#000000" font-family="sans-serif" font-size="13" lengthAdjust="spacing" textLength="8" x="176.2566" y="573.9869">4</text><!--MD5=[1571e4e0b7cdbae74b04c97a95677c54]
link Player to Goal--><path codeLine="51" d="M364.6,163 C358.36,179.14 349.98,200.82 343.34,217.97 " fill="none" id="Player-to-Goal" style="stroke:#A80036;stroke-width:1.0;"/><polygon fill="#A80036" points="341.52,222.68,348.507,215.7386,343.3302,218.0192,341.0496,212.8424,341.52,222.68" style="stroke:#A80036;stroke-width:1.0;"/><!--MD5=[cd0c3954e43c16945db51e1325833371]
link Goal to Foundation--><path codeLine="52" d="M323.47,271.07 C298.65,334.42 229.52,510.92 202.51,579.88 " fill="none" id="Goal-to-Foundation" style="stroke:#A80036;stroke-width:1.0;"/><polygon fill="#A80036" points="200.64,584.66,207.6414,577.7332,202.4598,580.0029,200.1901,574.8214,200.64,584.66" style="stroke:#A80036;stroke-width:1.0;"/><text fill="#000000" font-family="sans-serif" font-size="13" lengthAdjust="spacing" textLength="8" x="193.8929" y="573.9821">4</text><!--MD5=[4b1f7a9ffece4d2d0cb1da7affd14ba5]
link Goal to Move--><path codeLine="53" d="M347.92,271.22 C358.25,286.78 372.2,307.79 384.75,326.69 " fill="none" id="Goal-to-Move" style="stroke:#A80036;stroke-width:1.0;stroke-dasharray:7.0,7.0;"/><polygon fill="#A80036" points="387.57,330.94,385.9059,321.2327,384.7965,326.7797,379.2495,325.6703,387.57,330.94" style="stroke:#A80036;stroke-width:1.0;"/><text fill="#000000" font-family="sans-serif" font-size="13" lengthAdjust="spacing" textLength="8" x="374.4812" y="319.9265">n</text><!--MD5=[7e30d075c7e28ae86a5e6e748d3cd0b6]
link Player to Move--><path codeLine="54" d="M377.68,163.19 C384.48,200.92 398.07,276.32 406.97,325.7 " fill="none" id="Player-to-Move" style="stroke:#A80036;stroke-width:1.0;stroke-dasharray:7.0,7.0;"/><polygon fill="#A80036" points="407.87,330.69,410.215,321.1244,406.9856,325.7688,402.3412,322.5394,407.87,330.69" style="stroke:#A80036;stroke-width:1.0;"/><text fill="#000000" font-family="sans-serif" font-size="13" lengthAdjust="spacing" textLength="8" x="398.0892" y="319.9551">n</text><!--MD5=[a3b0419bdb877a6921c502f7ab916277]
reverse link Pile to Stock--><path codeLine="55" d="M460.53,526.99 C494.91,546.07 541.53,571.94 572.74,589.27 " fill="none" id="Pile-backto-Stock" style="stroke:#A80036;stroke-width:1.0;"/><polygon fill="none" points="456.96,533.01,442.87,517.19,463.75,520.77,456.96,533.01" style="stroke:#A80036;stroke-width:1.0;"/><!--MD5=[b0173922ba304e58e67aa3279a656791]
reverse link Pile to Tableau--><path codeLine="56" d="M380.88,540.23 C367.41,555.1 352.42,571.65 340.62,584.68 " fill="none" id="Pile-backto-Tableau" style="stroke:#A80036;stroke-width:1.0;"/><polygon fill="none" points="376.06,535.13,394.67,525,386.43,544.52,376.06,535.13" style="stroke:#A80036;stroke-width:1.0;"/><!--MD5=[0cc7312144b7b0e8e85651666602557e]
reverse link Pile to Waste--><path codeLine="57" d="M447.26,540.7 C459.37,555.45 472.78,571.79 483.36,584.68 " fill="none" id="Pile-backto-Waste" style="stroke:#A80036;stroke-width:1.0;"/><polygon fill="none" points="441.66,544.9,434.38,525,452.48,536.02,441.66,544.9" style="stroke:#A80036;stroke-width:1.0;"/><!--MD5=[6d28caff8698f66462643c822ec8500b]
reverse link Pile to Foundation--><path codeLine="58" d="M370.37,523.35 C332.65,541.2 278.97,566.61 240.27,584.92 " fill="none" id="Pile-backto-Foundation" style="stroke:#A80036;stroke-width:1.0;"/><polygon fill="none" points="367.41,517.01,388.48,514.79,373.4,529.67,367.41,517.01" style="stroke:#A80036;stroke-width:1.0;"/><!--MD5=[d9d602483ecc690d44947c23ba829770]
reverse link Pile to Card--><path codeLine="59" d="M407.2,538.26 C397.1,582.36 380.35,655.51 371.83,692.72 " fill="none" id="Pile-backto-Card" style="stroke:#A80036;stroke-width:1.0;"/><polygon fill="#FFFFFF" points="410.16,525.31,404.9223,530.2664,407.4829,537.0076,412.7206,532.0512,410.16,525.31" style="stroke:#A80036;stroke-width:1.0;"/><text fill="#000000" font-family="sans-serif" font-size="13" lengthAdjust="spacing" textLength="33" x="336.1073" y="682.0567">.0-13</text><!--MD5=[570e651fcc8417d55cbda0d286d7d10f]
link Stock to Card--><path codeLine="60" d="M572.78,625.26 C567.02,627.86 561.09,630.51 555.5,633 C502.23,656.71 440.33,683.8 402.29,700.41 " fill="none" id="Stock-to-Card" style="stroke:#A80036;stroke-width:1.0;"/><polygon fill="#A80036" points="397.31,702.58,407.1587,702.6373,401.8908,700.5759,403.9521,695.308,397.31,702.58" style="stroke:#A80036;stroke-width:1.0;"/><text fill="#000000" font-family="sans-serif" font-size="13" lengthAdjust="spacing" textLength="16" x="404.9507" y="695.3445">24</text><!--MD5=[335c588940b99cdeda2c3dd852faaee0]
link Tableau to Card--><path codeLine="61" d="M329.7,633 C336.85,649.14 346.47,670.82 354.07,687.97 " fill="none" id="Tableau-to-Card" style="stroke:#A80036;stroke-width:1.0;"/><polygon fill="#A80036" points="356.16,692.68,356.1657,682.8311,354.132,688.1098,348.8533,686.076,356.16,692.68" style="stroke:#A80036;stroke-width:1.0;"/><!--MD5=[e648539d6e20c171ea15533740fa2cf9]
link Waste to Card--><path codeLine="62" d="M472.99,633 C451.66,649.62 422.8,672.12 400.51,689.5 " fill="none" id="Waste-to-Card" style="stroke:#A80036;stroke-width:1.0;"/><polygon fill="#A80036" points="396.42,692.68,405.9781,690.3048,400.3645,689.6073,401.0619,683.9936,396.42,692.68" style="stroke:#A80036;stroke-width:1.0;"/><text fill="#000000" font-family="sans-serif" font-size="13" lengthAdjust="spacing" textLength="8" x="394.738" y="682.007">n</text><!--MD5=[01ae9f68263e6bc4031c0aece6e20929]
link Card to Suit--><path codeLine="63" d="M346.1964,751.3141 C346.1964,751.3141 326.4,784.8 317.5,801 C304.68,824.35 291.07,851.07 280.72,871.85 " fill="none" id="Card-Suit" style="stroke:#A80036;stroke-width:1.0;"/><polygon fill="#A80036" points="274.89,883.62,282.468,877.3292,277.1085,879.1391,275.2986,873.7796,274.89,883.62" style="stroke:#A80036;stroke-width:1.0;"/><line style="stroke:#A80036;stroke-width:1.0;" x1="277.1085" x2="280.66" y1="879.1391" y2="871.97"/><polygon fill="#A80036" points="352.38,741.03,345.8601,744.1108,346.1964,751.3141,352.7162,748.2333,352.38,741.03" style="stroke:#A80036;stroke-width:1.0;"/><!--MD5=[dab4fdc688f775bd2cd14c67a04f3f7b]
link Card to Rank--><path codeLine="64" d="M366.5,753.18 C366.5,753.18 366.5,775.61 366.5,787.56 " fill="none" id="Card-Rank" style="stroke:#A80036;stroke-width:1.0;"/><polygon fill="#A80036" points="366.5,800.71,370.5,791.71,366.5,795.71,362.5,791.71,366.5,800.71" style="stroke:#A80036;stroke-width:1.0;"/><line style="stroke:#A80036;stroke-width:1.0;" x1="366.5" x2="366.5" y1="795.71" y2="787.71"/><polygon fill="#A80036" points="366.5,741.18,362.5,747.18,366.5,753.18,370.5,747.18,366.5,741.18" style="stroke:#A80036;stroke-width:1.0;"/><!--MD5=[92e69002428655c2f89f44ff64d31fb0]
link Foundation to Suit--><path codeLine="65" d="M197.15,633.31 C210.21,687.2 242.48,820.29 256.64,878.72 " fill="none" id="Foundation-to-Suit" style="stroke:#A80036;stroke-width:1.0;"/><polygon fill="#A80036" points="257.88,883.8,259.6315,874.1081,256.6942,878.9426,251.8597,876.0054,257.88,883.8" style="stroke:#A80036;stroke-width:1.0;"/><!--MD5=[3f3e21409bc1ba7b69847dd87d001f55]
link Foundation to Card--><path codeLine="66" d="M229.47,633 C259.72,651.32 301.74,676.78 331.25,694.65 " fill="none" id="Foundation-to-Card" style="stroke:#A80036;stroke-width:1.0;"/><polygon fill="#A80036" points="335.88,697.45,330.26,689.362,331.6052,694.8566,326.1106,696.2017,335.88,697.45" style="stroke:#A80036;stroke-width:1.0;"/><text fill="#000000" font-family="sans-serif" font-size="13" lengthAdjust="spacing" textLength="33" x="295.0757" y="690.0477">.0-13</text><!--MD5=[4dce8a7c926835c26b617333aef55021]
reverse link Suit to Heart--><path codeLine="67" d="M241.67,949.85 C221.23,988.1 191.43,1043.87 174.83,1074.93 " fill="none" id="Suit-backto-Heart" style="stroke:#A80036;stroke-width:1.0;"/><polygon fill="none" points="235.52,946.52,251.12,932.18,247.86,953.11,235.52,946.52" style="stroke:#A80036;stroke-width:1.0;"/><!--MD5=[1f6eb2bb0d8a343fbbac7006c87fddfb]
reverse link Suit to Diamond--><path codeLine="68" d="M222.38,945.48 C179.28,983.73 112.86,1042.67 76.5,1074.93 " fill="none" id="Suit-backto-Diamond" style="stroke:#A80036;stroke-width:1.0;"/><polygon fill="none" points="217.78,940.21,237.38,932.18,227.07,950.69,217.78,940.21" style="stroke:#A80036;stroke-width:1.0;"/><!--MD5=[177767f5f369ddd7a2766db2fec86924]
link Suit to Color--><path codeLine="69" d="M263.5,932.18 C263.5,966.84 263.5,1032.13 263.5,1069.61 " fill="none" id="Suit-to-Color" style="stroke:#A80036;stroke-width:1.0;stroke-dasharray:7.0,7.0;"/><polygon fill="#A80036" points="263.5,1074.93,267.5,1065.93,263.5,1069.93,259.5,1065.93,263.5,1074.93" style="stroke:#A80036;stroke-width:1.0;"/><!--MD5=[9b45de31d6fe19597a5b8dc38904d60b]
reverse link Suit to club--><path codeLine="70" d="M278.02,950.81 C286.93,971.93 300.02,996.85 317.5,1015 C326.75,1024.6 396.65,1061.73 437.35,1082.93 " fill="none" id="Suit-backto-club" style="stroke:#A80036;stroke-width:1.0;"/><polygon fill="none" points="271.46,953.24,270.76,932.07,284.52,948.18,271.46,953.24" style="stroke:#A80036;stroke-width:1.0;"/><!--MD5=[87a89b153beae7d393e9829af90018d5]
reverse link Suit to Spade--><path codeLine="71" d="M283.87,950.46 C293.75,970.17 305.94,993.96 317.5,1015 C328.78,1035.53 342.37,1058.43 352.38,1074.97 " fill="none" id="Suit-backto-Spade" style="stroke:#A80036;stroke-width:1.0;"/><polygon fill="none" points="277.52,953.4,274.89,932.38,290.06,947.17,277.52,953.4" style="stroke:#A80036;stroke-width:1.0;"/><!--MD5=[b81b665d5bae56a154c8f98a24f7efd8]
link Heart to Read--><path codeLine="72" d="M162.5,1135 C162.5,1135 162.5,1158.68 162.5,1169.36 " fill="none" id="Heart-Read" style="stroke:#A80036;stroke-width:1.0;"/><polygon fill="#A80036" points="162.5,1182.68,166.5,1173.68,162.5,1177.68,158.5,1173.68,162.5,1182.68" style="stroke:#A80036;stroke-width:1.0;"/><line style="stroke:#A80036;stroke-width:1.0;" x1="162.5" x2="162.5" y1="1177.68" y2="1169.68"/><polygon fill="#A80036" points="162.5,1123,158.5,1129,162.5,1135,166.5,1129,162.5,1123" style="stroke:#A80036;stroke-width:1.0;"/><!--MD5=[b96672e19b359e55c300c3b121f5b3e6]
link Diamond to Read--><path codeLine="73" d="M83.5194,1131.2445 C83.5194,1131.2445 114.31,1160.39 128.19,1173.52 " fill="none" id="Diamond-Read" style="stroke:#A80036;stroke-width:1.0;"/><polygon fill="#A80036" points="137.86,1182.68,134.0686,1173.5901,134.2269,1179.2448,128.5723,1179.4031,137.86,1182.68" style="stroke:#A80036;stroke-width:1.0;"/><line style="stroke:#A80036;stroke-width:1.0;" x1="134.2269" x2="128.415" y1="1179.2448" y2="1173.745"/><polygon fill="#A80036" points="74.8,1123,76.4115,1130.0287,83.5194,1131.2445,81.9079,1124.2158,74.8,1123" style="stroke:#A80036;stroke-width:1.0;"/><!--MD5=[486c4ae53d074c3e37a0d869e2cf8cd9]
reverse link Color to Read--><path codeLine="74" d="M227.53,1137.75 C213.24,1152.74 197.27,1169.51 184.72,1182.68 " fill="none" id="Color-backto-Read" style="stroke:#A80036;stroke-width:1.0;"/><polygon fill="none" points="222.72,1132.65,241.58,1123,232.86,1142.31,222.72,1132.65" style="stroke:#A80036;stroke-width:1.0;"/><!--MD5=[ae9660355b3e737ee923fda5ff73a027]
link club to Black--><path codeLine="75" d="M436.5621,1131.7256 C436.5621,1131.7256 409.87,1160.03 397.77,1172.85 " fill="none" id="club-Black" style="stroke:#A80036;stroke-width:1.0;"/><polygon fill="#A80036" points="388.5,1182.68,397.584,1178.8745,391.9296,1179.0416,391.7625,1173.3872,388.5,1182.68" style="stroke:#A80036;stroke-width:1.0;"/><line style="stroke:#A80036;stroke-width:1.0;" x1="391.9296" x2="397.42" y1="1179.0416" y2="1173.22"/><polygon fill="#A80036" points="444.8,1123,437.7725,1124.6168,436.5621,1131.7256,443.5896,1130.1088,444.8,1123" style="stroke:#A80036;stroke-width:1.0;"/><!--MD5=[5e71cd03c38ae2dc5991a4eb9d4f46b1]
link Spade to Black--><path codeLine="76" d="M366.5,1135 C366.5,1135 366.5,1158.68 366.5,1169.36 " fill="none" id="Spade-Black" style="stroke:#A80036;stroke-width:1.0;"/><polygon fill="#A80036" points="366.5,1182.68,370.5,1173.68,366.5,1177.68,362.5,1173.68,366.5,1182.68" style="stroke:#A80036;stroke-width:1.0;"/><line style="stroke:#A80036;stroke-width:1.0;" x1="366.5" x2="366.5" y1="1177.68" y2="1169.68"/><polygon fill="#A80036" points="366.5,1123,362.5,1129,366.5,1135,370.5,1129,366.5,1123" style="stroke:#A80036;stroke-width:1.0;"/><!--MD5=[af66b58f2992f2e4db4f382db65f0624]
reverse link Color to Black--><path codeLine="77" d="M300.18,1137.75 C314.75,1152.74 331.05,1169.51 343.84,1182.68 " fill="none" id="Color-backto-Black" style="stroke:#A80036;stroke-width:1.0;"/><polygon fill="none" points="294.77,1142.22,285.85,1123,304.81,1132.47,294.77,1142.22" style="stroke:#A80036;stroke-width:1.0;"/><!--MD5=[9001b7784f739767bdfcf4132dff22eb]
@startuml
class Klondike
class Player
class Stock
class Tableau
class Waste
class Foundation
class Goal{
}
class Move{
- Destination: Pile 
- Origin: Pile
- carList: Card
}

Move - -> "Origin"  Pile
Move - -> "Destination" Pile
abstract Pile {
}
class Card {
}
abstract Suit
enum Rank {
A
2
3
4
5
6
7
8
9
10
J
Q
K
}
class Heart
class Diamond
abstract Color
class club
class Spade
class Read
class Black

Klondike *- -> Player
Klondike *- -> Stock
Klondike *- -> "7" Tableau
Klondike *- -> Waste
Klondike *- -> "4" Foundation

Player  - -> Goal
Goal - -> "4" Foundation
Goal ..> "n" Move 
Player ..> "n" Move
Pile <|- - Stock
Pile <|- - Tableau
Pile <|- - Waste
Pile <|- - Foundation
Pile o- - ".0-13" Card
Stock - -> "24" Card
Tableau - -> Card
Waste - -> "n" Card
Card *- -> Suit
Card *- -> Rank
Foundation - -> Suit
Foundation - -> ".0-13" Card
Suit <|- - Heart
Suit <|- - Diamond
Suit ..> Color
Suit <|- - club
Suit <|- - Spade
Heart *- -> Read
Diamond *- -> Read
Color <|- - Read
club *- -> Black
Spade *- -> Black
Color <|- - Black
@enduml

PlantUML version 1.2021.16(Wed Dec 08 17:25:22 UTC 2021)
(GPL source distribution)
Java Runtime: OpenJDK Runtime Environment
JVM: OpenJDK 64-Bit Server VM
Default Encoding: UTF-8
Language: en
Country: US
--></g></svg>