<?xml version="1.0" encoding="UTF-8" standalone="no"?><svg xmlns="http://www.w3.org/2000/svg" xmlns:xlink="http://www.w3.org/1999/xlink" contentScriptType="application/ecmascript" contentStyleType="text/css" height="441px" preserveAspectRatio="none" style="width:748px;height:441px;background:#FFFFFF;" version="1.1" viewBox="0 0 748 441" width="748px" zoomAndPan="magnify"><defs><filter height="300%" id="f15jji3pokagda" width="300%" x="-1" y="-1"><feGaussianBlur result="blurOut" stdDeviation="2.0"/><feColorMatrix in="blurOut" result="blurOut2" type="matrix" values="0 0 0 0 0 0 0 0 0 0 0 0 0 0 0 0 0 0 .4 0"/><feOffset dx="4.0" dy="4.0" in="blurOut2" result="blurOut3"/><feBlend in="SourceGraphic" in2="blurOut3" mode="normal"/></filter></defs><g><text fill="#000000" font-family="sans-serif" font-size="18" lengthAdjust="spacing" textLength="178" x="278.5" y="16.708">final State Conecta4</text><rect fill="#FEFECE" filter="url(#f15jji3pokagda)" height="60.8906" style="stroke:#A80036;stroke-width:1.5;" width="79" x="115" y="366.9531"/><text fill="#000000" font-family="sans-serif" font-size="12" lengthAdjust="spacing" textLength="46" x="131.5" y="380.0918">player1</text><line style="stroke:#A80036;stroke-width:1.5;" x1="116" x2="193" y1="384.9219" y2="384.9219"/><text fill="#000000" font-family="sans-serif" font-size="10" lengthAdjust="spacing" textLength="28" x="121" y="398.2041">id = 1</text><text fill="#000000" font-family="sans-serif" font-size="10" lengthAdjust="spacing" textLength="54" x="121" y="409.8447">Token = 21</text><text fill="#000000" font-family="sans-serif" font-size="10" lengthAdjust="spacing" textLength="67" x="121" y="421.4854">Colour = Blue</text><rect fill="#FEFECE" filter="url(#f15jji3pokagda)" height="60.8906" style="stroke:#A80036;stroke-width:1.5;" width="77" x="497" y="366.9531"/><text fill="#000000" font-family="sans-serif" font-size="12" lengthAdjust="spacing" textLength="46" x="512.5" y="380.0918">player2</text><line style="stroke:#A80036;stroke-width:1.5;" x1="498" x2="573" y1="384.9219" y2="384.9219"/><text fill="#000000" font-family="sans-serif" font-size="10" lengthAdjust="spacing" textLength="28" x="503" y="398.2041">id = 2</text><text fill="#000000" font-family="sans-serif" font-size="10" lengthAdjust="spacing" textLength="54" x="503" y="409.8447">Token = 21</text><text fill="#000000" font-family="sans-serif" font-size="10" lengthAdjust="spacing" textLength="65" x="503" y="421.4854">Colour = Red</text><rect fill="#FEFECE" filter="url(#f15jji3pokagda)" height="49.25" style="stroke:#A80036;stroke-width:1.5;" width="70" x="338.5" y="148.9531"/><text fill="#000000" font-family="sans-serif" font-size="12" lengthAdjust="spacing" textLength="37" x="355" y="162.0918">Board</text><line style="stroke:#A80036;stroke-width:1.5;" x1="339.5" x2="407.5" y1="166.9219" y2="166.9219"/><text fill="#000000" font-family="sans-serif" font-size="10" lengthAdjust="spacing" textLength="58" x="344.5" y="180.2041">Column = 6</text><text fill="#000000" font-family="sans-serif" font-size="10" lengthAdjust="spacing" textLength="41" x="344.5" y="191.8447">Row = 7</text><rect fill="#FEFECE" filter="url(#f15jji3pokagda)" height="60.8906" style="stroke:#A80036;stroke-width:1.5;" width="115" x="433" y="27.9531"/><text fill="#000000" font-family="sans-serif" font-size="12" lengthAdjust="spacing" textLength="28" x="476.5" y="41.0918">Turn</text><line style="stroke:#A80036;stroke-width:1.5;" x1="434" x2="547" y1="45.9219" y2="45.9219"/><text fill="#000000" font-family="sans-serif" font-size="10" lengthAdjust="spacing" textLength="97" x="439" y="59.2041">firsPlayer = Player1</text><text fill="#000000" font-family="sans-serif" font-size="10" lengthAdjust="spacing" textLength="41" x="439" y="70.8447">Turn = 0</text><text fill="#000000" font-family="sans-serif" font-size="10" lengthAdjust="spacing" textLength="103" x="439" y="82.4854">remaining Turns = 42</text><rect fill="#FEFECE" filter="url(#f15jji3pokagda)" height="37.6094" style="stroke:#A80036;stroke-width:1.5;" width="48" x="349.5" y="39.4531"/><text fill="#000000" font-family="sans-serif" font-size="12" lengthAdjust="spacing" textLength="34" x="356.5" y="52.5918">Place</text><line style="stroke:#A80036;stroke-width:1.5;" x1="350.5" x2="396.5" y1="57.4219" y2="57.4219"/><text fill="#000000" font-family="sans-serif" font-size="10" lengthAdjust="spacing" textLength="28" x="355.5" y="70.7041">Token</text><rect fill="#FEFECE" filter="url(#f15jji3pokagda)" height="60.8906" style="stroke:#A80036;stroke-width:1.5;" width="78" x="583.5" y="27.9531"/><text fill="#000000" font-family="sans-serif" font-size="12" lengthAdjust="spacing" textLength="64" x="590.5" y="41.0918">Movement</text><line style="stroke:#A80036;stroke-width:1.5;" x1="584.5" x2="660.5" y1="45.9219" y2="45.9219"/><text fill="#000000" font-family="sans-serif" font-size="10" lengthAdjust="spacing" textLength="42" x="589.5" y="59.2041">Diagonal</text><text fill="#000000" font-family="sans-serif" font-size="10" lengthAdjust="spacing" textLength="49" x="589.5" y="70.8447">Horizontal</text><text fill="#000000" font-family="sans-serif" font-size="10" lengthAdjust="spacing" textLength="36" x="589.5" y="82.4854">Vertical</text><rect fill="#FEFECE" filter="url(#f15jji3pokagda)" height="49.25" style="stroke:#A80036;stroke-width:1.5;" width="75" x="7" y="257.9531"/><text fill="#000000" font-family="sans-serif" font-size="12" lengthAdjust="spacing" textLength="33" x="28" y="271.0918">Row1</text><line style="stroke:#A80036;stroke-width:1.5;" x1="8" x2="81" y1="275.9219" y2="275.9219"/><text fill="#000000" font-family="sans-serif" font-size="10" lengthAdjust="spacing" textLength="35" x="13" y="289.2041">id = A1</text><text fill="#000000" font-family="sans-serif" font-size="10" lengthAdjust="spacing" textLength="63" x="13" y="300.8447">Token = Blue</text><rect fill="#FEFECE" filter="url(#f15jji3pokagda)" height="49.25" style="stroke:#A80036;stroke-width:1.5;" width="75" x="117" y="257.9531"/><text fill="#000000" font-family="sans-serif" font-size="12" lengthAdjust="spacing" textLength="33" x="138" y="271.0918">Row2</text><line style="stroke:#A80036;stroke-width:1.5;" x1="118" x2="191" y1="275.9219" y2="275.9219"/><text fill="#000000" font-family="sans-serif" font-size="10" lengthAdjust="spacing" textLength="35" x="123" y="289.2041">id = A2</text><text fill="#000000" font-family="sans-serif" font-size="10" lengthAdjust="spacing" textLength="63" x="123" y="300.8447">Token = Blue</text><rect fill="#FEFECE" filter="url(#f15jji3pokagda)" height="49.25" style="stroke:#A80036;stroke-width:1.5;" width="75" x="227" y="257.9531"/><text fill="#000000" font-family="sans-serif" font-size="12" lengthAdjust="spacing" textLength="33" x="248" y="271.0918">Row3</text><line style="stroke:#A80036;stroke-width:1.5;" x1="228" x2="301" y1="275.9219" y2="275.9219"/><text fill="#000000" font-family="sans-serif" font-size="10" lengthAdjust="spacing" textLength="35" x="233" y="289.2041">id = A3</text><text fill="#000000" font-family="sans-serif" font-size="10" lengthAdjust="spacing" textLength="63" x="233" y="300.8447">Token = Blue</text><rect fill="#FEFECE" filter="url(#f15jji3pokagda)" height="49.25" style="stroke:#A80036;stroke-width:1.5;" width="73" x="337" y="257.9531"/><text fill="#000000" font-family="sans-serif" font-size="12" lengthAdjust="spacing" textLength="54" x="346.5" y="271.0918">Column1</text><line style="stroke:#A80036;stroke-width:1.5;" x1="338" x2="409" y1="275.9219" y2="275.9219"/><text fill="#000000" font-family="sans-serif" font-size="10" lengthAdjust="spacing" textLength="35" x="343" y="289.2041">id = B1</text><text fill="#000000" font-family="sans-serif" font-size="10" lengthAdjust="spacing" textLength="61" x="343" y="300.8447">Token = Red</text><rect fill="#FEFECE" filter="url(#f15jji3pokagda)" height="49.25" style="stroke:#A80036;stroke-width:1.5;" width="73" x="445" y="257.9531"/><text fill="#000000" font-family="sans-serif" font-size="12" lengthAdjust="spacing" textLength="54" x="454.5" y="271.0918">Column2</text><line style="stroke:#A80036;stroke-width:1.5;" x1="446" x2="517" y1="275.9219" y2="275.9219"/><text fill="#000000" font-family="sans-serif" font-size="10" lengthAdjust="spacing" textLength="35" x="451" y="289.2041">id = B2</text><text fill="#000000" font-family="sans-serif" font-size="10" lengthAdjust="spacing" textLength="61" x="451" y="300.8447">Token = Red</text><rect fill="#FEFECE" filter="url(#f15jji3pokagda)" height="49.25" style="stroke:#A80036;stroke-width:1.5;" width="73" x="553" y="257.9531"/><text fill="#000000" font-family="sans-serif" font-size="12" lengthAdjust="spacing" textLength="54" x="562.5" y="271.0918">Column3</text><line style="stroke:#A80036;stroke-width:1.5;" x1="554" x2="625" y1="275.9219" y2="275.9219"/><text fill="#000000" font-family="sans-serif" font-size="10" lengthAdjust="spacing" textLength="35" x="559" y="289.2041">id = B3</text><text fill="#000000" font-family="sans-serif" font-size="10" lengthAdjust="spacing" textLength="61" x="559" y="300.8447">Token = Red</text><rect fill="#FEFECE" filter="url(#f15jji3pokagda)" height="49.25" style="stroke:#A80036;stroke-width:1.5;" width="73" x="661" y="257.9531"/><text fill="#000000" font-family="sans-serif" font-size="12" lengthAdjust="spacing" textLength="54" x="670.5" y="271.0918">Column4</text><line style="stroke:#A80036;stroke-width:1.5;" x1="662" x2="733" y1="275.9219" y2="275.9219"/><text fill="#000000" font-family="sans-serif" font-size="10" lengthAdjust="spacing" textLength="35" x="667" y="289.2041">id = B3</text><text fill="#000000" font-family="sans-serif" font-size="10" lengthAdjust="spacing" textLength="61" x="667" y="300.8447">Token = Red</text><!--MD5=[7e8ae7adab3c8e6fc2399eef0b4d7cd5]
link Place to Board--><path codeLine="19" d="M373.5,89.6131 C373.5,89.6131 373.5,121.1131 373.5,135.6531 " fill="none" id="Place-Board" style="stroke:#A80036;stroke-width:1.0;"/><polygon fill="#A80036" points="373.5,148.8431,377.5,139.8431,373.5,143.8431,369.5,139.8431,373.5,148.8431" style="stroke:#A80036;stroke-width:1.0;"/><line style="stroke:#A80036;stroke-width:1.0;" x1="373.5" x2="373.5" y1="143.8431" y2="135.8431"/><polygon fill="#A80036" points="373.5,77.6131,369.5,83.6131,373.5,89.6131,377.5,83.6131,373.5,77.6131" style="stroke:#A80036;stroke-width:1.0;"/><!--MD5=[67cfdaf8d87a575458e29aba8b2d3ac2]
link Board to Row1--><path codeLine="20" d="M326.4889,187.1129 C326.4889,187.1129 177.4,229.5331 99.5,257.9531 C97.82,258.5631 96.12,259.2031 94.4,259.8531 " fill="none" id="Board-Row1" style="stroke:#A80036;stroke-width:1.0;"/><polygon fill="#A80036" points="82.16,264.7331,92.0013,265.1186,86.805,262.8828,89.0408,257.6865,82.16,264.7331" style="stroke:#A80036;stroke-width:1.0;"/><line style="stroke:#A80036;stroke-width:1.0;" x1="86.805" x2="94.235" y1="262.8828" y2="259.9231"/><polygon fill="#A80036" points="338.06,183.9331,331.2146,181.666,326.4889,187.1129,333.3344,189.38,338.06,183.9331" style="stroke:#A80036;stroke-width:1.0;"/><!--MD5=[7863fc81cb21f870fc2986d0dd97db3c]
link Board to Row2--><path codeLine="21" d="M327.5247,196.9039 C327.5247,196.9039 240.74,239.3131 204.07,257.2331 " fill="none" id="Board-Row2" style="stroke:#A80036;stroke-width:1.0;"/><polygon fill="#A80036" points="192.17,263.0531,202.0123,262.6929,196.6617,260.8567,198.498,255.5061,192.17,263.0531" style="stroke:#A80036;stroke-width:1.0;"/><line style="stroke:#A80036;stroke-width:1.0;" x1="196.6617" x2="203.85" y1="260.8567" y2="257.3431"/><polygon fill="#A80036" points="338.31,191.6431,331.1637,190.6784,327.5247,196.9039,334.6709,197.8687,338.31,191.6431" style="stroke:#A80036;stroke-width:1.0;"/><!--MD5=[9eb1c0611c32f4e10cb5590e71197fa1]
link Board to Row3--><path codeLine="22" d="M340.7525,206.6156 C340.7525,206.6156 311.27,235.5431 297.93,248.6431 " fill="none" id="Board-Row3" style="stroke:#A80036;stroke-width:1.0;"/><polygon fill="#A80036" points="288.62,257.7731,297.8423,254.3163,292.1856,254.2679,292.234,248.6113,288.62,257.7731" style="stroke:#A80036;stroke-width:1.0;"/><line style="stroke:#A80036;stroke-width:1.0;" x1="292.1856" x2="297.9" y1="254.2679" y2="248.6681"/><polygon fill="#A80036" points="349.31,198.2031,342.2271,199.5569,340.7525,206.6156,347.8354,205.2618,349.31,198.2031" style="stroke:#A80036;stroke-width:1.0;"/><!--MD5=[eb932e5ca403a02822a842fa579f7c5c]
reverse link Row1 to player1--><path codeLine="23" d="M76.75,316.5831 C92.21,332.4731 110.59,351.3431 125.59,366.7531 " fill="none" id="Row1-backto-player1" style="stroke:#A80036;stroke-width:1.0;"/><polygon fill="#FFFFFF" points="67.56,307.1431,68.8807,314.2323,75.9325,315.7397,74.6118,308.6506,67.56,307.1431" style="stroke:#A80036;stroke-width:1.0;"/><!--MD5=[1d51d22b7ef8c57a3ca2fb06519e22cd]
reverse link Row2 to player1--><path codeLine="24" d="M154.5,320.2331 C154.5,335.2931 154.5,352.5031 154.5,366.7531 " fill="none" id="Row2-backto-player1" style="stroke:#A80036;stroke-width:1.0;"/><polygon fill="#FFFFFF" points="154.5,307.1431,150.5,313.1431,154.5,319.1431,158.5,313.1431,154.5,307.1431" style="stroke:#A80036;stroke-width:1.0;"/><!--MD5=[4112714ab0b3bba3e801d69e7a76940e]
reverse link Row3 to player1--><path codeLine="25" d="M232.25,316.5831 C216.79,332.4731 198.41,351.3431 183.41,366.7531 " fill="none" id="Row3-backto-player1" style="stroke:#A80036;stroke-width:1.0;"/><polygon fill="#FFFFFF" points="241.44,307.1431,234.3882,308.6506,233.0675,315.7397,240.1193,314.2323,241.44,307.1431" style="stroke:#A80036;stroke-width:1.0;"/><!--MD5=[97981c002ba7e8a3f6cc285a043fb647]
link Board to Column1--><path codeLine="26" d="M373.5,210.2031 C373.5,210.2031 373.5,233.8431 373.5,244.4931 " fill="none" id="Board-Column1" style="stroke:#A80036;stroke-width:1.0;"/><polygon fill="#A80036" points="373.5,257.7731,377.5,248.7731,373.5,252.7731,369.5,248.7731,373.5,257.7731" style="stroke:#A80036;stroke-width:1.0;"/><line style="stroke:#A80036;stroke-width:1.0;" x1="373.5" x2="373.5" y1="252.7731" y2="244.7731"/><polygon fill="#A80036" points="373.5,198.2031,369.5,204.2031,373.5,210.2031,377.5,204.2031,373.5,198.2031" style="stroke:#A80036;stroke-width:1.0;"/><!--MD5=[1572e385649b3237847f595c50065260]
link Board to Column2--><path codeLine="27" d="M405.9947,206.6488 C405.9947,206.6488 434.87,235.2531 447.99,248.2531 " fill="none" id="Board-Column2" style="stroke:#A80036;stroke-width:1.0;"/><polygon fill="#A80036" points="457.6,257.7731,454.0288,248.5945,454.0508,254.2514,448.3939,254.2733,457.6,257.7731" style="stroke:#A80036;stroke-width:1.0;"/><line style="stroke:#A80036;stroke-width:1.0;" x1="454.0508" x2="448.365" y1="254.2514" y2="248.6231"/><polygon fill="#A80036" points="397.47,198.2031,398.9171,205.2675,405.9947,206.6488,404.5476,199.5844,397.47,198.2031" style="stroke:#A80036;stroke-width:1.0;"/><!--MD5=[2b62fa2f3291de6938af79dbe7e4f2cb]
link Board to Column3--><path codeLine="28" d="M419.4341,197.2075 C419.4341,197.2075 505.15,239.6731 541.2,257.5231 " fill="none" id="Board-Column3" style="stroke:#A80036;stroke-width:1.0;"/><polygon fill="#A80036" points="552.89,263.3131,546.5992,255.7352,548.4091,261.0946,543.0496,262.9046,552.89,263.3131" style="stroke:#A80036;stroke-width:1.0;"/><line style="stroke:#A80036;stroke-width:1.0;" x1="548.4091" x2="541.24" y1="261.0946" y2="257.5431"/><polygon fill="#A80036" points="408.68,191.8831,412.2823,198.13,419.4341,197.2075,415.8318,190.9606,408.68,191.8831" style="stroke:#A80036;stroke-width:1.0;"/><!--MD5=[3ddae6f42efbdc526510a816d2669e2e]
link Board to Column4--><path codeLine="29" d="M420.4309,187.2596 C420.4309,187.2596 567,229.5731 643.5,257.9531 C645.18,258.5731 646.88,259.2231 648.6,259.8931 " fill="none" id="Board-Column4" style="stroke:#A80036;stroke-width:1.0;"/><polygon fill="#A80036" points="660.83,264.8531,653.9939,257.7631,656.1968,262.9735,650.9864,265.1763,660.83,264.8531" style="stroke:#A80036;stroke-width:1.0;"/><line style="stroke:#A80036;stroke-width:1.0;" x1="656.1968" x2="648.78" y1="262.9735" y2="259.9681"/><polygon fill="#A80036" points="408.87,184.0431,413.5783,189.505,420.4309,187.2596,415.7226,181.7977,408.87,184.0431" style="stroke:#A80036;stroke-width:1.0;"/><!--MD5=[fe0cb943b9c4117160294fbcd029cdd8]
reverse link Column1 to player2--><path codeLine="30" d="M418.33,314.7231 C442.94,331.8931 473.16,352.9731 496.75,369.4231 " fill="none" id="Column1-backto-player2" style="stroke:#A80036;stroke-width:1.0;"/><polygon fill="#FFFFFF" points="407.46,307.1431,410.093,313.8563,417.3025,314.0079,414.6695,307.2946,407.46,307.1431" style="stroke:#A80036;stroke-width:1.0;"/><!--MD5=[d0d5f49461dd9f3d08ba3a63670ac307]
reverse link Column2 to player2--><path codeLine="31" d="M498.64,319.3131 C505.94,334.5931 514.36,352.2131 521.31,366.7531 " fill="none" id="Column2-backto-player2" style="stroke:#A80036;stroke-width:1.0;"/><polygon fill="#FFFFFF" points="492.82,307.1431,491.7956,314.2811,497.9905,317.9721,499.0149,310.8341,492.82,307.1431" style="stroke:#A80036;stroke-width:1.0;"/><!--MD5=[de8ece463c10aa9b4df1767c647115db]
reverse link Column3 to player2--><path codeLine="32" d="M572.36,319.3131 C565.06,334.5931 556.64,352.2131 549.69,366.7531 " fill="none" id="Column3-backto-player2" style="stroke:#A80036;stroke-width:1.0;"/><polygon fill="#FFFFFF" points="578.18,307.1431,571.9851,310.8341,573.0095,317.9721,579.2044,314.2811,578.18,307.1431" style="stroke:#A80036;stroke-width:1.0;"/><!--MD5=[ff92988d76e6cb9bb1c16e3ae09e28e1]
reverse link Column4 to player2--><path codeLine="33" d="M652.67,314.7231 C628.06,331.8931 597.84,352.9731 574.25,369.4231 " fill="none" id="Column4-backto-player2" style="stroke:#A80036;stroke-width:1.0;"/><polygon fill="#FFFFFF" points="663.54,307.1431,656.3305,307.2946,653.6975,314.0079,660.907,313.8563,663.54,307.1431" style="stroke:#A80036;stroke-width:1.0;"/><!--MD5=[ec8891e023a08dc3d9c498ad806de02f]
@startuml
title final State Conecta4

object player1
object player2
object Board
object Turn
object Place
object Movement
object Row1
object Row2
object Row3
object Column1
object Column2
object Column3
object Column4



Place *- -> Board 
Board *- -> Row1
Board *- -> Row2
Board *- -> Row3
Row1 o- - player1
Row2 o- - player1
Row3 o- - player1
Board *- -> Column1
Board *- -> Column2
Board *- -> Column3
Board *- -> Column4
Column1 o- - player2
Column2 o- - player2
Column3 o- - player2
Column4 o- - player2

player1 : id = 1
player1 : Token = 21
player1 : Colour = Blue
player2 : id = 2
player2 : Token = 21
player2 : Colour = Red
Board : Column = 6
Board : Row = 7
Turn : firsPlayer = Player1
Turn : Turn = 0
Turn : remaining Turns = 42
Movement : Diagonal
Movement : Horizontal
Movement : Vertical
Place : Token
Row1 : id = A1
Row1 : Token = Blue
Row2 : id = A2
Row2 : Token = Blue
Row3 : id = A3
Row3 : Token = Blue
Column1 : id = B1
Column1 : Token = Red
Column2 : id = B2
Column2 : Token = Red
Column3 : id = B3
Column3 : Token = Red
Column4 : id = B3
Column4 : Token = Red
@enduml

PlantUML version 1.2021.16(Wed Dec 08 17:25:22 UTC 2021)
(GPL source distribution)
Java Runtime: OpenJDK Runtime Environment
JVM: OpenJDK 64-Bit Server VM
Default Encoding: UTF-8
Language: en
Country: US
--></g></svg>