<?xml version="1.0" encoding="UTF-8" standalone="no"?><svg xmlns="http://www.w3.org/2000/svg" xmlns:xlink="http://www.w3.org/1999/xlink" contentScriptType="application/ecmascript" contentStyleType="text/css" height="807px" preserveAspectRatio="none" style="width:187px;height:807px;background:#FFFFFF;" version="1.1" viewBox="0 0 187 807" width="187px" zoomAndPan="magnify"><defs><filter height="300%" id="f1gf1l8v5ivn4h" width="300%" x="-1" y="-1"><feGaussianBlur result="blurOut" stdDeviation="2.0"/><feColorMatrix in="blurOut" result="blurOut2" type="matrix" values="0 0 0 0 0 0 0 0 0 0 0 0 0 0 0 0 0 0 .4 0"/><feOffset dx="4.0" dy="4.0" in="blurOut2" result="blurOut3"/><feBlend in="SourceGraphic" in2="blurOut3" mode="normal"/></filter></defs><g><!--MD5=[098beadbf69e9cfe04b4f8d619d193b2]
class Conecta4--><rect codeLine="1" fill="#FEFECE" filter="url(#f1gf1l8v5ivn4h)" height="48" id="Conecta4" style="stroke:#A80036;stroke-width:1.5;" width="92" x="45.5" y="7"/><ellipse cx="60.5" cy="23" fill="#ADD1B2" rx="11" ry="11" style="stroke:#A80036;stroke-width:1.0;"/><path d="M63.4688,28.6406 Q62.8906,28.9375 62.25,29.0781 Q61.6094,29.2344 60.9063,29.2344 Q58.4063,29.2344 57.0781,27.5938 Q55.7656,25.9375 55.7656,22.8125 Q55.7656,19.6875 57.0781,18.0313 Q58.4063,16.375 60.9063,16.375 Q61.6094,16.375 62.25,16.5313 Q62.9063,16.6875 63.4688,16.9844 L63.4688,19.7031 Q62.8438,19.125 62.25,18.8594 Q61.6563,18.5781 61.0313,18.5781 Q59.6875,18.5781 59,19.6563 Q58.3125,20.7188 58.3125,22.8125 Q58.3125,24.9063 59,25.9844 Q59.6875,27.0469 61.0313,27.0469 Q61.6563,27.0469 62.25,26.7813 Q62.8438,26.5 63.4688,25.9219 L63.4688,28.6406 Z " fill="#000000"/><text fill="#000000" font-family="sans-serif" font-size="12" lengthAdjust="spacing" textLength="60" x="74.5" y="27.1543">Conecta4</text><line style="stroke:#A80036;stroke-width:1.5;" x1="46.5" x2="136.5" y1="39" y2="39"/><line style="stroke:#A80036;stroke-width:1.5;" x1="46.5" x2="136.5" y1="47" y2="47"/><!--MD5=[9563755d011c5cec7ec66dc53565a59e]
class Board--><rect codeLine="2" fill="#FEFECE" filter="url(#f1gf1l8v5ivn4h)" height="48" id="Board" style="stroke:#A80036;stroke-width:1.5;" width="69" x="7" y="223"/><ellipse cx="22" cy="239" fill="#ADD1B2" rx="11" ry="11" style="stroke:#A80036;stroke-width:1.0;"/><path d="M24.9688,244.6406 Q24.3906,244.9375 23.75,245.0781 Q23.1094,245.2344 22.4063,245.2344 Q19.9063,245.2344 18.5781,243.5938 Q17.2656,241.9375 17.2656,238.8125 Q17.2656,235.6875 18.5781,234.0313 Q19.9063,232.375 22.4063,232.375 Q23.1094,232.375 23.75,232.5313 Q24.4063,232.6875 24.9688,232.9844 L24.9688,235.7031 Q24.3438,235.125 23.75,234.8594 Q23.1563,234.5781 22.5313,234.5781 Q21.1875,234.5781 20.5,235.6563 Q19.8125,236.7188 19.8125,238.8125 Q19.8125,240.9063 20.5,241.9844 Q21.1875,243.0469 22.5313,243.0469 Q23.1563,243.0469 23.75,242.7813 Q24.3438,242.5 24.9688,241.9219 L24.9688,244.6406 Z " fill="#000000"/><text fill="#000000" font-family="sans-serif" font-size="12" lengthAdjust="spacing" textLength="37" x="36" y="243.1543">Board</text><line style="stroke:#A80036;stroke-width:1.5;" x1="8" x2="75" y1="255" y2="255"/><line style="stroke:#A80036;stroke-width:1.5;" x1="8" x2="75" y1="263" y2="263"/><!--MD5=[2cb47ba637a0d19583e6199456f6ad0b]
class Player--><rect codeLine="3" fill="#FEFECE" filter="url(#f1gf1l8v5ivn4h)" height="48" id="Player" style="stroke:#A80036;stroke-width:1.5;" width="70" x="103.5" y="115"/><ellipse cx="118.5" cy="131" fill="#ADD1B2" rx="11" ry="11" style="stroke:#A80036;stroke-width:1.0;"/><path d="M121.4688,136.6406 Q120.8906,136.9375 120.25,137.0781 Q119.6094,137.2344 118.9063,137.2344 Q116.4063,137.2344 115.0781,135.5938 Q113.7656,133.9375 113.7656,130.8125 Q113.7656,127.6875 115.0781,126.0313 Q116.4063,124.375 118.9063,124.375 Q119.6094,124.375 120.25,124.5313 Q120.9063,124.6875 121.4688,124.9844 L121.4688,127.7031 Q120.8438,127.125 120.25,126.8594 Q119.6563,126.5781 119.0313,126.5781 Q117.6875,126.5781 117,127.6563 Q116.3125,128.7188 116.3125,130.8125 Q116.3125,132.9063 117,133.9844 Q117.6875,135.0469 119.0313,135.0469 Q119.6563,135.0469 120.25,134.7813 Q120.8438,134.5 121.4688,133.9219 L121.4688,136.6406 Z " fill="#000000"/><text fill="#000000" font-family="sans-serif" font-size="12" lengthAdjust="spacing" textLength="38" x="132.5" y="135.1543">Player</text><line style="stroke:#A80036;stroke-width:1.5;" x1="104.5" x2="172.5" y1="147" y2="147"/><line style="stroke:#A80036;stroke-width:1.5;" x1="104.5" x2="172.5" y1="155" y2="155"/><!--MD5=[dd91eae41778c45e12552e5329e240e8]
class Turn--><rect codeLine="4" fill="#FEFECE" filter="url(#f1gf1l8v5ivn4h)" height="48" id="Turn" style="stroke:#A80036;stroke-width:1.5;" width="60" x="111.5" y="223"/><ellipse cx="126.5" cy="239" fill="#ADD1B2" rx="11" ry="11" style="stroke:#A80036;stroke-width:1.0;"/><path d="M129.4688,244.6406 Q128.8906,244.9375 128.25,245.0781 Q127.6094,245.2344 126.9063,245.2344 Q124.4063,245.2344 123.0781,243.5938 Q121.7656,241.9375 121.7656,238.8125 Q121.7656,235.6875 123.0781,234.0313 Q124.4063,232.375 126.9063,232.375 Q127.6094,232.375 128.25,232.5313 Q128.9063,232.6875 129.4688,232.9844 L129.4688,235.7031 Q128.8438,235.125 128.25,234.8594 Q127.6563,234.5781 127.0313,234.5781 Q125.6875,234.5781 125,235.6563 Q124.3125,236.7188 124.3125,238.8125 Q124.3125,240.9063 125,241.9844 Q125.6875,243.0469 127.0313,243.0469 Q127.6563,243.0469 128.25,242.7813 Q128.8438,242.5 129.4688,241.9219 L129.4688,244.6406 Z " fill="#000000"/><text fill="#000000" font-family="sans-serif" font-size="12" lengthAdjust="spacing" textLength="28" x="140.5" y="243.1543">Turn</text><line style="stroke:#A80036;stroke-width:1.5;" x1="112.5" x2="170.5" y1="255" y2="255"/><line style="stroke:#A80036;stroke-width:1.5;" x1="112.5" x2="170.5" y1="263" y2="263"/><!--MD5=[8515a37c80da559ff7ce07f8a9e75d30]
class Place--><rect codeLine="5" fill="#FEFECE" filter="url(#f1gf1l8v5ivn4h)" height="48" id="Place" style="stroke:#A80036;stroke-width:1.5;" width="66" x="106.5" y="331"/><ellipse cx="121.5" cy="347" fill="#ADD1B2" rx="11" ry="11" style="stroke:#A80036;stroke-width:1.0;"/><path d="M124.4688,352.6406 Q123.8906,352.9375 123.25,353.0781 Q122.6094,353.2344 121.9063,353.2344 Q119.4063,353.2344 118.0781,351.5938 Q116.7656,349.9375 116.7656,346.8125 Q116.7656,343.6875 118.0781,342.0313 Q119.4063,340.375 121.9063,340.375 Q122.6094,340.375 123.25,340.5313 Q123.9063,340.6875 124.4688,340.9844 L124.4688,343.7031 Q123.8438,343.125 123.25,342.8594 Q122.6563,342.5781 122.0313,342.5781 Q120.6875,342.5781 120,343.6563 Q119.3125,344.7188 119.3125,346.8125 Q119.3125,348.9063 120,349.9844 Q120.6875,351.0469 122.0313,351.0469 Q122.6563,351.0469 123.25,350.7813 Q123.8438,350.5 124.4688,349.9219 L124.4688,352.6406 Z " fill="#000000"/><text fill="#000000" font-family="sans-serif" font-size="12" lengthAdjust="spacing" textLength="34" x="135.5" y="351.1543">Place</text><line style="stroke:#A80036;stroke-width:1.5;" x1="107.5" x2="171.5" y1="363" y2="363"/><line style="stroke:#A80036;stroke-width:1.5;" x1="107.5" x2="171.5" y1="371" y2="371"/><!--MD5=[d8c8cfd5ca149094f5b67f9f607a5ec7]
class Token--><rect codeLine="6" fill="#FEFECE" filter="url(#f1gf1l8v5ivn4h)" height="73.6094" id="Token" style="stroke:#A80036;stroke-width:1.5;" width="70" x="103.5" y="439"/><ellipse cx="118.5" cy="455" fill="#ADD1B2" rx="11" ry="11" style="stroke:#A80036;stroke-width:1.0;"/><path d="M121.4688,460.6406 Q120.8906,460.9375 120.25,461.0781 Q119.6094,461.2344 118.9063,461.2344 Q116.4063,461.2344 115.0781,459.5938 Q113.7656,457.9375 113.7656,454.8125 Q113.7656,451.6875 115.0781,450.0313 Q116.4063,448.375 118.9063,448.375 Q119.6094,448.375 120.25,448.5313 Q120.9063,448.6875 121.4688,448.9844 L121.4688,451.7031 Q120.8438,451.125 120.25,450.8594 Q119.6563,450.5781 119.0313,450.5781 Q117.6875,450.5781 117,451.6563 Q116.3125,452.7188 116.3125,454.8125 Q116.3125,456.9063 117,457.9844 Q117.6875,459.0469 119.0313,459.0469 Q119.6563,459.0469 120.25,458.7813 Q120.8438,458.5 121.4688,457.9219 L121.4688,460.6406 Z " fill="#000000"/><text fill="#000000" font-family="sans-serif" font-size="12" lengthAdjust="spacing" textLength="38" x="132.5" y="459.1543">Token</text><line style="stroke:#A80036;stroke-width:1.5;" x1="104.5" x2="172.5" y1="471" y2="471"/><text fill="#000000" font-family="sans-serif" font-size="11" lengthAdjust="spacing" textLength="47" x="109.5" y="485.2104">Blue: 21</text><text fill="#000000" font-family="sans-serif" font-size="11" lengthAdjust="spacing" textLength="43" x="109.5" y="498.0151">Red: 21</text><line style="stroke:#A80036;stroke-width:1.5;" x1="104.5" x2="172.5" y1="504.6094" y2="504.6094"/><!--MD5=[fea3dc74c7473bae0133d22265a91e2f]
class Cell--><rect codeLine="10" fill="#FEFECE" filter="url(#f1gf1l8v5ivn4h)" height="73.6094" id="Cell" style="stroke:#A80036;stroke-width:1.5;" width="66" x="58.5" y="573"/><ellipse cx="78.9" cy="589" fill="#ADD1B2" rx="11" ry="11" style="stroke:#A80036;stroke-width:1.0;"/><path d="M81.8688,594.6406 Q81.2906,594.9375 80.65,595.0781 Q80.0094,595.2344 79.3063,595.2344 Q76.8063,595.2344 75.4781,593.5938 Q74.1656,591.9375 74.1656,588.8125 Q74.1656,585.6875 75.4781,584.0313 Q76.8063,582.375 79.3063,582.375 Q80.0094,582.375 80.65,582.5313 Q81.3063,582.6875 81.8688,582.9844 L81.8688,585.7031 Q81.2438,585.125 80.65,584.8594 Q80.0563,584.5781 79.4313,584.5781 Q78.0875,584.5781 77.4,585.6563 Q76.7125,586.7188 76.7125,588.8125 Q76.7125,590.9063 77.4,591.9844 Q78.0875,593.0469 79.4313,593.0469 Q80.0563,593.0469 80.65,592.7813 Q81.2438,592.5 81.8688,591.9219 L81.8688,594.6406 Z " fill="#000000"/><text fill="#000000" font-family="sans-serif" font-size="12" lengthAdjust="spacing" textLength="22" x="94.1" y="593.1543">Cell</text><line style="stroke:#A80036;stroke-width:1.5;" x1="59.5" x2="123.5" y1="605" y2="605"/><text fill="#000000" font-family="sans-serif" font-size="11" lengthAdjust="spacing" textLength="54" x="64.5" y="619.2104">Column:6</text><text fill="#000000" font-family="sans-serif" font-size="11" lengthAdjust="spacing" textLength="38" x="64.5" y="632.0151">Row: 7</text><line style="stroke:#A80036;stroke-width:1.5;" x1="59.5" x2="123.5" y1="638.6094" y2="638.6094"/><!--MD5=[bc87bf052131b9ca3b54b8ba84b5b110]
class Movement--><rect codeLine="15" fill="#FEFECE" filter="url(#f1gf1l8v5ivn4h)" height="86.4141" id="Movement" style="stroke:#A80036;stroke-width:1.5;" width="96" x="43.5" y="707"/><ellipse cx="58.5" cy="723" fill="#ADD1B2" rx="11" ry="11" style="stroke:#A80036;stroke-width:1.0;"/><path d="M61.4688,728.6406 Q60.8906,728.9375 60.25,729.0781 Q59.6094,729.2344 58.9063,729.2344 Q56.4063,729.2344 55.0781,727.5938 Q53.7656,725.9375 53.7656,722.8125 Q53.7656,719.6875 55.0781,718.0313 Q56.4063,716.375 58.9063,716.375 Q59.6094,716.375 60.25,716.5313 Q60.9063,716.6875 61.4688,716.9844 L61.4688,719.7031 Q60.8438,719.125 60.25,718.8594 Q59.6563,718.5781 59.0313,718.5781 Q57.6875,718.5781 57,719.6563 Q56.3125,720.7188 56.3125,722.8125 Q56.3125,724.9063 57,725.9844 Q57.6875,727.0469 59.0313,727.0469 Q59.6563,727.0469 60.25,726.7813 Q60.8438,726.5 61.4688,725.9219 L61.4688,728.6406 Z " fill="#000000"/><text fill="#000000" font-family="sans-serif" font-size="12" lengthAdjust="spacing" textLength="64" x="72.5" y="727.1543">Movement</text><line style="stroke:#A80036;stroke-width:1.5;" x1="44.5" x2="138.5" y1="739" y2="739"/><text fill="#000000" font-family="sans-serif" font-size="11" lengthAdjust="spacing" textLength="49" x="49.5" y="753.2104">Diagonal</text><text fill="#000000" font-family="sans-serif" font-size="11" lengthAdjust="spacing" textLength="42" x="49.5" y="766.0151">Vertical</text><text fill="#000000" font-family="sans-serif" font-size="11" lengthAdjust="spacing" textLength="56" x="49.5" y="778.8198">Horizontal</text><line style="stroke:#A80036;stroke-width:1.5;" x1="44.5" x2="138.5" y1="785.4141" y2="785.4141"/><!--MD5=[e018ed0913258b803264571def57fa62]
link Conecta4 to Board--><path codeLine="21" d="M83.3199,66.9953 C83.3199,66.9953 59.13,170.55 49.9,210.05 " fill="none" id="Conecta4-Board" style="stroke:#A80036;stroke-width:1.0;"/><polygon fill="#A80036" points="46.94,222.72,52.8827,214.866,48.0775,217.8511,45.0925,213.046,46.94,222.72" style="stroke:#A80036;stroke-width:1.0;"/><line style="stroke:#A80036;stroke-width:1.0;" x1="48.0775" x2="49.9" y1="217.8511" y2="210.065"/><polygon fill="#A80036" points="86.05,55.31,80.7898,60.2426,83.3199,66.9953,88.5801,62.0627,86.05,55.31" style="stroke:#A80036;stroke-width:1.0;"/><text fill="#000000" font-family="sans-serif" font-size="13" lengthAdjust="spacing" textLength="16" x="30.316" y="212.0567">1..</text><!--MD5=[25c3150e50da74dcc810ca1839027bfc]
link Conecta4 to Player--><path codeLine="22" d="M106.5651,65.9695 C106.5651,65.9695 117.77,91.25 122.89,102.78 " fill="none" id="Conecta4-Player" style="stroke:#A80036;stroke-width:1.0;"/><polygon fill="#A80036" points="128.16,114.68,128.1677,104.8311,126.1329,110.1094,120.8547,108.0745,128.16,114.68" style="stroke:#A80036;stroke-width:1.0;"/><line style="stroke:#A80036;stroke-width:1.0;" x1="126.1329" x2="122.89" y1="110.1094" y2="102.795"/><polygon fill="#A80036" points="101.7,55,100.476,62.1065,106.5651,65.9695,107.7891,58.8631,101.7,55" style="stroke:#A80036;stroke-width:1.0;"/><text fill="#000000" font-family="sans-serif" font-size="13" lengthAdjust="spacing" textLength="16" x="107.6896" y="104.007">2..</text><!--MD5=[c148346f61f96d5968c9850ebe71e5d5]
link Board to Cell--><path codeLine="23" d="M44.7,271.13 C52.99,330.93 75.2,491.29 85.76,567.58 " fill="none" id="Board-to-Cell" style="stroke:#A80036;stroke-width:1.0;"/><polygon fill="#A80036" points="86.5,572.92,89.2291,563.4568,85.8149,567.9672,81.3045,564.553,86.5,572.92" style="stroke:#A80036;stroke-width:1.0;"/><!--MD5=[2809e98817c5cee3490d4f47bc742af6]
link Player to Turn--><path codeLine="25" d="M139.15,163 C139.6,179 140.21,200.45 140.69,217.53 " fill="none" id="Player-to-Turn" style="stroke:#A80036;stroke-width:1.0;"/><polygon fill="#A80036" points="140.84,222.68,144.5813,213.5694,140.6972,217.682,136.5846,213.7979,140.84,222.68" style="stroke:#A80036;stroke-width:1.0;"/><text fill="#000000" font-family="sans-serif" font-size="13" lengthAdjust="spacing" textLength="24" x="113.7541" y="212.007">42..</text><!--MD5=[171d35b74b381f16b46f6c44e5799522]
link Turn to Place--><path codeLine="26" d="M141.07,271 C140.76,287 140.36,308.45 140.04,325.53 " fill="none" id="Turn-to-Place" style="stroke:#A80036;stroke-width:1.0;"/><polygon fill="#A80036" points="139.94,330.68,144.0937,321.7499,140.0257,325.6807,136.0949,321.6128,139.94,330.68" style="stroke:#A80036;stroke-width:1.0;"/><!--MD5=[d196daad89c335f7a47a434bee8feead]
link Place to Token--><path codeLine="27" d="M139.3,379.23 C139.17,394.68 139,415.42 138.85,433.65 " fill="none" id="Place-to-Token" style="stroke:#A80036;stroke-width:1.0;"/><polygon fill="#A80036" points="138.8,438.71,142.877,429.7446,138.8429,433.7102,134.8773,429.676,138.8,438.71" style="stroke:#A80036;stroke-width:1.0;"/><!--MD5=[02e4ea6583af107186d46ff637cdd501]
link Token to Cell--><path codeLine="29" d="M125.66,513.07 C119.6,530.09 112.33,550.49 106.07,568.09 " fill="none" id="Token-to-Cell" style="stroke:#A80036;stroke-width:1.0;"/><polygon fill="#A80036" points="104.33,572.97,111.1144,565.8305,106.0053,568.259,103.5768,563.15,104.33,572.97" style="stroke:#A80036;stroke-width:1.0;"/><!--MD5=[2046d5ec7084b4fed0b64329e14ca7d1]
reverse link Cell to Movement--><path codeLine="30" d="M91.5,667.62 C91.5,680.66 91.5,694.31 91.5,706.62 " fill="none" id="Cell-backto-Movement" style="stroke:#A80036;stroke-width:1.0;"/><polygon fill="none" points="84.5,667.26,91.5,647.26,98.5,667.26,84.5,667.26" style="stroke:#A80036;stroke-width:1.0;"/><!--MD5=[6bd8971956e82c33f0ddbaa4341d293d]
@startuml
class Conecta4
class Board
class Player
class Turn
Class Place
class Token {
Blue: 21 
Red: 21
}
class Cell{
Column:6
Row: 7
}

class Movement {
Diagonal 
Vertical
Horizontal 
}

Conecta4 *- -> "1.."  Board
Conecta4 *- -> "2.." Player
Board - -> Cell

Player - -> "42.."Turn
Turn - -> Place
Place - -> Token

Token - -> Cell
Cell <|- - Movement
@enduml

PlantUML version 1.2021.16(Wed Dec 08 17:25:22 UTC 2021)
(GPL source distribution)
Java Runtime: OpenJDK Runtime Environment
JVM: OpenJDK 64-Bit Server VM
Default Encoding: UTF-8
Language: en
Country: US
--></g></svg>