<?xml version="1.0" encoding="UTF-8" standalone="no"?><svg xmlns="http://www.w3.org/2000/svg" xmlns:xlink="http://www.w3.org/1999/xlink" contentStyleType="text/css" height="710px" preserveAspectRatio="none" style="width:1095px;height:710px;background:#FFFFFF;" version="1.1" viewBox="0 0 1095 710" width="1095px" zoomAndPan="magnify"><defs/><g><!--MD5=[b92924a051eb15925d91c85b39483d30]
class CompanyManagement--><g id="elem_CompanyManagement"><rect codeLine="1" fill="#F1F1F1" height="48" id="CompanyManagement" rx="2.5" ry="2.5" style="stroke:#181818;stroke-width:0.5;" width="174" x="7" y="7"/><ellipse cx="22" cy="23" fill="#ADD1B2" rx="11" ry="11" style="stroke:#181818;stroke-width:1.0;"/><path d="M24.7656,18.875 Q24.9219,18.6563 25.1094,18.5469 Q25.2969,18.4375 25.5156,18.4375 Q25.8906,18.4375 26.125,18.7031 Q26.3594,18.9531 26.3594,19.5625 L26.3594,21.0156 Q26.3594,21.625 26.125,21.8906 Q25.8906,22.1563 25.5156,22.1563 Q25.1719,22.1563 24.9688,21.9531 Q24.7656,21.7656 24.6563,21.25 Q24.6094,20.8906 24.4219,20.7031 Q24.0938,20.3281 23.4844,20.1094 Q22.875,19.8906 22.25,19.8906 Q21.4844,19.8906 20.8438,20.2188 Q20.2188,20.5469 19.7188,21.2969 Q19.2344,22.0469 19.2344,23.0781 L19.2344,24.1719 Q19.2344,25.4063 20.125,26.2344 Q21.0156,27.0469 22.6094,27.0469 Q23.5469,27.0469 24.2031,26.7969 Q24.5938,26.6406 25.0156,26.2031 Q25.2813,25.9375 25.4219,25.8594 Q25.5781,25.7813 25.7813,25.7813 Q26.1094,25.7813 26.3594,26.0469 Q26.625,26.2969 26.625,26.6406 Q26.625,26.9844 26.2813,27.3906 Q25.7813,27.9688 24.9844,28.2969 Q23.9063,28.75 22.6094,28.75 Q21.0938,28.75 19.8906,28.125 Q18.9063,27.625 18.2188,26.5625 Q17.5313,25.4844 17.5313,24.2031 L17.5313,23.0469 Q17.5313,21.7188 18.1406,20.5781 Q18.7656,19.4219 19.8594,18.8125 Q20.9531,18.1875 22.1875,18.1875 Q22.9219,18.1875 23.5625,18.3594 Q24.2188,18.5156 24.7656,18.875 Z " fill="#000000"/><text fill="#000000" font-family="sans-serif" font-size="14" lengthAdjust="spacing" textLength="142" x="36" y="28.7285">CompanyManagement</text><line style="stroke:#181818;stroke-width:0.5;" x1="8" x2="180" y1="39" y2="39"/><line style="stroke:#181818;stroke-width:0.5;" x1="8" x2="180" y1="47" y2="47"/></g><!--MD5=[dd4f49095d0e7eece5ef1fa0d36891f4]
class ServiceContract--><g id="elem_ServiceContract"><rect codeLine="2" fill="#F1F1F1" height="48" id="ServiceContract" rx="2.5" ry="2.5" style="stroke:#181818;stroke-width:0.5;" width="133" x="84.5" y="547"/><ellipse cx="99.5" cy="563" fill="#ADD1B2" rx="11" ry="11" style="stroke:#181818;stroke-width:1.0;"/><path d="M102.2656,558.875 Q102.4219,558.6563 102.6094,558.5469 Q102.7969,558.4375 103.0156,558.4375 Q103.3906,558.4375 103.625,558.7031 Q103.8594,558.9531 103.8594,559.5625 L103.8594,561.0156 Q103.8594,561.625 103.625,561.8906 Q103.3906,562.1563 103.0156,562.1563 Q102.6719,562.1563 102.4688,561.9531 Q102.2656,561.7656 102.1563,561.25 Q102.1094,560.8906 101.9219,560.7031 Q101.5938,560.3281 100.9844,560.1094 Q100.375,559.8906 99.75,559.8906 Q98.9844,559.8906 98.3438,560.2188 Q97.7188,560.5469 97.2188,561.2969 Q96.7344,562.0469 96.7344,563.0781 L96.7344,564.1719 Q96.7344,565.4063 97.625,566.2344 Q98.5156,567.0469 100.1094,567.0469 Q101.0469,567.0469 101.7031,566.7969 Q102.0938,566.6406 102.5156,566.2031 Q102.7813,565.9375 102.9219,565.8594 Q103.0781,565.7813 103.2813,565.7813 Q103.6094,565.7813 103.8594,566.0469 Q104.125,566.2969 104.125,566.6406 Q104.125,566.9844 103.7813,567.3906 Q103.2813,567.9688 102.4844,568.2969 Q101.4063,568.75 100.1094,568.75 Q98.5938,568.75 97.3906,568.125 Q96.4063,567.625 95.7188,566.5625 Q95.0313,565.4844 95.0313,564.2031 L95.0313,563.0469 Q95.0313,561.7188 95.6406,560.5781 Q96.2656,559.4219 97.3594,558.8125 Q98.4531,558.1875 99.6875,558.1875 Q100.4219,558.1875 101.0625,558.3594 Q101.7188,558.5156 102.2656,558.875 Z " fill="#000000"/><text fill="#000000" font-family="sans-serif" font-size="14" lengthAdjust="spacing" textLength="101" x="113.5" y="568.7285">ServiceContract</text><line style="stroke:#181818;stroke-width:0.5;" x1="85.5" x2="216.5" y1="579" y2="579"/><line style="stroke:#181818;stroke-width:0.5;" x1="85.5" x2="216.5" y1="587" y2="587"/></g><!--MD5=[f6bfa8e6ad2e37edcd578b647fafadda]
class MenuView--><g id="elem_MenuView"><rect codeLine="3" fill="#F1F1F1" height="48" id="MenuView" rx="2.5" ry="2.5" style="stroke:#181818;stroke-width:0.5;" width="96" x="251" y="115"/><ellipse cx="266" cy="131" fill="#ADD1B2" rx="11" ry="11" style="stroke:#181818;stroke-width:1.0;"/><path d="M268.7656,126.875 Q268.9219,126.6563 269.1094,126.5469 Q269.2969,126.4375 269.5156,126.4375 Q269.8906,126.4375 270.125,126.7031 Q270.3594,126.9531 270.3594,127.5625 L270.3594,129.0156 Q270.3594,129.625 270.125,129.8906 Q269.8906,130.1563 269.5156,130.1563 Q269.1719,130.1563 268.9688,129.9531 Q268.7656,129.7656 268.6563,129.25 Q268.6094,128.8906 268.4219,128.7031 Q268.0938,128.3281 267.4844,128.1094 Q266.875,127.8906 266.25,127.8906 Q265.4844,127.8906 264.8438,128.2188 Q264.2188,128.5469 263.7188,129.2969 Q263.2344,130.0469 263.2344,131.0781 L263.2344,132.1719 Q263.2344,133.4063 264.125,134.2344 Q265.0156,135.0469 266.6094,135.0469 Q267.5469,135.0469 268.2031,134.7969 Q268.5938,134.6406 269.0156,134.2031 Q269.2813,133.9375 269.4219,133.8594 Q269.5781,133.7813 269.7813,133.7813 Q270.1094,133.7813 270.3594,134.0469 Q270.625,134.2969 270.625,134.6406 Q270.625,134.9844 270.2813,135.3906 Q269.7813,135.9688 268.9844,136.2969 Q267.9063,136.75 266.6094,136.75 Q265.0938,136.75 263.8906,136.125 Q262.9063,135.625 262.2188,134.5625 Q261.5313,133.4844 261.5313,132.2031 L261.5313,131.0469 Q261.5313,129.7188 262.1406,128.5781 Q262.7656,127.4219 263.8594,126.8125 Q264.9531,126.1875 266.1875,126.1875 Q266.9219,126.1875 267.5625,126.3594 Q268.2188,126.5156 268.7656,126.875 Z " fill="#000000"/><text fill="#000000" font-family="sans-serif" font-size="14" lengthAdjust="spacing" textLength="64" x="280" y="136.7285">MenuView</text><line style="stroke:#181818;stroke-width:0.5;" x1="252" x2="346" y1="147" y2="147"/><line style="stroke:#181818;stroke-width:0.5;" x1="252" x2="346" y1="155" y2="155"/></g><!--MD5=[f0268dd29ee89052933f031546cb1cab]
class Menu--><g id="elem_Menu"><rect codeLine="4" fill="#F1F1F1" height="48" id="Menu" rx="2.5" ry="2.5" style="stroke:#181818;stroke-width:0.5;" width="67" x="455.5" y="223"/><ellipse cx="470.5" cy="239" fill="#ADD1B2" rx="11" ry="11" style="stroke:#181818;stroke-width:1.0;"/><path d="M473.2656,234.875 Q473.4219,234.6563 473.6094,234.5469 Q473.7969,234.4375 474.0156,234.4375 Q474.3906,234.4375 474.625,234.7031 Q474.8594,234.9531 474.8594,235.5625 L474.8594,237.0156 Q474.8594,237.625 474.625,237.8906 Q474.3906,238.1563 474.0156,238.1563 Q473.6719,238.1563 473.4688,237.9531 Q473.2656,237.7656 473.1563,237.25 Q473.1094,236.8906 472.9219,236.7031 Q472.5938,236.3281 471.9844,236.1094 Q471.375,235.8906 470.75,235.8906 Q469.9844,235.8906 469.3438,236.2188 Q468.7188,236.5469 468.2188,237.2969 Q467.7344,238.0469 467.7344,239.0781 L467.7344,240.1719 Q467.7344,241.4063 468.625,242.2344 Q469.5156,243.0469 471.1094,243.0469 Q472.0469,243.0469 472.7031,242.7969 Q473.0938,242.6406 473.5156,242.2031 Q473.7813,241.9375 473.9219,241.8594 Q474.0781,241.7813 474.2813,241.7813 Q474.6094,241.7813 474.8594,242.0469 Q475.125,242.2969 475.125,242.6406 Q475.125,242.9844 474.7813,243.3906 Q474.2813,243.9688 473.4844,244.2969 Q472.4063,244.75 471.1094,244.75 Q469.5938,244.75 468.3906,244.125 Q467.4063,243.625 466.7188,242.5625 Q466.0313,241.4844 466.0313,240.2031 L466.0313,239.0469 Q466.0313,237.7188 466.6406,236.5781 Q467.2656,235.4219 468.3594,234.8125 Q469.4531,234.1875 470.6875,234.1875 Q471.4219,234.1875 472.0625,234.3594 Q472.7188,234.5156 473.2656,234.875 Z " fill="#000000"/><text fill="#000000" font-family="sans-serif" font-size="14" lengthAdjust="spacing" textLength="35" x="484.5" y="244.7285">Menu</text><line style="stroke:#181818;stroke-width:0.5;" x1="456.5" x2="521.5" y1="255" y2="255"/><line style="stroke:#181818;stroke-width:0.5;" x1="456.5" x2="521.5" y1="263" y2="263"/></g><!--MD5=[6506bea503710dcab8a6a46b73fb74a1]
class CancelOption--><g id="elem_CancelOption"><rect codeLine="5" fill="#F1F1F1" height="48" id="CancelOption" rx="2.5" ry="2.5" style="stroke:#181818;stroke-width:0.5;" width="118" x="239" y="439"/><ellipse cx="254" cy="455" fill="#ADD1B2" rx="11" ry="11" style="stroke:#181818;stroke-width:1.0;"/><path d="M256.7656,450.875 Q256.9219,450.6563 257.1094,450.5469 Q257.2969,450.4375 257.5156,450.4375 Q257.8906,450.4375 258.125,450.7031 Q258.3594,450.9531 258.3594,451.5625 L258.3594,453.0156 Q258.3594,453.625 258.125,453.8906 Q257.8906,454.1563 257.5156,454.1563 Q257.1719,454.1563 256.9688,453.9531 Q256.7656,453.7656 256.6563,453.25 Q256.6094,452.8906 256.4219,452.7031 Q256.0938,452.3281 255.4844,452.1094 Q254.875,451.8906 254.25,451.8906 Q253.4844,451.8906 252.8438,452.2188 Q252.2188,452.5469 251.7188,453.2969 Q251.2344,454.0469 251.2344,455.0781 L251.2344,456.1719 Q251.2344,457.4063 252.125,458.2344 Q253.0156,459.0469 254.6094,459.0469 Q255.5469,459.0469 256.2031,458.7969 Q256.5938,458.6406 257.0156,458.2031 Q257.2813,457.9375 257.4219,457.8594 Q257.5781,457.7813 257.7813,457.7813 Q258.1094,457.7813 258.3594,458.0469 Q258.625,458.2969 258.625,458.6406 Q258.625,458.9844 258.2813,459.3906 Q257.7813,459.9688 256.9844,460.2969 Q255.9063,460.75 254.6094,460.75 Q253.0938,460.75 251.8906,460.125 Q250.9063,459.625 250.2188,458.5625 Q249.5313,457.4844 249.5313,456.2031 L249.5313,455.0469 Q249.5313,453.7188 250.1406,452.5781 Q250.7656,451.4219 251.8594,450.8125 Q252.9531,450.1875 254.1875,450.1875 Q254.9219,450.1875 255.5625,450.3594 Q256.2188,450.5156 256.7656,450.875 Z " fill="#000000"/><text fill="#000000" font-family="sans-serif" font-size="14" lengthAdjust="spacing" textLength="86" x="268" y="460.7285">CancelOption</text><line style="stroke:#181818;stroke-width:0.5;" x1="240" x2="356" y1="471" y2="471"/><line style="stroke:#181818;stroke-width:0.5;" x1="240" x2="356" y1="479" y2="479"/></g><!--MD5=[fdd6ecfabaf96fbf4f00aac0b493efe3]
class ShowOption--><g id="elem_ShowOption"><rect codeLine="6" fill="#F1F1F1" height="48" id="ShowOption" rx="2.5" ry="2.5" style="stroke:#181818;stroke-width:0.5;" width="108" x="688" y="439"/><ellipse cx="703" cy="455" fill="#ADD1B2" rx="11" ry="11" style="stroke:#181818;stroke-width:1.0;"/><path d="M705.7656,450.875 Q705.9219,450.6563 706.1094,450.5469 Q706.2969,450.4375 706.5156,450.4375 Q706.8906,450.4375 707.125,450.7031 Q707.3594,450.9531 707.3594,451.5625 L707.3594,453.0156 Q707.3594,453.625 707.125,453.8906 Q706.8906,454.1563 706.5156,454.1563 Q706.1719,454.1563 705.9688,453.9531 Q705.7656,453.7656 705.6563,453.25 Q705.6094,452.8906 705.4219,452.7031 Q705.0938,452.3281 704.4844,452.1094 Q703.875,451.8906 703.25,451.8906 Q702.4844,451.8906 701.8438,452.2188 Q701.2188,452.5469 700.7188,453.2969 Q700.2344,454.0469 700.2344,455.0781 L700.2344,456.1719 Q700.2344,457.4063 701.125,458.2344 Q702.0156,459.0469 703.6094,459.0469 Q704.5469,459.0469 705.2031,458.7969 Q705.5938,458.6406 706.0156,458.2031 Q706.2813,457.9375 706.4219,457.8594 Q706.5781,457.7813 706.7813,457.7813 Q707.1094,457.7813 707.3594,458.0469 Q707.625,458.2969 707.625,458.6406 Q707.625,458.9844 707.2813,459.3906 Q706.7813,459.9688 705.9844,460.2969 Q704.9063,460.75 703.6094,460.75 Q702.0938,460.75 700.8906,460.125 Q699.9063,459.625 699.2188,458.5625 Q698.5313,457.4844 698.5313,456.2031 L698.5313,455.0469 Q698.5313,453.7188 699.1406,452.5781 Q699.7656,451.4219 700.8594,450.8125 Q701.9531,450.1875 703.1875,450.1875 Q703.9219,450.1875 704.5625,450.3594 Q705.2188,450.5156 705.7656,450.875 Z " fill="#000000"/><text fill="#000000" font-family="sans-serif" font-size="14" lengthAdjust="spacing" textLength="76" x="717" y="460.7285">ShowOption</text><line style="stroke:#181818;stroke-width:0.5;" x1="689" x2="795" y1="471" y2="471"/><line style="stroke:#181818;stroke-width:0.5;" x1="689" x2="795" y1="479" y2="479"/></g><!--MD5=[48ff7231d024078491841a820ee16411]
class ExitOption--><g id="elem_ExitOption"><rect codeLine="7" fill="#F1F1F1" height="48" id="ExitOption" rx="2.5" ry="2.5" style="stroke:#181818;stroke-width:0.5;" width="96" x="831" y="439"/><ellipse cx="846" cy="455" fill="#ADD1B2" rx="11" ry="11" style="stroke:#181818;stroke-width:1.0;"/><path d="M848.7656,450.875 Q848.9219,450.6563 849.1094,450.5469 Q849.2969,450.4375 849.5156,450.4375 Q849.8906,450.4375 850.125,450.7031 Q850.3594,450.9531 850.3594,451.5625 L850.3594,453.0156 Q850.3594,453.625 850.125,453.8906 Q849.8906,454.1563 849.5156,454.1563 Q849.1719,454.1563 848.9688,453.9531 Q848.7656,453.7656 848.6563,453.25 Q848.6094,452.8906 848.4219,452.7031 Q848.0938,452.3281 847.4844,452.1094 Q846.875,451.8906 846.25,451.8906 Q845.4844,451.8906 844.8438,452.2188 Q844.2188,452.5469 843.7188,453.2969 Q843.2344,454.0469 843.2344,455.0781 L843.2344,456.1719 Q843.2344,457.4063 844.125,458.2344 Q845.0156,459.0469 846.6094,459.0469 Q847.5469,459.0469 848.2031,458.7969 Q848.5938,458.6406 849.0156,458.2031 Q849.2813,457.9375 849.4219,457.8594 Q849.5781,457.7813 849.7813,457.7813 Q850.1094,457.7813 850.3594,458.0469 Q850.625,458.2969 850.625,458.6406 Q850.625,458.9844 850.2813,459.3906 Q849.7813,459.9688 848.9844,460.2969 Q847.9063,460.75 846.6094,460.75 Q845.0938,460.75 843.8906,460.125 Q842.9063,459.625 842.2188,458.5625 Q841.5313,457.4844 841.5313,456.2031 L841.5313,455.0469 Q841.5313,453.7188 842.1406,452.5781 Q842.7656,451.4219 843.8594,450.8125 Q844.9531,450.1875 846.1875,450.1875 Q846.9219,450.1875 847.5625,450.3594 Q848.2188,450.5156 848.7656,450.875 Z " fill="#000000"/><text fill="#000000" font-family="sans-serif" font-size="14" lengthAdjust="spacing" textLength="64" x="860" y="460.7285">ExitOption</text><line style="stroke:#181818;stroke-width:0.5;" x1="832" x2="926" y1="471" y2="471"/><line style="stroke:#181818;stroke-width:0.5;" x1="832" x2="926" y1="479" y2="479"/></g><!--MD5=[a819b5cb5440bf47c68e0253f1faedfb]
class EnlargeOption--><g id="elem_EnlargeOption"><rect codeLine="8" fill="#F1F1F1" height="48" id="EnlargeOption" rx="2.5" ry="2.5" style="stroke:#181818;stroke-width:0.5;" width="123" x="392.5" y="439"/><ellipse cx="407.5" cy="455" fill="#ADD1B2" rx="11" ry="11" style="stroke:#181818;stroke-width:1.0;"/><path d="M410.2656,450.875 Q410.4219,450.6563 410.6094,450.5469 Q410.7969,450.4375 411.0156,450.4375 Q411.3906,450.4375 411.625,450.7031 Q411.8594,450.9531 411.8594,451.5625 L411.8594,453.0156 Q411.8594,453.625 411.625,453.8906 Q411.3906,454.1563 411.0156,454.1563 Q410.6719,454.1563 410.4688,453.9531 Q410.2656,453.7656 410.1563,453.25 Q410.1094,452.8906 409.9219,452.7031 Q409.5938,452.3281 408.9844,452.1094 Q408.375,451.8906 407.75,451.8906 Q406.9844,451.8906 406.3438,452.2188 Q405.7188,452.5469 405.2188,453.2969 Q404.7344,454.0469 404.7344,455.0781 L404.7344,456.1719 Q404.7344,457.4063 405.625,458.2344 Q406.5156,459.0469 408.1094,459.0469 Q409.0469,459.0469 409.7031,458.7969 Q410.0938,458.6406 410.5156,458.2031 Q410.7813,457.9375 410.9219,457.8594 Q411.0781,457.7813 411.2813,457.7813 Q411.6094,457.7813 411.8594,458.0469 Q412.125,458.2969 412.125,458.6406 Q412.125,458.9844 411.7813,459.3906 Q411.2813,459.9688 410.4844,460.2969 Q409.4063,460.75 408.1094,460.75 Q406.5938,460.75 405.3906,460.125 Q404.4063,459.625 403.7188,458.5625 Q403.0313,457.4844 403.0313,456.2031 L403.0313,455.0469 Q403.0313,453.7188 403.6406,452.5781 Q404.2656,451.4219 405.3594,450.8125 Q406.4531,450.1875 407.6875,450.1875 Q408.4219,450.1875 409.0625,450.3594 Q409.7188,450.5156 410.2656,450.875 Z " fill="#000000"/><text fill="#000000" font-family="sans-serif" font-size="14" lengthAdjust="spacing" textLength="91" x="421.5" y="460.7285">EnlargeOption</text><line style="stroke:#181818;stroke-width:0.5;" x1="393.5" x2="514.5" y1="471" y2="471"/><line style="stroke:#181818;stroke-width:0.5;" x1="393.5" x2="514.5" y1="479" y2="479"/></g><!--MD5=[03a279042868af39cebd3e3290aa818a]
class ShiftOption--><g id="elem_ShiftOption"><rect codeLine="9" fill="#F1F1F1" height="48" id="ShiftOption" rx="2.5" ry="2.5" style="stroke:#181818;stroke-width:0.5;" width="102" x="551" y="439"/><ellipse cx="566" cy="455" fill="#ADD1B2" rx="11" ry="11" style="stroke:#181818;stroke-width:1.0;"/><path d="M568.7656,450.875 Q568.9219,450.6563 569.1094,450.5469 Q569.2969,450.4375 569.5156,450.4375 Q569.8906,450.4375 570.125,450.7031 Q570.3594,450.9531 570.3594,451.5625 L570.3594,453.0156 Q570.3594,453.625 570.125,453.8906 Q569.8906,454.1563 569.5156,454.1563 Q569.1719,454.1563 568.9688,453.9531 Q568.7656,453.7656 568.6563,453.25 Q568.6094,452.8906 568.4219,452.7031 Q568.0938,452.3281 567.4844,452.1094 Q566.875,451.8906 566.25,451.8906 Q565.4844,451.8906 564.8438,452.2188 Q564.2188,452.5469 563.7188,453.2969 Q563.2344,454.0469 563.2344,455.0781 L563.2344,456.1719 Q563.2344,457.4063 564.125,458.2344 Q565.0156,459.0469 566.6094,459.0469 Q567.5469,459.0469 568.2031,458.7969 Q568.5938,458.6406 569.0156,458.2031 Q569.2813,457.9375 569.4219,457.8594 Q569.5781,457.7813 569.7813,457.7813 Q570.1094,457.7813 570.3594,458.0469 Q570.625,458.2969 570.625,458.6406 Q570.625,458.9844 570.2813,459.3906 Q569.7813,459.9688 568.9844,460.2969 Q567.9063,460.75 566.6094,460.75 Q565.0938,460.75 563.8906,460.125 Q562.9063,459.625 562.2188,458.5625 Q561.5313,457.4844 561.5313,456.2031 L561.5313,455.0469 Q561.5313,453.7188 562.1406,452.5781 Q562.7656,451.4219 563.8594,450.8125 Q564.9531,450.1875 566.1875,450.1875 Q566.9219,450.1875 567.5625,450.3594 Q568.2188,450.5156 568.7656,450.875 Z " fill="#000000"/><text fill="#000000" font-family="sans-serif" font-size="14" lengthAdjust="spacing" textLength="70" x="580" y="460.7285">ShiftOption</text><line style="stroke:#181818;stroke-width:0.5;" x1="552" x2="652" y1="471" y2="471"/><line style="stroke:#181818;stroke-width:0.5;" x1="552" x2="652" y1="479" y2="479"/></g><!--MD5=[90dc96bfd633d7918e72cd3f4daac441]
class GetCostOption--><g id="elem_GetCostOption"><rect codeLine="10" fill="#F1F1F1" height="48" id="GetCostOption" rx="2.5" ry="2.5" style="stroke:#181818;stroke-width:0.5;" width="126" x="962" y="439"/><ellipse cx="977" cy="455" fill="#ADD1B2" rx="11" ry="11" style="stroke:#181818;stroke-width:1.0;"/><path d="M979.7656,450.875 Q979.9219,450.6563 980.1094,450.5469 Q980.2969,450.4375 980.5156,450.4375 Q980.8906,450.4375 981.125,450.7031 Q981.3594,450.9531 981.3594,451.5625 L981.3594,453.0156 Q981.3594,453.625 981.125,453.8906 Q980.8906,454.1563 980.5156,454.1563 Q980.1719,454.1563 979.9688,453.9531 Q979.7656,453.7656 979.6563,453.25 Q979.6094,452.8906 979.4219,452.7031 Q979.0938,452.3281 978.4844,452.1094 Q977.875,451.8906 977.25,451.8906 Q976.4844,451.8906 975.8438,452.2188 Q975.2188,452.5469 974.7188,453.2969 Q974.2344,454.0469 974.2344,455.0781 L974.2344,456.1719 Q974.2344,457.4063 975.125,458.2344 Q976.0156,459.0469 977.6094,459.0469 Q978.5469,459.0469 979.2031,458.7969 Q979.5938,458.6406 980.0156,458.2031 Q980.2813,457.9375 980.4219,457.8594 Q980.5781,457.7813 980.7813,457.7813 Q981.1094,457.7813 981.3594,458.0469 Q981.625,458.2969 981.625,458.6406 Q981.625,458.9844 981.2813,459.3906 Q980.7813,459.9688 979.9844,460.2969 Q978.9063,460.75 977.6094,460.75 Q976.0938,460.75 974.8906,460.125 Q973.9063,459.625 973.2188,458.5625 Q972.5313,457.4844 972.5313,456.2031 L972.5313,455.0469 Q972.5313,453.7188 973.1406,452.5781 Q973.7656,451.4219 974.8594,450.8125 Q975.9531,450.1875 977.1875,450.1875 Q977.9219,450.1875 978.5625,450.3594 Q979.2188,450.5156 979.7656,450.875 Z " fill="#000000"/><text fill="#000000" font-family="sans-serif" font-size="14" lengthAdjust="spacing" textLength="94" x="991" y="460.7285">GetCostOption</text><line style="stroke:#181818;stroke-width:0.5;" x1="963" x2="1087" y1="471" y2="471"/><line style="stroke:#181818;stroke-width:0.5;" x1="963" x2="1087" y1="479" y2="479"/></g><!--MD5=[7829b64950ce38e0487c4015ea331f97]
class Date--><g id="elem_Date"><rect codeLine="12" fill="#F1F1F1" height="48" id="Date" rx="2.5" ry="2.5" style="stroke:#181818;stroke-width:0.5;" width="62" x="68" y="655"/><ellipse cx="83" cy="671" fill="#ADD1B2" rx="11" ry="11" style="stroke:#181818;stroke-width:1.0;"/><path d="M85.7656,666.875 Q85.9219,666.6563 86.1094,666.5469 Q86.2969,666.4375 86.5156,666.4375 Q86.8906,666.4375 87.125,666.7031 Q87.3594,666.9531 87.3594,667.5625 L87.3594,669.0156 Q87.3594,669.625 87.125,669.8906 Q86.8906,670.1563 86.5156,670.1563 Q86.1719,670.1563 85.9688,669.9531 Q85.7656,669.7656 85.6563,669.25 Q85.6094,668.8906 85.4219,668.7031 Q85.0938,668.3281 84.4844,668.1094 Q83.875,667.8906 83.25,667.8906 Q82.4844,667.8906 81.8438,668.2188 Q81.2188,668.5469 80.7188,669.2969 Q80.2344,670.0469 80.2344,671.0781 L80.2344,672.1719 Q80.2344,673.4063 81.125,674.2344 Q82.0156,675.0469 83.6094,675.0469 Q84.5469,675.0469 85.2031,674.7969 Q85.5938,674.6406 86.0156,674.2031 Q86.2813,673.9375 86.4219,673.8594 Q86.5781,673.7813 86.7813,673.7813 Q87.1094,673.7813 87.3594,674.0469 Q87.625,674.2969 87.625,674.6406 Q87.625,674.9844 87.2813,675.3906 Q86.7813,675.9688 85.9844,676.2969 Q84.9063,676.75 83.6094,676.75 Q82.0938,676.75 80.8906,676.125 Q79.9063,675.625 79.2188,674.5625 Q78.5313,673.4844 78.5313,672.2031 L78.5313,671.0469 Q78.5313,669.7188 79.1406,668.5781 Q79.7656,667.4219 80.8594,666.8125 Q81.9531,666.1875 83.1875,666.1875 Q83.9219,666.1875 84.5625,666.3594 Q85.2188,666.5156 85.7656,666.875 Z " fill="#000000"/><text fill="#000000" font-family="sans-serif" font-size="14" lengthAdjust="spacing" textLength="30" x="97" y="676.7285">Date</text><line style="stroke:#181818;stroke-width:0.5;" x1="69" x2="129" y1="687" y2="687"/><line style="stroke:#181818;stroke-width:0.5;" x1="69" x2="129" y1="695" y2="695"/></g><!--MD5=[22ca386cc507625819c4bb3cadd80af5]
class DateView--><g id="elem_DateView"><rect codeLine="13" fill="#F1F1F1" height="48" id="DateView" rx="2.5" ry="2.5" style="stroke:#181818;stroke-width:0.5;" width="91" x="408.5" y="547"/><ellipse cx="423.5" cy="563" fill="#ADD1B2" rx="11" ry="11" style="stroke:#181818;stroke-width:1.0;"/><path d="M426.2656,558.875 Q426.4219,558.6563 426.6094,558.5469 Q426.7969,558.4375 427.0156,558.4375 Q427.3906,558.4375 427.625,558.7031 Q427.8594,558.9531 427.8594,559.5625 L427.8594,561.0156 Q427.8594,561.625 427.625,561.8906 Q427.3906,562.1563 427.0156,562.1563 Q426.6719,562.1563 426.4688,561.9531 Q426.2656,561.7656 426.1563,561.25 Q426.1094,560.8906 425.9219,560.7031 Q425.5938,560.3281 424.9844,560.1094 Q424.375,559.8906 423.75,559.8906 Q422.9844,559.8906 422.3438,560.2188 Q421.7188,560.5469 421.2188,561.2969 Q420.7344,562.0469 420.7344,563.0781 L420.7344,564.1719 Q420.7344,565.4063 421.625,566.2344 Q422.5156,567.0469 424.1094,567.0469 Q425.0469,567.0469 425.7031,566.7969 Q426.0938,566.6406 426.5156,566.2031 Q426.7813,565.9375 426.9219,565.8594 Q427.0781,565.7813 427.2813,565.7813 Q427.6094,565.7813 427.8594,566.0469 Q428.125,566.2969 428.125,566.6406 Q428.125,566.9844 427.7813,567.3906 Q427.2813,567.9688 426.4844,568.2969 Q425.4063,568.75 424.1094,568.75 Q422.5938,568.75 421.3906,568.125 Q420.4063,567.625 419.7188,566.5625 Q419.0313,565.4844 419.0313,564.2031 L419.0313,563.0469 Q419.0313,561.7188 419.6406,560.5781 Q420.2656,559.4219 421.3594,558.8125 Q422.4531,558.1875 423.6875,558.1875 Q424.4219,558.1875 425.0625,558.3594 Q425.7188,558.5156 426.2656,558.875 Z " fill="#000000"/><text fill="#000000" font-family="sans-serif" font-size="14" lengthAdjust="spacing" textLength="59" x="437.5" y="568.7285">DateView</text><line style="stroke:#181818;stroke-width:0.5;" x1="409.5" x2="498.5" y1="579" y2="579"/><line style="stroke:#181818;stroke-width:0.5;" x1="409.5" x2="498.5" y1="587" y2="587"/></g><!--MD5=[315b61b427ec618d6861d47eee00cca3]
class Console--><g id="elem_Console"><rect codeLine="14" fill="#F1F1F1" height="48" id="Console" rx="2.5" ry="2.5" style="stroke:#181818;stroke-width:0.5;" width="84" x="558" y="223"/><ellipse cx="573" cy="239" fill="#ADD1B2" rx="11" ry="11" style="stroke:#181818;stroke-width:1.0;"/><path d="M575.7656,234.875 Q575.9219,234.6563 576.1094,234.5469 Q576.2969,234.4375 576.5156,234.4375 Q576.8906,234.4375 577.125,234.7031 Q577.3594,234.9531 577.3594,235.5625 L577.3594,237.0156 Q577.3594,237.625 577.125,237.8906 Q576.8906,238.1563 576.5156,238.1563 Q576.1719,238.1563 575.9688,237.9531 Q575.7656,237.7656 575.6563,237.25 Q575.6094,236.8906 575.4219,236.7031 Q575.0938,236.3281 574.4844,236.1094 Q573.875,235.8906 573.25,235.8906 Q572.4844,235.8906 571.8438,236.2188 Q571.2188,236.5469 570.7188,237.2969 Q570.2344,238.0469 570.2344,239.0781 L570.2344,240.1719 Q570.2344,241.4063 571.125,242.2344 Q572.0156,243.0469 573.6094,243.0469 Q574.5469,243.0469 575.2031,242.7969 Q575.5938,242.6406 576.0156,242.2031 Q576.2813,241.9375 576.4219,241.8594 Q576.5781,241.7813 576.7813,241.7813 Q577.1094,241.7813 577.3594,242.0469 Q577.625,242.2969 577.625,242.6406 Q577.625,242.9844 577.2813,243.3906 Q576.7813,243.9688 575.9844,244.2969 Q574.9063,244.75 573.6094,244.75 Q572.0938,244.75 570.8906,244.125 Q569.9063,243.625 569.2188,242.5625 Q568.5313,241.4844 568.5313,240.2031 L568.5313,239.0469 Q568.5313,237.7188 569.1406,236.5781 Q569.7656,235.4219 570.8594,234.8125 Q571.9531,234.1875 573.1875,234.1875 Q573.9219,234.1875 574.5625,234.3594 Q575.2188,234.5156 575.7656,234.875 Z " fill="#000000"/><text fill="#000000" font-family="sans-serif" font-size="14" lengthAdjust="spacing" textLength="52" x="587" y="244.7285">Console</text><line style="stroke:#181818;stroke-width:0.5;" x1="559" x2="641" y1="255" y2="255"/><line style="stroke:#181818;stroke-width:0.5;" x1="559" x2="641" y1="263" y2="263"/></g><!--MD5=[94b2979dc8db7061b05b681130e8ecb6]
class Interval--><g id="elem_Interval"><rect codeLine="15" fill="#F1F1F1" height="48" id="Interval" rx="2.5" ry="2.5" style="stroke:#181818;stroke-width:0.5;" width="78" x="165" y="655"/><ellipse cx="180" cy="671" fill="#ADD1B2" rx="11" ry="11" style="stroke:#181818;stroke-width:1.0;"/><path d="M182.7656,666.875 Q182.9219,666.6563 183.1094,666.5469 Q183.2969,666.4375 183.5156,666.4375 Q183.8906,666.4375 184.125,666.7031 Q184.3594,666.9531 184.3594,667.5625 L184.3594,669.0156 Q184.3594,669.625 184.125,669.8906 Q183.8906,670.1563 183.5156,670.1563 Q183.1719,670.1563 182.9688,669.9531 Q182.7656,669.7656 182.6563,669.25 Q182.6094,668.8906 182.4219,668.7031 Q182.0938,668.3281 181.4844,668.1094 Q180.875,667.8906 180.25,667.8906 Q179.4844,667.8906 178.8438,668.2188 Q178.2188,668.5469 177.7188,669.2969 Q177.2344,670.0469 177.2344,671.0781 L177.2344,672.1719 Q177.2344,673.4063 178.125,674.2344 Q179.0156,675.0469 180.6094,675.0469 Q181.5469,675.0469 182.2031,674.7969 Q182.5938,674.6406 183.0156,674.2031 Q183.2813,673.9375 183.4219,673.8594 Q183.5781,673.7813 183.7813,673.7813 Q184.1094,673.7813 184.3594,674.0469 Q184.625,674.2969 184.625,674.6406 Q184.625,674.9844 184.2813,675.3906 Q183.7813,675.9688 182.9844,676.2969 Q181.9063,676.75 180.6094,676.75 Q179.0938,676.75 177.8906,676.125 Q176.9063,675.625 176.2188,674.5625 Q175.5313,673.4844 175.5313,672.2031 L175.5313,671.0469 Q175.5313,669.7188 176.1406,668.5781 Q176.7656,667.4219 177.8594,666.8125 Q178.9531,666.1875 180.1875,666.1875 Q180.9219,666.1875 181.5625,666.3594 Q182.2188,666.5156 182.7656,666.875 Z " fill="#000000"/><text fill="#000000" font-family="sans-serif" font-size="14" lengthAdjust="spacing" textLength="46" x="194" y="676.7285">Interval</text><line style="stroke:#181818;stroke-width:0.5;" x1="166" x2="242" y1="687" y2="687"/><line style="stroke:#181818;stroke-width:0.5;" x1="166" x2="242" y1="695" y2="695"/></g><!--MD5=[b07065dfc0d0e09965ec10bfc328bb3e]
class Option--><g id="elem_Option"><rect codeLine="17" fill="#F1F1F1" height="48" id="Option" rx="2.5" ry="2.5" style="stroke:#181818;stroke-width:0.5;" width="74" x="578" y="331"/><ellipse cx="593" cy="347" fill="#B4A7E5" rx="11" ry="11" style="stroke:#181818;stroke-width:1.0;"/><path d="M593.9531,343.6406 L593.9531,350.2969 L595.6719,350.2969 Q596.2813,350.2969 596.5469,350.5313 Q596.8125,350.7656 596.8125,351.1563 Q596.8125,351.5313 596.5469,351.7656 Q596.2813,352 595.6719,352 L590.5313,352 Q589.9219,352 589.6563,351.7656 Q589.3906,351.5313 589.3906,351.1406 Q589.3906,350.7656 589.6563,350.5313 Q589.9219,350.2969 590.5313,350.2969 L592.25,350.2969 L592.25,343.6406 L590.5313,343.6406 Q589.9219,343.6406 589.6563,343.4063 Q589.3906,343.1719 589.3906,342.7813 Q589.3906,342.4063 589.6563,342.1719 Q589.9219,341.9375 590.5313,341.9375 L595.6719,341.9375 Q596.2813,341.9375 596.5469,342.1719 Q596.8125,342.4063 596.8125,342.7813 Q596.8125,343.1719 596.5469,343.4063 Q596.2813,343.6406 595.6719,343.6406 L593.9531,343.6406 Z " fill="#000000"/><text fill="#000000" font-family="sans-serif" font-size="14" font-style="italic" lengthAdjust="spacing" textLength="42" x="607" y="352.7285">Option</text><line style="stroke:#181818;stroke-width:0.5;" x1="579" x2="651" y1="363" y2="363"/><line style="stroke:#181818;stroke-width:0.5;" x1="579" x2="651" y1="371" y2="371"/></g><!--MD5=[db9a76f5ceec3d416a4a0daeaf552bb6]
link CompanyManagement to ServiceContract--><g id="link_CompanyManagement_ServiceContract"><path codeLine="20" d="M84.95,55.02 C70.54,93.79 44,174.84 44,246 C44,246 44,246 44,356 C44,429.74 95.46,504.12 127,542.79 " fill="none" id="CompanyManagement-to-ServiceContract" style="stroke:#181818;stroke-width:1.0;stroke-dasharray:7.0,7.0;"/><polygon fill="#181818" points="130.37,546.88,127.7228,537.3936,127.186,543.0249,121.5546,542.488,130.37,546.88" style="stroke:#181818;stroke-width:1.0;"/></g><!--MD5=[b675fbcbdf96fa0ca0e45da8a95e9d8f]
link CompanyManagement to MenuView--><g id="link_CompanyManagement_MenuView"><path codeLine="21" d="M138.48,55 C171.28,71.96 215.89,95.02 249.76,112.54 " fill="none" id="CompanyManagement-to-MenuView" style="stroke:#181818;stroke-width:1.0;stroke-dasharray:7.0,7.0;"/><polygon fill="#181818" points="254.25,114.86,248.0769,107.1858,249.8039,112.5726,244.4171,114.2996,254.25,114.86" style="stroke:#181818;stroke-width:1.0;"/></g><!--MD5=[aed3b4e61f0aadc93823d15e8705445f]
link ServiceContract to Date--><g id="link_ServiceContract_Date"><path codeLine="23" d="M139.72,595 C131.8,611.14 121.17,632.82 112.75,649.97 " fill="none" id="ServiceContract-to-Date" style="stroke:#181818;stroke-width:1.0;stroke-dasharray:7.0,7.0;"/><polygon fill="#181818" points="110.44,654.68,117.9944,648.3609,112.6417,650.1908,110.8117,644.8382,110.44,654.68" style="stroke:#181818;stroke-width:1.0;"/></g><!--MD5=[df8aa8658773f52091bcc1df68fac1d7]
link ServiceContract to Interval--><g id="link_ServiceContract_Interval"><path codeLine="24" d="M167.8666,605.7331 C167.8666,605.7331 180.63,631.25 186.39,642.78 " fill="none" id="ServiceContract-Interval" style="stroke:#181818;stroke-width:1.0;"/><polygon fill="#181818" points="192.34,654.68,191.8928,644.8413,190.1039,650.2079,184.7374,648.419,192.34,654.68" style="stroke:#181818;stroke-width:1.0;"/><line style="stroke:#181818;stroke-width:1.0;" x1="190.1039" x2="186.53" y1="650.2079" y2="643.055"/><polygon fill="#181818" points="162.5,595,161.6056,602.1554,167.8666,605.7331,168.761,598.5777,162.5,595" style="stroke:#181818;stroke-width:1.0;"/><text fill="#000000" font-family="sans-serif" font-size="13" lengthAdjust="spacing" textLength="21" x="165.9385" y="644.34">360</text></g><!--MD5=[bd5fce3a8562215e0ca0a5b78df62fff]
link MenuView to ServiceContract--><g id="link_MenuView_ServiceContract"><path codeLine="26" d="M288.44,163.21 C266.14,212.92 213.62,333.72 181,439 C170.25,473.68 161.49,514.61 156.26,541.37 " fill="none" id="MenuView-to-ServiceContract" style="stroke:#181818;stroke-width:1.0;"/><polygon fill="#181818" points="155.27,546.53,160.8985,538.4479,156.2148,541.6201,153.0426,536.9363,155.27,546.53" style="stroke:#181818;stroke-width:1.0;"/></g><!--MD5=[dcc2e4004a81e930d0bba2f4a2a42a1d]
link MenuView to Menu--><g id="link_MenuView_Menu"><path codeLine="27" d="M340.23,163 C373.1,181.34 418.78,206.82 450.82,224.7 " fill="none" id="MenuView-to-Menu" style="stroke:#181818;stroke-width:1.0;"/><polygon fill="#181818" points="455.45,227.28,449.5361,219.4044,451.0826,224.8457,445.6412,226.3922,455.45,227.28" style="stroke:#181818;stroke-width:1.0;"/></g><!--MD5=[d8dd6c9298e197ad625357de93ab3e0c]
link MenuView to Console--><g id="link_MenuView_Console"><path codeLine="28" d="M347.18,156.05 C395.96,172.43 473.46,198.8 540,223 C544.23,224.54 548.63,226.17 553.02,227.81 " fill="none" id="MenuView-to-Console" style="stroke:#181818;stroke-width:1.0;stroke-dasharray:7.0,7.0;"/><polygon fill="#181818" points="557.78,229.61,550.7645,222.6975,553.1001,227.8497,547.948,230.1853,557.78,229.61" style="stroke:#181818;stroke-width:1.0;"/></g><!--MD5=[ee3a169de1292a7aef64ebf3d9b9ba64]
link CancelOption to DateView--><g id="link_CancelOption_DateView"><path codeLine="30" d="M331.85,487 C356.5,503.75 389.92,526.46 415.58,543.89 " fill="none" id="CancelOption-to-DateView" style="stroke:#181818;stroke-width:1.0;stroke-dasharray:7.0,7.0;"/><polygon fill="#181818" points="419.95,546.86,414.753,538.494,415.814,544.0504,410.2576,545.1115,419.95,546.86" style="stroke:#181818;stroke-width:1.0;"/></g><!--MD5=[ab92bd51faf210c1c0cd50b941d89674]
link CancelOption to ServiceContract--><g id="link_CancelOption_ServiceContract"><path codeLine="31" d="M266.1,487 C242.87,503.75 211.38,526.46 187.21,543.89 " fill="none" id="CancelOption-to-ServiceContract" style="stroke:#181818;stroke-width:1.0;stroke-dasharray:7.0,7.0;"/><polygon fill="#181818" points="183.09,546.86,192.7286,544.8358,187.1441,543.9336,188.0463,538.3491,183.09,546.86" style="stroke:#181818;stroke-width:1.0;"/></g><!--MD5=[9de173d10d53940dbb3f6710010f9d26]
link EnlargeOption to DateView--><g id="link_EnlargeOption_DateView"><path codeLine="33" d="M454,487 C454,503 454,524.45 454,541.53 " fill="none" id="EnlargeOption-to-DateView" style="stroke:#181818;stroke-width:1.0;stroke-dasharray:7.0,7.0;"/><polygon fill="#181818" points="454,546.68,458,537.68,454,541.68,450,537.68,454,546.68" style="stroke:#181818;stroke-width:1.0;"/></g><!--MD5=[baaf18a028d27d72df07490104d06a57]
link ShiftOption to DateView--><g id="link_ShiftOption_DateView"><path codeLine="34" d="M569.89,487 C546.5,503.75 514.79,526.46 490.45,543.89 " fill="none" id="ShiftOption-to-DateView" style="stroke:#181818;stroke-width:1.0;stroke-dasharray:7.0,7.0;"/><polygon fill="#181818" points="486.31,546.86,495.9533,544.8581,490.3709,543.943,491.2861,538.3607,486.31,546.86" style="stroke:#181818;stroke-width:1.0;"/></g><!--MD5=[3aedf839aea1acc0ae01149fb9ee3219]
link Menu to ServiceContract--><g id="link_Menu_ServiceContract"><path codeLine="36" d="M455.48,265.04 C400.6,294.31 290.72,358.8 221,439 C193.81,470.28 173.17,513.91 161.58,542.06 " fill="none" id="Menu-to-ServiceContract" style="stroke:#181818;stroke-width:1.0;"/><polygon fill="#181818" points="159.65,546.78,166.75,539.9544,161.5365,542.1495,159.3413,536.936,159.65,546.78" style="stroke:#181818;stroke-width:1.0;"/></g><!--MD5=[8daeaf3eedd6c08a0f80d4a90846b3b4]
link Menu to Option--><g id="link_Menu_Option"><path codeLine="37" d="M516.34,271 C536.02,287.55 562.62,309.93 583.24,327.28 " fill="none" id="Menu-to-Option" style="stroke:#181818;stroke-width:1.0;"/><polygon fill="#181818" points="587.28,330.68,582.9591,321.8296,583.4506,327.465,577.8152,327.9566,587.28,330.68" style="stroke:#181818;stroke-width:1.0;"/></g><!--MD5=[db27c364c76abc55725547699ffa083f]
link Menu to CancelOption--><g id="link_Menu_CancelOption"><path codeLine="38" d="M468.2,271.31 C432.6,311.19 360.21,392.3 322.33,434.74 " fill="none" id="Menu-to-CancelOption" style="stroke:#181818;stroke-width:1.0;"/><polygon fill="#181818" points="318.78,438.72,327.7576,434.6699,322.1098,434.9901,321.7897,429.3423,318.78,438.72" style="stroke:#181818;stroke-width:1.0;"/></g><!--MD5=[4fa9ab25f67b4b87f3be576228ebd3af]
link Menu to EnlargeOption--><g id="link_Menu_EnlargeOption"><path codeLine="39" d="M485.19,271.31 C478.72,310.87 465.61,390.99 458.63,433.7 " fill="none" id="Menu-to-EnlargeOption" style="stroke:#181818;stroke-width:1.0;"/><polygon fill="#181818" points="457.81,438.72,463.2236,430.4924,458.625,433.7869,455.3306,429.1883,457.81,438.72" style="stroke:#181818;stroke-width:1.0;"/></g><!--MD5=[34472ef7d93d45876669c188e05bd016]
link Menu to ExitOption--><g id="link_Menu_ExitOption"><path codeLine="40" d="M522.56,263.65 C528.34,266.2 534.31,268.74 540,271 C615.61,301.09 641.62,291.91 713,331 C766.38,360.23 820.23,406.53 851.56,435.54 " fill="none" id="Menu-to-ExitOption" style="stroke:#181818;stroke-width:1.0;"/><polygon fill="#181818" points="855.27,438.99,851.4021,429.9324,851.6081,435.5856,845.955,435.7915,855.27,438.99" style="stroke:#181818;stroke-width:1.0;"/></g><!--MD5=[07af14581a148e641fd603cb40c2280e]
link Menu to GetCostOption--><g id="link_Menu_GetCostOption"><path codeLine="41" d="M522.69,264.16 C528.4,266.62 534.32,269 540,271 C640.46,306.35 672.53,292.94 772,331 C849.13,360.51 933.27,407.25 982.46,436.19 " fill="none" id="Menu-to-GetCostOption" style="stroke:#181818;stroke-width:1.0;"/><polygon fill="#181818" points="986.82,438.76,981.0779,430.7582,982.5063,436.2318,977.0327,437.6601,986.82,438.76" style="stroke:#181818;stroke-width:1.0;"/></g><!--MD5=[27f893628d86aab74ab3b09a64ae1a9a]
link Menu to ShiftOption--><g id="link_Menu_ShiftOption"><path codeLine="42" d="M501.31,271.31 C522.28,311.03 564.85,391.65 587.33,434.22 " fill="none" id="Menu-to-ShiftOption" style="stroke:#181818;stroke-width:1.0;"/><polygon fill="#181818" points="589.71,438.72,589.0371,428.8942,587.3719,434.3004,581.9657,432.6352,589.71,438.72" style="stroke:#181818;stroke-width:1.0;"/></g><!--MD5=[803738a30755b5dfec10f31a19e63733]
link Menu to ShowOption--><g id="link_Menu_ShowOption"><path codeLine="43" d="M522.71,263.3 C574.66,286.9 668.54,329.64 670,331 C700.9,359.73 721.59,404.81 732.58,433.88 " fill="none" id="Menu-to-ShowOption" style="stroke:#181818;stroke-width:1.0;"/><polygon fill="#181818" points="734.39,438.76,735.0015,428.9301,732.6469,434.0737,727.5034,431.7191,734.39,438.76" style="stroke:#181818;stroke-width:1.0;"/></g><!--MD5=[e3fd346c3516c724fc4a640bffce4df1]
reverse link Option to CancelOption--><g id="link_Option_CancelOption"><path codeLine="45" d="M558.67,374.84 C501.99,393.79 414.95,422.89 357.26,442.19 " fill="none" id="Option-backto-CancelOption" style="stroke:#181818;stroke-width:1.0;stroke-dasharray:7.0,7.0;"/><polygon fill="none" points="556.52,368.18,577.7,368.47,560.96,381.45,556.52,368.18" style="stroke:#181818;stroke-width:1.0;"/></g><!--MD5=[19046170cf5041572bf6c16b030fecc3]
reverse link Option to EnlargeOption--><g id="link_Option_EnlargeOption"><path codeLine="46" d="M563.29,390.05 C539.07,405.99 510.84,424.58 489.14,438.86 " fill="none" id="Option-backto-EnlargeOption" style="stroke:#181818;stroke-width:1.0;stroke-dasharray:7.0,7.0;"/><polygon fill="none" points="559.51,384.15,580.07,379,567.21,395.85,559.51,384.15" style="stroke:#181818;stroke-width:1.0;"/></g><!--MD5=[526edcfd2429839a623b8ea8e99bb633]
reverse link Option to ExitOption--><g id="link_Option_ExitOption"><path codeLine="47" d="M670.93,378.46 C718.35,397.5 785.64,424.51 830.73,442.62 " fill="none" id="Option-backto-ExitOption" style="stroke:#181818;stroke-width:1.0;stroke-dasharray:7.0,7.0;"/><polygon fill="none" points="668.22,384.91,652.26,370.96,673.43,371.92,668.22,384.91" style="stroke:#181818;stroke-width:1.0;"/></g><!--MD5=[79c6f7e96243453265e07bfea24cadbc]
reverse link Option to GetCostOption--><g id="link_Option_GetCostOption"><path codeLine="48" d="M671.93,369.7 C737.82,385.71 849.52,413.28 945,439 C950.44,440.47 956.08,442.02 961.73,443.6 " fill="none" id="Option-backto-GetCostOption" style="stroke:#181818;stroke-width:1.0;stroke-dasharray:7.0,7.0;"/><polygon fill="none" points="670.01,376.44,652.22,364.93,673.31,362.84,670.01,376.44" style="stroke:#181818;stroke-width:1.0;"/></g><!--MD5=[cbf13adba2a8be8001390b77ecbc040d]
reverse link Option to ShiftOption--><g id="link_Option_ShiftOption"><path codeLine="49" d="M609.72,399.02 C608.06,412.58 606.29,427.04 604.86,438.68 " fill="none" id="Option-backto-ShiftOption" style="stroke:#181818;stroke-width:1.0;stroke-dasharray:7.0,7.0;"/><polygon fill="none" points="602.8,398,612.18,379,616.69,399.7,602.8,398" style="stroke:#181818;stroke-width:1.0;"/></g><!--MD5=[e23ea6afece6cda16f274ef1ae533cf1]
reverse link Option to ShowOption--><g id="link_Option_ShowOption"><path codeLine="50" d="M657.98,391.87 C676.49,407.33 697.62,424.96 714.06,438.68 " fill="none" id="Option-backto-ShowOption" style="stroke:#181818;stroke-width:1.0;stroke-dasharray:7.0,7.0;"/><polygon fill="none" points="653.43,397.19,642.56,379,662.4,386.44,653.43,397.19" style="stroke:#181818;stroke-width:1.0;"/></g><!--MD5=[8dc666f9df77d8ecc825973a8c5483a3]
@startuml
class CompanyManagement
class ServiceContract
class MenuView
class Menu
class CancelOption
class ShowOption
class ExitOption
class EnlargeOption
class ShiftOption
class GetCostOption

class Date
class DateView
class Console
class Interval

interface Option


CompanyManagement ..> ServiceContract
CompanyManagement ..> MenuView

ServiceContract ..> Date
ServiceContract *- -> "360" Interval

MenuView - -> ServiceContract
MenuView - -> Menu
MenuView ..> Console

CancelOption ..> DateView
CancelOption ..> ServiceContract

EnlargeOption ..> DateView
ShiftOption ..> DateView

Menu - -> ServiceContract
Menu - -> Option
Menu - -> CancelOption
Menu - -> EnlargeOption
Menu - -> ExitOption
Menu - -> GetCostOption
Menu - -> ShiftOption
Menu - -> ShowOption

Option <|.. CancelOption
Option <|.. EnlargeOption
Option <|.. ExitOption
Option <|.. GetCostOption
Option <|.. ShiftOption
Option <|.. ShowOption


@enduml

PlantUML version 1.2022.7(Mon Aug 22 19:01:30 CEST 2022)
(GPL source distribution)
Java Runtime: OpenJDK Runtime Environment
JVM: OpenJDK 64-Bit Server VM
Default Encoding: UTF-8
Language: es
Country: ES
--></g></svg>