<?xml version="1.0" encoding="UTF-8" standalone="no"?><svg xmlns="http://www.w3.org/2000/svg" xmlns:xlink="http://www.w3.org/1999/xlink" contentStyleType="text/css" height="1332px" preserveAspectRatio="none" style="width:1634px;height:1332px;background:#FFFFFF;" version="1.1" viewBox="0 0 1634 1332" width="1634px" zoomAndPan="magnify"><defs/><g><!--MD5=[701ca1a946997c70f44444ac97b72a7f]
class ServicesContract--><g id="elem_ServicesContract"><rect codeLine="1" fill="#F1F1F1" height="48" id="ServicesContract" rx="2.5" ry="2.5" style="stroke:#181818;stroke-width:0.5;" width="140" x="7" y="908.5"/><ellipse cx="22" cy="924.5" fill="#ADD1B2" rx="11" ry="11" style="stroke:#181818;stroke-width:1.0;"/><path d="M24.7656,920.375 Q24.9219,920.1563 25.1094,920.0469 Q25.2969,919.9375 25.5156,919.9375 Q25.8906,919.9375 26.125,920.1953 Q26.3594,920.4531 26.3594,921.0625 L26.3594,922.5156 Q26.3594,923.125 26.125,923.3906 Q25.8906,923.6563 25.5156,923.6563 Q25.1719,923.6563 24.9688,923.4531 Q24.7656,923.2656 24.6563,922.75 Q24.6094,922.3906 24.4219,922.2031 Q24.0938,921.8281 23.4844,921.6094 Q22.875,921.3906 22.25,921.3906 Q21.4844,921.3906 20.8516,921.7188 Q20.2188,922.0469 19.7266,922.7969 Q19.2344,923.5469 19.2344,924.5781 L19.2344,925.6719 Q19.2344,926.9063 20.125,927.7266 Q21.0156,928.5469 22.6094,928.5469 Q23.5469,928.5469 24.2031,928.2969 Q24.5938,928.1406 25.0156,927.7031 Q25.2813,927.4375 25.4297,927.3594 Q25.5781,927.2813 25.7813,927.2813 Q26.1094,927.2813 26.3672,927.5391 Q26.625,927.7969 26.625,928.1406 Q26.625,928.4844 26.2813,928.8906 Q25.7813,929.4688 24.9844,929.7969 Q23.9063,930.25 22.6094,930.25 Q21.0938,930.25 19.8906,929.625 Q18.9063,929.125 18.2188,928.0547 Q17.5313,926.9844 17.5313,925.7031 L17.5313,924.5469 Q17.5313,923.2188 18.1484,922.0703 Q18.7656,920.9219 19.8594,920.3047 Q20.9531,919.6875 22.1875,919.6875 Q22.9219,919.6875 23.5703,919.8516 Q24.2188,920.0156 24.7656,920.375 Z " fill="#000000"/><text fill="#000000" font-family="sans-serif" font-size="14" lengthAdjust="spacing" textLength="108" x="36" y="930.2285">ServicesContract</text><line style="stroke:#181818;stroke-width:0.5;" x1="8" x2="146" y1="940.5" y2="940.5"/><line style="stroke:#181818;stroke-width:0.5;" x1="8" x2="146" y1="948.5" y2="948.5"/></g><!--MD5=[f0268dd29ee89052933f031546cb1cab]
class Menu--><g id="elem_Menu"><rect codeLine="32" fill="#F1F1F1" height="224.0938" id="Menu" rx="2.5" ry="2.5" style="stroke:#181818;stroke-width:0.5;" width="241" x="742.5" y="7"/><ellipse cx="840.75" cy="23" fill="#A9DCDF" rx="11" ry="11" style="stroke:#181818;stroke-width:1.0;"/><path d="M842.9375,24.7656 L838.7969,24.7656 L838.375,25.7969 L838.7969,25.7969 Q839.4063,25.7969 839.6719,26.0313 Q839.9375,26.2656 839.9375,26.6563 Q839.9375,27.0313 839.6719,27.2656 Q839.4063,27.5 838.7969,27.5 L836.5,27.5 Q835.8906,27.5 835.6328,27.2656 Q835.375,27.0313 835.375,26.6406 Q835.375,26.2656 835.6484,26.0234 Q835.9219,25.7813 836.5469,25.7969 L839.2188,19.1406 L838.1094,19.1406 Q837.5,19.1406 837.2344,18.9063 Q836.9688,18.6719 836.9688,18.2813 Q836.9688,17.9063 837.2344,17.6719 Q837.5,17.4375 838.1094,17.4375 L841.7813,17.4375 L845.1719,25.7969 Q845.7656,25.7969 845.9531,25.9375 Q846.3438,26.2031 846.3438,26.6563 Q846.3438,27.0313 846.0859,27.2656 Q845.8281,27.5 845.2188,27.5 L842.9219,27.5 Q842.3125,27.5 842.0469,27.2656 Q841.7813,27.0313 841.7813,26.6406 Q841.7813,26.2656 842.0469,26.0313 Q842.3125,25.7969 842.9219,25.7969 L843.3438,25.7969 L842.9375,24.7656 Z M842.2188,23.0625 L840.8594,19.6875 L839.4844,23.0625 L842.2188,23.0625 Z " fill="#000000"/><text fill="#000000" font-family="sans-serif" font-size="14" font-style="italic" lengthAdjust="spacing" textLength="36" x="861.25" y="28.7285">Menu</text><line style="stroke:#181818;stroke-width:0.5;" x1="743.5" x2="982.5" y1="39" y2="39"/><rect fill="none" height="6" style="stroke:#C82930;stroke-width:1.0;" width="6" x="750.5" y="50.3047"/><text fill="#000000" font-family="sans-serif" font-size="14" lengthAdjust="spacing" textLength="63" x="762.5" y="57.5332">String title</text><line style="stroke:#181818;stroke-width:0.5;" x1="743.5" x2="982.5" y1="64.6094" y2="64.6094"/><ellipse cx="753.5" cy="78.9141" fill="#84BE84" rx="3" ry="3" style="stroke:#038048;stroke-width:1.0;"/><text fill="#000000" font-family="sans-serif" font-size="14" lengthAdjust="spacing" textLength="57" x="762.5" y="83.1426">interact()</text><polygon fill="#FFFF44" points="753.5,91.5234,757.5,95.5234,753.5,99.5234,749.5,95.5234" style="stroke:#B38D22;stroke-width:1.0;"/><text fill="#000000" font-family="sans-serif" font-size="14" font-style="italic" lengthAdjust="spacing" textLength="83" x="762.5" y="100.752">addOptions()</text><polygon fill="#FFFF44" points="753.5,109.1328,757.5,113.1328,753.5,117.1328,749.5,113.1328" style="stroke:#B38D22;stroke-width:1.0;"/><text fill="#000000" font-family="sans-serif" font-size="14" lengthAdjust="spacing" textLength="65" x="762.5" y="118.3613">interact_()</text><polygon fill="#FFFF44" points="753.5,126.7422,757.5,130.7422,753.5,134.7422,749.5,130.7422" style="stroke:#B38D22;stroke-width:1.0;"/><text fill="#000000" font-family="sans-serif" font-size="14" lengthAdjust="spacing" textLength="76" x="762.5" y="135.9707">showTitles()</text><rect fill="#F24D5C" height="6" style="stroke:#C82930;stroke-width:1.0;" width="6" x="750.5" y="146.3516"/><text fill="#000000" font-family="sans-serif" font-size="14" lengthAdjust="spacing" textLength="69" x="762.5" y="153.5801">showTitle()</text><polygon fill="#FFFF44" points="753.5,161.9609,757.5,165.9609,753.5,169.9609,749.5,165.9609" style="stroke:#B38D22;stroke-width:1.0;"/><text fill="#000000" font-family="sans-serif" font-size="14" lengthAdjust="spacing" textLength="138" x="762.5" y="171.1895">execChoosedOption()</text><polygon fill="#FFFF44" points="753.5,179.5703,757.5,183.5703,753.5,187.5703,749.5,183.5703" style="stroke:#B38D22;stroke-width:1.0;"/><text fill="#000000" font-family="sans-serif" font-size="14" lengthAdjust="spacing" textLength="119" x="762.5" y="188.7988">add(Option option)</text><polygon fill="#FFFF44" points="753.5,197.1797,757.5,201.1797,753.5,205.1797,749.5,201.1797" style="stroke:#B38D22;stroke-width:1.0;"/><text fill="#000000" font-family="sans-serif" font-size="14" lengthAdjust="spacing" textLength="106" x="762.5" y="206.4082">removeOptions()</text><polygon fill="#FFFF44" points="753.5,214.7891,757.5,218.7891,753.5,222.7891,749.5,218.7891" style="stroke:#B38D22;stroke-width:1.0;"/><text fill="#000000" font-family="sans-serif" font-size="14" lengthAdjust="spacing" textLength="215" x="762.5" y="224.0176">boolean hasOption(Option option)</text></g><!--MD5=[ed2fc5c4a771128b6c6b2874ec3d6d45]
class DynamicMenu--><g id="elem_DynamicMenu"><rect codeLine="55" fill="#F1F1F1" height="65.6094" id="DynamicMenu" rx="2.5" ry="2.5" style="stroke:#181818;stroke-width:0.5;" width="122" x="74" y="604"/><ellipse cx="89" cy="620" fill="#A9DCDF" rx="11" ry="11" style="stroke:#181818;stroke-width:1.0;"/><path d="M91.1875,621.7656 L87.0469,621.7656 L86.625,622.7969 L87.0469,622.7969 Q87.6563,622.7969 87.9219,623.0313 Q88.1875,623.2656 88.1875,623.6563 Q88.1875,624.0313 87.9219,624.2656 Q87.6563,624.5 87.0469,624.5 L84.75,624.5 Q84.1406,624.5 83.8828,624.2656 Q83.625,624.0313 83.625,623.6406 Q83.625,623.2656 83.8984,623.0234 Q84.1719,622.7813 84.7969,622.7969 L87.4688,616.1406 L86.3594,616.1406 Q85.75,616.1406 85.4844,615.9063 Q85.2188,615.6719 85.2188,615.2813 Q85.2188,614.9063 85.4844,614.6719 Q85.75,614.4375 86.3594,614.4375 L90.0313,614.4375 L93.4219,622.7969 Q94.0156,622.7969 94.2031,622.9375 Q94.5938,623.2031 94.5938,623.6563 Q94.5938,624.0313 94.3359,624.2656 Q94.0781,624.5 93.4688,624.5 L91.1719,624.5 Q90.5625,624.5 90.2969,624.2656 Q90.0313,624.0313 90.0313,623.6406 Q90.0313,623.2656 90.2969,623.0313 Q90.5625,622.7969 91.1719,622.7969 L91.5938,622.7969 L91.1875,621.7656 Z M90.4688,620.0625 L89.1094,616.6875 L87.7344,620.0625 L90.4688,620.0625 Z " fill="#000000"/><text fill="#000000" font-family="sans-serif" font-size="14" font-style="italic" lengthAdjust="spacing" textLength="90" x="103" y="625.7285">DynamicMenu</text><line style="stroke:#181818;stroke-width:0.5;" x1="75" x2="195" y1="636" y2="636"/><line style="stroke:#181818;stroke-width:0.5;" x1="75" x2="195" y1="644" y2="644"/><ellipse cx="85" cy="658.3047" fill="#84BE84" rx="3" ry="3" style="stroke:#038048;stroke-width:1.0;"/><text fill="#000000" font-family="sans-serif" font-size="14" lengthAdjust="spacing" textLength="57" x="94" y="662.5332">interact()</text></g><!--MD5=[1e1ab81ceca60840e21d95fa93f43ed6]
class IterativeMenu--><g id="elem_IterativeMenu"><rect codeLine="51" fill="#F1F1F1" height="65.6094" id="IterativeMenu" rx="2.5" ry="2.5" style="stroke:#181818;stroke-width:0.5;" width="118" x="90" y="452"/><ellipse cx="105" cy="468" fill="#A9DCDF" rx="11" ry="11" style="stroke:#181818;stroke-width:1.0;"/><path d="M107.1875,469.7656 L103.0469,469.7656 L102.625,470.7969 L103.0469,470.7969 Q103.6563,470.7969 103.9219,471.0313 Q104.1875,471.2656 104.1875,471.6563 Q104.1875,472.0313 103.9219,472.2656 Q103.6563,472.5 103.0469,472.5 L100.75,472.5 Q100.1406,472.5 99.8828,472.2656 Q99.625,472.0313 99.625,471.6406 Q99.625,471.2656 99.8984,471.0234 Q100.1719,470.7813 100.7969,470.7969 L103.4688,464.1406 L102.3594,464.1406 Q101.75,464.1406 101.4844,463.9063 Q101.2188,463.6719 101.2188,463.2813 Q101.2188,462.9063 101.4844,462.6719 Q101.75,462.4375 102.3594,462.4375 L106.0313,462.4375 L109.4219,470.7969 Q110.0156,470.7969 110.2031,470.9375 Q110.5938,471.2031 110.5938,471.6563 Q110.5938,472.0313 110.3359,472.2656 Q110.0781,472.5 109.4688,472.5 L107.1719,472.5 Q106.5625,472.5 106.2969,472.2656 Q106.0313,472.0313 106.0313,471.6406 Q106.0313,471.2656 106.2969,471.0313 Q106.5625,470.7969 107.1719,470.7969 L107.5938,470.7969 L107.1875,469.7656 Z M106.4688,468.0625 L105.1094,464.6875 L103.7344,468.0625 L106.4688,468.0625 Z " fill="#000000"/><text fill="#000000" font-family="sans-serif" font-size="14" font-style="italic" lengthAdjust="spacing" textLength="86" x="119" y="473.7285">IterativeMenu</text><line style="stroke:#181818;stroke-width:0.5;" x1="91" x2="207" y1="484" y2="484"/><line style="stroke:#181818;stroke-width:0.5;" x1="91" x2="207" y1="492" y2="492"/><ellipse cx="101" cy="506.3047" fill="#84BE84" rx="3" ry="3" style="stroke:#038048;stroke-width:1.0;"/><text fill="#000000" font-family="sans-serif" font-size="14" lengthAdjust="spacing" textLength="57" x="110" y="510.5332">interact()</text></g><!--MD5=[9005bdc078c0a5e9ebdd6416d8bc3fc4]
class QuitMenu--><g id="elem_QuitMenu"><rect codeLine="45" fill="#F1F1F1" height="100.8281" id="QuitMenu" rx="2.5" ry="2.5" style="stroke:#181818;stroke-width:0.5;" width="224" x="150" y="291"/><ellipse cx="226.75" cy="307" fill="#A9DCDF" rx="11" ry="11" style="stroke:#181818;stroke-width:1.0;"/><path d="M228.9375,308.7656 L224.7969,308.7656 L224.375,309.7969 L224.7969,309.7969 Q225.4063,309.7969 225.6719,310.0313 Q225.9375,310.2656 225.9375,310.6563 Q225.9375,311.0313 225.6719,311.2656 Q225.4063,311.5 224.7969,311.5 L222.5,311.5 Q221.8906,311.5 221.6328,311.2656 Q221.375,311.0313 221.375,310.6406 Q221.375,310.2656 221.6484,310.0234 Q221.9219,309.7813 222.5469,309.7969 L225.2188,303.1406 L224.1094,303.1406 Q223.5,303.1406 223.2344,302.9063 Q222.9688,302.6719 222.9688,302.2813 Q222.9688,301.9063 223.2344,301.6719 Q223.5,301.4375 224.1094,301.4375 L227.7813,301.4375 L231.1719,309.7969 Q231.7656,309.7969 231.9531,309.9375 Q232.3438,310.2031 232.3438,310.6563 Q232.3438,311.0313 232.0859,311.2656 Q231.8281,311.5 231.2188,311.5 L228.9219,311.5 Q228.3125,311.5 228.0469,311.2656 Q227.7813,311.0313 227.7813,310.6406 Q227.7813,310.2656 228.0469,310.0313 Q228.3125,309.7969 228.9219,309.7969 L229.3438,309.7969 L228.9375,308.7656 Z M228.2188,307.0625 L226.8594,303.6875 L225.4844,307.0625 L228.2188,307.0625 Z " fill="#000000"/><text fill="#000000" font-family="sans-serif" font-size="14" font-style="italic" lengthAdjust="spacing" textLength="62" x="247.25" y="312.7285">QuitMenu</text><line style="stroke:#181818;stroke-width:0.5;" x1="151" x2="373" y1="323" y2="323"/><line style="stroke:#181818;stroke-width:0.5;" x1="151" x2="373" y1="331" y2="331"/><polygon fill="#FFFF44" points="161,340.3047,165,344.3047,161,348.3047,157,344.3047" style="stroke:#B38D22;stroke-width:1.0;"/><text fill="#000000" font-family="sans-serif" font-size="14" lengthAdjust="spacing" textLength="76" x="170" y="349.5332">showTitles()</text><polygon fill="#FFFF44" points="161,357.9141,165,361.9141,161,365.9141,157,361.9141" style="stroke:#B38D22;stroke-width:1.0;"/><text fill="#000000" font-family="sans-serif" font-size="14" lengthAdjust="spacing" textLength="99" x="170" y="367.1426">addquitOption()</text><polygon fill="#FFFF44" points="161,375.5234,165,379.5234,161,383.5234,157,379.5234" style="stroke:#B38D22;stroke-width:1.0;"/><text fill="#000000" font-family="sans-serif" font-size="14" lengthAdjust="spacing" textLength="198" x="170" y="384.752">boolean isExecutedquitOption()</text></g><!--MD5=[51db7c20ab219182e6e851dde63df4ce]
class ServicesContractMenu--><g id="elem_ServicesContractMenu"><rect codeLine="6" fill="#F1F1F1" height="48" id="ServicesContractMenu" rx="2.5" ry="2.5" style="stroke:#181818;stroke-width:0.5;" width="175" x="11.5" y="765"/><ellipse cx="26.5" cy="781" fill="#ADD1B2" rx="11" ry="11" style="stroke:#181818;stroke-width:1.0;"/><path d="M29.2656,776.875 Q29.4219,776.6563 29.6094,776.5469 Q29.7969,776.4375 30.0156,776.4375 Q30.3906,776.4375 30.625,776.6953 Q30.8594,776.9531 30.8594,777.5625 L30.8594,779.0156 Q30.8594,779.625 30.625,779.8906 Q30.3906,780.1563 30.0156,780.1563 Q29.6719,780.1563 29.4688,779.9531 Q29.2656,779.7656 29.1563,779.25 Q29.1094,778.8906 28.9219,778.7031 Q28.5938,778.3281 27.9844,778.1094 Q27.375,777.8906 26.75,777.8906 Q25.9844,777.8906 25.3516,778.2188 Q24.7188,778.5469 24.2266,779.2969 Q23.7344,780.0469 23.7344,781.0781 L23.7344,782.1719 Q23.7344,783.4063 24.625,784.2266 Q25.5156,785.0469 27.1094,785.0469 Q28.0469,785.0469 28.7031,784.7969 Q29.0938,784.6406 29.5156,784.2031 Q29.7813,783.9375 29.9297,783.8594 Q30.0781,783.7813 30.2813,783.7813 Q30.6094,783.7813 30.8672,784.0391 Q31.125,784.2969 31.125,784.6406 Q31.125,784.9844 30.7813,785.3906 Q30.2813,785.9688 29.4844,786.2969 Q28.4063,786.75 27.1094,786.75 Q25.5938,786.75 24.3906,786.125 Q23.4063,785.625 22.7188,784.5547 Q22.0313,783.4844 22.0313,782.2031 L22.0313,781.0469 Q22.0313,779.7188 22.6484,778.5703 Q23.2656,777.4219 24.3594,776.8047 Q25.4531,776.1875 26.6875,776.1875 Q27.4219,776.1875 28.0703,776.3516 Q28.7188,776.5156 29.2656,776.875 Z " fill="#000000"/><text fill="#000000" font-family="sans-serif" font-size="14" lengthAdjust="spacing" textLength="143" x="40.5" y="786.7285">ServicesContractMenu</text><line style="stroke:#181818;stroke-width:0.5;" x1="12.5" x2="185.5" y1="797" y2="797"/><line style="stroke:#181818;stroke-width:0.5;" x1="12.5" x2="185.5" y1="805" y2="805"/></g><!--MD5=[b07065dfc0d0e09965ec10bfc328bb3e]
class Option--><g id="elem_Option"><rect codeLine="59" fill="#F1F1F1" height="118.4375" id="Option" rx="2.5" ry="2.5" style="stroke:#181818;stroke-width:0.5;" width="147" x="789.5" y="578"/><ellipse cx="837.75" cy="594" fill="#A9DCDF" rx="11" ry="11" style="stroke:#181818;stroke-width:1.0;"/><path d="M839.9375,595.7656 L835.7969,595.7656 L835.375,596.7969 L835.7969,596.7969 Q836.4063,596.7969 836.6719,597.0313 Q836.9375,597.2656 836.9375,597.6563 Q836.9375,598.0313 836.6719,598.2656 Q836.4063,598.5 835.7969,598.5 L833.5,598.5 Q832.8906,598.5 832.6328,598.2656 Q832.375,598.0313 832.375,597.6406 Q832.375,597.2656 832.6484,597.0234 Q832.9219,596.7813 833.5469,596.7969 L836.2188,590.1406 L835.1094,590.1406 Q834.5,590.1406 834.2344,589.9063 Q833.9688,589.6719 833.9688,589.2813 Q833.9688,588.9063 834.2344,588.6719 Q834.5,588.4375 835.1094,588.4375 L838.7813,588.4375 L842.1719,596.7969 Q842.7656,596.7969 842.9531,596.9375 Q843.3438,597.2031 843.3438,597.6563 Q843.3438,598.0313 843.0859,598.2656 Q842.8281,598.5 842.2188,598.5 L839.9219,598.5 Q839.3125,598.5 839.0469,598.2656 Q838.7813,598.0313 838.7813,597.6406 Q838.7813,597.2656 839.0469,597.0313 Q839.3125,596.7969 839.9219,596.7969 L840.3438,596.7969 L839.9375,595.7656 Z M839.2188,594.0625 L837.8594,590.6875 L836.4844,594.0625 L839.2188,594.0625 Z " fill="#000000"/><text fill="#000000" font-family="sans-serif" font-size="14" font-style="italic" lengthAdjust="spacing" textLength="42" x="858.25" y="599.7285">Option</text><line style="stroke:#181818;stroke-width:0.5;" x1="790.5" x2="935.5" y1="610" y2="610"/><ellipse cx="800.5" cy="624.3047" fill="none" rx="3" ry="3" style="stroke:#038048;stroke-width:1.0;"/><text fill="#000000" font-family="sans-serif" font-size="14" lengthAdjust="spacing" textLength="22" x="809.5" y="628.5332">title</text><line style="stroke:#181818;stroke-width:0.5;" x1="790.5" x2="935.5" y1="635.6094" y2="635.6094"/><ellipse cx="800.5" cy="649.9141" fill="#84BE84" rx="3" ry="3" style="stroke:#038048;stroke-width:1.0;"/><text fill="#000000" font-family="sans-serif" font-size="14" font-style="italic" lengthAdjust="spacing" textLength="57" x="809.5" y="654.1426">interact()</text><ellipse cx="800.5" cy="667.5234" fill="#84BE84" rx="3" ry="3" style="stroke:#038048;stroke-width:1.0;"/><text fill="#000000" font-family="sans-serif" font-size="14" lengthAdjust="spacing" textLength="121" x="809.5" y="671.752">showTitle(int index)</text><polygon fill="#FFFF44" points="800.5,680.1328,804.5,684.1328,800.5,688.1328,796.5,684.1328" style="stroke:#B38D22;stroke-width:1.0;"/><text fill="#000000" font-family="sans-serif" font-size="14" lengthAdjust="spacing" textLength="98" x="809.5" y="689.3613">String getTitle()</text></g><!--MD5=[73f52c262fed881e4d6c63be947d9a43]
class ServicesContractOption--><g id="elem_ServicesContractOption"><rect codeLine="72" fill="#F1F1F1" height="65.6094" id="ServicesContractOption" rx="2.5" ry="2.5" style="stroke:#181818;stroke-width:0.5;" width="244" x="741" y="756"/><ellipse cx="784.35" cy="772" fill="#A9DCDF" rx="11" ry="11" style="stroke:#181818;stroke-width:1.0;"/><path d="M786.5375,773.7656 L782.3969,773.7656 L781.975,774.7969 L782.3969,774.7969 Q783.0063,774.7969 783.2719,775.0313 Q783.5375,775.2656 783.5375,775.6563 Q783.5375,776.0313 783.2719,776.2656 Q783.0063,776.5 782.3969,776.5 L780.1,776.5 Q779.4906,776.5 779.2328,776.2656 Q778.975,776.0313 778.975,775.6406 Q778.975,775.2656 779.2484,775.0234 Q779.5219,774.7813 780.1469,774.7969 L782.8188,768.1406 L781.7094,768.1406 Q781.1,768.1406 780.8344,767.9063 Q780.5688,767.6719 780.5688,767.2813 Q780.5688,766.9063 780.8344,766.6719 Q781.1,766.4375 781.7094,766.4375 L785.3813,766.4375 L788.7719,774.7969 Q789.3656,774.7969 789.5531,774.9375 Q789.9438,775.2031 789.9438,775.6563 Q789.9438,776.0313 789.6859,776.2656 Q789.4281,776.5 788.8188,776.5 L786.5219,776.5 Q785.9125,776.5 785.6469,776.2656 Q785.3813,776.0313 785.3813,775.6406 Q785.3813,775.2656 785.6469,775.0313 Q785.9125,774.7969 786.5219,774.7969 L786.9438,774.7969 L786.5375,773.7656 Z M785.8188,772.0625 L784.4594,768.6875 L783.0844,772.0625 L785.8188,772.0625 Z " fill="#000000"/><text fill="#000000" font-family="sans-serif" font-size="14" font-style="italic" lengthAdjust="spacing" textLength="149" x="804.65" y="777.7285">ServicesContractOption</text><line style="stroke:#181818;stroke-width:0.5;" x1="742" x2="984" y1="788" y2="788"/><polygon fill="none" points="752,797.3047,756,801.3047,752,805.3047,748,801.3047" style="stroke:#B38D22;stroke-width:1.0;"/><text fill="#000000" font-family="sans-serif" font-size="14" lengthAdjust="spacing" textLength="218" x="761" y="806.5332">ServicesContract servicesContract</text><line style="stroke:#181818;stroke-width:0.5;" x1="742" x2="984" y1="813.6094" y2="813.6094"/></g><!--MD5=[ffe3c6f41a9673c08ef07fee83b4ceba]
class CancelServicesContractOption--><g id="elem_CancelServicesContractOption"><rect codeLine="76" fill="#F1F1F1" height="65.6094" id="CancelServicesContractOption" rx="2.5" ry="2.5" style="stroke:#181818;stroke-width:0.5;" width="226" x="868" y="899.5"/><ellipse cx="883" cy="915.5" fill="#ADD1B2" rx="11" ry="11" style="stroke:#181818;stroke-width:1.0;"/><path d="M885.7656,911.375 Q885.9219,911.1563 886.1094,911.0469 Q886.2969,910.9375 886.5156,910.9375 Q886.8906,910.9375 887.125,911.1953 Q887.3594,911.4531 887.3594,912.0625 L887.3594,913.5156 Q887.3594,914.125 887.125,914.3906 Q886.8906,914.6563 886.5156,914.6563 Q886.1719,914.6563 885.9688,914.4531 Q885.7656,914.2656 885.6563,913.75 Q885.6094,913.3906 885.4219,913.2031 Q885.0938,912.8281 884.4844,912.6094 Q883.875,912.3906 883.25,912.3906 Q882.4844,912.3906 881.8516,912.7188 Q881.2188,913.0469 880.7266,913.7969 Q880.2344,914.5469 880.2344,915.5781 L880.2344,916.6719 Q880.2344,917.9063 881.125,918.7266 Q882.0156,919.5469 883.6094,919.5469 Q884.5469,919.5469 885.2031,919.2969 Q885.5938,919.1406 886.0156,918.7031 Q886.2813,918.4375 886.4297,918.3594 Q886.5781,918.2813 886.7813,918.2813 Q887.1094,918.2813 887.3672,918.5391 Q887.625,918.7969 887.625,919.1406 Q887.625,919.4844 887.2813,919.8906 Q886.7813,920.4688 885.9844,920.7969 Q884.9063,921.25 883.6094,921.25 Q882.0938,921.25 880.8906,920.625 Q879.9063,920.125 879.2188,919.0547 Q878.5313,917.9844 878.5313,916.7031 L878.5313,915.5469 Q878.5313,914.2188 879.1484,913.0703 Q879.7656,911.9219 880.8594,911.3047 Q881.9531,910.6875 883.1875,910.6875 Q883.9219,910.6875 884.5703,910.8516 Q885.2188,911.0156 885.7656,911.375 Z " fill="#000000"/><text fill="#000000" font-family="sans-serif" font-size="14" lengthAdjust="spacing" textLength="194" x="897" y="921.2285">CancelServicesContractOption</text><line style="stroke:#181818;stroke-width:0.5;" x1="869" x2="1093" y1="931.5" y2="931.5"/><line style="stroke:#181818;stroke-width:0.5;" x1="869" x2="1093" y1="939.5" y2="939.5"/><ellipse cx="879" cy="953.8047" fill="#84BE84" rx="3" ry="3" style="stroke:#038048;stroke-width:1.0;"/><text fill="#000000" font-family="sans-serif" font-size="14" lengthAdjust="spacing" textLength="57" x="888" y="958.0332">interact()</text></g><!--MD5=[012940348aa8c51abc7a9f57cf76ba49]
class CostServicesContractOption--><g id="elem_CostServicesContractOption"><rect codeLine="81" fill="#F1F1F1" height="65.6094" id="CostServicesContractOption" rx="2.5" ry="2.5" style="stroke:#181818;stroke-width:0.5;" width="211" x="981.5" y="1043"/><ellipse cx="996.5" cy="1059" fill="#ADD1B2" rx="11" ry="11" style="stroke:#181818;stroke-width:1.0;"/><path d="M999.2656,1054.875 Q999.4219,1054.6563 999.6094,1054.5469 Q999.7969,1054.4375 1000.0156,1054.4375 Q1000.3906,1054.4375 1000.625,1054.6953 Q1000.8594,1054.9531 1000.8594,1055.5625 L1000.8594,1057.0156 Q1000.8594,1057.625 1000.625,1057.8906 Q1000.3906,1058.1563 1000.0156,1058.1563 Q999.6719,1058.1563 999.4688,1057.9531 Q999.2656,1057.7656 999.1563,1057.25 Q999.1094,1056.8906 998.9219,1056.7031 Q998.5938,1056.3281 997.9844,1056.1094 Q997.375,1055.8906 996.75,1055.8906 Q995.9844,1055.8906 995.3516,1056.2188 Q994.7188,1056.5469 994.2266,1057.2969 Q993.7344,1058.0469 993.7344,1059.0781 L993.7344,1060.1719 Q993.7344,1061.4063 994.625,1062.2266 Q995.5156,1063.0469 997.1094,1063.0469 Q998.0469,1063.0469 998.7031,1062.7969 Q999.0938,1062.6406 999.5156,1062.2031 Q999.7813,1061.9375 999.9297,1061.8594 Q1000.0781,1061.7813 1000.2813,1061.7813 Q1000.6094,1061.7813 1000.8672,1062.0391 Q1001.125,1062.2969 1001.125,1062.6406 Q1001.125,1062.9844 1000.7813,1063.3906 Q1000.2813,1063.9688 999.4844,1064.2969 Q998.4063,1064.75 997.1094,1064.75 Q995.5938,1064.75 994.3906,1064.125 Q993.4063,1063.625 992.7188,1062.5547 Q992.0313,1061.4844 992.0313,1060.2031 L992.0313,1059.0469 Q992.0313,1057.7188 992.6484,1056.5703 Q993.2656,1055.4219 994.3594,1054.8047 Q995.4531,1054.1875 996.6875,1054.1875 Q997.4219,1054.1875 998.0703,1054.3516 Q998.7188,1054.5156 999.2656,1054.875 Z " fill="#000000"/><text fill="#000000" font-family="sans-serif" font-size="14" lengthAdjust="spacing" textLength="179" x="1010.5" y="1064.7285">CostServicesContractOption</text><line style="stroke:#181818;stroke-width:0.5;" x1="982.5" x2="1191.5" y1="1075" y2="1075"/><line style="stroke:#181818;stroke-width:0.5;" x1="982.5" x2="1191.5" y1="1083" y2="1083"/><ellipse cx="992.5" cy="1097.3047" fill="#84BE84" rx="3" ry="3" style="stroke:#038048;stroke-width:1.0;"/><text fill="#000000" font-family="sans-serif" font-size="14" lengthAdjust="spacing" textLength="57" x="1001.5" y="1101.5332">interact()</text></g><!--MD5=[aa132e488f1c2275a019353053fd1aa3]
class EnlargeServicesContractOption--><g id="elem_EnlargeServicesContractOption"><rect codeLine="86" fill="#F1F1F1" height="65.6094" id="EnlargeServicesContractOption" rx="2.5" ry="2.5" style="stroke:#181818;stroke-width:0.5;" width="231" x="1200.5" y="899.5"/><ellipse cx="1215.5" cy="915.5" fill="#ADD1B2" rx="11" ry="11" style="stroke:#181818;stroke-width:1.0;"/><path d="M1218.2656,911.375 Q1218.4219,911.1563 1218.6094,911.0469 Q1218.7969,910.9375 1219.0156,910.9375 Q1219.3906,910.9375 1219.625,911.1953 Q1219.8594,911.4531 1219.8594,912.0625 L1219.8594,913.5156 Q1219.8594,914.125 1219.625,914.3906 Q1219.3906,914.6563 1219.0156,914.6563 Q1218.6719,914.6563 1218.4688,914.4531 Q1218.2656,914.2656 1218.1563,913.75 Q1218.1094,913.3906 1217.9219,913.2031 Q1217.5938,912.8281 1216.9844,912.6094 Q1216.375,912.3906 1215.75,912.3906 Q1214.9844,912.3906 1214.3516,912.7188 Q1213.7188,913.0469 1213.2266,913.7969 Q1212.7344,914.5469 1212.7344,915.5781 L1212.7344,916.6719 Q1212.7344,917.9063 1213.625,918.7266 Q1214.5156,919.5469 1216.1094,919.5469 Q1217.0469,919.5469 1217.7031,919.2969 Q1218.0938,919.1406 1218.5156,918.7031 Q1218.7813,918.4375 1218.9297,918.3594 Q1219.0781,918.2813 1219.2813,918.2813 Q1219.6094,918.2813 1219.8672,918.5391 Q1220.125,918.7969 1220.125,919.1406 Q1220.125,919.4844 1219.7813,919.8906 Q1219.2813,920.4688 1218.4844,920.7969 Q1217.4063,921.25 1216.1094,921.25 Q1214.5938,921.25 1213.3906,920.625 Q1212.4063,920.125 1211.7188,919.0547 Q1211.0313,917.9844 1211.0313,916.7031 L1211.0313,915.5469 Q1211.0313,914.2188 1211.6484,913.0703 Q1212.2656,911.9219 1213.3594,911.3047 Q1214.4531,910.6875 1215.6875,910.6875 Q1216.4219,910.6875 1217.0703,910.8516 Q1217.7188,911.0156 1218.2656,911.375 Z " fill="#000000"/><text fill="#000000" font-family="sans-serif" font-size="14" lengthAdjust="spacing" textLength="199" x="1229.5" y="921.2285">EnlargeServicesContractOption</text><line style="stroke:#181818;stroke-width:0.5;" x1="1201.5" x2="1430.5" y1="931.5" y2="931.5"/><line style="stroke:#181818;stroke-width:0.5;" x1="1201.5" x2="1430.5" y1="939.5" y2="939.5"/><ellipse cx="1211.5" cy="953.8047" fill="#84BE84" rx="3" ry="3" style="stroke:#038048;stroke-width:1.0;"/><text fill="#000000" font-family="sans-serif" font-size="14" lengthAdjust="spacing" textLength="57" x="1220.5" y="958.0332">interact()</text></g><!--MD5=[4eb8a18a3fb2316b166c65e1ee9e87c5]
class ListServicesContractOption--><g id="elem_ListServicesContractOption"><rect codeLine="91" fill="#F1F1F1" height="65.6094" id="ListServicesContractOption" rx="2.5" ry="2.5" style="stroke:#181818;stroke-width:0.5;" width="204" x="1299" y="1043"/><ellipse cx="1314" cy="1059" fill="#ADD1B2" rx="11" ry="11" style="stroke:#181818;stroke-width:1.0;"/><path d="M1316.7656,1054.875 Q1316.9219,1054.6563 1317.1094,1054.5469 Q1317.2969,1054.4375 1317.5156,1054.4375 Q1317.8906,1054.4375 1318.125,1054.6953 Q1318.3594,1054.9531 1318.3594,1055.5625 L1318.3594,1057.0156 Q1318.3594,1057.625 1318.125,1057.8906 Q1317.8906,1058.1563 1317.5156,1058.1563 Q1317.1719,1058.1563 1316.9688,1057.9531 Q1316.7656,1057.7656 1316.6563,1057.25 Q1316.6094,1056.8906 1316.4219,1056.7031 Q1316.0938,1056.3281 1315.4844,1056.1094 Q1314.875,1055.8906 1314.25,1055.8906 Q1313.4844,1055.8906 1312.8516,1056.2188 Q1312.2188,1056.5469 1311.7266,1057.2969 Q1311.2344,1058.0469 1311.2344,1059.0781 L1311.2344,1060.1719 Q1311.2344,1061.4063 1312.125,1062.2266 Q1313.0156,1063.0469 1314.6094,1063.0469 Q1315.5469,1063.0469 1316.2031,1062.7969 Q1316.5938,1062.6406 1317.0156,1062.2031 Q1317.2813,1061.9375 1317.4297,1061.8594 Q1317.5781,1061.7813 1317.7813,1061.7813 Q1318.1094,1061.7813 1318.3672,1062.0391 Q1318.625,1062.2969 1318.625,1062.6406 Q1318.625,1062.9844 1318.2813,1063.3906 Q1317.7813,1063.9688 1316.9844,1064.2969 Q1315.9063,1064.75 1314.6094,1064.75 Q1313.0938,1064.75 1311.8906,1064.125 Q1310.9063,1063.625 1310.2188,1062.5547 Q1309.5313,1061.4844 1309.5313,1060.2031 L1309.5313,1059.0469 Q1309.5313,1057.7188 1310.1484,1056.5703 Q1310.7656,1055.4219 1311.8594,1054.8047 Q1312.9531,1054.1875 1314.1875,1054.1875 Q1314.9219,1054.1875 1315.5703,1054.3516 Q1316.2188,1054.5156 1316.7656,1054.875 Z " fill="#000000"/><text fill="#000000" font-family="sans-serif" font-size="14" lengthAdjust="spacing" textLength="172" x="1328" y="1064.7285">ListServicesContractOption</text><line style="stroke:#181818;stroke-width:0.5;" x1="1300" x2="1502" y1="1075" y2="1075"/><line style="stroke:#181818;stroke-width:0.5;" x1="1300" x2="1502" y1="1083" y2="1083"/><ellipse cx="1310" cy="1097.3047" fill="#84BE84" rx="3" ry="3" style="stroke:#038048;stroke-width:1.0;"/><text fill="#000000" font-family="sans-serif" font-size="14" lengthAdjust="spacing" textLength="57" x="1319" y="1101.5332">interact()</text></g><!--MD5=[f9715a46e3f18ab3599c7a3a62896827]
class PrintServicesContractOption--><g id="elem_PrintServicesContractOption"><rect codeLine="95" fill="#F1F1F1" height="65.6094" id="PrintServicesContractOption" rx="2.5" ry="2.5" style="stroke:#181818;stroke-width:0.5;" width="211" x="376.5" y="899.5"/><ellipse cx="391.5" cy="915.5" fill="#ADD1B2" rx="11" ry="11" style="stroke:#181818;stroke-width:1.0;"/><path d="M394.2656,911.375 Q394.4219,911.1563 394.6094,911.0469 Q394.7969,910.9375 395.0156,910.9375 Q395.3906,910.9375 395.625,911.1953 Q395.8594,911.4531 395.8594,912.0625 L395.8594,913.5156 Q395.8594,914.125 395.625,914.3906 Q395.3906,914.6563 395.0156,914.6563 Q394.6719,914.6563 394.4688,914.4531 Q394.2656,914.2656 394.1563,913.75 Q394.1094,913.3906 393.9219,913.2031 Q393.5938,912.8281 392.9844,912.6094 Q392.375,912.3906 391.75,912.3906 Q390.9844,912.3906 390.3516,912.7188 Q389.7188,913.0469 389.2266,913.7969 Q388.7344,914.5469 388.7344,915.5781 L388.7344,916.6719 Q388.7344,917.9063 389.625,918.7266 Q390.5156,919.5469 392.1094,919.5469 Q393.0469,919.5469 393.7031,919.2969 Q394.0938,919.1406 394.5156,918.7031 Q394.7813,918.4375 394.9297,918.3594 Q395.0781,918.2813 395.2813,918.2813 Q395.6094,918.2813 395.8672,918.5391 Q396.125,918.7969 396.125,919.1406 Q396.125,919.4844 395.7813,919.8906 Q395.2813,920.4688 394.4844,920.7969 Q393.4063,921.25 392.1094,921.25 Q390.5938,921.25 389.3906,920.625 Q388.4063,920.125 387.7188,919.0547 Q387.0313,917.9844 387.0313,916.7031 L387.0313,915.5469 Q387.0313,914.2188 387.6484,913.0703 Q388.2656,911.9219 389.3594,911.3047 Q390.4531,910.6875 391.6875,910.6875 Q392.4219,910.6875 393.0703,910.8516 Q393.7188,911.0156 394.2656,911.375 Z " fill="#000000"/><text fill="#000000" font-family="sans-serif" font-size="14" lengthAdjust="spacing" textLength="179" x="405.5" y="921.2285">PrintServicesContractOption</text><line style="stroke:#181818;stroke-width:0.5;" x1="377.5" x2="586.5" y1="931.5" y2="931.5"/><line style="stroke:#181818;stroke-width:0.5;" x1="377.5" x2="586.5" y1="939.5" y2="939.5"/><ellipse cx="387.5" cy="953.8047" fill="#84BE84" rx="3" ry="3" style="stroke:#038048;stroke-width:1.0;"/><text fill="#000000" font-family="sans-serif" font-size="14" lengthAdjust="spacing" textLength="57" x="396.5" y="958.0332">interact()</text></g><!--MD5=[6b47e3cea4714c2ec513c2837af846f7]
class QuitOption--><g id="elem_QuitOption"><rect codeLine="66" fill="#F1F1F1" height="100.8281" id="QuitOption" rx="2.5" ry="2.5" style="stroke:#181818;stroke-width:0.5;" width="159" x="182.5" y="882"/><ellipse cx="224.05" cy="898" fill="#A9DCDF" rx="11" ry="11" style="stroke:#181818;stroke-width:1.0;"/><path d="M226.2375,899.7656 L222.0969,899.7656 L221.675,900.7969 L222.0969,900.7969 Q222.7063,900.7969 222.9719,901.0313 Q223.2375,901.2656 223.2375,901.6563 Q223.2375,902.0313 222.9719,902.2656 Q222.7063,902.5 222.0969,902.5 L219.8,902.5 Q219.1906,902.5 218.9328,902.2656 Q218.675,902.0313 218.675,901.6406 Q218.675,901.2656 218.9484,901.0234 Q219.2219,900.7813 219.8469,900.7969 L222.5188,894.1406 L221.4094,894.1406 Q220.8,894.1406 220.5344,893.9063 Q220.2688,893.6719 220.2688,893.2813 Q220.2688,892.9063 220.5344,892.6719 Q220.8,892.4375 221.4094,892.4375 L225.0813,892.4375 L228.4719,900.7969 Q229.0656,900.7969 229.2531,900.9375 Q229.6438,901.2031 229.6438,901.6563 Q229.6438,902.0313 229.3859,902.2656 Q229.1281,902.5 228.5188,902.5 L226.2219,902.5 Q225.6125,902.5 225.3469,902.2656 Q225.0813,902.0313 225.0813,901.6406 Q225.0813,901.2656 225.3469,901.0313 Q225.6125,900.7969 226.2219,900.7969 L226.6438,900.7969 L226.2375,899.7656 Z M225.5188,898.0625 L224.1594,894.6875 L222.7844,898.0625 L225.5188,898.0625 Z " fill="#000000"/><text fill="#000000" font-family="sans-serif" font-size="14" font-style="italic" lengthAdjust="spacing" textLength="68" x="243.95" y="903.7285">QuitOption</text><line style="stroke:#181818;stroke-width:0.5;" x1="183.5" x2="340.5" y1="914" y2="914"/><ellipse cx="193.5" cy="928.3047" fill="none" rx="3" ry="3" style="stroke:#038048;stroke-width:1.0;"/><text fill="#000000" font-family="sans-serif" font-size="14" lengthAdjust="spacing" textLength="112" x="202.5" y="932.5332">boolean executed</text><line style="stroke:#181818;stroke-width:0.5;" x1="183.5" x2="340.5" y1="939.6094" y2="939.6094"/><ellipse cx="193.5" cy="953.9141" fill="#84BE84" rx="3" ry="3" style="stroke:#038048;stroke-width:1.0;"/><text fill="#000000" font-family="sans-serif" font-size="14" lengthAdjust="spacing" textLength="57" x="202.5" y="958.1426">interact()</text><ellipse cx="193.5" cy="971.5234" fill="#84BE84" rx="3" ry="3" style="stroke:#038048;stroke-width:1.0;"/><text fill="#000000" font-family="sans-serif" font-size="14" lengthAdjust="spacing" textLength="133" x="202.5" y="975.752">boolean isExecuted()</text></g><!--MD5=[c480363f1059a5818dbe08dad55e70f5]
class ShiftServicesContractOption--><g id="elem_ShiftServicesContractOption"><rect codeLine="99" fill="#F1F1F1" height="65.6094" id="ShiftServicesContractOption" rx="2.5" ry="2.5" style="stroke:#181818;stroke-width:0.5;" width="210" x="623" y="899.5"/><ellipse cx="638" cy="915.5" fill="#ADD1B2" rx="11" ry="11" style="stroke:#181818;stroke-width:1.0;"/><path d="M640.7656,911.375 Q640.9219,911.1563 641.1094,911.0469 Q641.2969,910.9375 641.5156,910.9375 Q641.8906,910.9375 642.125,911.1953 Q642.3594,911.4531 642.3594,912.0625 L642.3594,913.5156 Q642.3594,914.125 642.125,914.3906 Q641.8906,914.6563 641.5156,914.6563 Q641.1719,914.6563 640.9688,914.4531 Q640.7656,914.2656 640.6563,913.75 Q640.6094,913.3906 640.4219,913.2031 Q640.0938,912.8281 639.4844,912.6094 Q638.875,912.3906 638.25,912.3906 Q637.4844,912.3906 636.8516,912.7188 Q636.2188,913.0469 635.7266,913.7969 Q635.2344,914.5469 635.2344,915.5781 L635.2344,916.6719 Q635.2344,917.9063 636.125,918.7266 Q637.0156,919.5469 638.6094,919.5469 Q639.5469,919.5469 640.2031,919.2969 Q640.5938,919.1406 641.0156,918.7031 Q641.2813,918.4375 641.4297,918.3594 Q641.5781,918.2813 641.7813,918.2813 Q642.1094,918.2813 642.3672,918.5391 Q642.625,918.7969 642.625,919.1406 Q642.625,919.4844 642.2813,919.8906 Q641.7813,920.4688 640.9844,920.7969 Q639.9063,921.25 638.6094,921.25 Q637.0938,921.25 635.8906,920.625 Q634.9063,920.125 634.2188,919.0547 Q633.5313,917.9844 633.5313,916.7031 L633.5313,915.5469 Q633.5313,914.2188 634.1484,913.0703 Q634.7656,911.9219 635.8594,911.3047 Q636.9531,910.6875 638.1875,910.6875 Q638.9219,910.6875 639.5703,910.8516 Q640.2188,911.0156 640.7656,911.375 Z " fill="#000000"/><text fill="#000000" font-family="sans-serif" font-size="14" lengthAdjust="spacing" textLength="178" x="652" y="921.2285">ShiftServicesContractOption</text><line style="stroke:#181818;stroke-width:0.5;" x1="624" x2="832" y1="931.5" y2="931.5"/><line style="stroke:#181818;stroke-width:0.5;" x1="624" x2="832" y1="939.5" y2="939.5"/><ellipse cx="634" cy="953.8047" fill="#84BE84" rx="3" ry="3" style="stroke:#038048;stroke-width:1.0;"/><text fill="#000000" font-family="sans-serif" font-size="14" lengthAdjust="spacing" textLength="57" x="643" y="958.0332">interact()</text></g><!--MD5=[7829b64950ce38e0487c4015ea331f97]
class Date--><g id="elem_Date"><rect codeLine="16" fill="#F1F1F1" height="48" id="Date" rx="2.5" ry="2.5" style="stroke:#181818;stroke-width:0.5;" width="62" x="709" y="1052"/><ellipse cx="724" cy="1068" fill="#ADD1B2" rx="11" ry="11" style="stroke:#181818;stroke-width:1.0;"/><path d="M726.7656,1063.875 Q726.9219,1063.6563 727.1094,1063.5469 Q727.2969,1063.4375 727.5156,1063.4375 Q727.8906,1063.4375 728.125,1063.6953 Q728.3594,1063.9531 728.3594,1064.5625 L728.3594,1066.0156 Q728.3594,1066.625 728.125,1066.8906 Q727.8906,1067.1563 727.5156,1067.1563 Q727.1719,1067.1563 726.9688,1066.9531 Q726.7656,1066.7656 726.6563,1066.25 Q726.6094,1065.8906 726.4219,1065.7031 Q726.0938,1065.3281 725.4844,1065.1094 Q724.875,1064.8906 724.25,1064.8906 Q723.4844,1064.8906 722.8516,1065.2188 Q722.2188,1065.5469 721.7266,1066.2969 Q721.2344,1067.0469 721.2344,1068.0781 L721.2344,1069.1719 Q721.2344,1070.4063 722.125,1071.2266 Q723.0156,1072.0469 724.6094,1072.0469 Q725.5469,1072.0469 726.2031,1071.7969 Q726.5938,1071.6406 727.0156,1071.2031 Q727.2813,1070.9375 727.4297,1070.8594 Q727.5781,1070.7813 727.7813,1070.7813 Q728.1094,1070.7813 728.3672,1071.0391 Q728.625,1071.2969 728.625,1071.6406 Q728.625,1071.9844 728.2813,1072.3906 Q727.7813,1072.9688 726.9844,1073.2969 Q725.9063,1073.75 724.6094,1073.75 Q723.0938,1073.75 721.8906,1073.125 Q720.9063,1072.625 720.2188,1071.5547 Q719.5313,1070.4844 719.5313,1069.2031 L719.5313,1068.0469 Q719.5313,1066.7188 720.1484,1065.5703 Q720.7656,1064.4219 721.8594,1063.8047 Q722.9531,1063.1875 724.1875,1063.1875 Q724.9219,1063.1875 725.5703,1063.3516 Q726.2188,1063.5156 726.7656,1063.875 Z " fill="#000000"/><text fill="#000000" font-family="sans-serif" font-size="14" lengthAdjust="spacing" textLength="30" x="738" y="1073.7285">Date</text><line style="stroke:#181818;stroke-width:0.5;" x1="710" x2="770" y1="1084" y2="1084"/><line style="stroke:#181818;stroke-width:0.5;" x1="710" x2="770" y1="1092" y2="1092"/></g><!--MD5=[1c40a9495d7098c3b845044b099123dc]
class Month--><g id="elem_Month"><rect codeLine="17" fill="#F1F1F1" height="48" id="Month" rx="2.5" ry="2.5" style="stroke:#181818;stroke-width:0.5;" width="71" x="598.5" y="1169"/><ellipse cx="613.5" cy="1185" fill="#ADD1B2" rx="11" ry="11" style="stroke:#181818;stroke-width:1.0;"/><path d="M616.2656,1180.875 Q616.4219,1180.6563 616.6094,1180.5469 Q616.7969,1180.4375 617.0156,1180.4375 Q617.3906,1180.4375 617.625,1180.6953 Q617.8594,1180.9531 617.8594,1181.5625 L617.8594,1183.0156 Q617.8594,1183.625 617.625,1183.8906 Q617.3906,1184.1563 617.0156,1184.1563 Q616.6719,1184.1563 616.4688,1183.9531 Q616.2656,1183.7656 616.1563,1183.25 Q616.1094,1182.8906 615.9219,1182.7031 Q615.5938,1182.3281 614.9844,1182.1094 Q614.375,1181.8906 613.75,1181.8906 Q612.9844,1181.8906 612.3516,1182.2188 Q611.7188,1182.5469 611.2266,1183.2969 Q610.7344,1184.0469 610.7344,1185.0781 L610.7344,1186.1719 Q610.7344,1187.4063 611.625,1188.2266 Q612.5156,1189.0469 614.1094,1189.0469 Q615.0469,1189.0469 615.7031,1188.7969 Q616.0938,1188.6406 616.5156,1188.2031 Q616.7813,1187.9375 616.9297,1187.8594 Q617.0781,1187.7813 617.2813,1187.7813 Q617.6094,1187.7813 617.8672,1188.0391 Q618.125,1188.2969 618.125,1188.6406 Q618.125,1188.9844 617.7813,1189.3906 Q617.2813,1189.9688 616.4844,1190.2969 Q615.4063,1190.75 614.1094,1190.75 Q612.5938,1190.75 611.3906,1190.125 Q610.4063,1189.625 609.7188,1188.5547 Q609.0313,1187.4844 609.0313,1186.2031 L609.0313,1185.0469 Q609.0313,1183.7188 609.6484,1182.5703 Q610.2656,1181.4219 611.3594,1180.8047 Q612.4531,1180.1875 613.6875,1180.1875 Q614.4219,1180.1875 615.0703,1180.3516 Q615.7188,1180.5156 616.2656,1180.875 Z " fill="#000000"/><text fill="#000000" font-family="sans-serif" font-size="14" lengthAdjust="spacing" textLength="39" x="627.5" y="1190.7285">Month</text><line style="stroke:#181818;stroke-width:0.5;" x1="599.5" x2="668.5" y1="1201" y2="1201"/><line style="stroke:#181818;stroke-width:0.5;" x1="599.5" x2="668.5" y1="1209" y2="1209"/></g><!--MD5=[f144808e0e29279a3117e64f7a82a4df]
class Format--><g id="elem_Format"><rect codeLine="18" fill="#F1F1F1" height="48" id="Format" rx="2.5" ry="2.5" style="stroke:#181818;stroke-width:0.5;" width="77" x="701.5" y="1277"/><ellipse cx="716.5" cy="1293" fill="#ADD1B2" rx="11" ry="11" style="stroke:#181818;stroke-width:1.0;"/><path d="M719.2656,1288.875 Q719.4219,1288.6563 719.6094,1288.5469 Q719.7969,1288.4375 720.0156,1288.4375 Q720.3906,1288.4375 720.625,1288.6953 Q720.8594,1288.9531 720.8594,1289.5625 L720.8594,1291.0156 Q720.8594,1291.625 720.625,1291.8906 Q720.3906,1292.1563 720.0156,1292.1563 Q719.6719,1292.1563 719.4688,1291.9531 Q719.2656,1291.7656 719.1563,1291.25 Q719.1094,1290.8906 718.9219,1290.7031 Q718.5938,1290.3281 717.9844,1290.1094 Q717.375,1289.8906 716.75,1289.8906 Q715.9844,1289.8906 715.3516,1290.2188 Q714.7188,1290.5469 714.2266,1291.2969 Q713.7344,1292.0469 713.7344,1293.0781 L713.7344,1294.1719 Q713.7344,1295.4063 714.625,1296.2266 Q715.5156,1297.0469 717.1094,1297.0469 Q718.0469,1297.0469 718.7031,1296.7969 Q719.0938,1296.6406 719.5156,1296.2031 Q719.7813,1295.9375 719.9297,1295.8594 Q720.0781,1295.7813 720.2813,1295.7813 Q720.6094,1295.7813 720.8672,1296.0391 Q721.125,1296.2969 721.125,1296.6406 Q721.125,1296.9844 720.7813,1297.3906 Q720.2813,1297.9688 719.4844,1298.2969 Q718.4063,1298.75 717.1094,1298.75 Q715.5938,1298.75 714.3906,1298.125 Q713.4063,1297.625 712.7188,1296.5547 Q712.0313,1295.4844 712.0313,1294.2031 L712.0313,1293.0469 Q712.0313,1291.7188 712.6484,1290.5703 Q713.2656,1289.4219 714.3594,1288.8047 Q715.4531,1288.1875 716.6875,1288.1875 Q717.4219,1288.1875 718.0703,1288.3516 Q718.7188,1288.5156 719.2656,1288.875 Z " fill="#000000"/><text fill="#000000" font-family="sans-serif" font-size="14" lengthAdjust="spacing" textLength="45" x="730.5" y="1298.7285">Format</text><line style="stroke:#181818;stroke-width:0.5;" x1="702.5" x2="777.5" y1="1309" y2="1309"/><line style="stroke:#181818;stroke-width:0.5;" x1="702.5" x2="777.5" y1="1317" y2="1317"/></g><!--MD5=[315b61b427ec618d6861d47eee00cca3]
class Console--><g id="elem_Console"><rect codeLine="19" fill="#F1F1F1" height="48" id="Console" rx="2.5" ry="2.5" style="stroke:#181818;stroke-width:0.5;" width="84" x="965" y="1169"/><ellipse cx="980" cy="1185" fill="#ADD1B2" rx="11" ry="11" style="stroke:#181818;stroke-width:1.0;"/><path d="M982.7656,1180.875 Q982.9219,1180.6563 983.1094,1180.5469 Q983.2969,1180.4375 983.5156,1180.4375 Q983.8906,1180.4375 984.125,1180.6953 Q984.3594,1180.9531 984.3594,1181.5625 L984.3594,1183.0156 Q984.3594,1183.625 984.125,1183.8906 Q983.8906,1184.1563 983.5156,1184.1563 Q983.1719,1184.1563 982.9688,1183.9531 Q982.7656,1183.7656 982.6563,1183.25 Q982.6094,1182.8906 982.4219,1182.7031 Q982.0938,1182.3281 981.4844,1182.1094 Q980.875,1181.8906 980.25,1181.8906 Q979.4844,1181.8906 978.8516,1182.2188 Q978.2188,1182.5469 977.7266,1183.2969 Q977.2344,1184.0469 977.2344,1185.0781 L977.2344,1186.1719 Q977.2344,1187.4063 978.125,1188.2266 Q979.0156,1189.0469 980.6094,1189.0469 Q981.5469,1189.0469 982.2031,1188.7969 Q982.5938,1188.6406 983.0156,1188.2031 Q983.2813,1187.9375 983.4297,1187.8594 Q983.5781,1187.7813 983.7813,1187.7813 Q984.1094,1187.7813 984.3672,1188.0391 Q984.625,1188.2969 984.625,1188.6406 Q984.625,1188.9844 984.2813,1189.3906 Q983.7813,1189.9688 982.9844,1190.2969 Q981.9063,1190.75 980.6094,1190.75 Q979.0938,1190.75 977.8906,1190.125 Q976.9063,1189.625 976.2188,1188.5547 Q975.5313,1187.4844 975.5313,1186.2031 L975.5313,1185.0469 Q975.5313,1183.7188 976.1484,1182.5703 Q976.7656,1181.4219 977.8594,1180.8047 Q978.9531,1180.1875 980.1875,1180.1875 Q980.9219,1180.1875 981.5703,1180.3516 Q982.2188,1180.5156 982.7656,1180.875 Z " fill="#000000"/><text fill="#000000" font-family="sans-serif" font-size="14" lengthAdjust="spacing" textLength="52" x="994" y="1190.7285">Console</text><line style="stroke:#181818;stroke-width:0.5;" x1="966" x2="1048" y1="1201" y2="1201"/><line style="stroke:#181818;stroke-width:0.5;" x1="966" x2="1048" y1="1209" y2="1209"/></g><!--MD5=[94b2979dc8db7061b05b681130e8ecb6]
class Interval--><g id="elem_Interval"><rect fill="#F1F1F1" height="48" id="Interval" rx="2.5" ry="2.5" style="stroke:#181818;stroke-width:0.5;" width="78" x="543" y="1052"/><ellipse cx="558" cy="1068" fill="#ADD1B2" rx="11" ry="11" style="stroke:#181818;stroke-width:1.0;"/><path d="M560.7656,1063.875 Q560.9219,1063.6563 561.1094,1063.5469 Q561.2969,1063.4375 561.5156,1063.4375 Q561.8906,1063.4375 562.125,1063.6953 Q562.3594,1063.9531 562.3594,1064.5625 L562.3594,1066.0156 Q562.3594,1066.625 562.125,1066.8906 Q561.8906,1067.1563 561.5156,1067.1563 Q561.1719,1067.1563 560.9688,1066.9531 Q560.7656,1066.7656 560.6563,1066.25 Q560.6094,1065.8906 560.4219,1065.7031 Q560.0938,1065.3281 559.4844,1065.1094 Q558.875,1064.8906 558.25,1064.8906 Q557.4844,1064.8906 556.8516,1065.2188 Q556.2188,1065.5469 555.7266,1066.2969 Q555.2344,1067.0469 555.2344,1068.0781 L555.2344,1069.1719 Q555.2344,1070.4063 556.125,1071.2266 Q557.0156,1072.0469 558.6094,1072.0469 Q559.5469,1072.0469 560.2031,1071.7969 Q560.5938,1071.6406 561.0156,1071.2031 Q561.2813,1070.9375 561.4297,1070.8594 Q561.5781,1070.7813 561.7813,1070.7813 Q562.1094,1070.7813 562.3672,1071.0391 Q562.625,1071.2969 562.625,1071.6406 Q562.625,1071.9844 562.2813,1072.3906 Q561.7813,1072.9688 560.9844,1073.2969 Q559.9063,1073.75 558.6094,1073.75 Q557.0938,1073.75 555.8906,1073.125 Q554.9063,1072.625 554.2188,1071.5547 Q553.5313,1070.4844 553.5313,1069.2031 L553.5313,1068.0469 Q553.5313,1066.7188 554.1484,1065.5703 Q554.7656,1064.4219 555.8594,1063.8047 Q556.9531,1063.1875 558.1875,1063.1875 Q558.9219,1063.1875 559.5703,1063.3516 Q560.2188,1063.5156 560.7656,1063.875 Z " fill="#000000"/><text fill="#000000" font-family="sans-serif" font-size="14" lengthAdjust="spacing" textLength="46" x="572" y="1073.7285">Interval</text><line style="stroke:#181818;stroke-width:0.5;" x1="544" x2="620" y1="1084" y2="1084"/><line style="stroke:#181818;stroke-width:0.5;" x1="544" x2="620" y1="1092" y2="1092"/></g><!--MD5=[832c43ad4608679533f7d2b6bfc262d7]
reverse link Option to ServicesContractOption--><g id="link_Option_ServicesContractOption"><path codeLine="21" d="M863,716.67 C863,730.56 863,744.28 863,755.92 " fill="none" id="Option-backto-ServicesContractOption" style="stroke:#181818;stroke-width:1.0;"/><polygon fill="none" points="856,716.42,863,696.42,870,716.42,856,716.42" style="stroke:#181818;stroke-width:1.0;"/></g><!--MD5=[94fd0e4cb46c6b6f36a30ef7e92998c3]
reverse link ServicesContractOption to CancelServicesContractOption--><g id="link_ServicesContractOption_CancelServicesContractOption"><path codeLine="23" d="M902.66,837.56 C919.52,857.77 938.74,880.82 953.92,899.03 " fill="none" id="ServicesContractOption-backto-CancelServicesContractOption" style="stroke:#181818;stroke-width:1.0;"/><polygon fill="none" points="897.21,841.95,889.78,822.11,907.96,832.99,897.21,841.95" style="stroke:#181818;stroke-width:1.0;"/></g><!--MD5=[6ccc172441e238268017d8e0162207c2]
reverse link ServicesContractOption to CostServicesContractOption--><g id="link_ServicesContractOption_CostServicesContractOption"><path codeLine="24" d="M1004.66,810.69 C1046.08,824.06 1086.93,846.01 1112,882 C1145.51,930.1 1122.11,1001.65 1103.56,1042.77 " fill="none" id="ServicesContractOption-backto-CostServicesContractOption" style="stroke:#181818;stroke-width:1.0;"/><polygon fill="none" points="1002.55,817.37,985.31,805.05,1006.47,803.93,1002.55,817.37" style="stroke:#181818;stroke-width:1.0;"/></g><!--MD5=[354bcfa8b67ffac85ab4dd24014f3169]
reverse link ServicesContractOption to EnlargeServicesContractOption--><g id="link_ServicesContractOption_EnlargeServicesContractOption"><path codeLine="25" d="M994.79,827.7 C1050.02,843.86 1114.8,863.3 1173,882 C1190.01,887.46 1208.07,893.52 1225.43,899.46 " fill="none" id="ServicesContractOption-backto-EnlargeServicesContractOption" style="stroke:#181818;stroke-width:1.0;"/><polygon fill="none" points="992.53,834.33,975.29,822.01,996.45,820.89,992.53,834.33" style="stroke:#181818;stroke-width:1.0;"/></g><!--MD5=[e64ea802d749aa14fd5c80b78b6ba804]
reverse link ServicesContractOption to ListServicesContractOption--><g id="link_ServicesContractOption_ListServicesContractOption"><path codeLine="26" d="M1005.63,791.92 C1160.43,797.38 1393.07,816.6 1449,882 C1488.16,927.79 1451.63,1000.83 1424.4,1042.69 " fill="none" id="ServicesContractOption-backto-ListServicesContractOption" style="stroke:#181818;stroke-width:1.0;"/><polygon fill="none" points="1005.04,798.9,985.27,791.26,1005.49,784.91,1005.04,798.9" style="stroke:#181818;stroke-width:1.0;"/></g><!--MD5=[70fe4fc35eafa07be3a1e93d4e62eda7]
reverse link ServicesContractOption to PrintServicesContractOption--><g id="link_ServicesContractOption_PrintServicesContractOption"><path codeLine="27" d="M751.87,828.8 C706.5,844.89 653.61,863.98 606,882 C591.47,887.5 576.06,893.51 561.21,899.39 " fill="none" id="ServicesContractOption-backto-PrintServicesContractOption" style="stroke:#181818;stroke-width:1.0;"/><polygon fill="none" points="749.63,822.16,770.82,822.09,754.3,835.36,749.63,822.16" style="stroke:#181818;stroke-width:1.0;"/></g><!--MD5=[2b4bc17292dfa6d6af5f66d9e4f2200e]
reverse link ServicesContractOption to QuitOption--><g id="link_ServicesContractOption_QuitOption"><path codeLine="28" d="M720.87,804.73 C618.35,818.03 477.68,841.85 359,882 C353.27,883.94 347.46,886.17 341.67,888.58 " fill="none" id="ServicesContractOption-backto-QuitOption" style="stroke:#181818;stroke-width:1.0;"/><polygon fill="none" points="720.13,797.76,740.85,802.2,721.89,811.65,720.13,797.76" style="stroke:#181818;stroke-width:1.0;"/></g><!--MD5=[30a836ad63a9ef5ca1c8d2c7929b15c4]
reverse link ServicesContractOption to ShiftServicesContractOption--><g id="link_ServicesContractOption_ShiftServicesContractOption"><path codeLine="29" d="M818.48,836.66 C799,857.09 776.61,880.55 758.98,899.03 " fill="none" id="ServicesContractOption-backto-ShiftServicesContractOption" style="stroke:#181818;stroke-width:1.0;"/><polygon fill="none" points="813.5,831.75,832.37,822.11,823.63,841.41,813.5,831.75" style="stroke:#181818;stroke-width:1.0;"/></g><!--MD5=[9a71537def6d2d81eb1bd9092d7bbbde]
link QuitMenu to QuitOption--><g id="link_QuitMenu_QuitOption"><path codeLine="104" d="M262,392.21 C262,501.55 262,762.25 262,876.39 " fill="none" id="QuitMenu-to-QuitOption" style="stroke:#181818;stroke-width:1.0;"/><polygon fill="#181818" points="262,881.72,266,872.72,262,876.72,258,872.72,262,881.72" style="stroke:#181818;stroke-width:1.0;"/></g><!--MD5=[c52369193743697ab0ec078a44f89d59]
reverse link Menu to QuitMenu--><g id="link_Menu_QuitMenu"><path codeLine="106" d="M723.43,171.21 C617.23,210.17 472.99,263.09 374.21,299.33 " fill="none" id="Menu-backto-QuitMenu" style="stroke:#181818;stroke-width:1.0;"/><polygon fill="none" points="721.28,164.54,742.46,164.22,726.1,177.68,721.28,164.54" style="stroke:#181818;stroke-width:1.0;"/></g><!--MD5=[1643475386723689b4d5830d3227cfb1]
reverse link QuitMenu to IterativeMenu--><g id="link_QuitMenu_IterativeMenu"><path codeLine="107" d="M209.3,408.49 C197.28,423.55 185.02,438.89 174.73,451.79 " fill="none" id="QuitMenu-backto-IterativeMenu" style="stroke:#181818;stroke-width:1.0;"/><polygon fill="none" points="204.21,403.65,222.16,392.39,215.15,412.38,204.21,403.65" style="stroke:#181818;stroke-width:1.0;"/></g><!--MD5=[3f4a805937588ed106490376110a0d24]
reverse link IterativeMenu to DynamicMenu--><g id="link_IterativeMenu_DynamicMenu"><path codeLine="108" d="M144.11,538.35 C142.08,560.17 139.78,584.8 138,603.87 " fill="none" id="IterativeMenu-backto-DynamicMenu" style="stroke:#181818;stroke-width:1.0;"/><polygon fill="none" points="137.17,537.44,146,518.18,151.11,538.74,137.17,537.44" style="stroke:#181818;stroke-width:1.0;"/></g><!--MD5=[b9cf420391b7d6191d0c7165e845df19]
reverse link DynamicMenu to ServicesContractMenu--><g id="link_DynamicMenu_ServicesContractMenu"><path codeLine="109" d="M122.54,689.92 C116.43,715.38 109.38,744.77 104.59,764.69 " fill="none" id="DynamicMenu-backto-ServicesContractMenu" style="stroke:#181818;stroke-width:1.0;"/><polygon fill="none" points="115.8,687.99,127.28,670.18,129.42,691.26,115.8,687.99" style="stroke:#181818;stroke-width:1.0;"/></g><!--MD5=[9ab5f226fb2da527e114d8c5c60f09e5]
reverse link Option to QuitOption--><g id="link_Option_QuitOption"><path codeLine="110" d="M771.2,681.73 C669.97,730.12 502.41,810.7 359,882 C353.33,884.82 347.48,887.75 341.6,890.71 " fill="none" id="Option-backto-QuitOption" style="stroke:#181818;stroke-width:1.0;"/><polygon fill="none" points="768.25,675.38,789.31,673.08,774.28,688.02,768.25,675.38" style="stroke:#181818;stroke-width:1.0;"/></g><!--MD5=[884d8aff950455bf088eac98d1bcae59]
reverse link Menu to Option--><g id="link_Menu_Option"><path codeLine="112" d="M863,244.04 C863,349.92 863,497.47 863,577.96 " fill="none" id="Menu-backto-Option" style="stroke:#181818;stroke-width:1.0;"/><polygon fill="none" points="863,231.01,859,237.01,863,243.01,867,237.01,863,231.01" style="stroke:#181818;stroke-width:1.0;"/><text fill="#000000" font-family="sans-serif" font-size="13" lengthAdjust="spacing" textLength="5" x="857.6953" y="567.2794">*</text></g><!--MD5=[f7db90a857dc88fcf6ba3fe517c2091c]
link ServicesContractMenu to ServicesContract--><g id="link_ServicesContractMenu_ServicesContract"><path codeLine="113" d="M95.42,813.05 C91.58,837.72 85.49,876.87 81.38,903.34 " fill="none" id="ServicesContractMenu-to-ServicesContract" style="stroke:#181818;stroke-width:1.0;"/><polygon fill="#181818" points="80.58,908.46,85.92,900.1845,81.351,903.5198,78.0157,898.9508,80.58,908.46" style="stroke:#181818;stroke-width:1.0;"/></g><!--MD5=[2d452d884cf81959b4af6c800f317be1]
link ServicesContractOption to ServicesContract--><g id="link_ServicesContractOption_ServicesContract"><path codeLine="114" d="M740.69,792.15 C598.82,797.8 359.52,817.17 165,882 C147.97,887.68 130.48,896.73 115.63,905.56 " fill="none" id="ServicesContractOption-to-ServicesContract" style="stroke:#181818;stroke-width:1.0;"/><polygon fill="#181818" points="111.11,908.28,120.8854,907.0795,115.3975,905.7075,116.7695,900.2196,111.11,908.28" style="stroke:#181818;stroke-width:1.0;"/></g><!--MD5=[879da7d7cdb18bb1a88097dc97815b33]
link ServicesContract to Console--><g id="link_ServicesContract_Console"><path codeLine="116" d="M114.79,956.69 C130.07,965.54 148.07,975.35 165,983 C203.62,1000.46 483.98,1098.37 525,1109 C681.95,1149.68 872.92,1175.85 959.85,1186.53 " fill="none" id="ServicesContract-to-Console" style="stroke:#181818;stroke-width:1.0;stroke-dasharray:7.0,7.0;"/><polygon fill="#181818" points="964.92,1187.14,956.4785,1182.0665,959.9577,1186.5268,955.4974,1190.0061,964.92,1187.14" style="stroke:#181818;stroke-width:1.0;"/></g><!--MD5=[b70faca776d776ff2a265e9bdfe9e394]
link Menu to Console--><g id="link_Menu_Console"><path codeLine="117" d="M983.64,124.07 C1198.93,138.45 1627,202.46 1627,484 C1627,484 1627,484 1627,933.5 C1627,1018.5 1618.32,1057.1 1551,1109 C1473.56,1168.7 1172.12,1186 1054.44,1190.53 " fill="none" id="Menu-to-Console" style="stroke:#181818;stroke-width:1.0;stroke-dasharray:7.0,7.0;"/><polygon fill="#181818" points="1049.31,1190.72,1058.4631,1194.356,1054.306,1190.5196,1058.1424,1186.3625,1049.31,1190.72" style="stroke:#181818;stroke-width:1.0;"/></g><!--MD5=[bb0f791399b79351c231e7e34ca247a6]
link CancelServicesContractOption to Console--><g id="link_CancelServicesContractOption_Console"><path codeLine="118" d="M971.55,965.66 C962.56,1001.21 952.04,1059.93 964,1109 C968.77,1128.58 979.03,1148.69 988.33,1164.21 " fill="none" id="CancelServicesContractOption-to-Console" style="stroke:#181818;stroke-width:1.0;stroke-dasharray:7.0,7.0;"/><polygon fill="#181818" points="991.18,1168.87,989.8789,1159.1075,988.5635,1164.6093,983.0617,1163.2939,991.18,1168.87" style="stroke:#181818;stroke-width:1.0;"/></g><!--MD5=[bc696f12bbd2004f1a71273d37df3a56]
link CostServicesContractOption to Console--><g id="link_CostServicesContractOption_Console"><path codeLine="119" d="M1064.72,1109.03 C1052.53,1126.56 1037.59,1148.03 1025.96,1164.75 " fill="none" id="CostServicesContractOption-to-Console" style="stroke:#181818;stroke-width:1.0;stroke-dasharray:7.0,7.0;"/><polygon fill="#181818" points="1023.08,1168.89,1031.5074,1163.793,1025.9387,1164.7878,1024.9439,1159.2191,1023.08,1168.89" style="stroke:#181818;stroke-width:1.0;"/></g><!--MD5=[385b7722a625cd2f131fa2db6a8bc3eb]
link EnlargeServicesContractOption to Console--><g id="link_EnlargeServicesContractOption_Console"><path codeLine="120" d="M1304,965.61 C1288.01,1004.42 1256.25,1069.43 1210,1109 C1164.59,1147.85 1098.56,1170.26 1054.26,1181.79 " fill="none" id="EnlargeServicesContractOption-to-Console" style="stroke:#181818;stroke-width:1.0;stroke-dasharray:7.0,7.0;"/><polygon fill="#181818" points="1049.24,1183.07,1058.9473,1184.7341,1054.0865,1181.8405,1056.9801,1176.9797,1049.24,1183.07" style="stroke:#181818;stroke-width:1.0;"/></g><!--MD5=[13100a402264a8442b53ed03550910f2]
link ListServicesContractOption to Console--><g id="link_ListServicesContractOption_Console"><path codeLine="121" d="M1298.77,1106.84 C1219.81,1129.88 1114.2,1160.71 1054.11,1178.25 " fill="none" id="ListServicesContractOption-to-Console" style="stroke:#181818;stroke-width:1.0;stroke-dasharray:7.0,7.0;"/><polygon fill="#181818" points="1049.15,1179.7,1058.91,1181.02,1053.95,1178.3,1056.67,1173.34,1049.15,1179.7" style="stroke:#181818;stroke-width:1.0;"/></g><!--MD5=[508e441a569760c62f4cbb151d70386d]
link Option to Console--><g id="link_Option_Console"><path codeLine="122" d="M936.69,645.17 C1067.28,661.94 1339.1,715.87 1483,882 C1531.14,937.57 1512.5,969.97 1521,1043 C1524.39,1072.14 1540.02,1086.67 1521,1109 C1461.16,1179.27 1169.71,1190.25 1054.24,1191.81 " fill="none" id="Option-to-Console" style="stroke:#181818;stroke-width:1.0;stroke-dasharray:7.0,7.0;"/><polygon fill="#181818" points="1049.21,1191.88,1058.2551,1195.7769,1054.2097,1191.8229,1058.1637,1187.7774,1049.21,1191.88" style="stroke:#181818;stroke-width:1.0;"/></g><!--MD5=[967be5e492eaa33c628c3185576d4369]
link ShiftServicesContractOption to Console--><g id="link_ShiftServicesContractOption_Console"><path codeLine="123" d="M762.77,965.72 C818.44,1017.29 926.53,1117.44 978.18,1165.29 " fill="none" id="ShiftServicesContractOption-to-Console" style="stroke:#181818;stroke-width:1.0;stroke-dasharray:7.0,7.0;"/><polygon fill="#181818" points="982.1,1168.93,978.2145,1159.88,978.4315,1165.5327,972.7788,1165.7496,982.1,1168.93" style="stroke:#181818;stroke-width:1.0;"/></g><!--MD5=[a7ed42a8a4c486353153de254de5f5fa]
link Interval to Console--><g id="link_Interval_Console"><path codeLine="124" d="M621.13,1088.65 C642.11,1094.82 668.43,1102.47 692,1109 C786.75,1135.26 898.1,1164.14 959.79,1179.96 " fill="none" id="Interval-to-Console" style="stroke:#181818;stroke-width:1.0;stroke-dasharray:7.0,7.0;"/><polygon fill="#181818" points="964.87,1181.26,957.1299,1175.1697,960.0235,1180.0305,955.1627,1182.9241,964.87,1181.26" style="stroke:#181818;stroke-width:1.0;"/></g><!--MD5=[8a09663ab959737817b0d6416f4ffb47]
link Date to Console--><g id="link_Date_Console"><path codeLine="125" d="M771.15,1090.42 C817.62,1110.43 905.44,1148.26 959.81,1171.68 " fill="none" id="Date-to-Console" style="stroke:#181818;stroke-width:1.0;stroke-dasharray:7.0,7.0;"/><polygon fill="#181818" points="964.64,1173.76,957.9434,1166.5381,960.0443,1171.7904,954.792,1173.8913,964.64,1173.76" style="stroke:#181818;stroke-width:1.0;"/></g><!--MD5=[e0e170477512ea7d67ad33b2fede0398]
link ServicesContract to Interval--><g id="link_ServicesContract_Interval"><path codeLine="127" d="M123.0263,962.7304 C123.0263,962.7304 151.21,977.73 165,983 C231.64,1008.45 433.75,1047.63 529.98,1065.51 " fill="none" id="ServicesContract-Interval" style="stroke:#181818;stroke-width:1.0;"/><polygon fill="#181818" points="542.84,1067.89,534.7144,1062.3246,537.9229,1066.9835,533.2639,1070.192,542.84,1067.89" style="stroke:#181818;stroke-width:1.0;"/><line style="stroke:#181818;stroke-width:1.0;" x1="537.9229" x2="530.055" y1="1066.9835" y2="1065.525"/><polygon fill="#181818" points="112.64,956.72,115.8297,963.1873,123.0263,962.7304,119.8366,956.2631,112.64,956.72" style="stroke:#181818;stroke-width:1.0;"/></g><!--MD5=[277d305f329b93d65310b49a3f966859]
link Date to Month--><g id="link_Date_Month"><path codeLine="129" d="M718.55,1100.27 C701.31,1118.98 677.06,1145.28 658.95,1164.93 " fill="none" id="Date-to-Month" style="stroke:#181818;stroke-width:1.0;stroke-dasharray:7.0,7.0;"/><polygon fill="#181818" points="655.42,1168.76,664.4618,1164.8555,658.8096,1165.0843,658.5808,1159.4321,655.42,1168.76" style="stroke:#181818;stroke-width:1.0;"/></g><!--MD5=[7db7cf1146676b5b9268d0b9cd777561]
link ServicesContract to Month--><g id="link_ServicesContract_Month"><path codeLine="130" d="M107.76,956.7 C157.71,993.44 260.59,1065.31 357,1109 C437.4,1145.44 538.03,1170.98 593.17,1183.4 " fill="none" id="ServicesContract-to-Month" style="stroke:#181818;stroke-width:1.0;stroke-dasharray:7.0,7.0;"/><polygon fill="#181818" points="598.36,1184.56,590.4584,1178.6809,593.4821,1183.4618,588.7012,1186.4855,598.36,1184.56" style="stroke:#181818;stroke-width:1.0;"/></g><!--MD5=[2dc1620762a60d67b079a1c6f3c79d27]
link ServicesContract to Date--><g id="link_ServicesContract_Date"><path codeLine="132" d="M110.68,956.51 C126.5,966.23 146.03,976.73 165,983 C366.62,1049.63 431.6,997.41 639,1043 C660.86,1047.81 684.76,1055.27 703.82,1061.79 " fill="none" id="ServicesContract-to-Date" style="stroke:#181818;stroke-width:1.0;stroke-dasharray:7.0,7.0;"/><polygon fill="#181818" points="708.56,1063.42,701.3531,1056.7073,703.8325,1061.7918,698.748,1064.2712,708.56,1063.42" style="stroke:#181818;stroke-width:1.0;"/></g><!--MD5=[4b9b146210e7d622b59f650035af6a6d]
link CancelServicesContractOption to Date--><g id="link_CancelServicesContractOption_Date"><path codeLine="133" d="M926.31,965.61 C880.27,992.64 815.74,1030.53 775.97,1053.88 " fill="none" id="CancelServicesContractOption-to-Date" style="stroke:#181818;stroke-width:1.0;stroke-dasharray:7.0,7.0;"/><polygon fill="#181818" points="771.24,1056.66,781.0257,1055.546,775.55,1054.1255,776.9705,1048.6499,771.24,1056.66" style="stroke:#181818;stroke-width:1.0;"/></g><!--MD5=[b096ef1d23aad04c5f736c1a0c7d27f5]
link EnlargeServicesContractOption to Date--><g id="link_EnlargeServicesContractOption_Date"><path codeLine="134" d="M1200.48,961.88 C1068.56,994.29 860.21,1045.47 776.55,1066.02 " fill="none" id="EnlargeServicesContractOption-to-Date" style="stroke:#181818;stroke-width:1.0;stroke-dasharray:7.0,7.0;"/><polygon fill="#181818" points="771.22,1067.33,780.9119,1069.0815,776.0774,1066.1442,779.0146,1061.3097,771.22,1067.33" style="stroke:#181818;stroke-width:1.0;"/></g><!--MD5=[36f0d7cfcedf1014642f5ae75a9dab55]
link ShiftServicesContractOption to Date--><g id="link_ShiftServicesContractOption_Date"><path codeLine="135" d="M730.72,965.61 C732.79,990.02 735.61,1023.28 737.6,1046.7 " fill="none" id="ShiftServicesContractOption-to-Date" style="stroke:#181818;stroke-width:1.0;stroke-dasharray:7.0,7.0;"/><polygon fill="#181818" points="738.04,1051.83,741.2545,1042.5205,737.6118,1046.8484,733.2839,1043.2056,738.04,1051.83" style="stroke:#181818;stroke-width:1.0;"/></g><!--MD5=[43ce5cf99eb1bffe706fe635ab71cd42]
link Format to Date--><g id="link_Format_Date"><path codeLine="136" d="M748.65,1276.77 C754.89,1235.47 755.11,1149.45 749.31,1104.98 " fill="none" id="Format-to-Date" style="stroke:#181818;stroke-width:1.0;stroke-dasharray:7.0,7.0;"/><polygon fill="#181818" points="748.61,1100.02,745.9115,1109.492,749.3111,1104.9706,753.8325,1108.3702,748.61,1100.02" style="stroke:#181818;stroke-width:1.0;"/></g><!--MD5=[79b8f8aa2602e9d8440fc71b43e226fb]
link Date to Format--><g id="link_Date_Format"><path codeLine="138" d="M731.86,1100.02 C725.95,1141.17 725.72,1227.18 731.18,1271.8 " fill="none" id="Date-to-Format" style="stroke:#181818;stroke-width:1.0;stroke-dasharray:7.0,7.0;"/><polygon fill="#181818" points="731.83,1276.77,734.6126,1267.3224,731.1729,1271.8134,726.682,1268.3737,731.83,1276.77" style="stroke:#181818;stroke-width:1.0;"/></g><!--MD5=[6dea380c3f90d2fd8288b1b096ae8647]
link Month to Format--><g id="link_Month_Format"><path codeLine="139" d="M657,1217 C673.42,1233.42 695.56,1255.56 712.84,1272.84 " fill="none" id="Month-to-Format" style="stroke:#181818;stroke-width:1.0;stroke-dasharray:7.0,7.0;"/><polygon fill="#181818" points="716.68,1276.68,713.1445,1267.4876,713.1445,1273.1445,707.4876,1273.1445,716.68,1276.68" style="stroke:#181818;stroke-width:1.0;"/></g><!--MD5=[d2c1cfb526a41428afdf8bbe8a2d51c0]
@startuml
class ServicesContract
abstract class Menu
abstract class DynamicMenu
abstract class IterativeMenu
abstract class QuitMenu
class ServicesContractMenu
abstract class Option
abstract class ServicesContractOption
class CancelServicesContractOption
class CostServicesContractOption
class EnlargeServicesContractOption
class ListServicesContractOption
class PrintServicesContractOption
class QuitOption
class ShiftServicesContractOption
class Date
class Month
class Format
class Console

Option <|- - ServicesContractOption

ServicesContractOption <|- - CancelServicesContractOption
ServicesContractOption <|- - CostServicesContractOption
ServicesContractOption <|- - EnlargeServicesContractOption
ServicesContractOption <|- - ListServicesContractOption
ServicesContractOption <|- - PrintServicesContractOption 
ServicesContractOption <|- - QuitOption 
ServicesContractOption <|- - ShiftServicesContractOption 


abstract class Menu {
 - String title
 +interact()
 #{abstract} addOptions()
 #interact_()
 #showTitles()
 -showTitle()
 #execChoosedOption()
 #add(Option option)
 #removeOptions()
 #boolean hasOption(Option option)
}

abstract class QuitMenu {
 #showTitles()
 #addquitOption()
 #boolean isExecutedquitOption()
}

abstract class IterativeMenu {
 +interact()
}

abstract class DynamicMenu {
 +interact()
}

abstract class Option {
 +title
 +{abstract} interact()
 +showTitle(int index)
 #String getTitle()
}

abstract class QuitOption {
 +boolean executed
 +interact()
 +boolean isExecuted()
}

abstract class ServicesContractOption {
 #ServicesContract servicesContract
}

class CancelServicesContractOption
{
  +interact()
}

class CostServicesContractOption
{
  +interact()
}

class EnlargeServicesContractOption
{
  +interact()
}

class ListServicesContractOption
{
  +interact()
}
class PrintServicesContractOption
{
  +interact()
}
class ShiftServicesContractOption
{
  +interact()
}

QuitMenu - -> QuitOption

Menu <|- - QuitMenu
QuitMenu <|- - IterativeMenu
IterativeMenu <|- - DynamicMenu
DynamicMenu <|- - ServicesContractMenu 
Option <|- - QuitOption

Menu o- -"*" Option
ServicesContractMenu - -> ServicesContract
ServicesContractOption - -> ServicesContract

ServicesContract ..> Console
Menu ..> Console
CancelServicesContractOption ..> Console
CostServicesContractOption ..> Console
EnlargeServicesContractOption ..> Console
ListServicesContractOption ..> Console
Option ..> Console
ShiftServicesContractOption ..> Console
Interval ..> Console
Date ..> Console

ServicesContract *- -> Interval

Date ..> Month
ServicesContract ..> Month

ServicesContract ..> Date
CancelServicesContractOption ..> Date
EnlargeServicesContractOption ..> Date
ShiftServicesContractOption ..> Date
Format ..> Date

Date ..> Format
Month ..> Format






@enduml

PlantUML version 1.2022.7(Mon Aug 22 19:01:30 CEST 2022)
(GPL source distribution)
Java Runtime: Java(TM) SE Runtime Environment
JVM: Java HotSpot(TM) 64-Bit Server VM
Default Encoding: Cp1252
Language: es
Country: ES
--></g></svg>