<?xml version="1.0" encoding="UTF-8" standalone="no"?><svg xmlns="http://www.w3.org/2000/svg" xmlns:xlink="http://www.w3.org/1999/xlink" contentStyleType="text/css" height="494px" preserveAspectRatio="none" style="width:1073px;height:494px;background:#FFFFFF;" version="1.1" viewBox="0 0 1073 494" width="1073px" zoomAndPan="magnify"><defs/><g><!--MD5=[b92924a051eb15925d91c85b39483d30]
class CompanyManagement--><g id="elem_CompanyManagement"><rect codeLine="1" fill="#F1F1F1" height="48" id="CompanyManagement" rx="2.5" ry="2.5" style="stroke:#181818;stroke-width:0.5;" width="174" x="163" y="7"/><ellipse cx="178" cy="23" fill="#ADD1B2" rx="11" ry="11" style="stroke:#181818;stroke-width:1.0;"/><path d="M180.7656,18.875 Q180.9219,18.6563 181.1094,18.5469 Q181.2969,18.4375 181.5156,18.4375 Q181.8906,18.4375 182.125,18.7031 Q182.3594,18.9531 182.3594,19.5625 L182.3594,21.0156 Q182.3594,21.625 182.125,21.8906 Q181.8906,22.1563 181.5156,22.1563 Q181.1719,22.1563 180.9688,21.9531 Q180.7656,21.7656 180.6563,21.25 Q180.6094,20.8906 180.4219,20.7031 Q180.0938,20.3281 179.4844,20.1094 Q178.875,19.8906 178.25,19.8906 Q177.4844,19.8906 176.8438,20.2188 Q176.2188,20.5469 175.7188,21.2969 Q175.2344,22.0469 175.2344,23.0781 L175.2344,24.1719 Q175.2344,25.4063 176.125,26.2344 Q177.0156,27.0469 178.6094,27.0469 Q179.5469,27.0469 180.2031,26.7969 Q180.5938,26.6406 181.0156,26.2031 Q181.2813,25.9375 181.4219,25.8594 Q181.5781,25.7813 181.7813,25.7813 Q182.1094,25.7813 182.3594,26.0469 Q182.625,26.2969 182.625,26.6406 Q182.625,26.9844 182.2813,27.3906 Q181.7813,27.9688 180.9844,28.2969 Q179.9063,28.75 178.6094,28.75 Q177.0938,28.75 175.8906,28.125 Q174.9063,27.625 174.2188,26.5625 Q173.5313,25.4844 173.5313,24.2031 L173.5313,23.0469 Q173.5313,21.7188 174.1406,20.5781 Q174.7656,19.4219 175.8594,18.8125 Q176.9531,18.1875 178.1875,18.1875 Q178.9219,18.1875 179.5625,18.3594 Q180.2188,18.5156 180.7656,18.875 Z " fill="#000000"/><text fill="#000000" font-family="sans-serif" font-size="14" lengthAdjust="spacing" textLength="142" x="192" y="28.7285">CompanyManagement</text><line style="stroke:#181818;stroke-width:0.5;" x1="164" x2="336" y1="39" y2="39"/><line style="stroke:#181818;stroke-width:0.5;" x1="164" x2="336" y1="47" y2="47"/></g><!--MD5=[dd4f49095d0e7eece5ef1fa0d36891f4]
class ServiceContract--><g id="elem_ServiceContract"><rect codeLine="2" fill="#F1F1F1" height="48" id="ServiceContract" rx="2.5" ry="2.5" style="stroke:#181818;stroke-width:0.5;" width="133" x="82.5" y="331"/><ellipse cx="97.5" cy="347" fill="#ADD1B2" rx="11" ry="11" style="stroke:#181818;stroke-width:1.0;"/><path d="M100.2656,342.875 Q100.4219,342.6563 100.6094,342.5469 Q100.7969,342.4375 101.0156,342.4375 Q101.3906,342.4375 101.625,342.7031 Q101.8594,342.9531 101.8594,343.5625 L101.8594,345.0156 Q101.8594,345.625 101.625,345.8906 Q101.3906,346.1563 101.0156,346.1563 Q100.6719,346.1563 100.4688,345.9531 Q100.2656,345.7656 100.1563,345.25 Q100.1094,344.8906 99.9219,344.7031 Q99.5938,344.3281 98.9844,344.1094 Q98.375,343.8906 97.75,343.8906 Q96.9844,343.8906 96.3438,344.2188 Q95.7188,344.5469 95.2188,345.2969 Q94.7344,346.0469 94.7344,347.0781 L94.7344,348.1719 Q94.7344,349.4063 95.625,350.2344 Q96.5156,351.0469 98.1094,351.0469 Q99.0469,351.0469 99.7031,350.7969 Q100.0938,350.6406 100.5156,350.2031 Q100.7813,349.9375 100.9219,349.8594 Q101.0781,349.7813 101.2813,349.7813 Q101.6094,349.7813 101.8594,350.0469 Q102.125,350.2969 102.125,350.6406 Q102.125,350.9844 101.7813,351.3906 Q101.2813,351.9688 100.4844,352.2969 Q99.4063,352.75 98.1094,352.75 Q96.5938,352.75 95.3906,352.125 Q94.4063,351.625 93.7188,350.5625 Q93.0313,349.4844 93.0313,348.2031 L93.0313,347.0469 Q93.0313,345.7188 93.6406,344.5781 Q94.2656,343.4219 95.3594,342.8125 Q96.4531,342.1875 97.6875,342.1875 Q98.4219,342.1875 99.0625,342.3594 Q99.7188,342.5156 100.2656,342.875 Z " fill="#000000"/><text fill="#000000" font-family="sans-serif" font-size="14" lengthAdjust="spacing" textLength="101" x="111.5" y="352.7285">ServiceContract</text><line style="stroke:#181818;stroke-width:0.5;" x1="83.5" x2="214.5" y1="363" y2="363"/><line style="stroke:#181818;stroke-width:0.5;" x1="83.5" x2="214.5" y1="371" y2="371"/></g><!--MD5=[ffa1e2525175dc6e0bec0a9847c37beb]
class ServiceContractView--><g id="elem_ServiceContractView"><rect codeLine="3" fill="#F1F1F1" height="48" id="ServiceContractView" rx="2.5" ry="2.5" style="stroke:#181818;stroke-width:0.5;" width="162" x="201" y="223"/><ellipse cx="216" cy="239" fill="#ADD1B2" rx="11" ry="11" style="stroke:#181818;stroke-width:1.0;"/><path d="M218.7656,234.875 Q218.9219,234.6563 219.1094,234.5469 Q219.2969,234.4375 219.5156,234.4375 Q219.8906,234.4375 220.125,234.7031 Q220.3594,234.9531 220.3594,235.5625 L220.3594,237.0156 Q220.3594,237.625 220.125,237.8906 Q219.8906,238.1563 219.5156,238.1563 Q219.1719,238.1563 218.9688,237.9531 Q218.7656,237.7656 218.6563,237.25 Q218.6094,236.8906 218.4219,236.7031 Q218.0938,236.3281 217.4844,236.1094 Q216.875,235.8906 216.25,235.8906 Q215.4844,235.8906 214.8438,236.2188 Q214.2188,236.5469 213.7188,237.2969 Q213.2344,238.0469 213.2344,239.0781 L213.2344,240.1719 Q213.2344,241.4063 214.125,242.2344 Q215.0156,243.0469 216.6094,243.0469 Q217.5469,243.0469 218.2031,242.7969 Q218.5938,242.6406 219.0156,242.2031 Q219.2813,241.9375 219.4219,241.8594 Q219.5781,241.7813 219.7813,241.7813 Q220.1094,241.7813 220.3594,242.0469 Q220.625,242.2969 220.625,242.6406 Q220.625,242.9844 220.2813,243.3906 Q219.7813,243.9688 218.9844,244.2969 Q217.9063,244.75 216.6094,244.75 Q215.0938,244.75 213.8906,244.125 Q212.9063,243.625 212.2188,242.5625 Q211.5313,241.4844 211.5313,240.2031 L211.5313,239.0469 Q211.5313,237.7188 212.1406,236.5781 Q212.7656,235.4219 213.8594,234.8125 Q214.9531,234.1875 216.1875,234.1875 Q216.9219,234.1875 217.5625,234.3594 Q218.2188,234.5156 218.7656,234.875 Z " fill="#000000"/><text fill="#000000" font-family="sans-serif" font-size="14" lengthAdjust="spacing" textLength="130" x="230" y="244.7285">ServiceContractView</text><line style="stroke:#181818;stroke-width:0.5;" x1="202" x2="362" y1="255" y2="255"/><line style="stroke:#181818;stroke-width:0.5;" x1="202" x2="362" y1="263" y2="263"/></g><!--MD5=[f6bfa8e6ad2e37edcd578b647fafadda]
class MenuView--><g id="elem_MenuView"><rect codeLine="4" fill="#F1F1F1" height="48" id="MenuView" rx="2.5" ry="2.5" style="stroke:#181818;stroke-width:0.5;" width="96" x="303" y="115"/><ellipse cx="318" cy="131" fill="#ADD1B2" rx="11" ry="11" style="stroke:#181818;stroke-width:1.0;"/><path d="M320.7656,126.875 Q320.9219,126.6563 321.1094,126.5469 Q321.2969,126.4375 321.5156,126.4375 Q321.8906,126.4375 322.125,126.7031 Q322.3594,126.9531 322.3594,127.5625 L322.3594,129.0156 Q322.3594,129.625 322.125,129.8906 Q321.8906,130.1563 321.5156,130.1563 Q321.1719,130.1563 320.9688,129.9531 Q320.7656,129.7656 320.6563,129.25 Q320.6094,128.8906 320.4219,128.7031 Q320.0938,128.3281 319.4844,128.1094 Q318.875,127.8906 318.25,127.8906 Q317.4844,127.8906 316.8438,128.2188 Q316.2188,128.5469 315.7188,129.2969 Q315.2344,130.0469 315.2344,131.0781 L315.2344,132.1719 Q315.2344,133.4063 316.125,134.2344 Q317.0156,135.0469 318.6094,135.0469 Q319.5469,135.0469 320.2031,134.7969 Q320.5938,134.6406 321.0156,134.2031 Q321.2813,133.9375 321.4219,133.8594 Q321.5781,133.7813 321.7813,133.7813 Q322.1094,133.7813 322.3594,134.0469 Q322.625,134.2969 322.625,134.6406 Q322.625,134.9844 322.2813,135.3906 Q321.7813,135.9688 320.9844,136.2969 Q319.9063,136.75 318.6094,136.75 Q317.0938,136.75 315.8906,136.125 Q314.9063,135.625 314.2188,134.5625 Q313.5313,133.4844 313.5313,132.2031 L313.5313,131.0469 Q313.5313,129.7188 314.1406,128.5781 Q314.7656,127.4219 315.8594,126.8125 Q316.9531,126.1875 318.1875,126.1875 Q318.9219,126.1875 319.5625,126.3594 Q320.2188,126.5156 320.7656,126.875 Z " fill="#000000"/><text fill="#000000" font-family="sans-serif" font-size="14" lengthAdjust="spacing" textLength="64" x="332" y="136.7285">MenuView</text><line style="stroke:#181818;stroke-width:0.5;" x1="304" x2="398" y1="147" y2="147"/><line style="stroke:#181818;stroke-width:0.5;" x1="304" x2="398" y1="155" y2="155"/></g><!--MD5=[f0268dd29ee89052933f031546cb1cab]
class Menu--><g id="elem_Menu"><rect codeLine="5" fill="#F1F1F1" height="48" id="Menu" rx="2.5" ry="2.5" style="stroke:#181818;stroke-width:0.5;" width="67" x="537.5" y="223"/><ellipse cx="552.5" cy="239" fill="#ADD1B2" rx="11" ry="11" style="stroke:#181818;stroke-width:1.0;"/><path d="M555.2656,234.875 Q555.4219,234.6563 555.6094,234.5469 Q555.7969,234.4375 556.0156,234.4375 Q556.3906,234.4375 556.625,234.7031 Q556.8594,234.9531 556.8594,235.5625 L556.8594,237.0156 Q556.8594,237.625 556.625,237.8906 Q556.3906,238.1563 556.0156,238.1563 Q555.6719,238.1563 555.4688,237.9531 Q555.2656,237.7656 555.1563,237.25 Q555.1094,236.8906 554.9219,236.7031 Q554.5938,236.3281 553.9844,236.1094 Q553.375,235.8906 552.75,235.8906 Q551.9844,235.8906 551.3438,236.2188 Q550.7188,236.5469 550.2188,237.2969 Q549.7344,238.0469 549.7344,239.0781 L549.7344,240.1719 Q549.7344,241.4063 550.625,242.2344 Q551.5156,243.0469 553.1094,243.0469 Q554.0469,243.0469 554.7031,242.7969 Q555.0938,242.6406 555.5156,242.2031 Q555.7813,241.9375 555.9219,241.8594 Q556.0781,241.7813 556.2813,241.7813 Q556.6094,241.7813 556.8594,242.0469 Q557.125,242.2969 557.125,242.6406 Q557.125,242.9844 556.7813,243.3906 Q556.2813,243.9688 555.4844,244.2969 Q554.4063,244.75 553.1094,244.75 Q551.5938,244.75 550.3906,244.125 Q549.4063,243.625 548.7188,242.5625 Q548.0313,241.4844 548.0313,240.2031 L548.0313,239.0469 Q548.0313,237.7188 548.6406,236.5781 Q549.2656,235.4219 550.3594,234.8125 Q551.4531,234.1875 552.6875,234.1875 Q553.4219,234.1875 554.0625,234.3594 Q554.7188,234.5156 555.2656,234.875 Z " fill="#000000"/><text fill="#000000" font-family="sans-serif" font-size="14" lengthAdjust="spacing" textLength="35" x="566.5" y="244.7285">Menu</text><line style="stroke:#181818;stroke-width:0.5;" x1="538.5" x2="603.5" y1="255" y2="255"/><line style="stroke:#181818;stroke-width:0.5;" x1="538.5" x2="603.5" y1="263" y2="263"/></g><!--MD5=[6506bea503710dcab8a6a46b73fb74a1]
class CancelOption--><g id="elem_CancelOption"><rect codeLine="6" fill="#F1F1F1" height="48" id="CancelOption" rx="2.5" ry="2.5" style="stroke:#181818;stroke-width:0.5;" width="118" x="217" y="439"/><ellipse cx="232" cy="455" fill="#ADD1B2" rx="11" ry="11" style="stroke:#181818;stroke-width:1.0;"/><path d="M234.7656,450.875 Q234.9219,450.6563 235.1094,450.5469 Q235.2969,450.4375 235.5156,450.4375 Q235.8906,450.4375 236.125,450.7031 Q236.3594,450.9531 236.3594,451.5625 L236.3594,453.0156 Q236.3594,453.625 236.125,453.8906 Q235.8906,454.1563 235.5156,454.1563 Q235.1719,454.1563 234.9688,453.9531 Q234.7656,453.7656 234.6563,453.25 Q234.6094,452.8906 234.4219,452.7031 Q234.0938,452.3281 233.4844,452.1094 Q232.875,451.8906 232.25,451.8906 Q231.4844,451.8906 230.8438,452.2188 Q230.2188,452.5469 229.7188,453.2969 Q229.2344,454.0469 229.2344,455.0781 L229.2344,456.1719 Q229.2344,457.4063 230.125,458.2344 Q231.0156,459.0469 232.6094,459.0469 Q233.5469,459.0469 234.2031,458.7969 Q234.5938,458.6406 235.0156,458.2031 Q235.2813,457.9375 235.4219,457.8594 Q235.5781,457.7813 235.7813,457.7813 Q236.1094,457.7813 236.3594,458.0469 Q236.625,458.2969 236.625,458.6406 Q236.625,458.9844 236.2813,459.3906 Q235.7813,459.9688 234.9844,460.2969 Q233.9063,460.75 232.6094,460.75 Q231.0938,460.75 229.8906,460.125 Q228.9063,459.625 228.2188,458.5625 Q227.5313,457.4844 227.5313,456.2031 L227.5313,455.0469 Q227.5313,453.7188 228.1406,452.5781 Q228.7656,451.4219 229.8594,450.8125 Q230.9531,450.1875 232.1875,450.1875 Q232.9219,450.1875 233.5625,450.3594 Q234.2188,450.5156 234.7656,450.875 Z " fill="#000000"/><text fill="#000000" font-family="sans-serif" font-size="14" lengthAdjust="spacing" textLength="86" x="246" y="460.7285">CancelOption</text><line style="stroke:#181818;stroke-width:0.5;" x1="218" x2="334" y1="471" y2="471"/><line style="stroke:#181818;stroke-width:0.5;" x1="218" x2="334" y1="479" y2="479"/></g><!--MD5=[fdd6ecfabaf96fbf4f00aac0b493efe3]
class ShowOption--><g id="elem_ShowOption"><rect codeLine="7" fill="#F1F1F1" height="48" id="ShowOption" rx="2.5" ry="2.5" style="stroke:#181818;stroke-width:0.5;" width="108" x="370" y="439"/><ellipse cx="385" cy="455" fill="#ADD1B2" rx="11" ry="11" style="stroke:#181818;stroke-width:1.0;"/><path d="M387.7656,450.875 Q387.9219,450.6563 388.1094,450.5469 Q388.2969,450.4375 388.5156,450.4375 Q388.8906,450.4375 389.125,450.7031 Q389.3594,450.9531 389.3594,451.5625 L389.3594,453.0156 Q389.3594,453.625 389.125,453.8906 Q388.8906,454.1563 388.5156,454.1563 Q388.1719,454.1563 387.9688,453.9531 Q387.7656,453.7656 387.6563,453.25 Q387.6094,452.8906 387.4219,452.7031 Q387.0938,452.3281 386.4844,452.1094 Q385.875,451.8906 385.25,451.8906 Q384.4844,451.8906 383.8438,452.2188 Q383.2188,452.5469 382.7188,453.2969 Q382.2344,454.0469 382.2344,455.0781 L382.2344,456.1719 Q382.2344,457.4063 383.125,458.2344 Q384.0156,459.0469 385.6094,459.0469 Q386.5469,459.0469 387.2031,458.7969 Q387.5938,458.6406 388.0156,458.2031 Q388.2813,457.9375 388.4219,457.8594 Q388.5781,457.7813 388.7813,457.7813 Q389.1094,457.7813 389.3594,458.0469 Q389.625,458.2969 389.625,458.6406 Q389.625,458.9844 389.2813,459.3906 Q388.7813,459.9688 387.9844,460.2969 Q386.9063,460.75 385.6094,460.75 Q384.0938,460.75 382.8906,460.125 Q381.9063,459.625 381.2188,458.5625 Q380.5313,457.4844 380.5313,456.2031 L380.5313,455.0469 Q380.5313,453.7188 381.1406,452.5781 Q381.7656,451.4219 382.8594,450.8125 Q383.9531,450.1875 385.1875,450.1875 Q385.9219,450.1875 386.5625,450.3594 Q387.2188,450.5156 387.7656,450.875 Z " fill="#000000"/><text fill="#000000" font-family="sans-serif" font-size="14" lengthAdjust="spacing" textLength="76" x="399" y="460.7285">ShowOption</text><line style="stroke:#181818;stroke-width:0.5;" x1="371" x2="477" y1="471" y2="471"/><line style="stroke:#181818;stroke-width:0.5;" x1="371" x2="477" y1="479" y2="479"/></g><!--MD5=[48ff7231d024078491841a820ee16411]
class ExitOption--><g id="elem_ExitOption"><rect codeLine="8" fill="#F1F1F1" height="48" id="ExitOption" rx="2.5" ry="2.5" style="stroke:#181818;stroke-width:0.5;" width="96" x="513" y="439"/><ellipse cx="528" cy="455" fill="#ADD1B2" rx="11" ry="11" style="stroke:#181818;stroke-width:1.0;"/><path d="M530.7656,450.875 Q530.9219,450.6563 531.1094,450.5469 Q531.2969,450.4375 531.5156,450.4375 Q531.8906,450.4375 532.125,450.7031 Q532.3594,450.9531 532.3594,451.5625 L532.3594,453.0156 Q532.3594,453.625 532.125,453.8906 Q531.8906,454.1563 531.5156,454.1563 Q531.1719,454.1563 530.9688,453.9531 Q530.7656,453.7656 530.6563,453.25 Q530.6094,452.8906 530.4219,452.7031 Q530.0938,452.3281 529.4844,452.1094 Q528.875,451.8906 528.25,451.8906 Q527.4844,451.8906 526.8438,452.2188 Q526.2188,452.5469 525.7188,453.2969 Q525.2344,454.0469 525.2344,455.0781 L525.2344,456.1719 Q525.2344,457.4063 526.125,458.2344 Q527.0156,459.0469 528.6094,459.0469 Q529.5469,459.0469 530.2031,458.7969 Q530.5938,458.6406 531.0156,458.2031 Q531.2813,457.9375 531.4219,457.8594 Q531.5781,457.7813 531.7813,457.7813 Q532.1094,457.7813 532.3594,458.0469 Q532.625,458.2969 532.625,458.6406 Q532.625,458.9844 532.2813,459.3906 Q531.7813,459.9688 530.9844,460.2969 Q529.9063,460.75 528.6094,460.75 Q527.0938,460.75 525.8906,460.125 Q524.9063,459.625 524.2188,458.5625 Q523.5313,457.4844 523.5313,456.2031 L523.5313,455.0469 Q523.5313,453.7188 524.1406,452.5781 Q524.7656,451.4219 525.8594,450.8125 Q526.9531,450.1875 528.1875,450.1875 Q528.9219,450.1875 529.5625,450.3594 Q530.2188,450.5156 530.7656,450.875 Z " fill="#000000"/><text fill="#000000" font-family="sans-serif" font-size="14" lengthAdjust="spacing" textLength="64" x="542" y="460.7285">ExitOption</text><line style="stroke:#181818;stroke-width:0.5;" x1="514" x2="608" y1="471" y2="471"/><line style="stroke:#181818;stroke-width:0.5;" x1="514" x2="608" y1="479" y2="479"/></g><!--MD5=[a819b5cb5440bf47c68e0253f1faedfb]
class EnlargeOption--><g id="elem_EnlargeOption"><rect codeLine="9" fill="#F1F1F1" height="48" id="EnlargeOption" rx="2.5" ry="2.5" style="stroke:#181818;stroke-width:0.5;" width="123" x="644.5" y="439"/><ellipse cx="659.5" cy="455" fill="#ADD1B2" rx="11" ry="11" style="stroke:#181818;stroke-width:1.0;"/><path d="M662.2656,450.875 Q662.4219,450.6563 662.6094,450.5469 Q662.7969,450.4375 663.0156,450.4375 Q663.3906,450.4375 663.625,450.7031 Q663.8594,450.9531 663.8594,451.5625 L663.8594,453.0156 Q663.8594,453.625 663.625,453.8906 Q663.3906,454.1563 663.0156,454.1563 Q662.6719,454.1563 662.4688,453.9531 Q662.2656,453.7656 662.1563,453.25 Q662.1094,452.8906 661.9219,452.7031 Q661.5938,452.3281 660.9844,452.1094 Q660.375,451.8906 659.75,451.8906 Q658.9844,451.8906 658.3438,452.2188 Q657.7188,452.5469 657.2188,453.2969 Q656.7344,454.0469 656.7344,455.0781 L656.7344,456.1719 Q656.7344,457.4063 657.625,458.2344 Q658.5156,459.0469 660.1094,459.0469 Q661.0469,459.0469 661.7031,458.7969 Q662.0938,458.6406 662.5156,458.2031 Q662.7813,457.9375 662.9219,457.8594 Q663.0781,457.7813 663.2813,457.7813 Q663.6094,457.7813 663.8594,458.0469 Q664.125,458.2969 664.125,458.6406 Q664.125,458.9844 663.7813,459.3906 Q663.2813,459.9688 662.4844,460.2969 Q661.4063,460.75 660.1094,460.75 Q658.5938,460.75 657.3906,460.125 Q656.4063,459.625 655.7188,458.5625 Q655.0313,457.4844 655.0313,456.2031 L655.0313,455.0469 Q655.0313,453.7188 655.6406,452.5781 Q656.2656,451.4219 657.3594,450.8125 Q658.4531,450.1875 659.6875,450.1875 Q660.4219,450.1875 661.0625,450.3594 Q661.7188,450.5156 662.2656,450.875 Z " fill="#000000"/><text fill="#000000" font-family="sans-serif" font-size="14" lengthAdjust="spacing" textLength="91" x="673.5" y="460.7285">EnlargeOption</text><line style="stroke:#181818;stroke-width:0.5;" x1="645.5" x2="766.5" y1="471" y2="471"/><line style="stroke:#181818;stroke-width:0.5;" x1="645.5" x2="766.5" y1="479" y2="479"/></g><!--MD5=[03a279042868af39cebd3e3290aa818a]
class ShiftOption--><g id="elem_ShiftOption"><rect codeLine="10" fill="#F1F1F1" height="48" id="ShiftOption" rx="2.5" ry="2.5" style="stroke:#181818;stroke-width:0.5;" width="102" x="803" y="439"/><ellipse cx="818" cy="455" fill="#ADD1B2" rx="11" ry="11" style="stroke:#181818;stroke-width:1.0;"/><path d="M820.7656,450.875 Q820.9219,450.6563 821.1094,450.5469 Q821.2969,450.4375 821.5156,450.4375 Q821.8906,450.4375 822.125,450.7031 Q822.3594,450.9531 822.3594,451.5625 L822.3594,453.0156 Q822.3594,453.625 822.125,453.8906 Q821.8906,454.1563 821.5156,454.1563 Q821.1719,454.1563 820.9688,453.9531 Q820.7656,453.7656 820.6563,453.25 Q820.6094,452.8906 820.4219,452.7031 Q820.0938,452.3281 819.4844,452.1094 Q818.875,451.8906 818.25,451.8906 Q817.4844,451.8906 816.8438,452.2188 Q816.2188,452.5469 815.7188,453.2969 Q815.2344,454.0469 815.2344,455.0781 L815.2344,456.1719 Q815.2344,457.4063 816.125,458.2344 Q817.0156,459.0469 818.6094,459.0469 Q819.5469,459.0469 820.2031,458.7969 Q820.5938,458.6406 821.0156,458.2031 Q821.2813,457.9375 821.4219,457.8594 Q821.5781,457.7813 821.7813,457.7813 Q822.1094,457.7813 822.3594,458.0469 Q822.625,458.2969 822.625,458.6406 Q822.625,458.9844 822.2813,459.3906 Q821.7813,459.9688 820.9844,460.2969 Q819.9063,460.75 818.6094,460.75 Q817.0938,460.75 815.8906,460.125 Q814.9063,459.625 814.2188,458.5625 Q813.5313,457.4844 813.5313,456.2031 L813.5313,455.0469 Q813.5313,453.7188 814.1406,452.5781 Q814.7656,451.4219 815.8594,450.8125 Q816.9531,450.1875 818.1875,450.1875 Q818.9219,450.1875 819.5625,450.3594 Q820.2188,450.5156 820.7656,450.875 Z " fill="#000000"/><text fill="#000000" font-family="sans-serif" font-size="14" lengthAdjust="spacing" textLength="70" x="832" y="460.7285">ShiftOption</text><line style="stroke:#181818;stroke-width:0.5;" x1="804" x2="904" y1="471" y2="471"/><line style="stroke:#181818;stroke-width:0.5;" x1="804" x2="904" y1="479" y2="479"/></g><!--MD5=[90dc96bfd633d7918e72cd3f4daac441]
class GetCostOption--><g id="elem_GetCostOption"><rect codeLine="11" fill="#F1F1F1" height="48" id="GetCostOption" rx="2.5" ry="2.5" style="stroke:#181818;stroke-width:0.5;" width="126" x="940" y="439"/><ellipse cx="955" cy="455" fill="#ADD1B2" rx="11" ry="11" style="stroke:#181818;stroke-width:1.0;"/><path d="M957.7656,450.875 Q957.9219,450.6563 958.1094,450.5469 Q958.2969,450.4375 958.5156,450.4375 Q958.8906,450.4375 959.125,450.7031 Q959.3594,450.9531 959.3594,451.5625 L959.3594,453.0156 Q959.3594,453.625 959.125,453.8906 Q958.8906,454.1563 958.5156,454.1563 Q958.1719,454.1563 957.9688,453.9531 Q957.7656,453.7656 957.6563,453.25 Q957.6094,452.8906 957.4219,452.7031 Q957.0938,452.3281 956.4844,452.1094 Q955.875,451.8906 955.25,451.8906 Q954.4844,451.8906 953.8438,452.2188 Q953.2188,452.5469 952.7188,453.2969 Q952.2344,454.0469 952.2344,455.0781 L952.2344,456.1719 Q952.2344,457.4063 953.125,458.2344 Q954.0156,459.0469 955.6094,459.0469 Q956.5469,459.0469 957.2031,458.7969 Q957.5938,458.6406 958.0156,458.2031 Q958.2813,457.9375 958.4219,457.8594 Q958.5781,457.7813 958.7813,457.7813 Q959.1094,457.7813 959.3594,458.0469 Q959.625,458.2969 959.625,458.6406 Q959.625,458.9844 959.2813,459.3906 Q958.7813,459.9688 957.9844,460.2969 Q956.9063,460.75 955.6094,460.75 Q954.0938,460.75 952.8906,460.125 Q951.9063,459.625 951.2188,458.5625 Q950.5313,457.4844 950.5313,456.2031 L950.5313,455.0469 Q950.5313,453.7188 951.1406,452.5781 Q951.7656,451.4219 952.8594,450.8125 Q953.9531,450.1875 955.1875,450.1875 Q955.9219,450.1875 956.5625,450.3594 Q957.2188,450.5156 957.7656,450.875 Z " fill="#000000"/><text fill="#000000" font-family="sans-serif" font-size="14" lengthAdjust="spacing" textLength="94" x="969" y="460.7285">GetCostOption</text><line style="stroke:#181818;stroke-width:0.5;" x1="941" x2="1065" y1="471" y2="471"/><line style="stroke:#181818;stroke-width:0.5;" x1="941" x2="1065" y1="479" y2="479"/></g><!--MD5=[7829b64950ce38e0487c4015ea331f97]
class Date--><g id="elem_Date"><rect codeLine="13" fill="#F1F1F1" height="48" id="Date" rx="2.5" ry="2.5" style="stroke:#181818;stroke-width:0.5;" width="62" x="120" y="439"/><ellipse cx="135" cy="455" fill="#ADD1B2" rx="11" ry="11" style="stroke:#181818;stroke-width:1.0;"/><path d="M137.7656,450.875 Q137.9219,450.6563 138.1094,450.5469 Q138.2969,450.4375 138.5156,450.4375 Q138.8906,450.4375 139.125,450.7031 Q139.3594,450.9531 139.3594,451.5625 L139.3594,453.0156 Q139.3594,453.625 139.125,453.8906 Q138.8906,454.1563 138.5156,454.1563 Q138.1719,454.1563 137.9688,453.9531 Q137.7656,453.7656 137.6563,453.25 Q137.6094,452.8906 137.4219,452.7031 Q137.0938,452.3281 136.4844,452.1094 Q135.875,451.8906 135.25,451.8906 Q134.4844,451.8906 133.8438,452.2188 Q133.2188,452.5469 132.7188,453.2969 Q132.2344,454.0469 132.2344,455.0781 L132.2344,456.1719 Q132.2344,457.4063 133.125,458.2344 Q134.0156,459.0469 135.6094,459.0469 Q136.5469,459.0469 137.2031,458.7969 Q137.5938,458.6406 138.0156,458.2031 Q138.2813,457.9375 138.4219,457.8594 Q138.5781,457.7813 138.7813,457.7813 Q139.1094,457.7813 139.3594,458.0469 Q139.625,458.2969 139.625,458.6406 Q139.625,458.9844 139.2813,459.3906 Q138.7813,459.9688 137.9844,460.2969 Q136.9063,460.75 135.6094,460.75 Q134.0938,460.75 132.8906,460.125 Q131.9063,459.625 131.2188,458.5625 Q130.5313,457.4844 130.5313,456.2031 L130.5313,455.0469 Q130.5313,453.7188 131.1406,452.5781 Q131.7656,451.4219 132.8594,450.8125 Q133.9531,450.1875 135.1875,450.1875 Q135.9219,450.1875 136.5625,450.3594 Q137.2188,450.5156 137.7656,450.875 Z " fill="#000000"/><text fill="#000000" font-family="sans-serif" font-size="14" lengthAdjust="spacing" textLength="30" x="149" y="460.7285">Date</text><line style="stroke:#181818;stroke-width:0.5;" x1="121" x2="181" y1="471" y2="471"/><line style="stroke:#181818;stroke-width:0.5;" x1="121" x2="181" y1="479" y2="479"/></g><!--MD5=[94b2979dc8db7061b05b681130e8ecb6]
class Interval--><g id="elem_Interval"><rect codeLine="14" fill="#F1F1F1" height="48" id="Interval" rx="2.5" ry="2.5" style="stroke:#181818;stroke-width:0.5;" width="78" x="7" y="439"/><ellipse cx="22" cy="455" fill="#ADD1B2" rx="11" ry="11" style="stroke:#181818;stroke-width:1.0;"/><path d="M24.7656,450.875 Q24.9219,450.6563 25.1094,450.5469 Q25.2969,450.4375 25.5156,450.4375 Q25.8906,450.4375 26.125,450.7031 Q26.3594,450.9531 26.3594,451.5625 L26.3594,453.0156 Q26.3594,453.625 26.125,453.8906 Q25.8906,454.1563 25.5156,454.1563 Q25.1719,454.1563 24.9688,453.9531 Q24.7656,453.7656 24.6563,453.25 Q24.6094,452.8906 24.4219,452.7031 Q24.0938,452.3281 23.4844,452.1094 Q22.875,451.8906 22.25,451.8906 Q21.4844,451.8906 20.8438,452.2188 Q20.2188,452.5469 19.7188,453.2969 Q19.2344,454.0469 19.2344,455.0781 L19.2344,456.1719 Q19.2344,457.4063 20.125,458.2344 Q21.0156,459.0469 22.6094,459.0469 Q23.5469,459.0469 24.2031,458.7969 Q24.5938,458.6406 25.0156,458.2031 Q25.2813,457.9375 25.4219,457.8594 Q25.5781,457.7813 25.7813,457.7813 Q26.1094,457.7813 26.3594,458.0469 Q26.625,458.2969 26.625,458.6406 Q26.625,458.9844 26.2813,459.3906 Q25.7813,459.9688 24.9844,460.2969 Q23.9063,460.75 22.6094,460.75 Q21.0938,460.75 19.8906,460.125 Q18.9063,459.625 18.2188,458.5625 Q17.5313,457.4844 17.5313,456.2031 L17.5313,455.0469 Q17.5313,453.7188 18.1406,452.5781 Q18.7656,451.4219 19.8594,450.8125 Q20.9531,450.1875 22.1875,450.1875 Q22.9219,450.1875 23.5625,450.3594 Q24.2188,450.5156 24.7656,450.875 Z " fill="#000000"/><text fill="#000000" font-family="sans-serif" font-size="14" lengthAdjust="spacing" textLength="46" x="36" y="460.7285">Interval</text><line style="stroke:#181818;stroke-width:0.5;" x1="8" x2="84" y1="471" y2="471"/><line style="stroke:#181818;stroke-width:0.5;" x1="8" x2="84" y1="479" y2="479"/></g><!--MD5=[b07065dfc0d0e09965ec10bfc328bb3e]
class Option--><g id="elem_Option"><rect codeLine="16" fill="#F1F1F1" height="48" id="Option" rx="2.5" ry="2.5" style="stroke:#181818;stroke-width:0.5;" width="74" x="579" y="331"/><ellipse cx="594" cy="347" fill="#B4A7E5" rx="11" ry="11" style="stroke:#181818;stroke-width:1.0;"/><path d="M594.9531,343.6406 L594.9531,350.2969 L596.6719,350.2969 Q597.2813,350.2969 597.5469,350.5313 Q597.8125,350.7656 597.8125,351.1563 Q597.8125,351.5313 597.5469,351.7656 Q597.2813,352 596.6719,352 L591.5313,352 Q590.9219,352 590.6563,351.7656 Q590.3906,351.5313 590.3906,351.1406 Q590.3906,350.7656 590.6563,350.5313 Q590.9219,350.2969 591.5313,350.2969 L593.25,350.2969 L593.25,343.6406 L591.5313,343.6406 Q590.9219,343.6406 590.6563,343.4063 Q590.3906,343.1719 590.3906,342.7813 Q590.3906,342.4063 590.6563,342.1719 Q590.9219,341.9375 591.5313,341.9375 L596.6719,341.9375 Q597.2813,341.9375 597.5469,342.1719 Q597.8125,342.4063 597.8125,342.7813 Q597.8125,343.1719 597.5469,343.4063 Q597.2813,343.6406 596.6719,343.6406 L594.9531,343.6406 Z " fill="#000000"/><text fill="#000000" font-family="sans-serif" font-size="14" font-style="italic" lengthAdjust="spacing" textLength="42" x="608" y="352.7285">Option</text><line style="stroke:#181818;stroke-width:0.5;" x1="580" x2="652" y1="363" y2="363"/><line style="stroke:#181818;stroke-width:0.5;" x1="580" x2="652" y1="371" y2="371"/></g><!--MD5=[db9a76f5ceec3d416a4a0daeaf552bb6]
link CompanyManagement to ServiceContract--><g id="link_CompanyManagement_ServiceContract"><path codeLine="18" d="M237.0123,66.2581 C237.0123,66.2581 199.72,168.12 183,223 C173.32,254.77 163.97,291.4 157.53,317.83 " fill="none" id="CompanyManagement-ServiceContract" style="stroke:#181818;stroke-width:1.0;"/><polygon fill="#181818" points="154.44,330.65,160.4349,322.8358,155.61,325.7888,152.657,320.9639,154.44,330.65" style="stroke:#181818;stroke-width:1.0;"/><line style="stroke:#181818;stroke-width:1.0;" x1="155.61" x2="157.485" y1="325.7888" y2="318.005"/><polygon fill="#181818" points="241.22,55.02,235.3701,59.2365,237.0123,66.2581,242.8622,62.0416,241.22,55.02" style="stroke:#181818;stroke-width:1.0;"/></g><!--MD5=[cbcc7e0af6073e4b1ee22bbd58d9b8d8]
link CompanyManagement to ServiceContractView--><g id="link_CompanyManagement_ServiceContractView"><path codeLine="19" d="M253.49,55.31 C259.4,94.87 271.38,174.99 277.77,217.7 " fill="none" id="CompanyManagement-to-ServiceContractView" style="stroke:#181818;stroke-width:1.0;stroke-dasharray:7.0,7.0;"/><polygon fill="#181818" points="278.52,222.72,281.1648,213.2329,277.7909,217.7734,273.2503,214.3995,278.52,222.72" style="stroke:#181818;stroke-width:1.0;"/></g><!--MD5=[b675fbcbdf96fa0ca0e45da8a95e9d8f]
link CompanyManagement to MenuView--><g id="link_CompanyManagement_MenuView"><path codeLine="20" d="M271.92,55 C287.56,71.42 308.66,93.56 325.13,110.84 " fill="none" id="CompanyManagement-to-MenuView" style="stroke:#181818;stroke-width:1.0;stroke-dasharray:7.0,7.0;"/><polygon fill="#181818" points="328.78,114.68,325.4678,105.4048,325.331,111.06,319.6758,110.9232,328.78,114.68" style="stroke:#181818;stroke-width:1.0;"/></g><!--MD5=[70157a02eda89a0c6130e7d52c2f2f74]
link ServiceContractView to ServiceContract--><g id="link_ServiceContractView_ServiceContract"><path codeLine="22" d="M253.14,271 C232.28,287.62 204.06,310.12 182.26,327.5 " fill="none" id="ServiceContractView-to-ServiceContract" style="stroke:#181818;stroke-width:1.0;stroke-dasharray:7.0,7.0;"/><polygon fill="#181818" points="178.26,330.68,187.7933,328.2067,182.1727,327.567,182.8124,321.9464,178.26,330.68" style="stroke:#181818;stroke-width:1.0;"/></g><!--MD5=[dbcab9a35781dbee05fea1de5b58871d]
link ServiceContractView to Date--><g id="link_ServiceContractView_Date"><path codeLine="23" d="M276.53,271.12 C269.37,298.41 255.1,344.42 233,379 C219.41,400.26 199.63,420.49 182.9,435.65 " fill="none" id="ServiceContractView-to-Date" style="stroke:#181818;stroke-width:1.0;stroke-dasharray:7.0,7.0;"/><polygon fill="#181818" points="179.16,439,188.5377,435.9903,182.8899,435.6702,183.2101,430.0224,179.16,439" style="stroke:#181818;stroke-width:1.0;"/></g><!--MD5=[aed3b4e61f0aadc93823d15e8705445f]
link ServiceContract to Date--><g id="link_ServiceContract_Date"><path codeLine="25" d="M149.43,379 C149.74,395 150.14,416.45 150.46,433.53 " fill="none" id="ServiceContract-to-Date" style="stroke:#181818;stroke-width:1.0;stroke-dasharray:7.0,7.0;"/><polygon fill="#181818" points="150.56,438.68,154.4051,429.6128,150.4743,433.6807,146.4063,429.7499,150.56,438.68" style="stroke:#181818;stroke-width:1.0;"/></g><!--MD5=[df8aa8658773f52091bcc1df68fac1d7]
link ServiceContract to Interval--><g id="link_ServiceContract_Interval"><path codeLine="26" d="M126.65,379 C110.7,395.42 89.18,417.56 72.39,434.84 " fill="none" id="ServiceContract-to-Interval" style="stroke:#181818;stroke-width:1.0;"/><polygon fill="#181818" points="68.66,438.68,77.8015,435.0148,72.1452,435.0948,72.0652,429.4385,68.66,438.68" style="stroke:#181818;stroke-width:1.0;"/><text fill="#000000" font-family="sans-serif" font-size="13" lengthAdjust="spacing" textLength="21" x="50.624" y="428.34">360</text></g><!--MD5=[dcc2e4004a81e930d0bba2f4a2a42a1d]
link MenuView to Menu--><g id="link_MenuView_Menu"><path codeLine="28" d="M398.74,163 C438.77,182.29 495.21,209.48 532.43,227.41 " fill="none" id="MenuView-to-Menu" style="stroke:#181818;stroke-width:1.0;"/><polygon fill="#181818" points="537.32,229.77,530.9333,222.2726,532.8113,227.6087,527.4752,229.4866,537.32,229.77" style="stroke:#181818;stroke-width:1.0;"/></g><!--MD5=[e3badc2849a377e674bef8e011aa0b5c]
link MenuView to ServiceContractView--><g id="link_MenuView_ServiceContractView"><path codeLine="29" d="M336.03,163 C325.43,179.28 311.17,201.19 299.96,218.41 " fill="none" id="MenuView-to-ServiceContractView" style="stroke:#181818;stroke-width:1.0;stroke-dasharray:7.0,7.0;"/><polygon fill="#181818" points="297.18,222.68,305.4374,217.312,299.9039,218.4871,298.7288,212.9537,297.18,222.68" style="stroke:#181818;stroke-width:1.0;"/></g><!--MD5=[8daeaf3eedd6c08a0f80d4a90846b3b4]
link Menu to Option--><g id="link_Menu_Option"><path codeLine="31" d="M580.76,271 C587.62,287.14 596.82,308.82 604.1,325.97 " fill="none" id="Menu-to-Option" style="stroke:#181818;stroke-width:1.0;"/><polygon fill="#181818" points="606.1,330.68,606.2682,320.8326,604.1476,326.0769,598.9033,323.9564,606.1,330.68" style="stroke:#181818;stroke-width:1.0;"/></g><!--MD5=[db27c364c76abc55725547699ffa083f]
link Menu to CancelOption--><g id="link_Menu_CancelOption"><path codeLine="32" d="M539.15,271.11 C483.72,311.32 369.88,393.9 311.8,436.03 " fill="none" id="Menu-to-CancelOption" style="stroke:#181818;stroke-width:1.0;"/><polygon fill="#181818" points="307.72,438.99,317.3552,436.9496,311.7692,436.0568,312.6621,430.4709,307.72,438.99" style="stroke:#181818;stroke-width:1.0;"/></g><!--MD5=[4fa9ab25f67b4b87f3be576228ebd3af]
link Menu to EnlargeOption--><g id="link_Menu_EnlargeOption"><path codeLine="33" d="M604.53,268.37 C626.22,283.19 653.4,305.14 670,331 C690.27,362.58 699.25,405.5 703.14,433.47 " fill="none" id="Menu-to-EnlargeOption" style="stroke:#181818;stroke-width:1.0;"/><polygon fill="#181818" points="703.81,438.52,706.5926,429.0724,703.1529,433.5634,698.662,430.1237,703.81,438.52" style="stroke:#181818;stroke-width:1.0;"/></g><!--MD5=[34472ef7d93d45876669c188e05bd016]
link Menu to ExitOption--><g id="link_Menu_ExitOption"><path codeLine="34" d="M567.45,271.19 C565.09,287.8 562.22,310.72 561,331 C558.88,366.33 559.34,407.12 560.02,433.67 " fill="none" id="Menu-to-ExitOption" style="stroke:#181818;stroke-width:1.0;"/><polygon fill="#181818" points="560.16,438.78,563.9267,429.6799,560.0311,433.7817,555.9293,429.8861,560.16,438.78" style="stroke:#181818;stroke-width:1.0;"/></g><!--MD5=[07af14581a148e641fd603cb40c2280e]
link Menu to GetCostOption--><g id="link_Menu_GetCostOption"><path codeLine="35" d="M604.72,261.48 C643.39,277.19 708.49,304.41 763,331 C832.64,364.97 911.05,408.88 958.73,436.24 " fill="none" id="Menu-to-GetCostOption" style="stroke:#181818;stroke-width:1.0;"/><polygon fill="#181818" points="963.25,438.84,957.426,430.8977,958.9105,436.3562,953.452,437.8408,963.25,438.84" style="stroke:#181818;stroke-width:1.0;"/></g><!--MD5=[27f893628d86aab74ab3b09a64ae1a9a]
link Menu to ShiftOption--><g id="link_Menu_ShiftOption"><path codeLine="36" d="M604.78,266.36 C632.98,282.2 673.78,306.37 707,331 C751.42,363.93 798.38,407.54 826.95,435.19 " fill="none" id="Menu-to-ShiftOption" style="stroke:#181818;stroke-width:1.0;"/><polygon fill="#181818" points="830.69,438.82,827.0248,429.6785,827.1048,435.3348,821.4485,435.4148,830.69,438.82" style="stroke:#181818;stroke-width:1.0;"/></g><!--MD5=[803738a30755b5dfec10f31a19e63733]
link Menu to ShowOption--><g id="link_Menu_ShowOption"><path codeLine="37" d="M554.99,271.31 C527.65,311.11 472.1,391.97 442.9,434.48 " fill="none" id="Menu-to-ShowOption" style="stroke:#181818;stroke-width:1.0;"/><polygon fill="#181818" points="439.99,438.72,448.3766,433.5562,442.816,434.5952,441.7769,429.0346,439.99,438.72" style="stroke:#181818;stroke-width:1.0;"/></g><!--MD5=[e3fd346c3516c724fc4a640bffce4df1]
reverse link Option to CancelOption--><g id="link_Option_CancelOption"><path codeLine="39" d="M559.86,373.5 C497.83,392.84 398.38,423.85 335.17,443.55 " fill="none" id="Option-backto-CancelOption" style="stroke:#181818;stroke-width:1.0;stroke-dasharray:7.0,7.0;"/><polygon fill="none" points="557.79,366.82,578.97,367.55,561.96,380.18,557.79,366.82" style="stroke:#181818;stroke-width:1.0;"/></g><!--MD5=[19046170cf5041572bf6c16b030fecc3]
reverse link Option to EnlargeOption--><g id="link_Option_EnlargeOption"><path codeLine="40" d="M648.86,394.7 C661.38,409.45 675.26,425.79 686.2,438.68 " fill="none" id="Option-backto-EnlargeOption" style="stroke:#181818;stroke-width:1.0;stroke-dasharray:7.0,7.0;"/><polygon fill="none" points="643.14,398.78,635.53,379,653.81,389.72,643.14,398.78" style="stroke:#181818;stroke-width:1.0;"/></g><!--MD5=[526edcfd2429839a623b8ea8e99bb633]
reverse link Option to ExitOption--><g id="link_Option_ExitOption"><path codeLine="41" d="M594.68,397.09 C587.36,411.2 579.43,426.48 573.1,438.68 " fill="none" id="Option-backto-ExitOption" style="stroke:#181818;stroke-width:1.0;stroke-dasharray:7.0,7.0;"/><polygon fill="none" points="588.64,393.53,604.07,379,601.07,399.98,588.64,393.53" style="stroke:#181818;stroke-width:1.0;"/></g><!--MD5=[79c6f7e96243453265e07bfea24cadbc]
reverse link Option to GetCostOption--><g id="link_Option_GetCostOption"><path codeLine="42" d="M673.1,371.15 C734.8,387.58 835.99,414.73 923,439 C928.43,440.51 934.06,442.1 939.71,443.7 " fill="none" id="Option-backto-GetCostOption" style="stroke:#181818;stroke-width:1.0;stroke-dasharray:7.0,7.0;"/><polygon fill="none" points="670.91,377.81,653.39,365.9,674.51,364.28,670.91,377.81" style="stroke:#181818;stroke-width:1.0;"/></g><!--MD5=[cbf13adba2a8be8001390b77ecbc040d]
reverse link Option to ShiftOption--><g id="link_Option_ShiftOption"><path codeLine="43" d="M671.49,380.71 C711.21,398.4 764.27,422.04 802.94,439.26 " fill="none" id="Option-backto-ShiftOption" style="stroke:#181818;stroke-width:1.0;stroke-dasharray:7.0,7.0;"/><polygon fill="none" points="668.61,387.09,653.19,372.56,674.31,374.31,668.61,387.09" style="stroke:#181818;stroke-width:1.0;"/></g><!--MD5=[e23ea6afece6cda16f274ef1ae533cf1]
reverse link Option to ShowOption--><g id="link_Option_ShowOption"><path codeLine="44" d="M561.14,386.29 C530.86,403 493.85,423.44 465.91,438.86 " fill="none" id="Option-backto-ShowOption" style="stroke:#181818;stroke-width:1.0;stroke-dasharray:7.0,7.0;"/><polygon fill="none" points="558.09,379.98,578.98,376.44,564.85,392.23,558.09,379.98" style="stroke:#181818;stroke-width:1.0;"/></g><!--MD5=[da717354c37d59bf4db3ac45abebecd5]
@startuml
class CompanyManagement
class ServiceContract
class ServiceContractView
class MenuView
class Menu
class CancelOption
class ShowOption
class ExitOption
class EnlargeOption
class ShiftOption
class GetCostOption

class Date
class Interval

interface Option

CompanyManagement *- -> ServiceContract
CompanyManagement ..> ServiceContractView
CompanyManagement ..> MenuView

ServiceContractView ..> ServiceContract
ServiceContractView ..> Date

ServiceContract ..> Date
ServiceContract - -> "360" Interval

MenuView - -> Menu
MenuView ..> ServiceContractView

Menu - -> Option
Menu - -> CancelOption
Menu - -> EnlargeOption
Menu - -> ExitOption
Menu - -> GetCostOption
Menu - -> ShiftOption
Menu - -> ShowOption

Option <|.. CancelOption
Option <|.. EnlargeOption
Option <|.. ExitOption
Option <|.. GetCostOption
Option <|.. ShiftOption
Option <|.. ShowOption

@enduml

PlantUML version 1.2022.7(Mon Aug 22 19:01:30 CEST 2022)
(GPL source distribution)
Java Runtime: OpenJDK Runtime Environment
JVM: OpenJDK 64-Bit Server VM
Default Encoding: UTF-8
Language: es
Country: ES
--></g></svg>