<?xml version="1.0" encoding="UTF-8" standalone="no"?><svg xmlns="http://www.w3.org/2000/svg" xmlns:xlink="http://www.w3.org/1999/xlink" contentStyleType="text/css" height="710px" preserveAspectRatio="none" style="width:1057px;height:710px;background:#FFFFFF;" version="1.1" viewBox="0 0 1057 710" width="1057px" zoomAndPan="magnify"><defs/><g><!--MD5=[b92924a051eb15925d91c85b39483d30]
class CompanyManagement--><g id="elem_CompanyManagement"><rect codeLine="1" fill="#F1F1F1" height="48" id="CompanyManagement" rx="2.5" ry="2.5" style="stroke:#181818;stroke-width:0.5;" width="174" x="364" y="7"/><ellipse cx="379" cy="23" fill="#ADD1B2" rx="11" ry="11" style="stroke:#181818;stroke-width:1.0;"/><path d="M381.7656,18.875 Q381.9219,18.6563 382.1094,18.5469 Q382.2969,18.4375 382.5156,18.4375 Q382.8906,18.4375 383.125,18.7031 Q383.3594,18.9531 383.3594,19.5625 L383.3594,21.0156 Q383.3594,21.625 383.125,21.8906 Q382.8906,22.1563 382.5156,22.1563 Q382.1719,22.1563 381.9688,21.9531 Q381.7656,21.7656 381.6563,21.25 Q381.6094,20.8906 381.4219,20.7031 Q381.0938,20.3281 380.4844,20.1094 Q379.875,19.8906 379.25,19.8906 Q378.4844,19.8906 377.8438,20.2188 Q377.2188,20.5469 376.7188,21.2969 Q376.2344,22.0469 376.2344,23.0781 L376.2344,24.1719 Q376.2344,25.4063 377.125,26.2344 Q378.0156,27.0469 379.6094,27.0469 Q380.5469,27.0469 381.2031,26.7969 Q381.5938,26.6406 382.0156,26.2031 Q382.2813,25.9375 382.4219,25.8594 Q382.5781,25.7813 382.7813,25.7813 Q383.1094,25.7813 383.3594,26.0469 Q383.625,26.2969 383.625,26.6406 Q383.625,26.9844 383.2813,27.3906 Q382.7813,27.9688 381.9844,28.2969 Q380.9063,28.75 379.6094,28.75 Q378.0938,28.75 376.8906,28.125 Q375.9063,27.625 375.2188,26.5625 Q374.5313,25.4844 374.5313,24.2031 L374.5313,23.0469 Q374.5313,21.7188 375.1406,20.5781 Q375.7656,19.4219 376.8594,18.8125 Q377.9531,18.1875 379.1875,18.1875 Q379.9219,18.1875 380.5625,18.3594 Q381.2188,18.5156 381.7656,18.875 Z " fill="#000000"/><text fill="#000000" font-family="sans-serif" font-size="14" lengthAdjust="spacing" textLength="142" x="393" y="28.7285">CompanyManagement</text><line style="stroke:#181818;stroke-width:0.5;" x1="365" x2="537" y1="39" y2="39"/><line style="stroke:#181818;stroke-width:0.5;" x1="365" x2="537" y1="47" y2="47"/></g><!--MD5=[dd4f49095d0e7eece5ef1fa0d36891f4]
class ServiceContract--><g id="elem_ServiceContract"><rect codeLine="2" fill="#F1F1F1" height="48" id="ServiceContract" rx="2.5" ry="2.5" style="stroke:#181818;stroke-width:0.5;" width="133" x="81.5" y="547"/><ellipse cx="96.5" cy="563" fill="#ADD1B2" rx="11" ry="11" style="stroke:#181818;stroke-width:1.0;"/><path d="M99.2656,558.875 Q99.4219,558.6563 99.6094,558.5469 Q99.7969,558.4375 100.0156,558.4375 Q100.3906,558.4375 100.625,558.7031 Q100.8594,558.9531 100.8594,559.5625 L100.8594,561.0156 Q100.8594,561.625 100.625,561.8906 Q100.3906,562.1563 100.0156,562.1563 Q99.6719,562.1563 99.4688,561.9531 Q99.2656,561.7656 99.1563,561.25 Q99.1094,560.8906 98.9219,560.7031 Q98.5938,560.3281 97.9844,560.1094 Q97.375,559.8906 96.75,559.8906 Q95.9844,559.8906 95.3438,560.2188 Q94.7188,560.5469 94.2188,561.2969 Q93.7344,562.0469 93.7344,563.0781 L93.7344,564.1719 Q93.7344,565.4063 94.625,566.2344 Q95.5156,567.0469 97.1094,567.0469 Q98.0469,567.0469 98.7031,566.7969 Q99.0938,566.6406 99.5156,566.2031 Q99.7813,565.9375 99.9219,565.8594 Q100.0781,565.7813 100.2813,565.7813 Q100.6094,565.7813 100.8594,566.0469 Q101.125,566.2969 101.125,566.6406 Q101.125,566.9844 100.7813,567.3906 Q100.2813,567.9688 99.4844,568.2969 Q98.4063,568.75 97.1094,568.75 Q95.5938,568.75 94.3906,568.125 Q93.4063,567.625 92.7188,566.5625 Q92.0313,565.4844 92.0313,564.2031 L92.0313,563.0469 Q92.0313,561.7188 92.6406,560.5781 Q93.2656,559.4219 94.3594,558.8125 Q95.4531,558.1875 96.6875,558.1875 Q97.4219,558.1875 98.0625,558.3594 Q98.7188,558.5156 99.2656,558.875 Z " fill="#000000"/><text fill="#000000" font-family="sans-serif" font-size="14" lengthAdjust="spacing" textLength="101" x="110.5" y="568.7285">ServiceContract</text><line style="stroke:#181818;stroke-width:0.5;" x1="82.5" x2="213.5" y1="579" y2="579"/><line style="stroke:#181818;stroke-width:0.5;" x1="82.5" x2="213.5" y1="587" y2="587"/></g><!--MD5=[f6bfa8e6ad2e37edcd578b647fafadda]
class MenuView--><g id="elem_MenuView"><rect codeLine="3" fill="#F1F1F1" height="48" id="MenuView" rx="2.5" ry="2.5" style="stroke:#181818;stroke-width:0.5;" width="96" x="403" y="115"/><ellipse cx="418" cy="131" fill="#ADD1B2" rx="11" ry="11" style="stroke:#181818;stroke-width:1.0;"/><path d="M420.7656,126.875 Q420.9219,126.6563 421.1094,126.5469 Q421.2969,126.4375 421.5156,126.4375 Q421.8906,126.4375 422.125,126.7031 Q422.3594,126.9531 422.3594,127.5625 L422.3594,129.0156 Q422.3594,129.625 422.125,129.8906 Q421.8906,130.1563 421.5156,130.1563 Q421.1719,130.1563 420.9688,129.9531 Q420.7656,129.7656 420.6563,129.25 Q420.6094,128.8906 420.4219,128.7031 Q420.0938,128.3281 419.4844,128.1094 Q418.875,127.8906 418.25,127.8906 Q417.4844,127.8906 416.8438,128.2188 Q416.2188,128.5469 415.7188,129.2969 Q415.2344,130.0469 415.2344,131.0781 L415.2344,132.1719 Q415.2344,133.4063 416.125,134.2344 Q417.0156,135.0469 418.6094,135.0469 Q419.5469,135.0469 420.2031,134.7969 Q420.5938,134.6406 421.0156,134.2031 Q421.2813,133.9375 421.4219,133.8594 Q421.5781,133.7813 421.7813,133.7813 Q422.1094,133.7813 422.3594,134.0469 Q422.625,134.2969 422.625,134.6406 Q422.625,134.9844 422.2813,135.3906 Q421.7813,135.9688 420.9844,136.2969 Q419.9063,136.75 418.6094,136.75 Q417.0938,136.75 415.8906,136.125 Q414.9063,135.625 414.2188,134.5625 Q413.5313,133.4844 413.5313,132.2031 L413.5313,131.0469 Q413.5313,129.7188 414.1406,128.5781 Q414.7656,127.4219 415.8594,126.8125 Q416.9531,126.1875 418.1875,126.1875 Q418.9219,126.1875 419.5625,126.3594 Q420.2188,126.5156 420.7656,126.875 Z " fill="#000000"/><text fill="#000000" font-family="sans-serif" font-size="14" lengthAdjust="spacing" textLength="64" x="432" y="136.7285">MenuView</text><line style="stroke:#181818;stroke-width:0.5;" x1="404" x2="498" y1="147" y2="147"/><line style="stroke:#181818;stroke-width:0.5;" x1="404" x2="498" y1="155" y2="155"/></g><!--MD5=[f0268dd29ee89052933f031546cb1cab]
class Menu--><g id="elem_Menu"><rect codeLine="4" fill="#F1F1F1" height="48" id="Menu" rx="2.5" ry="2.5" style="stroke:#181818;stroke-width:0.5;" width="67" x="417.5" y="223"/><ellipse cx="432.5" cy="239" fill="#ADD1B2" rx="11" ry="11" style="stroke:#181818;stroke-width:1.0;"/><path d="M435.2656,234.875 Q435.4219,234.6563 435.6094,234.5469 Q435.7969,234.4375 436.0156,234.4375 Q436.3906,234.4375 436.625,234.7031 Q436.8594,234.9531 436.8594,235.5625 L436.8594,237.0156 Q436.8594,237.625 436.625,237.8906 Q436.3906,238.1563 436.0156,238.1563 Q435.6719,238.1563 435.4688,237.9531 Q435.2656,237.7656 435.1563,237.25 Q435.1094,236.8906 434.9219,236.7031 Q434.5938,236.3281 433.9844,236.1094 Q433.375,235.8906 432.75,235.8906 Q431.9844,235.8906 431.3438,236.2188 Q430.7188,236.5469 430.2188,237.2969 Q429.7344,238.0469 429.7344,239.0781 L429.7344,240.1719 Q429.7344,241.4063 430.625,242.2344 Q431.5156,243.0469 433.1094,243.0469 Q434.0469,243.0469 434.7031,242.7969 Q435.0938,242.6406 435.5156,242.2031 Q435.7813,241.9375 435.9219,241.8594 Q436.0781,241.7813 436.2813,241.7813 Q436.6094,241.7813 436.8594,242.0469 Q437.125,242.2969 437.125,242.6406 Q437.125,242.9844 436.7813,243.3906 Q436.2813,243.9688 435.4844,244.2969 Q434.4063,244.75 433.1094,244.75 Q431.5938,244.75 430.3906,244.125 Q429.4063,243.625 428.7188,242.5625 Q428.0313,241.4844 428.0313,240.2031 L428.0313,239.0469 Q428.0313,237.7188 428.6406,236.5781 Q429.2656,235.4219 430.3594,234.8125 Q431.4531,234.1875 432.6875,234.1875 Q433.4219,234.1875 434.0625,234.3594 Q434.7188,234.5156 435.2656,234.875 Z " fill="#000000"/><text fill="#000000" font-family="sans-serif" font-size="14" lengthAdjust="spacing" textLength="35" x="446.5" y="244.7285">Menu</text><line style="stroke:#181818;stroke-width:0.5;" x1="418.5" x2="483.5" y1="255" y2="255"/><line style="stroke:#181818;stroke-width:0.5;" x1="418.5" x2="483.5" y1="263" y2="263"/></g><!--MD5=[6506bea503710dcab8a6a46b73fb74a1]
class CancelOption--><g id="elem_CancelOption"><rect codeLine="5" fill="#F1F1F1" height="48" id="CancelOption" rx="2.5" ry="2.5" style="stroke:#181818;stroke-width:0.5;" width="118" x="201" y="439"/><ellipse cx="216" cy="455" fill="#ADD1B2" rx="11" ry="11" style="stroke:#181818;stroke-width:1.0;"/><path d="M218.7656,450.875 Q218.9219,450.6563 219.1094,450.5469 Q219.2969,450.4375 219.5156,450.4375 Q219.8906,450.4375 220.125,450.7031 Q220.3594,450.9531 220.3594,451.5625 L220.3594,453.0156 Q220.3594,453.625 220.125,453.8906 Q219.8906,454.1563 219.5156,454.1563 Q219.1719,454.1563 218.9688,453.9531 Q218.7656,453.7656 218.6563,453.25 Q218.6094,452.8906 218.4219,452.7031 Q218.0938,452.3281 217.4844,452.1094 Q216.875,451.8906 216.25,451.8906 Q215.4844,451.8906 214.8438,452.2188 Q214.2188,452.5469 213.7188,453.2969 Q213.2344,454.0469 213.2344,455.0781 L213.2344,456.1719 Q213.2344,457.4063 214.125,458.2344 Q215.0156,459.0469 216.6094,459.0469 Q217.5469,459.0469 218.2031,458.7969 Q218.5938,458.6406 219.0156,458.2031 Q219.2813,457.9375 219.4219,457.8594 Q219.5781,457.7813 219.7813,457.7813 Q220.1094,457.7813 220.3594,458.0469 Q220.625,458.2969 220.625,458.6406 Q220.625,458.9844 220.2813,459.3906 Q219.7813,459.9688 218.9844,460.2969 Q217.9063,460.75 216.6094,460.75 Q215.0938,460.75 213.8906,460.125 Q212.9063,459.625 212.2188,458.5625 Q211.5313,457.4844 211.5313,456.2031 L211.5313,455.0469 Q211.5313,453.7188 212.1406,452.5781 Q212.7656,451.4219 213.8594,450.8125 Q214.9531,450.1875 216.1875,450.1875 Q216.9219,450.1875 217.5625,450.3594 Q218.2188,450.5156 218.7656,450.875 Z " fill="#000000"/><text fill="#000000" font-family="sans-serif" font-size="14" lengthAdjust="spacing" textLength="86" x="230" y="460.7285">CancelOption</text><line style="stroke:#181818;stroke-width:0.5;" x1="202" x2="318" y1="471" y2="471"/><line style="stroke:#181818;stroke-width:0.5;" x1="202" x2="318" y1="479" y2="479"/></g><!--MD5=[fdd6ecfabaf96fbf4f00aac0b493efe3]
class ShowOption--><g id="elem_ShowOption"><rect codeLine="6" fill="#F1F1F1" height="48" id="ShowOption" rx="2.5" ry="2.5" style="stroke:#181818;stroke-width:0.5;" width="108" x="650" y="439"/><ellipse cx="665" cy="455" fill="#ADD1B2" rx="11" ry="11" style="stroke:#181818;stroke-width:1.0;"/><path d="M667.7656,450.875 Q667.9219,450.6563 668.1094,450.5469 Q668.2969,450.4375 668.5156,450.4375 Q668.8906,450.4375 669.125,450.7031 Q669.3594,450.9531 669.3594,451.5625 L669.3594,453.0156 Q669.3594,453.625 669.125,453.8906 Q668.8906,454.1563 668.5156,454.1563 Q668.1719,454.1563 667.9688,453.9531 Q667.7656,453.7656 667.6563,453.25 Q667.6094,452.8906 667.4219,452.7031 Q667.0938,452.3281 666.4844,452.1094 Q665.875,451.8906 665.25,451.8906 Q664.4844,451.8906 663.8438,452.2188 Q663.2188,452.5469 662.7188,453.2969 Q662.2344,454.0469 662.2344,455.0781 L662.2344,456.1719 Q662.2344,457.4063 663.125,458.2344 Q664.0156,459.0469 665.6094,459.0469 Q666.5469,459.0469 667.2031,458.7969 Q667.5938,458.6406 668.0156,458.2031 Q668.2813,457.9375 668.4219,457.8594 Q668.5781,457.7813 668.7813,457.7813 Q669.1094,457.7813 669.3594,458.0469 Q669.625,458.2969 669.625,458.6406 Q669.625,458.9844 669.2813,459.3906 Q668.7813,459.9688 667.9844,460.2969 Q666.9063,460.75 665.6094,460.75 Q664.0938,460.75 662.8906,460.125 Q661.9063,459.625 661.2188,458.5625 Q660.5313,457.4844 660.5313,456.2031 L660.5313,455.0469 Q660.5313,453.7188 661.1406,452.5781 Q661.7656,451.4219 662.8594,450.8125 Q663.9531,450.1875 665.1875,450.1875 Q665.9219,450.1875 666.5625,450.3594 Q667.2188,450.5156 667.7656,450.875 Z " fill="#000000"/><text fill="#000000" font-family="sans-serif" font-size="14" lengthAdjust="spacing" textLength="76" x="679" y="460.7285">ShowOption</text><line style="stroke:#181818;stroke-width:0.5;" x1="651" x2="757" y1="471" y2="471"/><line style="stroke:#181818;stroke-width:0.5;" x1="651" x2="757" y1="479" y2="479"/></g><!--MD5=[48ff7231d024078491841a820ee16411]
class ExitOption--><g id="elem_ExitOption"><rect codeLine="7" fill="#F1F1F1" height="48" id="ExitOption" rx="2.5" ry="2.5" style="stroke:#181818;stroke-width:0.5;" width="96" x="793" y="439"/><ellipse cx="808" cy="455" fill="#ADD1B2" rx="11" ry="11" style="stroke:#181818;stroke-width:1.0;"/><path d="M810.7656,450.875 Q810.9219,450.6563 811.1094,450.5469 Q811.2969,450.4375 811.5156,450.4375 Q811.8906,450.4375 812.125,450.7031 Q812.3594,450.9531 812.3594,451.5625 L812.3594,453.0156 Q812.3594,453.625 812.125,453.8906 Q811.8906,454.1563 811.5156,454.1563 Q811.1719,454.1563 810.9688,453.9531 Q810.7656,453.7656 810.6563,453.25 Q810.6094,452.8906 810.4219,452.7031 Q810.0938,452.3281 809.4844,452.1094 Q808.875,451.8906 808.25,451.8906 Q807.4844,451.8906 806.8438,452.2188 Q806.2188,452.5469 805.7188,453.2969 Q805.2344,454.0469 805.2344,455.0781 L805.2344,456.1719 Q805.2344,457.4063 806.125,458.2344 Q807.0156,459.0469 808.6094,459.0469 Q809.5469,459.0469 810.2031,458.7969 Q810.5938,458.6406 811.0156,458.2031 Q811.2813,457.9375 811.4219,457.8594 Q811.5781,457.7813 811.7813,457.7813 Q812.1094,457.7813 812.3594,458.0469 Q812.625,458.2969 812.625,458.6406 Q812.625,458.9844 812.2813,459.3906 Q811.7813,459.9688 810.9844,460.2969 Q809.9063,460.75 808.6094,460.75 Q807.0938,460.75 805.8906,460.125 Q804.9063,459.625 804.2188,458.5625 Q803.5313,457.4844 803.5313,456.2031 L803.5313,455.0469 Q803.5313,453.7188 804.1406,452.5781 Q804.7656,451.4219 805.8594,450.8125 Q806.9531,450.1875 808.1875,450.1875 Q808.9219,450.1875 809.5625,450.3594 Q810.2188,450.5156 810.7656,450.875 Z " fill="#000000"/><text fill="#000000" font-family="sans-serif" font-size="14" lengthAdjust="spacing" textLength="64" x="822" y="460.7285">ExitOption</text><line style="stroke:#181818;stroke-width:0.5;" x1="794" x2="888" y1="471" y2="471"/><line style="stroke:#181818;stroke-width:0.5;" x1="794" x2="888" y1="479" y2="479"/></g><!--MD5=[a819b5cb5440bf47c68e0253f1faedfb]
class EnlargeOption--><g id="elem_EnlargeOption"><rect codeLine="8" fill="#F1F1F1" height="48" id="EnlargeOption" rx="2.5" ry="2.5" style="stroke:#181818;stroke-width:0.5;" width="123" x="354.5" y="439"/><ellipse cx="369.5" cy="455" fill="#ADD1B2" rx="11" ry="11" style="stroke:#181818;stroke-width:1.0;"/><path d="M372.2656,450.875 Q372.4219,450.6563 372.6094,450.5469 Q372.7969,450.4375 373.0156,450.4375 Q373.3906,450.4375 373.625,450.7031 Q373.8594,450.9531 373.8594,451.5625 L373.8594,453.0156 Q373.8594,453.625 373.625,453.8906 Q373.3906,454.1563 373.0156,454.1563 Q372.6719,454.1563 372.4688,453.9531 Q372.2656,453.7656 372.1563,453.25 Q372.1094,452.8906 371.9219,452.7031 Q371.5938,452.3281 370.9844,452.1094 Q370.375,451.8906 369.75,451.8906 Q368.9844,451.8906 368.3438,452.2188 Q367.7188,452.5469 367.2188,453.2969 Q366.7344,454.0469 366.7344,455.0781 L366.7344,456.1719 Q366.7344,457.4063 367.625,458.2344 Q368.5156,459.0469 370.1094,459.0469 Q371.0469,459.0469 371.7031,458.7969 Q372.0938,458.6406 372.5156,458.2031 Q372.7813,457.9375 372.9219,457.8594 Q373.0781,457.7813 373.2813,457.7813 Q373.6094,457.7813 373.8594,458.0469 Q374.125,458.2969 374.125,458.6406 Q374.125,458.9844 373.7813,459.3906 Q373.2813,459.9688 372.4844,460.2969 Q371.4063,460.75 370.1094,460.75 Q368.5938,460.75 367.3906,460.125 Q366.4063,459.625 365.7188,458.5625 Q365.0313,457.4844 365.0313,456.2031 L365.0313,455.0469 Q365.0313,453.7188 365.6406,452.5781 Q366.2656,451.4219 367.3594,450.8125 Q368.4531,450.1875 369.6875,450.1875 Q370.4219,450.1875 371.0625,450.3594 Q371.7188,450.5156 372.2656,450.875 Z " fill="#000000"/><text fill="#000000" font-family="sans-serif" font-size="14" lengthAdjust="spacing" textLength="91" x="383.5" y="460.7285">EnlargeOption</text><line style="stroke:#181818;stroke-width:0.5;" x1="355.5" x2="476.5" y1="471" y2="471"/><line style="stroke:#181818;stroke-width:0.5;" x1="355.5" x2="476.5" y1="479" y2="479"/></g><!--MD5=[03a279042868af39cebd3e3290aa818a]
class ShiftOption--><g id="elem_ShiftOption"><rect codeLine="9" fill="#F1F1F1" height="48" id="ShiftOption" rx="2.5" ry="2.5" style="stroke:#181818;stroke-width:0.5;" width="102" x="513" y="439"/><ellipse cx="528" cy="455" fill="#ADD1B2" rx="11" ry="11" style="stroke:#181818;stroke-width:1.0;"/><path d="M530.7656,450.875 Q530.9219,450.6563 531.1094,450.5469 Q531.2969,450.4375 531.5156,450.4375 Q531.8906,450.4375 532.125,450.7031 Q532.3594,450.9531 532.3594,451.5625 L532.3594,453.0156 Q532.3594,453.625 532.125,453.8906 Q531.8906,454.1563 531.5156,454.1563 Q531.1719,454.1563 530.9688,453.9531 Q530.7656,453.7656 530.6563,453.25 Q530.6094,452.8906 530.4219,452.7031 Q530.0938,452.3281 529.4844,452.1094 Q528.875,451.8906 528.25,451.8906 Q527.4844,451.8906 526.8438,452.2188 Q526.2188,452.5469 525.7188,453.2969 Q525.2344,454.0469 525.2344,455.0781 L525.2344,456.1719 Q525.2344,457.4063 526.125,458.2344 Q527.0156,459.0469 528.6094,459.0469 Q529.5469,459.0469 530.2031,458.7969 Q530.5938,458.6406 531.0156,458.2031 Q531.2813,457.9375 531.4219,457.8594 Q531.5781,457.7813 531.7813,457.7813 Q532.1094,457.7813 532.3594,458.0469 Q532.625,458.2969 532.625,458.6406 Q532.625,458.9844 532.2813,459.3906 Q531.7813,459.9688 530.9844,460.2969 Q529.9063,460.75 528.6094,460.75 Q527.0938,460.75 525.8906,460.125 Q524.9063,459.625 524.2188,458.5625 Q523.5313,457.4844 523.5313,456.2031 L523.5313,455.0469 Q523.5313,453.7188 524.1406,452.5781 Q524.7656,451.4219 525.8594,450.8125 Q526.9531,450.1875 528.1875,450.1875 Q528.9219,450.1875 529.5625,450.3594 Q530.2188,450.5156 530.7656,450.875 Z " fill="#000000"/><text fill="#000000" font-family="sans-serif" font-size="14" lengthAdjust="spacing" textLength="70" x="542" y="460.7285">ShiftOption</text><line style="stroke:#181818;stroke-width:0.5;" x1="514" x2="614" y1="471" y2="471"/><line style="stroke:#181818;stroke-width:0.5;" x1="514" x2="614" y1="479" y2="479"/></g><!--MD5=[90dc96bfd633d7918e72cd3f4daac441]
class GetCostOption--><g id="elem_GetCostOption"><rect codeLine="10" fill="#F1F1F1" height="48" id="GetCostOption" rx="2.5" ry="2.5" style="stroke:#181818;stroke-width:0.5;" width="126" x="924" y="439"/><ellipse cx="939" cy="455" fill="#ADD1B2" rx="11" ry="11" style="stroke:#181818;stroke-width:1.0;"/><path d="M941.7656,450.875 Q941.9219,450.6563 942.1094,450.5469 Q942.2969,450.4375 942.5156,450.4375 Q942.8906,450.4375 943.125,450.7031 Q943.3594,450.9531 943.3594,451.5625 L943.3594,453.0156 Q943.3594,453.625 943.125,453.8906 Q942.8906,454.1563 942.5156,454.1563 Q942.1719,454.1563 941.9688,453.9531 Q941.7656,453.7656 941.6563,453.25 Q941.6094,452.8906 941.4219,452.7031 Q941.0938,452.3281 940.4844,452.1094 Q939.875,451.8906 939.25,451.8906 Q938.4844,451.8906 937.8438,452.2188 Q937.2188,452.5469 936.7188,453.2969 Q936.2344,454.0469 936.2344,455.0781 L936.2344,456.1719 Q936.2344,457.4063 937.125,458.2344 Q938.0156,459.0469 939.6094,459.0469 Q940.5469,459.0469 941.2031,458.7969 Q941.5938,458.6406 942.0156,458.2031 Q942.2813,457.9375 942.4219,457.8594 Q942.5781,457.7813 942.7813,457.7813 Q943.1094,457.7813 943.3594,458.0469 Q943.625,458.2969 943.625,458.6406 Q943.625,458.9844 943.2813,459.3906 Q942.7813,459.9688 941.9844,460.2969 Q940.9063,460.75 939.6094,460.75 Q938.0938,460.75 936.8906,460.125 Q935.9063,459.625 935.2188,458.5625 Q934.5313,457.4844 934.5313,456.2031 L934.5313,455.0469 Q934.5313,453.7188 935.1406,452.5781 Q935.7656,451.4219 936.8594,450.8125 Q937.9531,450.1875 939.1875,450.1875 Q939.9219,450.1875 940.5625,450.3594 Q941.2188,450.5156 941.7656,450.875 Z " fill="#000000"/><text fill="#000000" font-family="sans-serif" font-size="14" lengthAdjust="spacing" textLength="94" x="953" y="460.7285">GetCostOption</text><line style="stroke:#181818;stroke-width:0.5;" x1="925" x2="1049" y1="471" y2="471"/><line style="stroke:#181818;stroke-width:0.5;" x1="925" x2="1049" y1="479" y2="479"/></g><!--MD5=[7829b64950ce38e0487c4015ea331f97]
class Date--><g id="elem_Date"><rect codeLine="12" fill="#F1F1F1" height="48" id="Date" rx="2.5" ry="2.5" style="stroke:#181818;stroke-width:0.5;" width="62" x="320" y="655"/><ellipse cx="335" cy="671" fill="#ADD1B2" rx="11" ry="11" style="stroke:#181818;stroke-width:1.0;"/><path d="M337.7656,666.875 Q337.9219,666.6563 338.1094,666.5469 Q338.2969,666.4375 338.5156,666.4375 Q338.8906,666.4375 339.125,666.7031 Q339.3594,666.9531 339.3594,667.5625 L339.3594,669.0156 Q339.3594,669.625 339.125,669.8906 Q338.8906,670.1563 338.5156,670.1563 Q338.1719,670.1563 337.9688,669.9531 Q337.7656,669.7656 337.6563,669.25 Q337.6094,668.8906 337.4219,668.7031 Q337.0938,668.3281 336.4844,668.1094 Q335.875,667.8906 335.25,667.8906 Q334.4844,667.8906 333.8438,668.2188 Q333.2188,668.5469 332.7188,669.2969 Q332.2344,670.0469 332.2344,671.0781 L332.2344,672.1719 Q332.2344,673.4063 333.125,674.2344 Q334.0156,675.0469 335.6094,675.0469 Q336.5469,675.0469 337.2031,674.7969 Q337.5938,674.6406 338.0156,674.2031 Q338.2813,673.9375 338.4219,673.8594 Q338.5781,673.7813 338.7813,673.7813 Q339.1094,673.7813 339.3594,674.0469 Q339.625,674.2969 339.625,674.6406 Q339.625,674.9844 339.2813,675.3906 Q338.7813,675.9688 337.9844,676.2969 Q336.9063,676.75 335.6094,676.75 Q334.0938,676.75 332.8906,676.125 Q331.9063,675.625 331.2188,674.5625 Q330.5313,673.4844 330.5313,672.2031 L330.5313,671.0469 Q330.5313,669.7188 331.1406,668.5781 Q331.7656,667.4219 332.8594,666.8125 Q333.9531,666.1875 335.1875,666.1875 Q335.9219,666.1875 336.5625,666.3594 Q337.2188,666.5156 337.7656,666.875 Z " fill="#000000"/><text fill="#000000" font-family="sans-serif" font-size="14" lengthAdjust="spacing" textLength="30" x="349" y="676.7285">Date</text><line style="stroke:#181818;stroke-width:0.5;" x1="321" x2="381" y1="687" y2="687"/><line style="stroke:#181818;stroke-width:0.5;" x1="321" x2="381" y1="695" y2="695"/></g><!--MD5=[315b61b427ec618d6861d47eee00cca3]
class Console--><g id="elem_Console"><rect codeLine="13" fill="#F1F1F1" height="48" id="Console" rx="2.5" ry="2.5" style="stroke:#181818;stroke-width:0.5;" width="84" x="520" y="223"/><ellipse cx="535" cy="239" fill="#ADD1B2" rx="11" ry="11" style="stroke:#181818;stroke-width:1.0;"/><path d="M537.7656,234.875 Q537.9219,234.6563 538.1094,234.5469 Q538.2969,234.4375 538.5156,234.4375 Q538.8906,234.4375 539.125,234.7031 Q539.3594,234.9531 539.3594,235.5625 L539.3594,237.0156 Q539.3594,237.625 539.125,237.8906 Q538.8906,238.1563 538.5156,238.1563 Q538.1719,238.1563 537.9688,237.9531 Q537.7656,237.7656 537.6563,237.25 Q537.6094,236.8906 537.4219,236.7031 Q537.0938,236.3281 536.4844,236.1094 Q535.875,235.8906 535.25,235.8906 Q534.4844,235.8906 533.8438,236.2188 Q533.2188,236.5469 532.7188,237.2969 Q532.2344,238.0469 532.2344,239.0781 L532.2344,240.1719 Q532.2344,241.4063 533.125,242.2344 Q534.0156,243.0469 535.6094,243.0469 Q536.5469,243.0469 537.2031,242.7969 Q537.5938,242.6406 538.0156,242.2031 Q538.2813,241.9375 538.4219,241.8594 Q538.5781,241.7813 538.7813,241.7813 Q539.1094,241.7813 539.3594,242.0469 Q539.625,242.2969 539.625,242.6406 Q539.625,242.9844 539.2813,243.3906 Q538.7813,243.9688 537.9844,244.2969 Q536.9063,244.75 535.6094,244.75 Q534.0938,244.75 532.8906,244.125 Q531.9063,243.625 531.2188,242.5625 Q530.5313,241.4844 530.5313,240.2031 L530.5313,239.0469 Q530.5313,237.7188 531.1406,236.5781 Q531.7656,235.4219 532.8594,234.8125 Q533.9531,234.1875 535.1875,234.1875 Q535.9219,234.1875 536.5625,234.3594 Q537.2188,234.5156 537.7656,234.875 Z " fill="#000000"/><text fill="#000000" font-family="sans-serif" font-size="14" lengthAdjust="spacing" textLength="52" x="549" y="244.7285">Console</text><line style="stroke:#181818;stroke-width:0.5;" x1="521" x2="603" y1="255" y2="255"/><line style="stroke:#181818;stroke-width:0.5;" x1="521" x2="603" y1="263" y2="263"/></g><!--MD5=[94b2979dc8db7061b05b681130e8ecb6]
class Interval--><g id="elem_Interval"><rect codeLine="14" fill="#F1F1F1" height="48" id="Interval" rx="2.5" ry="2.5" style="stroke:#181818;stroke-width:0.5;" width="78" x="109" y="655"/><ellipse cx="124" cy="671" fill="#ADD1B2" rx="11" ry="11" style="stroke:#181818;stroke-width:1.0;"/><path d="M126.7656,666.875 Q126.9219,666.6563 127.1094,666.5469 Q127.2969,666.4375 127.5156,666.4375 Q127.8906,666.4375 128.125,666.7031 Q128.3594,666.9531 128.3594,667.5625 L128.3594,669.0156 Q128.3594,669.625 128.125,669.8906 Q127.8906,670.1563 127.5156,670.1563 Q127.1719,670.1563 126.9688,669.9531 Q126.7656,669.7656 126.6563,669.25 Q126.6094,668.8906 126.4219,668.7031 Q126.0938,668.3281 125.4844,668.1094 Q124.875,667.8906 124.25,667.8906 Q123.4844,667.8906 122.8438,668.2188 Q122.2188,668.5469 121.7188,669.2969 Q121.2344,670.0469 121.2344,671.0781 L121.2344,672.1719 Q121.2344,673.4063 122.125,674.2344 Q123.0156,675.0469 124.6094,675.0469 Q125.5469,675.0469 126.2031,674.7969 Q126.5938,674.6406 127.0156,674.2031 Q127.2813,673.9375 127.4219,673.8594 Q127.5781,673.7813 127.7813,673.7813 Q128.1094,673.7813 128.3594,674.0469 Q128.625,674.2969 128.625,674.6406 Q128.625,674.9844 128.2813,675.3906 Q127.7813,675.9688 126.9844,676.2969 Q125.9063,676.75 124.6094,676.75 Q123.0938,676.75 121.8906,676.125 Q120.9063,675.625 120.2188,674.5625 Q119.5313,673.4844 119.5313,672.2031 L119.5313,671.0469 Q119.5313,669.7188 120.1406,668.5781 Q120.7656,667.4219 121.8594,666.8125 Q122.9531,666.1875 124.1875,666.1875 Q124.9219,666.1875 125.5625,666.3594 Q126.2188,666.5156 126.7656,666.875 Z " fill="#000000"/><text fill="#000000" font-family="sans-serif" font-size="14" lengthAdjust="spacing" textLength="46" x="138" y="676.7285">Interval</text><line style="stroke:#181818;stroke-width:0.5;" x1="110" x2="186" y1="687" y2="687"/><line style="stroke:#181818;stroke-width:0.5;" x1="110" x2="186" y1="695" y2="695"/></g><!--MD5=[b07065dfc0d0e09965ec10bfc328bb3e]
class Option--><g id="elem_Option"><rect codeLine="16" fill="#F1F1F1" height="48" id="Option" rx="2.5" ry="2.5" style="stroke:#181818;stroke-width:0.5;" width="74" x="540" y="331"/><ellipse cx="555" cy="347" fill="#B4A7E5" rx="11" ry="11" style="stroke:#181818;stroke-width:1.0;"/><path d="M555.9531,343.6406 L555.9531,350.2969 L557.6719,350.2969 Q558.2813,350.2969 558.5469,350.5313 Q558.8125,350.7656 558.8125,351.1563 Q558.8125,351.5313 558.5469,351.7656 Q558.2813,352 557.6719,352 L552.5313,352 Q551.9219,352 551.6563,351.7656 Q551.3906,351.5313 551.3906,351.1406 Q551.3906,350.7656 551.6563,350.5313 Q551.9219,350.2969 552.5313,350.2969 L554.25,350.2969 L554.25,343.6406 L552.5313,343.6406 Q551.9219,343.6406 551.6563,343.4063 Q551.3906,343.1719 551.3906,342.7813 Q551.3906,342.4063 551.6563,342.1719 Q551.9219,341.9375 552.5313,341.9375 L557.6719,341.9375 Q558.2813,341.9375 558.5469,342.1719 Q558.8125,342.4063 558.8125,342.7813 Q558.8125,343.1719 558.5469,343.4063 Q558.2813,343.6406 557.6719,343.6406 L555.9531,343.6406 Z " fill="#000000"/><text fill="#000000" font-family="sans-serif" font-size="14" font-style="italic" lengthAdjust="spacing" textLength="42" x="569" y="352.7285">Option</text><line style="stroke:#181818;stroke-width:0.5;" x1="541" x2="613" y1="363" y2="363"/><line style="stroke:#181818;stroke-width:0.5;" x1="541" x2="613" y1="371" y2="371"/></g><!--MD5=[db9a76f5ceec3d416a4a0daeaf552bb6]
link CompanyManagement to ServiceContract--><g id="link_CompanyManagement_ServiceContract"><path codeLine="19" d="M363.88,35.94 C234.33,47 6,88.8 6,246 C6,246 6,246 6,356 C6,434.4 72.99,506.06 114.94,543.25 " fill="none" id="CompanyManagement-to-ServiceContract" style="stroke:#181818;stroke-width:1.0;stroke-dasharray:7.0,7.0;"/><polygon fill="#181818" points="118.92,546.74,114.7976,537.7954,115.1633,543.4404,109.5183,543.8061,118.92,546.74" style="stroke:#181818;stroke-width:1.0;"/></g><!--MD5=[b675fbcbdf96fa0ca0e45da8a95e9d8f]
link CompanyManagement to MenuView--><g id="link_CompanyManagement_MenuView"><path codeLine="20" d="M451,55 C451,71 451,92.45 451,109.53 " fill="none" id="CompanyManagement-to-MenuView" style="stroke:#181818;stroke-width:1.0;stroke-dasharray:7.0,7.0;"/><polygon fill="#181818" points="451,114.68,455,105.68,451,109.68,447,105.68,451,114.68" style="stroke:#181818;stroke-width:1.0;"/></g><!--MD5=[9f41010f768c7fe4dfa92fc5f76ccbd3]
link CompanyManagement to Console--><g id="link_CompanyManagement_Console"><path codeLine="21" d="M472.98,55.14 C487.09,70.99 504.97,93.04 517,115 C535.28,148.35 548.15,190.49 555.31,217.84 " fill="none" id="CompanyManagement-to-Console" style="stroke:#181818;stroke-width:1.0;stroke-dasharray:7.0,7.0;"/><polygon fill="#181818" points="556.59,222.76,558.2003,213.0437,555.3337,217.9204,550.457,215.0538,556.59,222.76" style="stroke:#181818;stroke-width:1.0;"/></g><!--MD5=[aed3b4e61f0aadc93823d15e8705445f]
link ServiceContract to Date--><g id="link_ServiceContract_Date"><path codeLine="23" d="M192.05,595 C228.99,614.29 281.06,641.48 315.41,659.41 " fill="none" id="ServiceContract-to-Date" style="stroke:#181818;stroke-width:1.0;stroke-dasharray:7.0,7.0;"/><polygon fill="#181818" points="319.92,661.77,313.7961,654.0565,315.4886,659.4542,310.0909,661.1467,319.92,661.77" style="stroke:#181818;stroke-width:1.0;"/></g><!--MD5=[df8aa8658773f52091bcc1df68fac1d7]
link ServiceContract to Interval--><g id="link_ServiceContract_Interval"><path codeLine="24" d="M148,607 C148,607 148,630.68 148,641.36 " fill="none" id="ServiceContract-Interval" style="stroke:#181818;stroke-width:1.0;"/><polygon fill="#181818" points="148,654.68,152,645.68,148,649.68,144,645.68,148,654.68" style="stroke:#181818;stroke-width:1.0;"/><line style="stroke:#181818;stroke-width:1.0;" x1="148" x2="148" y1="649.68" y2="641.68"/><polygon fill="#181818" points="148,595,144,601,148,607,152,601,148,595" style="stroke:#181818;stroke-width:1.0;"/><text fill="#000000" font-family="sans-serif" font-size="13" lengthAdjust="spacing" textLength="21" x="124.4406" y="644.34">360</text></g><!--MD5=[bd5fce3a8562215e0ca0a5b78df62fff]
link MenuView to ServiceContract--><g id="link_MenuView_ServiceContract"><path codeLine="26" d="M410.93,163.14 C340.79,206.47 198.98,307.46 154,439 C142.47,472.73 142.8,514.2 144.79,541.33 " fill="none" id="MenuView-to-ServiceContract" style="stroke:#181818;stroke-width:1.0;"/><polygon fill="#181818" points="145.21,546.55,148.4774,537.2589,144.8101,541.566,140.5031,537.8987,145.21,546.55" style="stroke:#181818;stroke-width:1.0;"/></g><!--MD5=[dcc2e4004a81e930d0bba2f4a2a42a1d]
link MenuView to Menu--><g id="link_MenuView_Menu"><path codeLine="27" d="M451,163 C451,179 451,200.45 451,217.53 " fill="none" id="MenuView-to-Menu" style="stroke:#181818;stroke-width:1.0;"/><polygon fill="#181818" points="451,222.68,455,213.68,451,217.68,447,213.68,451,222.68" style="stroke:#181818;stroke-width:1.0;"/></g><!--MD5=[d8dd6c9298e197ad625357de93ab3e0c]
link MenuView to Console--><g id="link_MenuView_Console"><path codeLine="28" d="M475.09,163 C492.28,179.42 515.46,201.56 533.56,218.84 " fill="none" id="MenuView-to-Console" style="stroke:#181818;stroke-width:1.0;stroke-dasharray:7.0,7.0;"/><polygon fill="#181818" points="537.58,222.68,533.8411,213.5684,533.9668,219.2239,528.3113,219.3496,537.58,222.68" style="stroke:#181818;stroke-width:1.0;"/></g><!--MD5=[b2ebd754672fc9bcbd76405409281a96]
link CancelOption to Date--><g id="link_CancelOption_Date"><path codeLine="30" d="M269.91,487.31 C286.77,526.95 320.94,607.32 339.08,649.96 " fill="none" id="CancelOption-to-Date" style="stroke:#181818;stroke-width:1.0;stroke-dasharray:7.0,7.0;"/><polygon fill="#181818" points="341.1,654.72,341.2572,644.8724,339.1425,650.1191,333.8958,648.0044,341.1,654.72" style="stroke:#181818;stroke-width:1.0;"/></g><!--MD5=[ab92bd51faf210c1c0cd50b941d89674]
link CancelOption to ServiceContract--><g id="link_CancelOption_ServiceContract"><path codeLine="31" d="M235.7,487 C218.35,503.42 194.96,525.56 176.69,542.84 " fill="none" id="CancelOption-to-ServiceContract" style="stroke:#181818;stroke-width:1.0;stroke-dasharray:7.0,7.0;"/><polygon fill="#181818" points="172.64,546.68,181.922,543.387,176.2671,543.2385,176.4156,537.5836,172.64,546.68" style="stroke:#181818;stroke-width:1.0;"/></g><!--MD5=[942ccf1e3d52e5c701dedbad74b35244]
link EnlargeOption to Date--><g id="link_EnlargeOption_Date"><path codeLine="33" d="M408.92,487.31 C396.91,526.87 372.57,606.99 359.6,649.7 " fill="none" id="EnlargeOption-to-Date" style="stroke:#181818;stroke-width:1.0;stroke-dasharray:7.0,7.0;"/><polygon fill="#181818" points="358.07,654.72,364.4977,647.2577,359.5133,649.9328,356.8382,644.9485,358.07,654.72" style="stroke:#181818;stroke-width:1.0;"/></g><!--MD5=[ef3dec757acde715ca9ef9daefb1ed7a]
link ShiftOption to Date--><g id="link_ShiftOption_Date"><path codeLine="34" d="M540.8,487.31 C501.03,527.27 420.05,608.63 377.88,650.99 " fill="none" id="ShiftOption-to-Date" style="stroke:#181818;stroke-width:1.0;stroke-dasharray:7.0,7.0;"/><polygon fill="#181818" points="374.17,654.72,383.3552,651.1659,377.6984,651.1773,377.687,645.5205,374.17,654.72" style="stroke:#181818;stroke-width:1.0;"/></g><!--MD5=[3aedf839aea1acc0ae01149fb9ee3219]
link Menu to ServiceContract--><g id="link_Menu_ServiceContract"><path codeLine="36" d="M417.17,262.51 C359.79,288.92 243.72,350.39 183,439 C161.7,470.08 153.36,513.5 150.09,541.68 " fill="none" id="Menu-to-ServiceContract" style="stroke:#181818;stroke-width:1.0;"/><polygon fill="#181818" points="149.54,546.76,154.4933,538.2474,150.0828,541.7895,146.5406,537.379,149.54,546.76" style="stroke:#181818;stroke-width:1.0;"/></g><!--MD5=[8daeaf3eedd6c08a0f80d4a90846b3b4]
link Menu to Option--><g id="link_Menu_Option"><path codeLine="37" d="M478.34,271 C498.02,287.55 524.62,309.93 545.24,327.28 " fill="none" id="Menu-to-Option" style="stroke:#181818;stroke-width:1.0;"/><polygon fill="#181818" points="549.28,330.68,544.9591,321.8296,545.4506,327.465,539.8152,327.9566,549.28,330.68" style="stroke:#181818;stroke-width:1.0;"/></g><!--MD5=[db27c364c76abc55725547699ffa083f]
link Menu to CancelOption--><g id="link_Menu_CancelOption"><path codeLine="38" d="M430.2,271.31 C394.6,311.19 322.21,392.3 284.33,434.74 " fill="none" id="Menu-to-CancelOption" style="stroke:#181818;stroke-width:1.0;"/><polygon fill="#181818" points="280.78,438.72,289.7576,434.6699,284.1098,434.9901,283.7897,429.3423,280.78,438.72" style="stroke:#181818;stroke-width:1.0;"/></g><!--MD5=[4fa9ab25f67b4b87f3be576228ebd3af]
link Menu to EnlargeOption--><g id="link_Menu_EnlargeOption"><path codeLine="39" d="M447.19,271.31 C440.72,310.87 427.61,390.99 420.63,433.7 " fill="none" id="Menu-to-EnlargeOption" style="stroke:#181818;stroke-width:1.0;"/><polygon fill="#181818" points="419.81,438.72,425.2236,430.4924,420.625,433.7869,417.3306,429.1883,419.81,438.72" style="stroke:#181818;stroke-width:1.0;"/></g><!--MD5=[34472ef7d93d45876669c188e05bd016]
link Menu to ExitOption--><g id="link_Menu_ExitOption"><path codeLine="40" d="M484.68,263.37 C490.74,266 497.03,268.64 503,271 C578.31,300.73 604.02,292.05 675,331 C728.2,360.19 781.9,406.29 813.28,435.3 " fill="none" id="Menu-to-ExitOption" style="stroke:#181818;stroke-width:1.0;"/><polygon fill="#181818" points="816.99,438.75,813.1221,429.6924,813.3281,435.3456,807.675,435.5515,816.99,438.75" style="stroke:#181818;stroke-width:1.0;"/></g><!--MD5=[07af14581a148e641fd603cb40c2280e]
link Menu to GetCostOption--><g id="link_Menu_GetCostOption"><path codeLine="41" d="M484.53,263.78 C490.61,266.37 496.94,268.89 503,271 C603.17,305.9 634.95,293.04 734,331 C811.11,360.55 895.26,407.28 944.46,436.21 " fill="none" id="Menu-to-GetCostOption" style="stroke:#181818;stroke-width:1.0;"/><polygon fill="#181818" points="948.82,438.78,943.1093,430.7558,944.5162,436.2349,939.0371,437.6419,948.82,438.78" style="stroke:#181818;stroke-width:1.0;"/></g><!--MD5=[27f893628d86aab74ab3b09a64ae1a9a]
link Menu to ShiftOption--><g id="link_Menu_ShiftOption"><path codeLine="42" d="M463.31,271.31 C484.28,311.03 526.85,391.65 549.33,434.22 " fill="none" id="Menu-to-ShiftOption" style="stroke:#181818;stroke-width:1.0;"/><polygon fill="#181818" points="551.71,438.72,551.0371,428.8942,549.3719,434.3004,543.9657,432.6352,551.71,438.72" style="stroke:#181818;stroke-width:1.0;"/></g><!--MD5=[803738a30755b5dfec10f31a19e63733]
link Menu to ShowOption--><g id="link_Menu_ShowOption"><path codeLine="43" d="M484.79,263.17 C536.36,286.37 629.08,328.29 632,331 C662.9,359.73 683.59,404.81 694.58,433.88 " fill="none" id="Menu-to-ShowOption" style="stroke:#181818;stroke-width:1.0;"/><polygon fill="#181818" points="696.39,438.76,697.0015,428.9301,694.6469,434.0737,689.5034,431.7191,696.39,438.76" style="stroke:#181818;stroke-width:1.0;"/></g><!--MD5=[e3fd346c3516c724fc4a640bffce4df1]
reverse link Option to CancelOption--><g id="link_Option_CancelOption"><path codeLine="45" d="M520.67,374.84 C463.99,393.79 376.95,422.89 319.26,442.19 " fill="none" id="Option-backto-CancelOption" style="stroke:#181818;stroke-width:1.0;stroke-dasharray:7.0,7.0;"/><polygon fill="none" points="518.52,368.18,539.7,368.47,522.96,381.45,518.52,368.18" style="stroke:#181818;stroke-width:1.0;"/></g><!--MD5=[19046170cf5041572bf6c16b030fecc3]
reverse link Option to EnlargeOption--><g id="link_Option_EnlargeOption"><path codeLine="46" d="M525.29,390.05 C501.07,405.99 472.84,424.58 451.14,438.86 " fill="none" id="Option-backto-EnlargeOption" style="stroke:#181818;stroke-width:1.0;stroke-dasharray:7.0,7.0;"/><polygon fill="none" points="521.51,384.15,542.07,379,529.21,395.85,521.51,384.15" style="stroke:#181818;stroke-width:1.0;"/></g><!--MD5=[526edcfd2429839a623b8ea8e99bb633]
reverse link Option to ExitOption--><g id="link_Option_ExitOption"><path codeLine="47" d="M632.93,378.46 C680.35,397.5 747.64,424.51 792.73,442.62 " fill="none" id="Option-backto-ExitOption" style="stroke:#181818;stroke-width:1.0;stroke-dasharray:7.0,7.0;"/><polygon fill="none" points="630.22,384.91,614.26,370.96,635.43,371.92,630.22,384.91" style="stroke:#181818;stroke-width:1.0;"/></g><!--MD5=[79c6f7e96243453265e07bfea24cadbc]
reverse link Option to GetCostOption--><g id="link_Option_GetCostOption"><path codeLine="48" d="M633.93,369.7 C699.82,385.71 811.52,413.28 907,439 C912.44,440.47 918.08,442.02 923.73,443.6 " fill="none" id="Option-backto-GetCostOption" style="stroke:#181818;stroke-width:1.0;stroke-dasharray:7.0,7.0;"/><polygon fill="none" points="632.01,376.44,614.22,364.93,635.31,362.84,632.01,376.44" style="stroke:#181818;stroke-width:1.0;"/></g><!--MD5=[cbf13adba2a8be8001390b77ecbc040d]
reverse link Option to ShiftOption--><g id="link_Option_ShiftOption"><path codeLine="49" d="M571.72,399.02 C570.06,412.58 568.29,427.04 566.86,438.68 " fill="none" id="Option-backto-ShiftOption" style="stroke:#181818;stroke-width:1.0;stroke-dasharray:7.0,7.0;"/><polygon fill="none" points="564.8,398,574.18,379,578.69,399.7,564.8,398" style="stroke:#181818;stroke-width:1.0;"/></g><!--MD5=[e23ea6afece6cda16f274ef1ae533cf1]
reverse link Option to ShowOption--><g id="link_Option_ShowOption"><path codeLine="50" d="M619.98,391.87 C638.49,407.33 659.62,424.96 676.06,438.68 " fill="none" id="Option-backto-ShowOption" style="stroke:#181818;stroke-width:1.0;stroke-dasharray:7.0,7.0;"/><polygon fill="none" points="615.43,397.19,604.56,379,624.4,386.44,615.43,397.19" style="stroke:#181818;stroke-width:1.0;"/></g><!--MD5=[b8f0210332e88778d1e94a479556f92c]
@startuml
class CompanyManagement
class ServiceContract
class MenuView
class Menu
class CancelOption
class ShowOption
class ExitOption
class EnlargeOption
class ShiftOption
class GetCostOption

class Date
class Console
class Interval

interface Option


CompanyManagement ..> ServiceContract
CompanyManagement ..> MenuView
CompanyManagement ..> Console

ServiceContract ..> Date
ServiceContract *- -> "360" Interval

MenuView - -> ServiceContract
MenuView - -> Menu
MenuView ..> Console

CancelOption ..> Date
CancelOption ..> ServiceContract

EnlargeOption ..> Date
ShiftOption ..> Date

Menu - -> ServiceContract
Menu - -> Option
Menu - -> CancelOption
Menu - -> EnlargeOption
Menu - -> ExitOption
Menu - -> GetCostOption
Menu - -> ShiftOption
Menu - -> ShowOption

Option <|.. CancelOption
Option <|.. EnlargeOption
Option <|.. ExitOption
Option <|.. GetCostOption
Option <|.. ShiftOption
Option <|.. ShowOption


@enduml

PlantUML version 1.2022.7(Mon Aug 22 19:01:30 CEST 2022)
(GPL source distribution)
Java Runtime: OpenJDK Runtime Environment
JVM: OpenJDK 64-Bit Server VM
Default Encoding: UTF-8
Language: es
Country: ES
--></g></svg>