<?xml version="1.0" encoding="UTF-8" standalone="no"?><svg xmlns="http://www.w3.org/2000/svg" xmlns:xlink="http://www.w3.org/1999/xlink" contentStyleType="text/css" height="602px" preserveAspectRatio="none" style="width:1157px;height:602px;background:#FFFFFF;" version="1.1" viewBox="0 0 1157 602" width="1157px" zoomAndPan="magnify"><defs/><g><!--MD5=[b92924a051eb15925d91c85b39483d30]
class CompanyManagement--><g id="elem_CompanyManagement"><rect codeLine="1" fill="#F1F1F1" height="48" id="CompanyManagement" rx="2.5" ry="2.5" style="stroke:#181818;stroke-width:0.5;" width="174" x="95.5" y="7"/><ellipse cx="110.5" cy="23" fill="#ADD1B2" rx="11" ry="11" style="stroke:#181818;stroke-width:1.0;"/><path d="M113.2656,18.875 Q113.4219,18.6563 113.6094,18.5469 Q113.7969,18.4375 114.0156,18.4375 Q114.3906,18.4375 114.625,18.7031 Q114.8594,18.9531 114.8594,19.5625 L114.8594,21.0156 Q114.8594,21.625 114.625,21.8906 Q114.3906,22.1563 114.0156,22.1563 Q113.6719,22.1563 113.4688,21.9531 Q113.2656,21.7656 113.1563,21.25 Q113.1094,20.8906 112.9219,20.7031 Q112.5938,20.3281 111.9844,20.1094 Q111.375,19.8906 110.75,19.8906 Q109.9844,19.8906 109.3438,20.2188 Q108.7188,20.5469 108.2188,21.2969 Q107.7344,22.0469 107.7344,23.0781 L107.7344,24.1719 Q107.7344,25.4063 108.625,26.2344 Q109.5156,27.0469 111.1094,27.0469 Q112.0469,27.0469 112.7031,26.7969 Q113.0938,26.6406 113.5156,26.2031 Q113.7813,25.9375 113.9219,25.8594 Q114.0781,25.7813 114.2813,25.7813 Q114.6094,25.7813 114.8594,26.0469 Q115.125,26.2969 115.125,26.6406 Q115.125,26.9844 114.7813,27.3906 Q114.2813,27.9688 113.4844,28.2969 Q112.4063,28.75 111.1094,28.75 Q109.5938,28.75 108.3906,28.125 Q107.4063,27.625 106.7188,26.5625 Q106.0313,25.4844 106.0313,24.2031 L106.0313,23.0469 Q106.0313,21.7188 106.6406,20.5781 Q107.2656,19.4219 108.3594,18.8125 Q109.4531,18.1875 110.6875,18.1875 Q111.4219,18.1875 112.0625,18.3594 Q112.7188,18.5156 113.2656,18.875 Z " fill="#000000"/><text fill="#000000" font-family="sans-serif" font-size="14" lengthAdjust="spacing" textLength="142" x="124.5" y="28.7285">CompanyManagement</text><line style="stroke:#181818;stroke-width:0.5;" x1="96.5" x2="268.5" y1="39" y2="39"/><line style="stroke:#181818;stroke-width:0.5;" x1="96.5" x2="268.5" y1="47" y2="47"/></g><!--MD5=[dd4f49095d0e7eece5ef1fa0d36891f4]
class ServiceContract--><g id="elem_ServiceContract"><rect codeLine="2" fill="#F1F1F1" height="48" id="ServiceContract" rx="2.5" ry="2.5" style="stroke:#181818;stroke-width:0.5;" width="133" x="7" y="439"/><ellipse cx="22" cy="455" fill="#ADD1B2" rx="11" ry="11" style="stroke:#181818;stroke-width:1.0;"/><path d="M24.7656,450.875 Q24.9219,450.6563 25.1094,450.5469 Q25.2969,450.4375 25.5156,450.4375 Q25.8906,450.4375 26.125,450.7031 Q26.3594,450.9531 26.3594,451.5625 L26.3594,453.0156 Q26.3594,453.625 26.125,453.8906 Q25.8906,454.1563 25.5156,454.1563 Q25.1719,454.1563 24.9688,453.9531 Q24.7656,453.7656 24.6563,453.25 Q24.6094,452.8906 24.4219,452.7031 Q24.0938,452.3281 23.4844,452.1094 Q22.875,451.8906 22.25,451.8906 Q21.4844,451.8906 20.8438,452.2188 Q20.2188,452.5469 19.7188,453.2969 Q19.2344,454.0469 19.2344,455.0781 L19.2344,456.1719 Q19.2344,457.4063 20.125,458.2344 Q21.0156,459.0469 22.6094,459.0469 Q23.5469,459.0469 24.2031,458.7969 Q24.5938,458.6406 25.0156,458.2031 Q25.2813,457.9375 25.4219,457.8594 Q25.5781,457.7813 25.7813,457.7813 Q26.1094,457.7813 26.3594,458.0469 Q26.625,458.2969 26.625,458.6406 Q26.625,458.9844 26.2813,459.3906 Q25.7813,459.9688 24.9844,460.2969 Q23.9063,460.75 22.6094,460.75 Q21.0938,460.75 19.8906,460.125 Q18.9063,459.625 18.2188,458.5625 Q17.5313,457.4844 17.5313,456.2031 L17.5313,455.0469 Q17.5313,453.7188 18.1406,452.5781 Q18.7656,451.4219 19.8594,450.8125 Q20.9531,450.1875 22.1875,450.1875 Q22.9219,450.1875 23.5625,450.3594 Q24.2188,450.5156 24.7656,450.875 Z " fill="#000000"/><text fill="#000000" font-family="sans-serif" font-size="14" lengthAdjust="spacing" textLength="101" x="36" y="460.7285">ServiceContract</text><line style="stroke:#181818;stroke-width:0.5;" x1="8" x2="139" y1="471" y2="471"/><line style="stroke:#181818;stroke-width:0.5;" x1="8" x2="139" y1="479" y2="479"/></g><!--MD5=[ffa1e2525175dc6e0bec0a9847c37beb]
class ServiceContractView--><g id="elem_ServiceContractView"><rect codeLine="3" fill="#F1F1F1" height="48" id="ServiceContractView" rx="2.5" ry="2.5" style="stroke:#181818;stroke-width:0.5;" width="162" x="139.5" y="331"/><ellipse cx="154.5" cy="347" fill="#ADD1B2" rx="11" ry="11" style="stroke:#181818;stroke-width:1.0;"/><path d="M157.2656,342.875 Q157.4219,342.6563 157.6094,342.5469 Q157.7969,342.4375 158.0156,342.4375 Q158.3906,342.4375 158.625,342.7031 Q158.8594,342.9531 158.8594,343.5625 L158.8594,345.0156 Q158.8594,345.625 158.625,345.8906 Q158.3906,346.1563 158.0156,346.1563 Q157.6719,346.1563 157.4688,345.9531 Q157.2656,345.7656 157.1563,345.25 Q157.1094,344.8906 156.9219,344.7031 Q156.5938,344.3281 155.9844,344.1094 Q155.375,343.8906 154.75,343.8906 Q153.9844,343.8906 153.3438,344.2188 Q152.7188,344.5469 152.2188,345.2969 Q151.7344,346.0469 151.7344,347.0781 L151.7344,348.1719 Q151.7344,349.4063 152.625,350.2344 Q153.5156,351.0469 155.1094,351.0469 Q156.0469,351.0469 156.7031,350.7969 Q157.0938,350.6406 157.5156,350.2031 Q157.7813,349.9375 157.9219,349.8594 Q158.0781,349.7813 158.2813,349.7813 Q158.6094,349.7813 158.8594,350.0469 Q159.125,350.2969 159.125,350.6406 Q159.125,350.9844 158.7813,351.3906 Q158.2813,351.9688 157.4844,352.2969 Q156.4063,352.75 155.1094,352.75 Q153.5938,352.75 152.3906,352.125 Q151.4063,351.625 150.7188,350.5625 Q150.0313,349.4844 150.0313,348.2031 L150.0313,347.0469 Q150.0313,345.7188 150.6406,344.5781 Q151.2656,343.4219 152.3594,342.8125 Q153.4531,342.1875 154.6875,342.1875 Q155.4219,342.1875 156.0625,342.3594 Q156.7188,342.5156 157.2656,342.875 Z " fill="#000000"/><text fill="#000000" font-family="sans-serif" font-size="14" lengthAdjust="spacing" textLength="130" x="168.5" y="352.7285">ServiceContractView</text><line style="stroke:#181818;stroke-width:0.5;" x1="140.5" x2="300.5" y1="363" y2="363"/><line style="stroke:#181818;stroke-width:0.5;" x1="140.5" x2="300.5" y1="371" y2="371"/></g><!--MD5=[f6bfa8e6ad2e37edcd578b647fafadda]
class MenuView--><g id="elem_MenuView"><rect codeLine="4" fill="#F1F1F1" height="48" id="MenuView" rx="2.5" ry="2.5" style="stroke:#181818;stroke-width:0.5;" width="96" x="235.5" y="115"/><ellipse cx="250.5" cy="131" fill="#ADD1B2" rx="11" ry="11" style="stroke:#181818;stroke-width:1.0;"/><path d="M253.2656,126.875 Q253.4219,126.6563 253.6094,126.5469 Q253.7969,126.4375 254.0156,126.4375 Q254.3906,126.4375 254.625,126.7031 Q254.8594,126.9531 254.8594,127.5625 L254.8594,129.0156 Q254.8594,129.625 254.625,129.8906 Q254.3906,130.1563 254.0156,130.1563 Q253.6719,130.1563 253.4688,129.9531 Q253.2656,129.7656 253.1563,129.25 Q253.1094,128.8906 252.9219,128.7031 Q252.5938,128.3281 251.9844,128.1094 Q251.375,127.8906 250.75,127.8906 Q249.9844,127.8906 249.3438,128.2188 Q248.7188,128.5469 248.2188,129.2969 Q247.7344,130.0469 247.7344,131.0781 L247.7344,132.1719 Q247.7344,133.4063 248.625,134.2344 Q249.5156,135.0469 251.1094,135.0469 Q252.0469,135.0469 252.7031,134.7969 Q253.0938,134.6406 253.5156,134.2031 Q253.7813,133.9375 253.9219,133.8594 Q254.0781,133.7813 254.2813,133.7813 Q254.6094,133.7813 254.8594,134.0469 Q255.125,134.2969 255.125,134.6406 Q255.125,134.9844 254.7813,135.3906 Q254.2813,135.9688 253.4844,136.2969 Q252.4063,136.75 251.1094,136.75 Q249.5938,136.75 248.3906,136.125 Q247.4063,135.625 246.7188,134.5625 Q246.0313,133.4844 246.0313,132.2031 L246.0313,131.0469 Q246.0313,129.7188 246.6406,128.5781 Q247.2656,127.4219 248.3594,126.8125 Q249.4531,126.1875 250.6875,126.1875 Q251.4219,126.1875 252.0625,126.3594 Q252.7188,126.5156 253.2656,126.875 Z " fill="#000000"/><text fill="#000000" font-family="sans-serif" font-size="14" lengthAdjust="spacing" textLength="64" x="264.5" y="136.7285">MenuView</text><line style="stroke:#181818;stroke-width:0.5;" x1="236.5" x2="330.5" y1="147" y2="147"/><line style="stroke:#181818;stroke-width:0.5;" x1="236.5" x2="330.5" y1="155" y2="155"/></g><!--MD5=[f0268dd29ee89052933f031546cb1cab]
class Menu--><g id="elem_Menu"><rect codeLine="5" fill="#F1F1F1" height="48" id="Menu" rx="2.5" ry="2.5" style="stroke:#181818;stroke-width:0.5;" width="67" x="565" y="223"/><ellipse cx="580" cy="239" fill="#ADD1B2" rx="11" ry="11" style="stroke:#181818;stroke-width:1.0;"/><path d="M582.7656,234.875 Q582.9219,234.6563 583.1094,234.5469 Q583.2969,234.4375 583.5156,234.4375 Q583.8906,234.4375 584.125,234.7031 Q584.3594,234.9531 584.3594,235.5625 L584.3594,237.0156 Q584.3594,237.625 584.125,237.8906 Q583.8906,238.1563 583.5156,238.1563 Q583.1719,238.1563 582.9688,237.9531 Q582.7656,237.7656 582.6563,237.25 Q582.6094,236.8906 582.4219,236.7031 Q582.0938,236.3281 581.4844,236.1094 Q580.875,235.8906 580.25,235.8906 Q579.4844,235.8906 578.8438,236.2188 Q578.2188,236.5469 577.7188,237.2969 Q577.2344,238.0469 577.2344,239.0781 L577.2344,240.1719 Q577.2344,241.4063 578.125,242.2344 Q579.0156,243.0469 580.6094,243.0469 Q581.5469,243.0469 582.2031,242.7969 Q582.5938,242.6406 583.0156,242.2031 Q583.2813,241.9375 583.4219,241.8594 Q583.5781,241.7813 583.7813,241.7813 Q584.1094,241.7813 584.3594,242.0469 Q584.625,242.2969 584.625,242.6406 Q584.625,242.9844 584.2813,243.3906 Q583.7813,243.9688 582.9844,244.2969 Q581.9063,244.75 580.6094,244.75 Q579.0938,244.75 577.8906,244.125 Q576.9063,243.625 576.2188,242.5625 Q575.5313,241.4844 575.5313,240.2031 L575.5313,239.0469 Q575.5313,237.7188 576.1406,236.5781 Q576.7656,235.4219 577.8594,234.8125 Q578.9531,234.1875 580.1875,234.1875 Q580.9219,234.1875 581.5625,234.3594 Q582.2188,234.5156 582.7656,234.875 Z " fill="#000000"/><text fill="#000000" font-family="sans-serif" font-size="14" lengthAdjust="spacing" textLength="35" x="594" y="244.7285">Menu</text><line style="stroke:#181818;stroke-width:0.5;" x1="566" x2="631" y1="255" y2="255"/><line style="stroke:#181818;stroke-width:0.5;" x1="566" x2="631" y1="263" y2="263"/></g><!--MD5=[6506bea503710dcab8a6a46b73fb74a1]
class CancelOption--><g id="elem_CancelOption"><rect codeLine="6" fill="#F1F1F1" height="48" id="CancelOption" rx="2.5" ry="2.5" style="stroke:#181818;stroke-width:0.5;" width="118" x="301.5" y="439"/><ellipse cx="316.5" cy="455" fill="#ADD1B2" rx="11" ry="11" style="stroke:#181818;stroke-width:1.0;"/><path d="M319.2656,450.875 Q319.4219,450.6563 319.6094,450.5469 Q319.7969,450.4375 320.0156,450.4375 Q320.3906,450.4375 320.625,450.7031 Q320.8594,450.9531 320.8594,451.5625 L320.8594,453.0156 Q320.8594,453.625 320.625,453.8906 Q320.3906,454.1563 320.0156,454.1563 Q319.6719,454.1563 319.4688,453.9531 Q319.2656,453.7656 319.1563,453.25 Q319.1094,452.8906 318.9219,452.7031 Q318.5938,452.3281 317.9844,452.1094 Q317.375,451.8906 316.75,451.8906 Q315.9844,451.8906 315.3438,452.2188 Q314.7188,452.5469 314.2188,453.2969 Q313.7344,454.0469 313.7344,455.0781 L313.7344,456.1719 Q313.7344,457.4063 314.625,458.2344 Q315.5156,459.0469 317.1094,459.0469 Q318.0469,459.0469 318.7031,458.7969 Q319.0938,458.6406 319.5156,458.2031 Q319.7813,457.9375 319.9219,457.8594 Q320.0781,457.7813 320.2813,457.7813 Q320.6094,457.7813 320.8594,458.0469 Q321.125,458.2969 321.125,458.6406 Q321.125,458.9844 320.7813,459.3906 Q320.2813,459.9688 319.4844,460.2969 Q318.4063,460.75 317.1094,460.75 Q315.5938,460.75 314.3906,460.125 Q313.4063,459.625 312.7188,458.5625 Q312.0313,457.4844 312.0313,456.2031 L312.0313,455.0469 Q312.0313,453.7188 312.6406,452.5781 Q313.2656,451.4219 314.3594,450.8125 Q315.4531,450.1875 316.6875,450.1875 Q317.4219,450.1875 318.0625,450.3594 Q318.7188,450.5156 319.2656,450.875 Z " fill="#000000"/><text fill="#000000" font-family="sans-serif" font-size="14" lengthAdjust="spacing" textLength="86" x="330.5" y="460.7285">CancelOption</text><line style="stroke:#181818;stroke-width:0.5;" x1="302.5" x2="418.5" y1="471" y2="471"/><line style="stroke:#181818;stroke-width:0.5;" x1="302.5" x2="418.5" y1="479" y2="479"/></g><!--MD5=[fdd6ecfabaf96fbf4f00aac0b493efe3]
class ShowOption--><g id="elem_ShowOption"><rect codeLine="7" fill="#F1F1F1" height="48" id="ShowOption" rx="2.5" ry="2.5" style="stroke:#181818;stroke-width:0.5;" width="108" x="454.5" y="439"/><ellipse cx="469.5" cy="455" fill="#ADD1B2" rx="11" ry="11" style="stroke:#181818;stroke-width:1.0;"/><path d="M472.2656,450.875 Q472.4219,450.6563 472.6094,450.5469 Q472.7969,450.4375 473.0156,450.4375 Q473.3906,450.4375 473.625,450.7031 Q473.8594,450.9531 473.8594,451.5625 L473.8594,453.0156 Q473.8594,453.625 473.625,453.8906 Q473.3906,454.1563 473.0156,454.1563 Q472.6719,454.1563 472.4688,453.9531 Q472.2656,453.7656 472.1563,453.25 Q472.1094,452.8906 471.9219,452.7031 Q471.5938,452.3281 470.9844,452.1094 Q470.375,451.8906 469.75,451.8906 Q468.9844,451.8906 468.3438,452.2188 Q467.7188,452.5469 467.2188,453.2969 Q466.7344,454.0469 466.7344,455.0781 L466.7344,456.1719 Q466.7344,457.4063 467.625,458.2344 Q468.5156,459.0469 470.1094,459.0469 Q471.0469,459.0469 471.7031,458.7969 Q472.0938,458.6406 472.5156,458.2031 Q472.7813,457.9375 472.9219,457.8594 Q473.0781,457.7813 473.2813,457.7813 Q473.6094,457.7813 473.8594,458.0469 Q474.125,458.2969 474.125,458.6406 Q474.125,458.9844 473.7813,459.3906 Q473.2813,459.9688 472.4844,460.2969 Q471.4063,460.75 470.1094,460.75 Q468.5938,460.75 467.3906,460.125 Q466.4063,459.625 465.7188,458.5625 Q465.0313,457.4844 465.0313,456.2031 L465.0313,455.0469 Q465.0313,453.7188 465.6406,452.5781 Q466.2656,451.4219 467.3594,450.8125 Q468.4531,450.1875 469.6875,450.1875 Q470.4219,450.1875 471.0625,450.3594 Q471.7188,450.5156 472.2656,450.875 Z " fill="#000000"/><text fill="#000000" font-family="sans-serif" font-size="14" lengthAdjust="spacing" textLength="76" x="483.5" y="460.7285">ShowOption</text><line style="stroke:#181818;stroke-width:0.5;" x1="455.5" x2="561.5" y1="471" y2="471"/><line style="stroke:#181818;stroke-width:0.5;" x1="455.5" x2="561.5" y1="479" y2="479"/></g><!--MD5=[48ff7231d024078491841a820ee16411]
class ExitOption--><g id="elem_ExitOption"><rect codeLine="8" fill="#F1F1F1" height="48" id="ExitOption" rx="2.5" ry="2.5" style="stroke:#181818;stroke-width:0.5;" width="96" x="597.5" y="439"/><ellipse cx="612.5" cy="455" fill="#ADD1B2" rx="11" ry="11" style="stroke:#181818;stroke-width:1.0;"/><path d="M615.2656,450.875 Q615.4219,450.6563 615.6094,450.5469 Q615.7969,450.4375 616.0156,450.4375 Q616.3906,450.4375 616.625,450.7031 Q616.8594,450.9531 616.8594,451.5625 L616.8594,453.0156 Q616.8594,453.625 616.625,453.8906 Q616.3906,454.1563 616.0156,454.1563 Q615.6719,454.1563 615.4688,453.9531 Q615.2656,453.7656 615.1563,453.25 Q615.1094,452.8906 614.9219,452.7031 Q614.5938,452.3281 613.9844,452.1094 Q613.375,451.8906 612.75,451.8906 Q611.9844,451.8906 611.3438,452.2188 Q610.7188,452.5469 610.2188,453.2969 Q609.7344,454.0469 609.7344,455.0781 L609.7344,456.1719 Q609.7344,457.4063 610.625,458.2344 Q611.5156,459.0469 613.1094,459.0469 Q614.0469,459.0469 614.7031,458.7969 Q615.0938,458.6406 615.5156,458.2031 Q615.7813,457.9375 615.9219,457.8594 Q616.0781,457.7813 616.2813,457.7813 Q616.6094,457.7813 616.8594,458.0469 Q617.125,458.2969 617.125,458.6406 Q617.125,458.9844 616.7813,459.3906 Q616.2813,459.9688 615.4844,460.2969 Q614.4063,460.75 613.1094,460.75 Q611.5938,460.75 610.3906,460.125 Q609.4063,459.625 608.7188,458.5625 Q608.0313,457.4844 608.0313,456.2031 L608.0313,455.0469 Q608.0313,453.7188 608.6406,452.5781 Q609.2656,451.4219 610.3594,450.8125 Q611.4531,450.1875 612.6875,450.1875 Q613.4219,450.1875 614.0625,450.3594 Q614.7188,450.5156 615.2656,450.875 Z " fill="#000000"/><text fill="#000000" font-family="sans-serif" font-size="14" lengthAdjust="spacing" textLength="64" x="626.5" y="460.7285">ExitOption</text><line style="stroke:#181818;stroke-width:0.5;" x1="598.5" x2="692.5" y1="471" y2="471"/><line style="stroke:#181818;stroke-width:0.5;" x1="598.5" x2="692.5" y1="479" y2="479"/></g><!--MD5=[a819b5cb5440bf47c68e0253f1faedfb]
class EnlargeOption--><g id="elem_EnlargeOption"><rect codeLine="9" fill="#F1F1F1" height="48" id="EnlargeOption" rx="2.5" ry="2.5" style="stroke:#181818;stroke-width:0.5;" width="123" x="729" y="439"/><ellipse cx="744" cy="455" fill="#ADD1B2" rx="11" ry="11" style="stroke:#181818;stroke-width:1.0;"/><path d="M746.7656,450.875 Q746.9219,450.6563 747.1094,450.5469 Q747.2969,450.4375 747.5156,450.4375 Q747.8906,450.4375 748.125,450.7031 Q748.3594,450.9531 748.3594,451.5625 L748.3594,453.0156 Q748.3594,453.625 748.125,453.8906 Q747.8906,454.1563 747.5156,454.1563 Q747.1719,454.1563 746.9688,453.9531 Q746.7656,453.7656 746.6563,453.25 Q746.6094,452.8906 746.4219,452.7031 Q746.0938,452.3281 745.4844,452.1094 Q744.875,451.8906 744.25,451.8906 Q743.4844,451.8906 742.8438,452.2188 Q742.2188,452.5469 741.7188,453.2969 Q741.2344,454.0469 741.2344,455.0781 L741.2344,456.1719 Q741.2344,457.4063 742.125,458.2344 Q743.0156,459.0469 744.6094,459.0469 Q745.5469,459.0469 746.2031,458.7969 Q746.5938,458.6406 747.0156,458.2031 Q747.2813,457.9375 747.4219,457.8594 Q747.5781,457.7813 747.7813,457.7813 Q748.1094,457.7813 748.3594,458.0469 Q748.625,458.2969 748.625,458.6406 Q748.625,458.9844 748.2813,459.3906 Q747.7813,459.9688 746.9844,460.2969 Q745.9063,460.75 744.6094,460.75 Q743.0938,460.75 741.8906,460.125 Q740.9063,459.625 740.2188,458.5625 Q739.5313,457.4844 739.5313,456.2031 L739.5313,455.0469 Q739.5313,453.7188 740.1406,452.5781 Q740.7656,451.4219 741.8594,450.8125 Q742.9531,450.1875 744.1875,450.1875 Q744.9219,450.1875 745.5625,450.3594 Q746.2188,450.5156 746.7656,450.875 Z " fill="#000000"/><text fill="#000000" font-family="sans-serif" font-size="14" lengthAdjust="spacing" textLength="91" x="758" y="460.7285">EnlargeOption</text><line style="stroke:#181818;stroke-width:0.5;" x1="730" x2="851" y1="471" y2="471"/><line style="stroke:#181818;stroke-width:0.5;" x1="730" x2="851" y1="479" y2="479"/></g><!--MD5=[03a279042868af39cebd3e3290aa818a]
class ShiftOption--><g id="elem_ShiftOption"><rect codeLine="10" fill="#F1F1F1" height="48" id="ShiftOption" rx="2.5" ry="2.5" style="stroke:#181818;stroke-width:0.5;" width="102" x="887.5" y="439"/><ellipse cx="902.5" cy="455" fill="#ADD1B2" rx="11" ry="11" style="stroke:#181818;stroke-width:1.0;"/><path d="M905.2656,450.875 Q905.4219,450.6563 905.6094,450.5469 Q905.7969,450.4375 906.0156,450.4375 Q906.3906,450.4375 906.625,450.7031 Q906.8594,450.9531 906.8594,451.5625 L906.8594,453.0156 Q906.8594,453.625 906.625,453.8906 Q906.3906,454.1563 906.0156,454.1563 Q905.6719,454.1563 905.4688,453.9531 Q905.2656,453.7656 905.1563,453.25 Q905.1094,452.8906 904.9219,452.7031 Q904.5938,452.3281 903.9844,452.1094 Q903.375,451.8906 902.75,451.8906 Q901.9844,451.8906 901.3438,452.2188 Q900.7188,452.5469 900.2188,453.2969 Q899.7344,454.0469 899.7344,455.0781 L899.7344,456.1719 Q899.7344,457.4063 900.625,458.2344 Q901.5156,459.0469 903.1094,459.0469 Q904.0469,459.0469 904.7031,458.7969 Q905.0938,458.6406 905.5156,458.2031 Q905.7813,457.9375 905.9219,457.8594 Q906.0781,457.7813 906.2813,457.7813 Q906.6094,457.7813 906.8594,458.0469 Q907.125,458.2969 907.125,458.6406 Q907.125,458.9844 906.7813,459.3906 Q906.2813,459.9688 905.4844,460.2969 Q904.4063,460.75 903.1094,460.75 Q901.5938,460.75 900.3906,460.125 Q899.4063,459.625 898.7188,458.5625 Q898.0313,457.4844 898.0313,456.2031 L898.0313,455.0469 Q898.0313,453.7188 898.6406,452.5781 Q899.2656,451.4219 900.3594,450.8125 Q901.4531,450.1875 902.6875,450.1875 Q903.4219,450.1875 904.0625,450.3594 Q904.7188,450.5156 905.2656,450.875 Z " fill="#000000"/><text fill="#000000" font-family="sans-serif" font-size="14" lengthAdjust="spacing" textLength="70" x="916.5" y="460.7285">ShiftOption</text><line style="stroke:#181818;stroke-width:0.5;" x1="888.5" x2="988.5" y1="471" y2="471"/><line style="stroke:#181818;stroke-width:0.5;" x1="888.5" x2="988.5" y1="479" y2="479"/></g><!--MD5=[90dc96bfd633d7918e72cd3f4daac441]
class GetCostOption--><g id="elem_GetCostOption"><rect codeLine="11" fill="#F1F1F1" height="48" id="GetCostOption" rx="2.5" ry="2.5" style="stroke:#181818;stroke-width:0.5;" width="126" x="1024.5" y="439"/><ellipse cx="1039.5" cy="455" fill="#ADD1B2" rx="11" ry="11" style="stroke:#181818;stroke-width:1.0;"/><path d="M1042.2656,450.875 Q1042.4219,450.6563 1042.6094,450.5469 Q1042.7969,450.4375 1043.0156,450.4375 Q1043.3906,450.4375 1043.625,450.7031 Q1043.8594,450.9531 1043.8594,451.5625 L1043.8594,453.0156 Q1043.8594,453.625 1043.625,453.8906 Q1043.3906,454.1563 1043.0156,454.1563 Q1042.6719,454.1563 1042.4688,453.9531 Q1042.2656,453.7656 1042.1563,453.25 Q1042.1094,452.8906 1041.9219,452.7031 Q1041.5938,452.3281 1040.9844,452.1094 Q1040.375,451.8906 1039.75,451.8906 Q1038.9844,451.8906 1038.3438,452.2188 Q1037.7188,452.5469 1037.2188,453.2969 Q1036.7344,454.0469 1036.7344,455.0781 L1036.7344,456.1719 Q1036.7344,457.4063 1037.625,458.2344 Q1038.5156,459.0469 1040.1094,459.0469 Q1041.0469,459.0469 1041.7031,458.7969 Q1042.0938,458.6406 1042.5156,458.2031 Q1042.7813,457.9375 1042.9219,457.8594 Q1043.0781,457.7813 1043.2813,457.7813 Q1043.6094,457.7813 1043.8594,458.0469 Q1044.125,458.2969 1044.125,458.6406 Q1044.125,458.9844 1043.7813,459.3906 Q1043.2813,459.9688 1042.4844,460.2969 Q1041.4063,460.75 1040.1094,460.75 Q1038.5938,460.75 1037.3906,460.125 Q1036.4063,459.625 1035.7188,458.5625 Q1035.0313,457.4844 1035.0313,456.2031 L1035.0313,455.0469 Q1035.0313,453.7188 1035.6406,452.5781 Q1036.2656,451.4219 1037.3594,450.8125 Q1038.4531,450.1875 1039.6875,450.1875 Q1040.4219,450.1875 1041.0625,450.3594 Q1041.7188,450.5156 1042.2656,450.875 Z " fill="#000000"/><text fill="#000000" font-family="sans-serif" font-size="14" lengthAdjust="spacing" textLength="94" x="1053.5" y="460.7285">GetCostOption</text><line style="stroke:#181818;stroke-width:0.5;" x1="1025.5" x2="1149.5" y1="471" y2="471"/><line style="stroke:#181818;stroke-width:0.5;" x1="1025.5" x2="1149.5" y1="479" y2="479"/></g><!--MD5=[7829b64950ce38e0487c4015ea331f97]
class Date--><g id="elem_Date"><rect codeLine="13" fill="#F1F1F1" height="48" id="Date" rx="2.5" ry="2.5" style="stroke:#181818;stroke-width:0.5;" width="62" x="168.5" y="547"/><ellipse cx="183.5" cy="563" fill="#ADD1B2" rx="11" ry="11" style="stroke:#181818;stroke-width:1.0;"/><path d="M186.2656,558.875 Q186.4219,558.6563 186.6094,558.5469 Q186.7969,558.4375 187.0156,558.4375 Q187.3906,558.4375 187.625,558.7031 Q187.8594,558.9531 187.8594,559.5625 L187.8594,561.0156 Q187.8594,561.625 187.625,561.8906 Q187.3906,562.1563 187.0156,562.1563 Q186.6719,562.1563 186.4688,561.9531 Q186.2656,561.7656 186.1563,561.25 Q186.1094,560.8906 185.9219,560.7031 Q185.5938,560.3281 184.9844,560.1094 Q184.375,559.8906 183.75,559.8906 Q182.9844,559.8906 182.3438,560.2188 Q181.7188,560.5469 181.2188,561.2969 Q180.7344,562.0469 180.7344,563.0781 L180.7344,564.1719 Q180.7344,565.4063 181.625,566.2344 Q182.5156,567.0469 184.1094,567.0469 Q185.0469,567.0469 185.7031,566.7969 Q186.0938,566.6406 186.5156,566.2031 Q186.7813,565.9375 186.9219,565.8594 Q187.0781,565.7813 187.2813,565.7813 Q187.6094,565.7813 187.8594,566.0469 Q188.125,566.2969 188.125,566.6406 Q188.125,566.9844 187.7813,567.3906 Q187.2813,567.9688 186.4844,568.2969 Q185.4063,568.75 184.1094,568.75 Q182.5938,568.75 181.3906,568.125 Q180.4063,567.625 179.7188,566.5625 Q179.0313,565.4844 179.0313,564.2031 L179.0313,563.0469 Q179.0313,561.7188 179.6406,560.5781 Q180.2656,559.4219 181.3594,558.8125 Q182.4531,558.1875 183.6875,558.1875 Q184.4219,558.1875 185.0625,558.3594 Q185.7188,558.5156 186.2656,558.875 Z " fill="#000000"/><text fill="#000000" font-family="sans-serif" font-size="14" lengthAdjust="spacing" textLength="30" x="197.5" y="568.7285">Date</text><line style="stroke:#181818;stroke-width:0.5;" x1="169.5" x2="229.5" y1="579" y2="579"/><line style="stroke:#181818;stroke-width:0.5;" x1="169.5" x2="229.5" y1="587" y2="587"/></g><!--MD5=[22ca386cc507625819c4bb3cadd80af5]
class DateView--><g id="elem_DateView"><rect codeLine="14" fill="#F1F1F1" height="48" id="DateView" rx="2.5" ry="2.5" style="stroke:#181818;stroke-width:0.5;" width="91" x="175" y="439"/><ellipse cx="190" cy="455" fill="#ADD1B2" rx="11" ry="11" style="stroke:#181818;stroke-width:1.0;"/><path d="M192.7656,450.875 Q192.9219,450.6563 193.1094,450.5469 Q193.2969,450.4375 193.5156,450.4375 Q193.8906,450.4375 194.125,450.7031 Q194.3594,450.9531 194.3594,451.5625 L194.3594,453.0156 Q194.3594,453.625 194.125,453.8906 Q193.8906,454.1563 193.5156,454.1563 Q193.1719,454.1563 192.9688,453.9531 Q192.7656,453.7656 192.6563,453.25 Q192.6094,452.8906 192.4219,452.7031 Q192.0938,452.3281 191.4844,452.1094 Q190.875,451.8906 190.25,451.8906 Q189.4844,451.8906 188.8438,452.2188 Q188.2188,452.5469 187.7188,453.2969 Q187.2344,454.0469 187.2344,455.0781 L187.2344,456.1719 Q187.2344,457.4063 188.125,458.2344 Q189.0156,459.0469 190.6094,459.0469 Q191.5469,459.0469 192.2031,458.7969 Q192.5938,458.6406 193.0156,458.2031 Q193.2813,457.9375 193.4219,457.8594 Q193.5781,457.7813 193.7813,457.7813 Q194.1094,457.7813 194.3594,458.0469 Q194.625,458.2969 194.625,458.6406 Q194.625,458.9844 194.2813,459.3906 Q193.7813,459.9688 192.9844,460.2969 Q191.9063,460.75 190.6094,460.75 Q189.0938,460.75 187.8906,460.125 Q186.9063,459.625 186.2188,458.5625 Q185.5313,457.4844 185.5313,456.2031 L185.5313,455.0469 Q185.5313,453.7188 186.1406,452.5781 Q186.7656,451.4219 187.8594,450.8125 Q188.9531,450.1875 190.1875,450.1875 Q190.9219,450.1875 191.5625,450.3594 Q192.2188,450.5156 192.7656,450.875 Z " fill="#000000"/><text fill="#000000" font-family="sans-serif" font-size="14" lengthAdjust="spacing" textLength="59" x="204" y="460.7285">DateView</text><line style="stroke:#181818;stroke-width:0.5;" x1="176" x2="265" y1="471" y2="471"/><line style="stroke:#181818;stroke-width:0.5;" x1="176" x2="265" y1="479" y2="479"/></g><!--MD5=[94b2979dc8db7061b05b681130e8ecb6]
class Interval--><g id="elem_Interval"><rect codeLine="15" fill="#F1F1F1" height="48" id="Interval" rx="2.5" ry="2.5" style="stroke:#181818;stroke-width:0.5;" width="78" x="34.5" y="547"/><ellipse cx="49.5" cy="563" fill="#ADD1B2" rx="11" ry="11" style="stroke:#181818;stroke-width:1.0;"/><path d="M52.2656,558.875 Q52.4219,558.6563 52.6094,558.5469 Q52.7969,558.4375 53.0156,558.4375 Q53.3906,558.4375 53.625,558.7031 Q53.8594,558.9531 53.8594,559.5625 L53.8594,561.0156 Q53.8594,561.625 53.625,561.8906 Q53.3906,562.1563 53.0156,562.1563 Q52.6719,562.1563 52.4688,561.9531 Q52.2656,561.7656 52.1563,561.25 Q52.1094,560.8906 51.9219,560.7031 Q51.5938,560.3281 50.9844,560.1094 Q50.375,559.8906 49.75,559.8906 Q48.9844,559.8906 48.3438,560.2188 Q47.7188,560.5469 47.2188,561.2969 Q46.7344,562.0469 46.7344,563.0781 L46.7344,564.1719 Q46.7344,565.4063 47.625,566.2344 Q48.5156,567.0469 50.1094,567.0469 Q51.0469,567.0469 51.7031,566.7969 Q52.0938,566.6406 52.5156,566.2031 Q52.7813,565.9375 52.9219,565.8594 Q53.0781,565.7813 53.2813,565.7813 Q53.6094,565.7813 53.8594,566.0469 Q54.125,566.2969 54.125,566.6406 Q54.125,566.9844 53.7813,567.3906 Q53.2813,567.9688 52.4844,568.2969 Q51.4063,568.75 50.1094,568.75 Q48.5938,568.75 47.3906,568.125 Q46.4063,567.625 45.7188,566.5625 Q45.0313,565.4844 45.0313,564.2031 L45.0313,563.0469 Q45.0313,561.7188 45.6406,560.5781 Q46.2656,559.4219 47.3594,558.8125 Q48.4531,558.1875 49.6875,558.1875 Q50.4219,558.1875 51.0625,558.3594 Q51.7188,558.5156 52.2656,558.875 Z " fill="#000000"/><text fill="#000000" font-family="sans-serif" font-size="14" lengthAdjust="spacing" textLength="46" x="63.5" y="568.7285">Interval</text><line style="stroke:#181818;stroke-width:0.5;" x1="35.5" x2="111.5" y1="579" y2="579"/><line style="stroke:#181818;stroke-width:0.5;" x1="35.5" x2="111.5" y1="587" y2="587"/></g><!--MD5=[b07065dfc0d0e09965ec10bfc328bb3e]
class Option--><g id="elem_Option"><rect codeLine="17" fill="#F1F1F1" height="48" id="Option" rx="2.5" ry="2.5" style="stroke:#181818;stroke-width:0.5;" width="74" x="651.5" y="331"/><ellipse cx="666.5" cy="347" fill="#B4A7E5" rx="11" ry="11" style="stroke:#181818;stroke-width:1.0;"/><path d="M667.4531,343.6406 L667.4531,350.2969 L669.1719,350.2969 Q669.7813,350.2969 670.0469,350.5313 Q670.3125,350.7656 670.3125,351.1563 Q670.3125,351.5313 670.0469,351.7656 Q669.7813,352 669.1719,352 L664.0313,352 Q663.4219,352 663.1563,351.7656 Q662.8906,351.5313 662.8906,351.1406 Q662.8906,350.7656 663.1563,350.5313 Q663.4219,350.2969 664.0313,350.2969 L665.75,350.2969 L665.75,343.6406 L664.0313,343.6406 Q663.4219,343.6406 663.1563,343.4063 Q662.8906,343.1719 662.8906,342.7813 Q662.8906,342.4063 663.1563,342.1719 Q663.4219,341.9375 664.0313,341.9375 L669.1719,341.9375 Q669.7813,341.9375 670.0469,342.1719 Q670.3125,342.4063 670.3125,342.7813 Q670.3125,343.1719 670.0469,343.4063 Q669.7813,343.6406 669.1719,343.6406 L667.4531,343.6406 Z " fill="#000000"/><text fill="#000000" font-family="sans-serif" font-size="14" font-style="italic" lengthAdjust="spacing" textLength="42" x="680.5" y="352.7285">Option</text><line style="stroke:#181818;stroke-width:0.5;" x1="652.5" x2="724.5" y1="363" y2="363"/><line style="stroke:#181818;stroke-width:0.5;" x1="652.5" x2="724.5" y1="371" y2="371"/></g><!--MD5=[db9a76f5ceec3d416a4a0daeaf552bb6]
link CompanyManagement to ServiceContract--><g id="link_CompanyManagement_ServiceContract"><path codeLine="20" d="M173.6893,66.7516 C173.6893,66.7516 103.22,344.77 82.65,425.89 " fill="none" id="CompanyManagement-ServiceContract" style="stroke:#181818;stroke-width:1.0;"/><polygon fill="#181818" points="79.39,438.77,85.4741,431.0251,80.6156,433.9225,77.7181,429.0641,79.39,438.77" style="stroke:#181818;stroke-width:1.0;"/><line style="stroke:#181818;stroke-width:1.0;" x1="80.6156" x2="82.58" y1="433.9225" y2="426.165"/><polygon fill="#181818" points="176.64,55.12,171.2875,59.9522,173.6893,66.7516,179.0418,61.9194,176.64,55.12" style="stroke:#181818;stroke-width:1.0;"/></g><!--MD5=[cbcc7e0af6073e4b1ee22bbd58d9b8d8]
link CompanyManagement to ServiceContractView--><g id="link_CompanyManagement_ServiceContractView"><path codeLine="21" d="M185.23,55.16 C192.04,112.8 209.72,262.61 217.14,325.52 " fill="none" id="CompanyManagement-to-ServiceContractView" style="stroke:#181818;stroke-width:1.0;stroke-dasharray:7.0,7.0;"/><polygon fill="#181818" points="217.74,330.62,220.6563,321.2128,217.1533,325.6545,212.7116,322.1515,217.74,330.62" style="stroke:#181818;stroke-width:1.0;"/></g><!--MD5=[b675fbcbdf96fa0ca0e45da8a95e9d8f]
link CompanyManagement to MenuView--><g id="link_CompanyManagement_MenuView"><path codeLine="22" d="M204.42,55 C220.06,71.42 241.16,93.56 257.63,110.84 " fill="none" id="CompanyManagement-to-MenuView" style="stroke:#181818;stroke-width:1.0;stroke-dasharray:7.0,7.0;"/><polygon fill="#181818" points="261.28,114.68,257.9678,105.4048,257.831,111.06,252.1758,110.9232,261.28,114.68" style="stroke:#181818;stroke-width:1.0;"/></g><!--MD5=[70157a02eda89a0c6130e7d52c2f2f74]
link ServiceContractView to ServiceContract--><g id="link_ServiceContractView_ServiceContract"><path codeLine="24" d="M188.6,379 C165.37,395.75 133.88,418.46 109.71,435.89 " fill="none" id="ServiceContractView-to-ServiceContract" style="stroke:#181818;stroke-width:1.0;stroke-dasharray:7.0,7.0;"/><polygon fill="#181818" points="105.59,438.86,115.2286,436.8358,109.6441,435.9336,110.5463,430.3491,105.59,438.86" style="stroke:#181818;stroke-width:1.0;"/></g><!--MD5=[4896de4079bdbaa71645df008044644f]
link ServiceContractView to DateView--><g id="link_ServiceContractView_DateView"><path codeLine="25" d="M220.5,379 C220.5,395 220.5,416.45 220.5,433.53 " fill="none" id="ServiceContractView-to-DateView" style="stroke:#181818;stroke-width:1.0;stroke-dasharray:7.0,7.0;"/><polygon fill="#181818" points="220.5,438.68,224.5,429.68,220.5,433.68,216.5,429.68,220.5,438.68" style="stroke:#181818;stroke-width:1.0;"/></g><!--MD5=[aed3b4e61f0aadc93823d15e8705445f]
link ServiceContract to Date--><g id="link_ServiceContract_Date"><path codeLine="27" d="M100.84,487 C120.52,503.55 147.12,525.93 167.74,543.28 " fill="none" id="ServiceContract-to-Date" style="stroke:#181818;stroke-width:1.0;stroke-dasharray:7.0,7.0;"/><polygon fill="#181818" points="171.78,546.68,167.4591,537.8296,167.9506,543.465,162.3152,543.9566,171.78,546.68" style="stroke:#181818;stroke-width:1.0;"/></g><!--MD5=[df8aa8658773f52091bcc1df68fac1d7]
link ServiceContract to Interval--><g id="link_ServiceContract_Interval"><path codeLine="28" d="M73.5,487 C73.5,503 73.5,524.45 73.5,541.53 " fill="none" id="ServiceContract-to-Interval" style="stroke:#181818;stroke-width:1.0;"/><polygon fill="#181818" points="73.5,546.68,77.5,537.68,73.5,541.68,69.5,537.68,73.5,546.68" style="stroke:#181818;stroke-width:1.0;"/><text fill="#000000" font-family="sans-serif" font-size="13" lengthAdjust="spacing" textLength="21" x="49.9406" y="536.34">360</text></g><!--MD5=[fe6c9598d34b11bf4c319d19ee4be023]
link DateView to Date--><g id="link_DateView_Date"><path codeLine="30" d="M215.94,487 C212.77,503 208.52,524.45 205.14,541.53 " fill="none" id="DateView-to-Date" style="stroke:#181818;stroke-width:1.0;stroke-dasharray:7.0,7.0;"/><polygon fill="#181818" points="204.12,546.68,209.7938,538.6297,205.0923,541.7755,201.9466,537.074,204.12,546.68" style="stroke:#181818;stroke-width:1.0;"/></g><!--MD5=[dcc2e4004a81e930d0bba2f4a2a42a1d]
link MenuView to Menu--><g id="link_MenuView_Menu"><path codeLine="32" d="M331.68,156.21 C394.25,177.27 502.24,213.61 559.78,232.97 " fill="none" id="MenuView-to-Menu" style="stroke:#181818;stroke-width:1.0;"/><polygon fill="#181818" points="564.85,234.68,557.6008,228.013,560.1123,233.0817,555.0436,235.5933,564.85,234.68" style="stroke:#181818;stroke-width:1.0;"/></g><!--MD5=[e3badc2849a377e674bef8e011aa0b5c]
link MenuView to ServiceContractView--><g id="link_MenuView_ServiceContractView"><path codeLine="33" d="M276.64,163.31 C264.99,202.87 241.4,282.99 228.83,325.7 " fill="none" id="MenuView-to-ServiceContractView" style="stroke:#181818;stroke-width:1.0;stroke-dasharray:7.0,7.0;"/><polygon fill="#181818" points="227.35,330.72,233.7367,323.2226,228.767,325.925,226.0647,320.9554,227.35,330.72" style="stroke:#181818;stroke-width:1.0;"/></g><!--MD5=[9439b529e99e67230efbdccb3508defa]
link Menu to ServiceContractView--><g id="link_Menu_ServiceContractView"><path codeLine="36" d="M564.96,257.41 C507.47,273.53 388.42,306.91 306.51,329.88 " fill="none" id="Menu-to-ServiceContractView" style="stroke:#181818;stroke-width:1.0;stroke-dasharray:7.0,7.0;"/><polygon fill="#181818" points="301.66,331.24,311.4077,332.648,306.4724,329.8834,309.2371,324.9481,301.66,331.24" style="stroke:#181818;stroke-width:1.0;"/></g><!--MD5=[8daeaf3eedd6c08a0f80d4a90846b3b4]
link Menu to Option--><g id="link_Menu_Option"><path codeLine="37" d="M618.03,271 C631.97,287.42 650.77,309.56 665.44,326.84 " fill="none" id="Menu-to-Option" style="stroke:#181818;stroke-width:1.0;"/><polygon fill="#181818" points="668.7,330.68,665.9179,321.2323,665.4613,326.8707,659.8229,326.4141,668.7,330.68" style="stroke:#181818;stroke-width:1.0;"/></g><!--MD5=[db27c364c76abc55725547699ffa083f]
link Menu to CancelOption--><g id="link_Menu_CancelOption"><path codeLine="38" d="M572.58,271.31 C528.05,311.35 437.29,392.95 390.25,435.25 " fill="none" id="Menu-to-CancelOption" style="stroke:#181818;stroke-width:1.0;"/><polygon fill="#181818" points="386.39,438.72,395.7555,435.6725,390.1065,435.3752,390.4038,429.7261,386.39,438.72" style="stroke:#181818;stroke-width:1.0;"/></g><!--MD5=[4fa9ab25f67b4b87f3be576228ebd3af]
link Menu to EnlargeOption--><g id="link_Menu_EnlargeOption"><path codeLine="39" d="M632.13,259.6 C664.56,272.38 712.96,295.9 742.5,331 C767.61,360.83 780.12,404.95 785.95,433.59 " fill="none" id="Menu-to-EnlargeOption" style="stroke:#181818;stroke-width:1.0;"/><polygon fill="#181818" points="786.96,438.75,789.1334,429.144,785.9877,433.8455,781.2862,430.6997,786.96,438.75" style="stroke:#181818;stroke-width:1.0;"/></g><!--MD5=[34472ef7d93d45876669c188e05bd016]
link Menu to ExitOption--><g id="link_Menu_ExitOption"><path codeLine="40" d="M603.62,271.31 C612.31,310.87 629.91,390.99 639.29,433.7 " fill="none" id="Menu-to-ExitOption" style="stroke:#181818;stroke-width:1.0;"/><polygon fill="#181818" points="640.39,438.72,642.3634,429.0709,639.316,433.8367,634.5501,430.7893,640.39,438.72" style="stroke:#181818;stroke-width:1.0;"/></g><!--MD5=[07af14581a148e641fd603cb40c2280e]
link Menu to GetCostOption--><g id="link_Menu_GetCostOption"><path codeLine="41" d="M632.01,257.66 C679.3,271.71 767.96,299.56 840.5,331 C914.06,362.89 995.52,408.16 1044.06,436.27 " fill="none" id="Menu-to-GetCostOption" style="stroke:#181818;stroke-width:1.0;"/><polygon fill="#181818" points="1048.66,438.94,1042.867,430.975,1044.3303,436.4393,1038.8659,437.9026,1048.66,438.94" style="stroke:#181818;stroke-width:1.0;"/></g><!--MD5=[27f893628d86aab74ab3b09a64ae1a9a]
link Menu to ShiftOption--><g id="link_Menu_ShiftOption"><path codeLine="42" d="M632.13,259.96 C670.12,274.18 733.1,299.95 782.5,331 C831.5,361.8 881.6,406.76 911.38,435.18 " fill="none" id="Menu-to-ShiftOption" style="stroke:#181818;stroke-width:1.0;"/><polygon fill="#181818" points="915.26,438.91,911.5211,429.7984,911.6468,435.4539,905.9913,435.5796,915.26,438.91" style="stroke:#181818;stroke-width:1.0;"/></g><!--MD5=[803738a30755b5dfec10f31a19e63733]
link Menu to ShowOption--><g id="link_Menu_ShowOption"><path codeLine="43" d="M588.7,271.31 C572.03,310.95 538.23,391.32 520.29,433.96 " fill="none" id="Menu-to-ShowOption" style="stroke:#181818;stroke-width:1.0;"/><polygon fill="#181818" points="518.29,438.72,525.4765,431.9855,520.2354,434.114,518.1069,428.8728,518.29,438.72" style="stroke:#181818;stroke-width:1.0;"/></g><!--MD5=[e3fd346c3516c724fc4a640bffce4df1]
reverse link Option to CancelOption--><g id="link_Option_CancelOption"><path codeLine="45" d="M632.1,374.23 C572.81,393.39 479.93,423.4 419.63,442.89 " fill="none" id="Option-backto-CancelOption" style="stroke:#181818;stroke-width:1.0;stroke-dasharray:7.0,7.0;"/><polygon fill="none" points="630.01,367.55,651.19,368.06,634.32,380.87,630.01,367.55" style="stroke:#181818;stroke-width:1.0;"/></g><!--MD5=[19046170cf5041572bf6c16b030fecc3]
reverse link Option to EnlargeOption--><g id="link_Option_EnlargeOption"><path codeLine="46" d="M724.83,393.75 C739.25,408.74 755.39,425.51 768.06,438.68 " fill="none" id="Option-backto-EnlargeOption" style="stroke:#181818;stroke-width:1.0;stroke-dasharray:7.0,7.0;"/><polygon fill="none" points="719.46,398.27,710.63,379,729.54,388.56,719.46,398.27" style="stroke:#181818;stroke-width:1.0;"/></g><!--MD5=[526edcfd2429839a623b8ea8e99bb633]
reverse link Option to ExitOption--><g id="link_Option_ExitOption"><path codeLine="47" d="M671.63,397.57 C665.97,411.54 659.85,426.62 654.96,438.68 " fill="none" id="Option-backto-ExitOption" style="stroke:#181818;stroke-width:1.0;stroke-dasharray:7.0,7.0;"/><polygon fill="none" points="665.16,394.9,679.17,379,678.14,400.16,665.16,394.9" style="stroke:#181818;stroke-width:1.0;"/></g><!--MD5=[79c6f7e96243453265e07bfea24cadbc]
reverse link Option to GetCostOption--><g id="link_Option_GetCostOption"><path codeLine="48" d="M745.47,370.36 C809.37,386.57 916.06,413.96 1007.5,439 C1012.94,440.49 1018.57,442.06 1024.22,443.65 " fill="none" id="Option-backto-GetCostOption" style="stroke:#181818;stroke-width:1.0;stroke-dasharray:7.0,7.0;"/><polygon fill="none" points="743.58,377.1,725.91,365.4,747.01,363.53,743.58,377.1" style="stroke:#181818;stroke-width:1.0;"/></g><!--MD5=[cbf13adba2a8be8001390b77ecbc040d]
reverse link Option to ShiftOption--><g id="link_Option_ShiftOption"><path codeLine="49" d="M744.08,379.57 C786.88,397.71 845.58,422.6 887.25,440.27 " fill="none" id="Option-backto-ShiftOption" style="stroke:#181818;stroke-width:1.0;stroke-dasharray:7.0,7.0;"/><polygon fill="none" points="741.34,386.01,725.66,371.75,746.8,373.12,741.34,386.01" style="stroke:#181818;stroke-width:1.0;"/></g><!--MD5=[e23ea6afece6cda16f274ef1ae533cf1]
reverse link Option to ShowOption--><g id="link_Option_ShowOption"><path codeLine="50" d="M633.83,388.19 C606.02,404.57 572.84,424.11 547.62,438.96 " fill="none" id="Option-backto-ShowOption" style="stroke:#181818;stroke-width:1.0;stroke-dasharray:7.0,7.0;"/><polygon fill="none" points="630.42,382.08,651.2,377.96,637.52,394.14,630.42,382.08" style="stroke:#181818;stroke-width:1.0;"/></g><!--MD5=[cab59f92892bb0da11dfdba2a1993375]
@startuml
class CompanyManagement
class ServiceContract
class ServiceContractView
class MenuView
class Menu
class CancelOption
class ShowOption
class ExitOption
class EnlargeOption
class ShiftOption
class GetCostOption

class Date
class DateView
class Interval

interface Option


CompanyManagement *- -> ServiceContract
CompanyManagement ..> ServiceContractView
CompanyManagement ..> MenuView

ServiceContractView ..> ServiceContract
ServiceContractView ..> DateView

ServiceContract ..> Date
ServiceContract - -> "360" Interval

DateView ..> Date

MenuView - -> Menu
MenuView ..> ServiceContractView


Menu ..> ServiceContractView
Menu - -> Option
Menu - -> CancelOption
Menu - -> EnlargeOption
Menu - -> ExitOption
Menu - -> GetCostOption
Menu - -> ShiftOption
Menu - -> ShowOption

Option <|.. CancelOption
Option <|.. EnlargeOption
Option <|.. ExitOption
Option <|.. GetCostOption
Option <|.. ShiftOption
Option <|.. ShowOption


@enduml

PlantUML version 1.2022.7(Mon Aug 22 19:01:30 CEST 2022)
(GPL source distribution)
Java Runtime: OpenJDK Runtime Environment
JVM: OpenJDK 64-Bit Server VM
Default Encoding: UTF-8
Language: es
Country: ES
--></g></svg>