<?xml version="1.0" encoding="UTF-8" standalone="no"?><svg xmlns="http://www.w3.org/2000/svg" xmlns:xlink="http://www.w3.org/1999/xlink" contentStyleType="text/css" height="494px" preserveAspectRatio="none" style="width:1073px;height:494px;background:#FFFFFF;" version="1.1" viewBox="0 0 1073 494" width="1073px" zoomAndPan="magnify"><defs/><g><!--MD5=[b92924a051eb15925d91c85b39483d30]
class CompanyManagement--><g id="elem_CompanyManagement"><rect codeLine="1" fill="#F1F1F1" height="48" id="CompanyManagement" rx="2.5" ry="2.5" style="stroke:#181818;stroke-width:0.5;" width="174" x="189" y="7"/><ellipse cx="204" cy="23" fill="#ADD1B2" rx="11" ry="11" style="stroke:#181818;stroke-width:1.0;"/><path d="M206.7656,18.875 Q206.9219,18.6563 207.1094,18.5469 Q207.2969,18.4375 207.5156,18.4375 Q207.8906,18.4375 208.125,18.7031 Q208.3594,18.9531 208.3594,19.5625 L208.3594,21.0156 Q208.3594,21.625 208.125,21.8906 Q207.8906,22.1563 207.5156,22.1563 Q207.1719,22.1563 206.9688,21.9531 Q206.7656,21.7656 206.6563,21.25 Q206.6094,20.8906 206.4219,20.7031 Q206.0938,20.3281 205.4844,20.1094 Q204.875,19.8906 204.25,19.8906 Q203.4844,19.8906 202.8438,20.2188 Q202.2188,20.5469 201.7188,21.2969 Q201.2344,22.0469 201.2344,23.0781 L201.2344,24.1719 Q201.2344,25.4063 202.125,26.2344 Q203.0156,27.0469 204.6094,27.0469 Q205.5469,27.0469 206.2031,26.7969 Q206.5938,26.6406 207.0156,26.2031 Q207.2813,25.9375 207.4219,25.8594 Q207.5781,25.7813 207.7813,25.7813 Q208.1094,25.7813 208.3594,26.0469 Q208.625,26.2969 208.625,26.6406 Q208.625,26.9844 208.2813,27.3906 Q207.7813,27.9688 206.9844,28.2969 Q205.9063,28.75 204.6094,28.75 Q203.0938,28.75 201.8906,28.125 Q200.9063,27.625 200.2188,26.5625 Q199.5313,25.4844 199.5313,24.2031 L199.5313,23.0469 Q199.5313,21.7188 200.1406,20.5781 Q200.7656,19.4219 201.8594,18.8125 Q202.9531,18.1875 204.1875,18.1875 Q204.9219,18.1875 205.5625,18.3594 Q206.2188,18.5156 206.7656,18.875 Z " fill="#000000"/><text fill="#000000" font-family="sans-serif" font-size="14" lengthAdjust="spacing" textLength="142" x="218" y="28.7285">CompanyManagement</text><line style="stroke:#181818;stroke-width:0.5;" x1="190" x2="362" y1="39" y2="39"/><line style="stroke:#181818;stroke-width:0.5;" x1="190" x2="362" y1="47" y2="47"/></g><!--MD5=[dd4f49095d0e7eece5ef1fa0d36891f4]
class ServiceContract--><g id="elem_ServiceContract"><rect codeLine="2" fill="#F1F1F1" height="48" id="ServiceContract" rx="2.5" ry="2.5" style="stroke:#181818;stroke-width:0.5;" width="133" x="32.5" y="331"/><ellipse cx="47.5" cy="347" fill="#ADD1B2" rx="11" ry="11" style="stroke:#181818;stroke-width:1.0;"/><path d="M50.2656,342.875 Q50.4219,342.6563 50.6094,342.5469 Q50.7969,342.4375 51.0156,342.4375 Q51.3906,342.4375 51.625,342.7031 Q51.8594,342.9531 51.8594,343.5625 L51.8594,345.0156 Q51.8594,345.625 51.625,345.8906 Q51.3906,346.1563 51.0156,346.1563 Q50.6719,346.1563 50.4688,345.9531 Q50.2656,345.7656 50.1563,345.25 Q50.1094,344.8906 49.9219,344.7031 Q49.5938,344.3281 48.9844,344.1094 Q48.375,343.8906 47.75,343.8906 Q46.9844,343.8906 46.3438,344.2188 Q45.7188,344.5469 45.2188,345.2969 Q44.7344,346.0469 44.7344,347.0781 L44.7344,348.1719 Q44.7344,349.4063 45.625,350.2344 Q46.5156,351.0469 48.1094,351.0469 Q49.0469,351.0469 49.7031,350.7969 Q50.0938,350.6406 50.5156,350.2031 Q50.7813,349.9375 50.9219,349.8594 Q51.0781,349.7813 51.2813,349.7813 Q51.6094,349.7813 51.8594,350.0469 Q52.125,350.2969 52.125,350.6406 Q52.125,350.9844 51.7813,351.3906 Q51.2813,351.9688 50.4844,352.2969 Q49.4063,352.75 48.1094,352.75 Q46.5938,352.75 45.3906,352.125 Q44.4063,351.625 43.7188,350.5625 Q43.0313,349.4844 43.0313,348.2031 L43.0313,347.0469 Q43.0313,345.7188 43.6406,344.5781 Q44.2656,343.4219 45.3594,342.8125 Q46.4531,342.1875 47.6875,342.1875 Q48.4219,342.1875 49.0625,342.3594 Q49.7188,342.5156 50.2656,342.875 Z " fill="#000000"/><text fill="#000000" font-family="sans-serif" font-size="14" lengthAdjust="spacing" textLength="101" x="61.5" y="352.7285">ServiceContract</text><line style="stroke:#181818;stroke-width:0.5;" x1="33.5" x2="164.5" y1="363" y2="363"/><line style="stroke:#181818;stroke-width:0.5;" x1="33.5" x2="164.5" y1="371" y2="371"/></g><!--MD5=[ffa1e2525175dc6e0bec0a9847c37beb]
class ServiceContractView--><g id="elem_ServiceContractView"><rect codeLine="3" fill="#F1F1F1" height="48" id="ServiceContractView" rx="2.5" ry="2.5" style="stroke:#181818;stroke-width:0.5;" width="162" x="145" y="223"/><ellipse cx="160" cy="239" fill="#ADD1B2" rx="11" ry="11" style="stroke:#181818;stroke-width:1.0;"/><path d="M162.7656,234.875 Q162.9219,234.6563 163.1094,234.5469 Q163.2969,234.4375 163.5156,234.4375 Q163.8906,234.4375 164.125,234.7031 Q164.3594,234.9531 164.3594,235.5625 L164.3594,237.0156 Q164.3594,237.625 164.125,237.8906 Q163.8906,238.1563 163.5156,238.1563 Q163.1719,238.1563 162.9688,237.9531 Q162.7656,237.7656 162.6563,237.25 Q162.6094,236.8906 162.4219,236.7031 Q162.0938,236.3281 161.4844,236.1094 Q160.875,235.8906 160.25,235.8906 Q159.4844,235.8906 158.8438,236.2188 Q158.2188,236.5469 157.7188,237.2969 Q157.2344,238.0469 157.2344,239.0781 L157.2344,240.1719 Q157.2344,241.4063 158.125,242.2344 Q159.0156,243.0469 160.6094,243.0469 Q161.5469,243.0469 162.2031,242.7969 Q162.5938,242.6406 163.0156,242.2031 Q163.2813,241.9375 163.4219,241.8594 Q163.5781,241.7813 163.7813,241.7813 Q164.1094,241.7813 164.3594,242.0469 Q164.625,242.2969 164.625,242.6406 Q164.625,242.9844 164.2813,243.3906 Q163.7813,243.9688 162.9844,244.2969 Q161.9063,244.75 160.6094,244.75 Q159.0938,244.75 157.8906,244.125 Q156.9063,243.625 156.2188,242.5625 Q155.5313,241.4844 155.5313,240.2031 L155.5313,239.0469 Q155.5313,237.7188 156.1406,236.5781 Q156.7656,235.4219 157.8594,234.8125 Q158.9531,234.1875 160.1875,234.1875 Q160.9219,234.1875 161.5625,234.3594 Q162.2188,234.5156 162.7656,234.875 Z " fill="#000000"/><text fill="#000000" font-family="sans-serif" font-size="14" lengthAdjust="spacing" textLength="130" x="174" y="244.7285">ServiceContractView</text><line style="stroke:#181818;stroke-width:0.5;" x1="146" x2="306" y1="255" y2="255"/><line style="stroke:#181818;stroke-width:0.5;" x1="146" x2="306" y1="263" y2="263"/></g><!--MD5=[f6bfa8e6ad2e37edcd578b647fafadda]
class MenuView--><g id="elem_MenuView"><rect codeLine="4" fill="#F1F1F1" height="48" id="MenuView" rx="2.5" ry="2.5" style="stroke:#181818;stroke-width:0.5;" width="96" x="279" y="115"/><ellipse cx="294" cy="131" fill="#ADD1B2" rx="11" ry="11" style="stroke:#181818;stroke-width:1.0;"/><path d="M296.7656,126.875 Q296.9219,126.6563 297.1094,126.5469 Q297.2969,126.4375 297.5156,126.4375 Q297.8906,126.4375 298.125,126.7031 Q298.3594,126.9531 298.3594,127.5625 L298.3594,129.0156 Q298.3594,129.625 298.125,129.8906 Q297.8906,130.1563 297.5156,130.1563 Q297.1719,130.1563 296.9688,129.9531 Q296.7656,129.7656 296.6563,129.25 Q296.6094,128.8906 296.4219,128.7031 Q296.0938,128.3281 295.4844,128.1094 Q294.875,127.8906 294.25,127.8906 Q293.4844,127.8906 292.8438,128.2188 Q292.2188,128.5469 291.7188,129.2969 Q291.2344,130.0469 291.2344,131.0781 L291.2344,132.1719 Q291.2344,133.4063 292.125,134.2344 Q293.0156,135.0469 294.6094,135.0469 Q295.5469,135.0469 296.2031,134.7969 Q296.5938,134.6406 297.0156,134.2031 Q297.2813,133.9375 297.4219,133.8594 Q297.5781,133.7813 297.7813,133.7813 Q298.1094,133.7813 298.3594,134.0469 Q298.625,134.2969 298.625,134.6406 Q298.625,134.9844 298.2813,135.3906 Q297.7813,135.9688 296.9844,136.2969 Q295.9063,136.75 294.6094,136.75 Q293.0938,136.75 291.8906,136.125 Q290.9063,135.625 290.2188,134.5625 Q289.5313,133.4844 289.5313,132.2031 L289.5313,131.0469 Q289.5313,129.7188 290.1406,128.5781 Q290.7656,127.4219 291.8594,126.8125 Q292.9531,126.1875 294.1875,126.1875 Q294.9219,126.1875 295.5625,126.3594 Q296.2188,126.5156 296.7656,126.875 Z " fill="#000000"/><text fill="#000000" font-family="sans-serif" font-size="14" lengthAdjust="spacing" textLength="64" x="308" y="136.7285">MenuView</text><line style="stroke:#181818;stroke-width:0.5;" x1="280" x2="374" y1="147" y2="147"/><line style="stroke:#181818;stroke-width:0.5;" x1="280" x2="374" y1="155" y2="155"/></g><!--MD5=[f0268dd29ee89052933f031546cb1cab]
class Menu--><g id="elem_Menu"><rect codeLine="5" fill="#F1F1F1" height="48" id="Menu" rx="2.5" ry="2.5" style="stroke:#181818;stroke-width:0.5;" width="67" x="470.5" y="223"/><ellipse cx="485.5" cy="239" fill="#ADD1B2" rx="11" ry="11" style="stroke:#181818;stroke-width:1.0;"/><path d="M488.2656,234.875 Q488.4219,234.6563 488.6094,234.5469 Q488.7969,234.4375 489.0156,234.4375 Q489.3906,234.4375 489.625,234.7031 Q489.8594,234.9531 489.8594,235.5625 L489.8594,237.0156 Q489.8594,237.625 489.625,237.8906 Q489.3906,238.1563 489.0156,238.1563 Q488.6719,238.1563 488.4688,237.9531 Q488.2656,237.7656 488.1563,237.25 Q488.1094,236.8906 487.9219,236.7031 Q487.5938,236.3281 486.9844,236.1094 Q486.375,235.8906 485.75,235.8906 Q484.9844,235.8906 484.3438,236.2188 Q483.7188,236.5469 483.2188,237.2969 Q482.7344,238.0469 482.7344,239.0781 L482.7344,240.1719 Q482.7344,241.4063 483.625,242.2344 Q484.5156,243.0469 486.1094,243.0469 Q487.0469,243.0469 487.7031,242.7969 Q488.0938,242.6406 488.5156,242.2031 Q488.7813,241.9375 488.9219,241.8594 Q489.0781,241.7813 489.2813,241.7813 Q489.6094,241.7813 489.8594,242.0469 Q490.125,242.2969 490.125,242.6406 Q490.125,242.9844 489.7813,243.3906 Q489.2813,243.9688 488.4844,244.2969 Q487.4063,244.75 486.1094,244.75 Q484.5938,244.75 483.3906,244.125 Q482.4063,243.625 481.7188,242.5625 Q481.0313,241.4844 481.0313,240.2031 L481.0313,239.0469 Q481.0313,237.7188 481.6406,236.5781 Q482.2656,235.4219 483.3594,234.8125 Q484.4531,234.1875 485.6875,234.1875 Q486.4219,234.1875 487.0625,234.3594 Q487.7188,234.5156 488.2656,234.875 Z " fill="#000000"/><text fill="#000000" font-family="sans-serif" font-size="14" lengthAdjust="spacing" textLength="35" x="499.5" y="244.7285">Menu</text><line style="stroke:#181818;stroke-width:0.5;" x1="471.5" x2="536.5" y1="255" y2="255"/><line style="stroke:#181818;stroke-width:0.5;" x1="471.5" x2="536.5" y1="263" y2="263"/></g><!--MD5=[6506bea503710dcab8a6a46b73fb74a1]
class CancelOption--><g id="elem_CancelOption"><rect codeLine="6" fill="#F1F1F1" height="48" id="CancelOption" rx="2.5" ry="2.5" style="stroke:#181818;stroke-width:0.5;" width="118" x="217" y="439"/><ellipse cx="232" cy="455" fill="#ADD1B2" rx="11" ry="11" style="stroke:#181818;stroke-width:1.0;"/><path d="M234.7656,450.875 Q234.9219,450.6563 235.1094,450.5469 Q235.2969,450.4375 235.5156,450.4375 Q235.8906,450.4375 236.125,450.7031 Q236.3594,450.9531 236.3594,451.5625 L236.3594,453.0156 Q236.3594,453.625 236.125,453.8906 Q235.8906,454.1563 235.5156,454.1563 Q235.1719,454.1563 234.9688,453.9531 Q234.7656,453.7656 234.6563,453.25 Q234.6094,452.8906 234.4219,452.7031 Q234.0938,452.3281 233.4844,452.1094 Q232.875,451.8906 232.25,451.8906 Q231.4844,451.8906 230.8438,452.2188 Q230.2188,452.5469 229.7188,453.2969 Q229.2344,454.0469 229.2344,455.0781 L229.2344,456.1719 Q229.2344,457.4063 230.125,458.2344 Q231.0156,459.0469 232.6094,459.0469 Q233.5469,459.0469 234.2031,458.7969 Q234.5938,458.6406 235.0156,458.2031 Q235.2813,457.9375 235.4219,457.8594 Q235.5781,457.7813 235.7813,457.7813 Q236.1094,457.7813 236.3594,458.0469 Q236.625,458.2969 236.625,458.6406 Q236.625,458.9844 236.2813,459.3906 Q235.7813,459.9688 234.9844,460.2969 Q233.9063,460.75 232.6094,460.75 Q231.0938,460.75 229.8906,460.125 Q228.9063,459.625 228.2188,458.5625 Q227.5313,457.4844 227.5313,456.2031 L227.5313,455.0469 Q227.5313,453.7188 228.1406,452.5781 Q228.7656,451.4219 229.8594,450.8125 Q230.9531,450.1875 232.1875,450.1875 Q232.9219,450.1875 233.5625,450.3594 Q234.2188,450.5156 234.7656,450.875 Z " fill="#000000"/><text fill="#000000" font-family="sans-serif" font-size="14" lengthAdjust="spacing" textLength="86" x="246" y="460.7285">CancelOption</text><line style="stroke:#181818;stroke-width:0.5;" x1="218" x2="334" y1="471" y2="471"/><line style="stroke:#181818;stroke-width:0.5;" x1="218" x2="334" y1="479" y2="479"/></g><!--MD5=[fdd6ecfabaf96fbf4f00aac0b493efe3]
class ShowOption--><g id="elem_ShowOption"><rect codeLine="7" fill="#F1F1F1" height="48" id="ShowOption" rx="2.5" ry="2.5" style="stroke:#181818;stroke-width:0.5;" width="108" x="370" y="439"/><ellipse cx="385" cy="455" fill="#ADD1B2" rx="11" ry="11" style="stroke:#181818;stroke-width:1.0;"/><path d="M387.7656,450.875 Q387.9219,450.6563 388.1094,450.5469 Q388.2969,450.4375 388.5156,450.4375 Q388.8906,450.4375 389.125,450.7031 Q389.3594,450.9531 389.3594,451.5625 L389.3594,453.0156 Q389.3594,453.625 389.125,453.8906 Q388.8906,454.1563 388.5156,454.1563 Q388.1719,454.1563 387.9688,453.9531 Q387.7656,453.7656 387.6563,453.25 Q387.6094,452.8906 387.4219,452.7031 Q387.0938,452.3281 386.4844,452.1094 Q385.875,451.8906 385.25,451.8906 Q384.4844,451.8906 383.8438,452.2188 Q383.2188,452.5469 382.7188,453.2969 Q382.2344,454.0469 382.2344,455.0781 L382.2344,456.1719 Q382.2344,457.4063 383.125,458.2344 Q384.0156,459.0469 385.6094,459.0469 Q386.5469,459.0469 387.2031,458.7969 Q387.5938,458.6406 388.0156,458.2031 Q388.2813,457.9375 388.4219,457.8594 Q388.5781,457.7813 388.7813,457.7813 Q389.1094,457.7813 389.3594,458.0469 Q389.625,458.2969 389.625,458.6406 Q389.625,458.9844 389.2813,459.3906 Q388.7813,459.9688 387.9844,460.2969 Q386.9063,460.75 385.6094,460.75 Q384.0938,460.75 382.8906,460.125 Q381.9063,459.625 381.2188,458.5625 Q380.5313,457.4844 380.5313,456.2031 L380.5313,455.0469 Q380.5313,453.7188 381.1406,452.5781 Q381.7656,451.4219 382.8594,450.8125 Q383.9531,450.1875 385.1875,450.1875 Q385.9219,450.1875 386.5625,450.3594 Q387.2188,450.5156 387.7656,450.875 Z " fill="#000000"/><text fill="#000000" font-family="sans-serif" font-size="14" lengthAdjust="spacing" textLength="76" x="399" y="460.7285">ShowOption</text><line style="stroke:#181818;stroke-width:0.5;" x1="371" x2="477" y1="471" y2="471"/><line style="stroke:#181818;stroke-width:0.5;" x1="371" x2="477" y1="479" y2="479"/></g><!--MD5=[48ff7231d024078491841a820ee16411]
class ExitOption--><g id="elem_ExitOption"><rect codeLine="8" fill="#F1F1F1" height="48" id="ExitOption" rx="2.5" ry="2.5" style="stroke:#181818;stroke-width:0.5;" width="96" x="513" y="439"/><ellipse cx="528" cy="455" fill="#ADD1B2" rx="11" ry="11" style="stroke:#181818;stroke-width:1.0;"/><path d="M530.7656,450.875 Q530.9219,450.6563 531.1094,450.5469 Q531.2969,450.4375 531.5156,450.4375 Q531.8906,450.4375 532.125,450.7031 Q532.3594,450.9531 532.3594,451.5625 L532.3594,453.0156 Q532.3594,453.625 532.125,453.8906 Q531.8906,454.1563 531.5156,454.1563 Q531.1719,454.1563 530.9688,453.9531 Q530.7656,453.7656 530.6563,453.25 Q530.6094,452.8906 530.4219,452.7031 Q530.0938,452.3281 529.4844,452.1094 Q528.875,451.8906 528.25,451.8906 Q527.4844,451.8906 526.8438,452.2188 Q526.2188,452.5469 525.7188,453.2969 Q525.2344,454.0469 525.2344,455.0781 L525.2344,456.1719 Q525.2344,457.4063 526.125,458.2344 Q527.0156,459.0469 528.6094,459.0469 Q529.5469,459.0469 530.2031,458.7969 Q530.5938,458.6406 531.0156,458.2031 Q531.2813,457.9375 531.4219,457.8594 Q531.5781,457.7813 531.7813,457.7813 Q532.1094,457.7813 532.3594,458.0469 Q532.625,458.2969 532.625,458.6406 Q532.625,458.9844 532.2813,459.3906 Q531.7813,459.9688 530.9844,460.2969 Q529.9063,460.75 528.6094,460.75 Q527.0938,460.75 525.8906,460.125 Q524.9063,459.625 524.2188,458.5625 Q523.5313,457.4844 523.5313,456.2031 L523.5313,455.0469 Q523.5313,453.7188 524.1406,452.5781 Q524.7656,451.4219 525.8594,450.8125 Q526.9531,450.1875 528.1875,450.1875 Q528.9219,450.1875 529.5625,450.3594 Q530.2188,450.5156 530.7656,450.875 Z " fill="#000000"/><text fill="#000000" font-family="sans-serif" font-size="14" lengthAdjust="spacing" textLength="64" x="542" y="460.7285">ExitOption</text><line style="stroke:#181818;stroke-width:0.5;" x1="514" x2="608" y1="471" y2="471"/><line style="stroke:#181818;stroke-width:0.5;" x1="514" x2="608" y1="479" y2="479"/></g><!--MD5=[a819b5cb5440bf47c68e0253f1faedfb]
class EnlargeOption--><g id="elem_EnlargeOption"><rect codeLine="9" fill="#F1F1F1" height="48" id="EnlargeOption" rx="2.5" ry="2.5" style="stroke:#181818;stroke-width:0.5;" width="123" x="644.5" y="439"/><ellipse cx="659.5" cy="455" fill="#ADD1B2" rx="11" ry="11" style="stroke:#181818;stroke-width:1.0;"/><path d="M662.2656,450.875 Q662.4219,450.6563 662.6094,450.5469 Q662.7969,450.4375 663.0156,450.4375 Q663.3906,450.4375 663.625,450.7031 Q663.8594,450.9531 663.8594,451.5625 L663.8594,453.0156 Q663.8594,453.625 663.625,453.8906 Q663.3906,454.1563 663.0156,454.1563 Q662.6719,454.1563 662.4688,453.9531 Q662.2656,453.7656 662.1563,453.25 Q662.1094,452.8906 661.9219,452.7031 Q661.5938,452.3281 660.9844,452.1094 Q660.375,451.8906 659.75,451.8906 Q658.9844,451.8906 658.3438,452.2188 Q657.7188,452.5469 657.2188,453.2969 Q656.7344,454.0469 656.7344,455.0781 L656.7344,456.1719 Q656.7344,457.4063 657.625,458.2344 Q658.5156,459.0469 660.1094,459.0469 Q661.0469,459.0469 661.7031,458.7969 Q662.0938,458.6406 662.5156,458.2031 Q662.7813,457.9375 662.9219,457.8594 Q663.0781,457.7813 663.2813,457.7813 Q663.6094,457.7813 663.8594,458.0469 Q664.125,458.2969 664.125,458.6406 Q664.125,458.9844 663.7813,459.3906 Q663.2813,459.9688 662.4844,460.2969 Q661.4063,460.75 660.1094,460.75 Q658.5938,460.75 657.3906,460.125 Q656.4063,459.625 655.7188,458.5625 Q655.0313,457.4844 655.0313,456.2031 L655.0313,455.0469 Q655.0313,453.7188 655.6406,452.5781 Q656.2656,451.4219 657.3594,450.8125 Q658.4531,450.1875 659.6875,450.1875 Q660.4219,450.1875 661.0625,450.3594 Q661.7188,450.5156 662.2656,450.875 Z " fill="#000000"/><text fill="#000000" font-family="sans-serif" font-size="14" lengthAdjust="spacing" textLength="91" x="673.5" y="460.7285">EnlargeOption</text><line style="stroke:#181818;stroke-width:0.5;" x1="645.5" x2="766.5" y1="471" y2="471"/><line style="stroke:#181818;stroke-width:0.5;" x1="645.5" x2="766.5" y1="479" y2="479"/></g><!--MD5=[03a279042868af39cebd3e3290aa818a]
class ShiftOption--><g id="elem_ShiftOption"><rect codeLine="10" fill="#F1F1F1" height="48" id="ShiftOption" rx="2.5" ry="2.5" style="stroke:#181818;stroke-width:0.5;" width="102" x="803" y="439"/><ellipse cx="818" cy="455" fill="#ADD1B2" rx="11" ry="11" style="stroke:#181818;stroke-width:1.0;"/><path d="M820.7656,450.875 Q820.9219,450.6563 821.1094,450.5469 Q821.2969,450.4375 821.5156,450.4375 Q821.8906,450.4375 822.125,450.7031 Q822.3594,450.9531 822.3594,451.5625 L822.3594,453.0156 Q822.3594,453.625 822.125,453.8906 Q821.8906,454.1563 821.5156,454.1563 Q821.1719,454.1563 820.9688,453.9531 Q820.7656,453.7656 820.6563,453.25 Q820.6094,452.8906 820.4219,452.7031 Q820.0938,452.3281 819.4844,452.1094 Q818.875,451.8906 818.25,451.8906 Q817.4844,451.8906 816.8438,452.2188 Q816.2188,452.5469 815.7188,453.2969 Q815.2344,454.0469 815.2344,455.0781 L815.2344,456.1719 Q815.2344,457.4063 816.125,458.2344 Q817.0156,459.0469 818.6094,459.0469 Q819.5469,459.0469 820.2031,458.7969 Q820.5938,458.6406 821.0156,458.2031 Q821.2813,457.9375 821.4219,457.8594 Q821.5781,457.7813 821.7813,457.7813 Q822.1094,457.7813 822.3594,458.0469 Q822.625,458.2969 822.625,458.6406 Q822.625,458.9844 822.2813,459.3906 Q821.7813,459.9688 820.9844,460.2969 Q819.9063,460.75 818.6094,460.75 Q817.0938,460.75 815.8906,460.125 Q814.9063,459.625 814.2188,458.5625 Q813.5313,457.4844 813.5313,456.2031 L813.5313,455.0469 Q813.5313,453.7188 814.1406,452.5781 Q814.7656,451.4219 815.8594,450.8125 Q816.9531,450.1875 818.1875,450.1875 Q818.9219,450.1875 819.5625,450.3594 Q820.2188,450.5156 820.7656,450.875 Z " fill="#000000"/><text fill="#000000" font-family="sans-serif" font-size="14" lengthAdjust="spacing" textLength="70" x="832" y="460.7285">ShiftOption</text><line style="stroke:#181818;stroke-width:0.5;" x1="804" x2="904" y1="471" y2="471"/><line style="stroke:#181818;stroke-width:0.5;" x1="804" x2="904" y1="479" y2="479"/></g><!--MD5=[90dc96bfd633d7918e72cd3f4daac441]
class GetCostOption--><g id="elem_GetCostOption"><rect codeLine="11" fill="#F1F1F1" height="48" id="GetCostOption" rx="2.5" ry="2.5" style="stroke:#181818;stroke-width:0.5;" width="126" x="940" y="439"/><ellipse cx="955" cy="455" fill="#ADD1B2" rx="11" ry="11" style="stroke:#181818;stroke-width:1.0;"/><path d="M957.7656,450.875 Q957.9219,450.6563 958.1094,450.5469 Q958.2969,450.4375 958.5156,450.4375 Q958.8906,450.4375 959.125,450.7031 Q959.3594,450.9531 959.3594,451.5625 L959.3594,453.0156 Q959.3594,453.625 959.125,453.8906 Q958.8906,454.1563 958.5156,454.1563 Q958.1719,454.1563 957.9688,453.9531 Q957.7656,453.7656 957.6563,453.25 Q957.6094,452.8906 957.4219,452.7031 Q957.0938,452.3281 956.4844,452.1094 Q955.875,451.8906 955.25,451.8906 Q954.4844,451.8906 953.8438,452.2188 Q953.2188,452.5469 952.7188,453.2969 Q952.2344,454.0469 952.2344,455.0781 L952.2344,456.1719 Q952.2344,457.4063 953.125,458.2344 Q954.0156,459.0469 955.6094,459.0469 Q956.5469,459.0469 957.2031,458.7969 Q957.5938,458.6406 958.0156,458.2031 Q958.2813,457.9375 958.4219,457.8594 Q958.5781,457.7813 958.7813,457.7813 Q959.1094,457.7813 959.3594,458.0469 Q959.625,458.2969 959.625,458.6406 Q959.625,458.9844 959.2813,459.3906 Q958.7813,459.9688 957.9844,460.2969 Q956.9063,460.75 955.6094,460.75 Q954.0938,460.75 952.8906,460.125 Q951.9063,459.625 951.2188,458.5625 Q950.5313,457.4844 950.5313,456.2031 L950.5313,455.0469 Q950.5313,453.7188 951.1406,452.5781 Q951.7656,451.4219 952.8594,450.8125 Q953.9531,450.1875 955.1875,450.1875 Q955.9219,450.1875 956.5625,450.3594 Q957.2188,450.5156 957.7656,450.875 Z " fill="#000000"/><text fill="#000000" font-family="sans-serif" font-size="14" lengthAdjust="spacing" textLength="94" x="969" y="460.7285">GetCostOption</text><line style="stroke:#181818;stroke-width:0.5;" x1="941" x2="1065" y1="471" y2="471"/><line style="stroke:#181818;stroke-width:0.5;" x1="941" x2="1065" y1="479" y2="479"/></g><!--MD5=[7829b64950ce38e0487c4015ea331f97]
class Date--><g id="elem_Date"><rect codeLine="13" fill="#F1F1F1" height="48" id="Date" rx="2.5" ry="2.5" style="stroke:#181818;stroke-width:0.5;" width="62" x="120" y="439"/><ellipse cx="135" cy="455" fill="#ADD1B2" rx="11" ry="11" style="stroke:#181818;stroke-width:1.0;"/><path d="M137.7656,450.875 Q137.9219,450.6563 138.1094,450.5469 Q138.2969,450.4375 138.5156,450.4375 Q138.8906,450.4375 139.125,450.7031 Q139.3594,450.9531 139.3594,451.5625 L139.3594,453.0156 Q139.3594,453.625 139.125,453.8906 Q138.8906,454.1563 138.5156,454.1563 Q138.1719,454.1563 137.9688,453.9531 Q137.7656,453.7656 137.6563,453.25 Q137.6094,452.8906 137.4219,452.7031 Q137.0938,452.3281 136.4844,452.1094 Q135.875,451.8906 135.25,451.8906 Q134.4844,451.8906 133.8438,452.2188 Q133.2188,452.5469 132.7188,453.2969 Q132.2344,454.0469 132.2344,455.0781 L132.2344,456.1719 Q132.2344,457.4063 133.125,458.2344 Q134.0156,459.0469 135.6094,459.0469 Q136.5469,459.0469 137.2031,458.7969 Q137.5938,458.6406 138.0156,458.2031 Q138.2813,457.9375 138.4219,457.8594 Q138.5781,457.7813 138.7813,457.7813 Q139.1094,457.7813 139.3594,458.0469 Q139.625,458.2969 139.625,458.6406 Q139.625,458.9844 139.2813,459.3906 Q138.7813,459.9688 137.9844,460.2969 Q136.9063,460.75 135.6094,460.75 Q134.0938,460.75 132.8906,460.125 Q131.9063,459.625 131.2188,458.5625 Q130.5313,457.4844 130.5313,456.2031 L130.5313,455.0469 Q130.5313,453.7188 131.1406,452.5781 Q131.7656,451.4219 132.8594,450.8125 Q133.9531,450.1875 135.1875,450.1875 Q135.9219,450.1875 136.5625,450.3594 Q137.2188,450.5156 137.7656,450.875 Z " fill="#000000"/><text fill="#000000" font-family="sans-serif" font-size="14" lengthAdjust="spacing" textLength="30" x="149" y="460.7285">Date</text><line style="stroke:#181818;stroke-width:0.5;" x1="121" x2="181" y1="471" y2="471"/><line style="stroke:#181818;stroke-width:0.5;" x1="121" x2="181" y1="479" y2="479"/></g><!--MD5=[94b2979dc8db7061b05b681130e8ecb6]
class Interval--><g id="elem_Interval"><rect codeLine="14" fill="#F1F1F1" height="48" id="Interval" rx="2.5" ry="2.5" style="stroke:#181818;stroke-width:0.5;" width="78" x="7" y="439"/><ellipse cx="22" cy="455" fill="#ADD1B2" rx="11" ry="11" style="stroke:#181818;stroke-width:1.0;"/><path d="M24.7656,450.875 Q24.9219,450.6563 25.1094,450.5469 Q25.2969,450.4375 25.5156,450.4375 Q25.8906,450.4375 26.125,450.7031 Q26.3594,450.9531 26.3594,451.5625 L26.3594,453.0156 Q26.3594,453.625 26.125,453.8906 Q25.8906,454.1563 25.5156,454.1563 Q25.1719,454.1563 24.9688,453.9531 Q24.7656,453.7656 24.6563,453.25 Q24.6094,452.8906 24.4219,452.7031 Q24.0938,452.3281 23.4844,452.1094 Q22.875,451.8906 22.25,451.8906 Q21.4844,451.8906 20.8438,452.2188 Q20.2188,452.5469 19.7188,453.2969 Q19.2344,454.0469 19.2344,455.0781 L19.2344,456.1719 Q19.2344,457.4063 20.125,458.2344 Q21.0156,459.0469 22.6094,459.0469 Q23.5469,459.0469 24.2031,458.7969 Q24.5938,458.6406 25.0156,458.2031 Q25.2813,457.9375 25.4219,457.8594 Q25.5781,457.7813 25.7813,457.7813 Q26.1094,457.7813 26.3594,458.0469 Q26.625,458.2969 26.625,458.6406 Q26.625,458.9844 26.2813,459.3906 Q25.7813,459.9688 24.9844,460.2969 Q23.9063,460.75 22.6094,460.75 Q21.0938,460.75 19.8906,460.125 Q18.9063,459.625 18.2188,458.5625 Q17.5313,457.4844 17.5313,456.2031 L17.5313,455.0469 Q17.5313,453.7188 18.1406,452.5781 Q18.7656,451.4219 19.8594,450.8125 Q20.9531,450.1875 22.1875,450.1875 Q22.9219,450.1875 23.5625,450.3594 Q24.2188,450.5156 24.7656,450.875 Z " fill="#000000"/><text fill="#000000" font-family="sans-serif" font-size="14" lengthAdjust="spacing" textLength="46" x="36" y="460.7285">Interval</text><line style="stroke:#181818;stroke-width:0.5;" x1="8" x2="84" y1="471" y2="471"/><line style="stroke:#181818;stroke-width:0.5;" x1="8" x2="84" y1="479" y2="479"/></g><!--MD5=[bea5b0d46523efab5ea1c1d339f396f0]
class Message--><g id="elem_Message"><rect codeLine="15" fill="#F1F1F1" height="48" id="Message" rx="2.5" ry="2.5" style="stroke:#181818;stroke-width:0.5;" width="89" x="296.5" y="331"/><ellipse cx="311.5" cy="347" fill="#EB937F" rx="11" ry="11" style="stroke:#181818;stroke-width:1.0;"/><path d="M310.3594,347.7969 L310.3594,350.2969 L314.6875,350.2969 L314.6875,349.375 Q314.6875,348.7656 314.9219,348.5 Q315.1719,348.2344 315.5469,348.2344 Q315.9219,348.2344 316.1563,348.5 Q316.3906,348.7656 316.3906,349.375 L316.3906,352 L308.3906,352 Q307.7656,352 307.5,351.7656 Q307.25,351.5313 307.25,351.1406 Q307.25,350.7656 307.5156,350.5313 Q307.7813,350.2969 308.3906,350.2969 L308.6563,350.2969 L308.6563,343.6406 L308.3906,343.6406 Q307.7656,343.6406 307.5,343.4063 Q307.25,343.1719 307.25,342.7813 Q307.25,342.4063 307.5,342.1719 Q307.7656,341.9375 308.3906,341.9375 L316.0156,341.9375 L316.0156,344.5313 Q316.0156,345.1406 315.7813,345.4063 Q315.5625,345.6563 315.1719,345.6563 Q314.7969,345.6563 314.5625,345.4063 Q314.3281,345.1406 314.3281,344.5313 L314.3281,343.6406 L310.3594,343.6406 L310.3594,346.0938 L311.8438,346.0938 Q311.8438,345.4375 311.9688,345.25 Q312.2344,344.8438 312.7031,344.8438 Q313.0781,344.8438 313.3125,345.1094 Q313.5469,345.3594 313.5469,345.9688 L313.5469,347.9375 Q313.5469,348.4844 313.4219,348.6719 Q313.1563,349.0625 312.7031,349.0625 Q312.2344,349.0625 311.9688,348.6563 Q311.8438,348.4688 311.8438,347.7969 L310.3594,347.7969 Z " fill="#000000"/><text fill="#000000" font-family="sans-serif" font-size="14" lengthAdjust="spacing" textLength="57" x="325.5" y="352.7285">Message</text><line style="stroke:#181818;stroke-width:0.5;" x1="297.5" x2="384.5" y1="363" y2="363"/><line style="stroke:#181818;stroke-width:0.5;" x1="297.5" x2="384.5" y1="371" y2="371"/></g><!--MD5=[151307fe316f8eb40c2d5647d1c5b4c6]
class Languaje--><g id="elem_Languaje"><rect codeLine="16" fill="#F1F1F1" height="48" id="Languaje" rx="2.5" ry="2.5" style="stroke:#181818;stroke-width:0.5;" width="91" x="410.5" y="115"/><ellipse cx="425.5" cy="131" fill="#EB937F" rx="11" ry="11" style="stroke:#181818;stroke-width:1.0;"/><path d="M424.3594,131.7969 L424.3594,134.2969 L428.6875,134.2969 L428.6875,133.375 Q428.6875,132.7656 428.9219,132.5 Q429.1719,132.2344 429.5469,132.2344 Q429.9219,132.2344 430.1563,132.5 Q430.3906,132.7656 430.3906,133.375 L430.3906,136 L422.3906,136 Q421.7656,136 421.5,135.7656 Q421.25,135.5313 421.25,135.1406 Q421.25,134.7656 421.5156,134.5313 Q421.7813,134.2969 422.3906,134.2969 L422.6563,134.2969 L422.6563,127.6406 L422.3906,127.6406 Q421.7656,127.6406 421.5,127.4063 Q421.25,127.1719 421.25,126.7813 Q421.25,126.4063 421.5,126.1719 Q421.7656,125.9375 422.3906,125.9375 L430.0156,125.9375 L430.0156,128.5313 Q430.0156,129.1406 429.7813,129.4063 Q429.5625,129.6563 429.1719,129.6563 Q428.7969,129.6563 428.5625,129.4063 Q428.3281,129.1406 428.3281,128.5313 L428.3281,127.6406 L424.3594,127.6406 L424.3594,130.0938 L425.8438,130.0938 Q425.8438,129.4375 425.9688,129.25 Q426.2344,128.8438 426.7031,128.8438 Q427.0781,128.8438 427.3125,129.1094 Q427.5469,129.3594 427.5469,129.9688 L427.5469,131.9375 Q427.5469,132.4844 427.4219,132.6719 Q427.1563,133.0625 426.7031,133.0625 Q426.2344,133.0625 425.9688,132.6563 Q425.8438,132.4688 425.8438,131.7969 L424.3594,131.7969 Z " fill="#000000"/><text fill="#000000" font-family="sans-serif" font-size="14" lengthAdjust="spacing" textLength="59" x="439.5" y="136.7285">Languaje</text><line style="stroke:#181818;stroke-width:0.5;" x1="411.5" x2="500.5" y1="147" y2="147"/><line style="stroke:#181818;stroke-width:0.5;" x1="411.5" x2="500.5" y1="155" y2="155"/></g><!--MD5=[b07065dfc0d0e09965ec10bfc328bb3e]
class Option--><g id="elem_Option"><rect codeLine="18" fill="#F1F1F1" height="48" id="Option" rx="2.5" ry="2.5" style="stroke:#181818;stroke-width:0.5;" width="74" x="524" y="331"/><ellipse cx="539" cy="347" fill="#B4A7E5" rx="11" ry="11" style="stroke:#181818;stroke-width:1.0;"/><path d="M539.9531,343.6406 L539.9531,350.2969 L541.6719,350.2969 Q542.2813,350.2969 542.5469,350.5313 Q542.8125,350.7656 542.8125,351.1563 Q542.8125,351.5313 542.5469,351.7656 Q542.2813,352 541.6719,352 L536.5313,352 Q535.9219,352 535.6563,351.7656 Q535.3906,351.5313 535.3906,351.1406 Q535.3906,350.7656 535.6563,350.5313 Q535.9219,350.2969 536.5313,350.2969 L538.25,350.2969 L538.25,343.6406 L536.5313,343.6406 Q535.9219,343.6406 535.6563,343.4063 Q535.3906,343.1719 535.3906,342.7813 Q535.3906,342.4063 535.6563,342.1719 Q535.9219,341.9375 536.5313,341.9375 L541.6719,341.9375 Q542.2813,341.9375 542.5469,342.1719 Q542.8125,342.4063 542.8125,342.7813 Q542.8125,343.1719 542.5469,343.4063 Q542.2813,343.6406 541.6719,343.6406 L539.9531,343.6406 Z " fill="#000000"/><text fill="#000000" font-family="sans-serif" font-size="14" font-style="italic" lengthAdjust="spacing" textLength="42" x="553" y="352.7285">Option</text><line style="stroke:#181818;stroke-width:0.5;" x1="525" x2="597" y1="363" y2="363"/><line style="stroke:#181818;stroke-width:0.5;" x1="525" x2="597" y1="371" y2="371"/></g><!--MD5=[db9a76f5ceec3d416a4a0daeaf552bb6]
link CompanyManagement to ServiceContract--><g id="link_CompanyManagement_ServiceContract"><path codeLine="20" d="M243.6442,63.7936 C243.6442,63.7936 156.01,160.82 127,223 C112.93,253.15 105.84,290.51 102.33,317.61 " fill="none" id="CompanyManagement-ServiceContract" style="stroke:#181818;stroke-width:1.0;"/><polygon fill="#181818" points="100.8,330.76,105.8117,322.2816,101.3769,325.7934,97.8651,321.3586,100.8,330.76" style="stroke:#181818;stroke-width:1.0;"/><line style="stroke:#181818;stroke-width:1.0;" x1="101.3769" x2="102.3" y1="325.7934" y2="317.845"/><polygon fill="#181818" points="252.03,55.21,244.9759,56.7065,243.6442,63.7936,250.6983,62.2971,252.03,55.21" style="stroke:#181818;stroke-width:1.0;"/></g><!--MD5=[cbcc7e0af6073e4b1ee22bbd58d9b8d8]
link CompanyManagement to ServiceContractView--><g id="link_CompanyManagement_ServiceContractView"><path codeLine="21" d="M270.55,55.31 C261.31,94.87 242.59,174.99 232.61,217.7 " fill="none" id="CompanyManagement-to-ServiceContractView" style="stroke:#181818;stroke-width:1.0;stroke-dasharray:7.0,7.0;"/><polygon fill="#181818" points="231.44,222.72,237.3899,214.8715,232.582,217.8522,229.6014,213.0443,231.44,222.72" style="stroke:#181818;stroke-width:1.0;"/></g><!--MD5=[b675fbcbdf96fa0ca0e45da8a95e9d8f]
link CompanyManagement to MenuView--><g id="link_CompanyManagement_MenuView"><path codeLine="22" d="M287.07,55 C294.83,71.14 305.26,92.82 313.51,109.97 " fill="none" id="CompanyManagement-to-MenuView" style="stroke:#181818;stroke-width:1.0;stroke-dasharray:7.0,7.0;"/><polygon fill="#181818" points="315.78,114.68,315.4834,104.8356,313.6126,110.1742,308.2741,108.3034,315.78,114.68" style="stroke:#181818;stroke-width:1.0;"/></g><!--MD5=[f59b9cb4c2358951d2ee2d05f8b81b82]
link CompanyManagement to Languaje--><g id="link_CompanyManagement_Languaje"><path codeLine="23" d="M315.06,55 C343.74,71.89 382.7,94.84 412.4,112.32 " fill="none" id="CompanyManagement-to-Languaje" style="stroke:#181818;stroke-width:1.0;stroke-dasharray:7.0,7.0;"/><polygon fill="#181818" points="416.71,114.86,410.9993,106.8358,412.4062,112.3149,406.9271,113.7219,416.71,114.86" style="stroke:#181818;stroke-width:1.0;"/></g><!--MD5=[70157a02eda89a0c6130e7d52c2f2f74]
link ServiceContractView to ServiceContract--><g id="link_ServiceContractView_ServiceContract"><path codeLine="25" d="M198.44,271 C178.61,287.55 151.8,309.93 131.01,327.28 " fill="none" id="ServiceContractView-to-ServiceContract" style="stroke:#181818;stroke-width:1.0;stroke-dasharray:7.0,7.0;"/><polygon fill="#181818" points="126.94,330.68,136.4157,327.9947,130.7823,327.4805,131.2965,321.847,126.94,330.68" style="stroke:#181818;stroke-width:1.0;"/></g><!--MD5=[dbcab9a35781dbee05fea1de5b58871d]
link ServiceContractView to Date--><g id="link_ServiceContractView_Date"><path codeLine="26" d="M218.74,271.31 C210.47,297.6 196.35,341.57 183,379 C176.42,397.46 168.5,418 162.19,434.04 " fill="none" id="ServiceContractView-to-Date" style="stroke:#181818;stroke-width:1.0;stroke-dasharray:7.0,7.0;"/><polygon fill="#181818" points="160.28,438.86,167.2926,431.9445,162.1074,434.2059,159.846,429.0207,160.28,438.86" style="stroke:#181818;stroke-width:1.0;"/></g><!--MD5=[b9fa6f75c76cb0fd4059adb4965a64a0]
link ServiceContractView to Message--><g id="link_ServiceContractView_Message"><path codeLine="27" d="M250.95,271 C268.91,287.55 293.19,309.93 312.01,327.28 " fill="none" id="ServiceContractView-to-Message" style="stroke:#181818;stroke-width:1.0;stroke-dasharray:7.0,7.0;"/><polygon fill="#181818" points="315.7,330.68,311.778,321.6457,312.0178,327.2975,306.366,327.5373,315.7,330.68" style="stroke:#181818;stroke-width:1.0;"/></g><!--MD5=[aed3b4e61f0aadc93823d15e8705445f]
link ServiceContract to Date--><g id="link_ServiceContract_Date"><path codeLine="29" d="M110.28,379 C118.2,395.14 128.83,416.82 137.25,433.97 " fill="none" id="ServiceContract-to-Date" style="stroke:#181818;stroke-width:1.0;stroke-dasharray:7.0,7.0;"/><polygon fill="#181818" points="139.56,438.68,139.1883,428.8382,137.3583,434.1908,132.0056,432.3609,139.56,438.68" style="stroke:#181818;stroke-width:1.0;"/></g><!--MD5=[df8aa8658773f52091bcc1df68fac1d7]
link ServiceContract to Interval--><g id="link_ServiceContract_Interval"><path codeLine="30" d="M82.1334,389.7331 C82.1334,389.7331 69.37,415.25 63.61,426.78 " fill="none" id="ServiceContract-Interval" style="stroke:#181818;stroke-width:1.0;"/><polygon fill="#181818" points="57.66,438.68,65.2626,432.419,59.8961,434.2079,58.1072,428.8413,57.66,438.68" style="stroke:#181818;stroke-width:1.0;"/><line style="stroke:#181818;stroke-width:1.0;" x1="59.8961" x2="63.47" y1="434.2079" y2="427.055"/><polygon fill="#181818" points="87.5,379,81.239,382.5777,82.1334,389.7331,88.3944,386.1554,87.5,379" style="stroke:#181818;stroke-width:1.0;"/><text fill="#000000" font-family="sans-serif" font-size="13" lengthAdjust="spacing" textLength="21" x="36.9428" y="428.34">360</text></g><!--MD5=[dcc2e4004a81e930d0bba2f4a2a42a1d]
link MenuView to Menu--><g id="link_MenuView_Menu"><path codeLine="32" d="M365.41,163 C395.25,180.88 436.44,205.54 466.14,223.33 " fill="none" id="MenuView-to-Menu" style="stroke:#181818;stroke-width:1.0;"/><polygon fill="#181818" points="470.44,225.9,464.7805,217.8396,466.1525,223.3275,460.6646,224.6995,470.44,225.9" style="stroke:#181818;stroke-width:1.0;"/></g><!--MD5=[e3badc2849a377e674bef8e011aa0b5c]
link MenuView to ServiceContractView--><g id="link_MenuView_ServiceContractView"><path codeLine="33" d="M305.08,163 C289.44,179.42 268.34,201.56 251.87,218.84 " fill="none" id="MenuView-to-ServiceContractView" style="stroke:#181818;stroke-width:1.0;stroke-dasharray:7.0,7.0;"/><polygon fill="#181818" points="248.22,222.68,257.3242,218.9232,251.669,219.06,251.5322,213.4048,248.22,222.68" style="stroke:#181818;stroke-width:1.0;"/></g><!--MD5=[846c85d35f4a93f43b9e7108f510cad0]
link MenuView to Message--><g id="link_MenuView_Message"><path codeLine="34" d="M328.52,163.31 C331.11,202.87 336.35,282.99 339.15,325.7 " fill="none" id="MenuView-to-Message" style="stroke:#181818;stroke-width:1.0;stroke-dasharray:7.0,7.0;"/><polygon fill="#181818" points="339.48,330.72,342.9075,321.4868,339.1663,325.7298,334.9233,321.9887,339.48,330.72" style="stroke:#181818;stroke-width:1.0;"/></g><!--MD5=[8daeaf3eedd6c08a0f80d4a90846b3b4]
link Menu to Option--><g id="link_Menu_Option"><path codeLine="36" d="M516.37,271 C525.05,287.14 536.7,308.82 545.93,325.97 " fill="none" id="Menu-to-Option" style="stroke:#181818;stroke-width:1.0;"/><polygon fill="#181818" points="548.46,330.68,547.7359,320.8578,546.0989,326.2726,540.6841,324.6356,548.46,330.68" style="stroke:#181818;stroke-width:1.0;"/><text fill="#000000" font-family="sans-serif" font-size="13" lengthAdjust="spacing" textLength="7" x="537.5503" y="320.34">6</text></g><!--MD5=[e3fd346c3516c724fc4a640bffce4df1]
reverse link Option to CancelOption--><g id="link_Option_CancelOption"><path codeLine="51" d="M504.84,376.89 C455.83,395.12 384.94,421.48 335.08,440.02 " fill="none" id="Option-backto-CancelOption" style="stroke:#181818;stroke-width:1.0;stroke-dasharray:7.0,7.0;"/><polygon fill="none" points="502.56,370.27,523.74,369.86,507.44,383.39,502.56,370.27" style="stroke:#181818;stroke-width:1.0;"/></g><!--MD5=[19046170cf5041572bf6c16b030fecc3]
reverse link Option to EnlargeOption--><g id="link_Option_EnlargeOption"><path codeLine="52" d="M608.85,390.98 C630.37,406.71 655.19,424.85 674.35,438.86 " fill="none" id="Option-backto-EnlargeOption" style="stroke:#181818;stroke-width:1.0;stroke-dasharray:7.0,7.0;"/><polygon fill="none" points="604.48,396.45,592.46,379,612.74,385.15,604.48,396.45" style="stroke:#181818;stroke-width:1.0;"/></g><!--MD5=[526edcfd2429839a623b8ea8e99bb633]
reverse link Option to ExitOption--><g id="link_Option_ExitOption"><path codeLine="53" d="M561,399.02 C561,412.58 561,427.04 561,438.68 " fill="none" id="Option-backto-ExitOption" style="stroke:#181818;stroke-width:1.0;stroke-dasharray:7.0,7.0;"/><polygon fill="none" points="554,399,561,379,568,399,554,399" style="stroke:#181818;stroke-width:1.0;"/></g><!--MD5=[79c6f7e96243453265e07bfea24cadbc]
reverse link Option to GetCostOption--><g id="link_Option_GetCostOption"><path codeLine="54" d="M618.1,368.08 C689.63,383.45 815.84,411.33 923,439 C928.46,440.41 934.11,441.92 939.77,443.48 " fill="none" id="Option-backto-GetCostOption" style="stroke:#181818;stroke-width:1.0;stroke-dasharray:7.0,7.0;"/><polygon fill="none" points="616.26,374.85,598.16,363.82,619.18,361.16,616.26,374.85" style="stroke:#181818;stroke-width:1.0;"/></g><!--MD5=[cbf13adba2a8be8001390b77ecbc040d]
reverse link Option to ShiftOption--><g id="link_Option_ShiftOption"><path codeLine="55" d="M617.27,376.36 C670.94,395.77 751.07,424.76 802.94,443.53 " fill="none" id="Option-backto-ShiftOption" style="stroke:#181818;stroke-width:1.0;stroke-dasharray:7.0,7.0;"/><polygon fill="none" points="614.53,382.81,598.11,369.42,619.3,369.65,614.53,382.81" style="stroke:#181818;stroke-width:1.0;"/></g><!--MD5=[e23ea6afece6cda16f274ef1ae533cf1]
reverse link Option to ShowOption--><g id="link_Option_ShowOption"><path codeLine="56" d="M515.25,391.4 C495.13,406.97 472.05,424.82 454.14,438.68 " fill="none" id="Option-backto-ShowOption" style="stroke:#181818;stroke-width:1.0;stroke-dasharray:7.0,7.0;"/><polygon fill="none" points="511.17,385.7,531.27,379,519.74,396.78,511.17,385.7" style="stroke:#181818;stroke-width:1.0;"/></g><!--MD5=[9499a47edb2511d18cdb01a897dd3580]
@startuml
class CompanyManagement
class ServiceContract
class ServiceContractView
class MenuView
class Menu
class CancelOption
class ShowOption
class ExitOption
class EnlargeOption
class ShiftOption
class GetCostOption

class Date
class Interval
enum Message
enum Languaje

interface Option

CompanyManagement *- -> ServiceContract
CompanyManagement ..> ServiceContractView
CompanyManagement ..> MenuView
CompanyManagement ..> Languaje

ServiceContractView ..> ServiceContract
ServiceContractView ..> Date
ServiceContractView ..> Message

ServiceContract ..> Date
ServiceContract *- -> "360" Interval

MenuView - -> Menu
MenuView ..> ServiceContractView
MenuView ..> Message

Menu - ->"6" Option
' Menu - -> CancelOption
' Menu - -> EnlargeOption
' Menu - -> ExitOption
' Menu - -> GetCostOption
' Menu - -> ShiftOption
' Menu - -> ShowOption

' CancelOption ..> ServiceContractView
' EnlargeOption ..> ServiceContractView
' ExitOption ..> ServiceContractView
' GetCostOption ..> ServiceContractView
' ShiftOption ..> ServiceContractView
' ShowOption ..> ServiceContractView

Option <|.. CancelOption
Option <|.. EnlargeOption
Option <|.. ExitOption
Option <|.. GetCostOption
Option <|.. ShiftOption
Option <|.. ShowOption

@enduml

@startuml
class CompanyManagement
class ServiceContract
class ServiceContractView
class MenuView
class Menu
class CancelOption
class ShowOption
class ExitOption
class EnlargeOption
class ShiftOption
class GetCostOption

class Date
class Interval
enum Message
enum Languaje

interface Option

CompanyManagement *- -> ServiceContract
CompanyManagement ..> ServiceContractView
CompanyManagement ..> MenuView
CompanyManagement ..> Languaje

ServiceContractView ..> ServiceContract
ServiceContractView ..> Date
ServiceContractView ..> Message

ServiceContract ..> Date
ServiceContract *- -> "360" Interval

MenuView - -> Menu
MenuView ..> ServiceContractView
MenuView ..> Message

Menu - ->"6" Option


Option <|.. CancelOption
Option <|.. EnlargeOption
Option <|.. ExitOption
Option <|.. GetCostOption
Option <|.. ShiftOption
Option <|.. ShowOption

@enduml

PlantUML version 1.2022.7(Mon Aug 22 19:01:30 CEST 2022)
(GPL source distribution)
Java Runtime: OpenJDK Runtime Environment
JVM: OpenJDK 64-Bit Server VM
Default Encoding: UTF-8
Language: es
Country: ES
--></g></svg>