<?xml version="1.0" encoding="UTF-8" standalone="no"?><svg xmlns="http://www.w3.org/2000/svg" xmlns:xlink="http://www.w3.org/1999/xlink" contentStyleType="text/css" height="602px" preserveAspectRatio="none" style="width:1102px;height:602px;background:#FFFFFF;" version="1.1" viewBox="0 0 1102 602" width="1102px" zoomAndPan="magnify"><defs/><g><!--MD5=[b92924a051eb15925d91c85b39483d30]
class CompanyManagement--><g id="elem_CompanyManagement"><rect codeLine="1" fill="#F1F1F1" height="48" id="CompanyManagement" rx="2.5" ry="2.5" style="stroke:#181818;stroke-width:0.5;" width="174" x="88.5" y="7"/><ellipse cx="103.5" cy="23" fill="#ADD1B2" rx="11" ry="11" style="stroke:#181818;stroke-width:1.0;"/><path d="M106.2656,18.875 Q106.4219,18.6563 106.6094,18.5469 Q106.7969,18.4375 107.0156,18.4375 Q107.3906,18.4375 107.625,18.7031 Q107.8594,18.9531 107.8594,19.5625 L107.8594,21.0156 Q107.8594,21.625 107.625,21.8906 Q107.3906,22.1563 107.0156,22.1563 Q106.6719,22.1563 106.4688,21.9531 Q106.2656,21.7656 106.1563,21.25 Q106.1094,20.8906 105.9219,20.7031 Q105.5938,20.3281 104.9844,20.1094 Q104.375,19.8906 103.75,19.8906 Q102.9844,19.8906 102.3438,20.2188 Q101.7188,20.5469 101.2188,21.2969 Q100.7344,22.0469 100.7344,23.0781 L100.7344,24.1719 Q100.7344,25.4063 101.625,26.2344 Q102.5156,27.0469 104.1094,27.0469 Q105.0469,27.0469 105.7031,26.7969 Q106.0938,26.6406 106.5156,26.2031 Q106.7813,25.9375 106.9219,25.8594 Q107.0781,25.7813 107.2813,25.7813 Q107.6094,25.7813 107.8594,26.0469 Q108.125,26.2969 108.125,26.6406 Q108.125,26.9844 107.7813,27.3906 Q107.2813,27.9688 106.4844,28.2969 Q105.4063,28.75 104.1094,28.75 Q102.5938,28.75 101.3906,28.125 Q100.4063,27.625 99.7188,26.5625 Q99.0313,25.4844 99.0313,24.2031 L99.0313,23.0469 Q99.0313,21.7188 99.6406,20.5781 Q100.2656,19.4219 101.3594,18.8125 Q102.4531,18.1875 103.6875,18.1875 Q104.4219,18.1875 105.0625,18.3594 Q105.7188,18.5156 106.2656,18.875 Z " fill="#000000"/><text fill="#000000" font-family="sans-serif" font-size="14" lengthAdjust="spacing" textLength="142" x="117.5" y="28.7285">CompanyManagement</text><line style="stroke:#181818;stroke-width:0.5;" x1="89.5" x2="261.5" y1="39" y2="39"/><line style="stroke:#181818;stroke-width:0.5;" x1="89.5" x2="261.5" y1="47" y2="47"/></g><!--MD5=[dd4f49095d0e7eece5ef1fa0d36891f4]
class ServiceContract--><g id="elem_ServiceContract"><rect codeLine="2" fill="#F1F1F1" height="48" id="ServiceContract" rx="2.5" ry="2.5" style="stroke:#181818;stroke-width:0.5;" width="133" x="7" y="439"/><ellipse cx="22" cy="455" fill="#ADD1B2" rx="11" ry="11" style="stroke:#181818;stroke-width:1.0;"/><path d="M24.7656,450.875 Q24.9219,450.6563 25.1094,450.5469 Q25.2969,450.4375 25.5156,450.4375 Q25.8906,450.4375 26.125,450.7031 Q26.3594,450.9531 26.3594,451.5625 L26.3594,453.0156 Q26.3594,453.625 26.125,453.8906 Q25.8906,454.1563 25.5156,454.1563 Q25.1719,454.1563 24.9688,453.9531 Q24.7656,453.7656 24.6563,453.25 Q24.6094,452.8906 24.4219,452.7031 Q24.0938,452.3281 23.4844,452.1094 Q22.875,451.8906 22.25,451.8906 Q21.4844,451.8906 20.8438,452.2188 Q20.2188,452.5469 19.7188,453.2969 Q19.2344,454.0469 19.2344,455.0781 L19.2344,456.1719 Q19.2344,457.4063 20.125,458.2344 Q21.0156,459.0469 22.6094,459.0469 Q23.5469,459.0469 24.2031,458.7969 Q24.5938,458.6406 25.0156,458.2031 Q25.2813,457.9375 25.4219,457.8594 Q25.5781,457.7813 25.7813,457.7813 Q26.1094,457.7813 26.3594,458.0469 Q26.625,458.2969 26.625,458.6406 Q26.625,458.9844 26.2813,459.3906 Q25.7813,459.9688 24.9844,460.2969 Q23.9063,460.75 22.6094,460.75 Q21.0938,460.75 19.8906,460.125 Q18.9063,459.625 18.2188,458.5625 Q17.5313,457.4844 17.5313,456.2031 L17.5313,455.0469 Q17.5313,453.7188 18.1406,452.5781 Q18.7656,451.4219 19.8594,450.8125 Q20.9531,450.1875 22.1875,450.1875 Q22.9219,450.1875 23.5625,450.3594 Q24.2188,450.5156 24.7656,450.875 Z " fill="#000000"/><text fill="#000000" font-family="sans-serif" font-size="14" lengthAdjust="spacing" textLength="101" x="36" y="460.7285">ServiceContract</text><line style="stroke:#181818;stroke-width:0.5;" x1="8" x2="139" y1="471" y2="471"/><line style="stroke:#181818;stroke-width:0.5;" x1="8" x2="139" y1="479" y2="479"/></g><!--MD5=[ffa1e2525175dc6e0bec0a9847c37beb]
class ServiceContractView--><g id="elem_ServiceContractView"><rect codeLine="3" fill="#F1F1F1" height="48" id="ServiceContractView" rx="2.5" ry="2.5" style="stroke:#181818;stroke-width:0.5;" width="162" x="126.5" y="331"/><ellipse cx="141.5" cy="347" fill="#ADD1B2" rx="11" ry="11" style="stroke:#181818;stroke-width:1.0;"/><path d="M144.2656,342.875 Q144.4219,342.6563 144.6094,342.5469 Q144.7969,342.4375 145.0156,342.4375 Q145.3906,342.4375 145.625,342.7031 Q145.8594,342.9531 145.8594,343.5625 L145.8594,345.0156 Q145.8594,345.625 145.625,345.8906 Q145.3906,346.1563 145.0156,346.1563 Q144.6719,346.1563 144.4688,345.9531 Q144.2656,345.7656 144.1563,345.25 Q144.1094,344.8906 143.9219,344.7031 Q143.5938,344.3281 142.9844,344.1094 Q142.375,343.8906 141.75,343.8906 Q140.9844,343.8906 140.3438,344.2188 Q139.7188,344.5469 139.2188,345.2969 Q138.7344,346.0469 138.7344,347.0781 L138.7344,348.1719 Q138.7344,349.4063 139.625,350.2344 Q140.5156,351.0469 142.1094,351.0469 Q143.0469,351.0469 143.7031,350.7969 Q144.0938,350.6406 144.5156,350.2031 Q144.7813,349.9375 144.9219,349.8594 Q145.0781,349.7813 145.2813,349.7813 Q145.6094,349.7813 145.8594,350.0469 Q146.125,350.2969 146.125,350.6406 Q146.125,350.9844 145.7813,351.3906 Q145.2813,351.9688 144.4844,352.2969 Q143.4063,352.75 142.1094,352.75 Q140.5938,352.75 139.3906,352.125 Q138.4063,351.625 137.7188,350.5625 Q137.0313,349.4844 137.0313,348.2031 L137.0313,347.0469 Q137.0313,345.7188 137.6406,344.5781 Q138.2656,343.4219 139.3594,342.8125 Q140.4531,342.1875 141.6875,342.1875 Q142.4219,342.1875 143.0625,342.3594 Q143.7188,342.5156 144.2656,342.875 Z " fill="#000000"/><text fill="#000000" font-family="sans-serif" font-size="14" lengthAdjust="spacing" textLength="130" x="155.5" y="352.7285">ServiceContractView</text><line style="stroke:#181818;stroke-width:0.5;" x1="127.5" x2="287.5" y1="363" y2="363"/><line style="stroke:#181818;stroke-width:0.5;" x1="127.5" x2="287.5" y1="371" y2="371"/></g><!--MD5=[f6bfa8e6ad2e37edcd578b647fafadda]
class MenuView--><g id="elem_MenuView"><rect codeLine="4" fill="#F1F1F1" height="48" id="MenuView" rx="2.5" ry="2.5" style="stroke:#181818;stroke-width:0.5;" width="96" x="228.5" y="115"/><ellipse cx="243.5" cy="131" fill="#ADD1B2" rx="11" ry="11" style="stroke:#181818;stroke-width:1.0;"/><path d="M246.2656,126.875 Q246.4219,126.6563 246.6094,126.5469 Q246.7969,126.4375 247.0156,126.4375 Q247.3906,126.4375 247.625,126.7031 Q247.8594,126.9531 247.8594,127.5625 L247.8594,129.0156 Q247.8594,129.625 247.625,129.8906 Q247.3906,130.1563 247.0156,130.1563 Q246.6719,130.1563 246.4688,129.9531 Q246.2656,129.7656 246.1563,129.25 Q246.1094,128.8906 245.9219,128.7031 Q245.5938,128.3281 244.9844,128.1094 Q244.375,127.8906 243.75,127.8906 Q242.9844,127.8906 242.3438,128.2188 Q241.7188,128.5469 241.2188,129.2969 Q240.7344,130.0469 240.7344,131.0781 L240.7344,132.1719 Q240.7344,133.4063 241.625,134.2344 Q242.5156,135.0469 244.1094,135.0469 Q245.0469,135.0469 245.7031,134.7969 Q246.0938,134.6406 246.5156,134.2031 Q246.7813,133.9375 246.9219,133.8594 Q247.0781,133.7813 247.2813,133.7813 Q247.6094,133.7813 247.8594,134.0469 Q248.125,134.2969 248.125,134.6406 Q248.125,134.9844 247.7813,135.3906 Q247.2813,135.9688 246.4844,136.2969 Q245.4063,136.75 244.1094,136.75 Q242.5938,136.75 241.3906,136.125 Q240.4063,135.625 239.7188,134.5625 Q239.0313,133.4844 239.0313,132.2031 L239.0313,131.0469 Q239.0313,129.7188 239.6406,128.5781 Q240.2656,127.4219 241.3594,126.8125 Q242.4531,126.1875 243.6875,126.1875 Q244.4219,126.1875 245.0625,126.3594 Q245.7188,126.5156 246.2656,126.875 Z " fill="#000000"/><text fill="#000000" font-family="sans-serif" font-size="14" lengthAdjust="spacing" textLength="64" x="257.5" y="136.7285">MenuView</text><line style="stroke:#181818;stroke-width:0.5;" x1="229.5" x2="323.5" y1="147" y2="147"/><line style="stroke:#181818;stroke-width:0.5;" x1="229.5" x2="323.5" y1="155" y2="155"/></g><!--MD5=[f0268dd29ee89052933f031546cb1cab]
class Menu--><g id="elem_Menu"><rect codeLine="5" fill="#F1F1F1" height="48" id="Menu" rx="2.5" ry="2.5" style="stroke:#181818;stroke-width:0.5;" width="67" x="510" y="223"/><ellipse cx="525" cy="239" fill="#ADD1B2" rx="11" ry="11" style="stroke:#181818;stroke-width:1.0;"/><path d="M527.7656,234.875 Q527.9219,234.6563 528.1094,234.5469 Q528.2969,234.4375 528.5156,234.4375 Q528.8906,234.4375 529.125,234.7031 Q529.3594,234.9531 529.3594,235.5625 L529.3594,237.0156 Q529.3594,237.625 529.125,237.8906 Q528.8906,238.1563 528.5156,238.1563 Q528.1719,238.1563 527.9688,237.9531 Q527.7656,237.7656 527.6563,237.25 Q527.6094,236.8906 527.4219,236.7031 Q527.0938,236.3281 526.4844,236.1094 Q525.875,235.8906 525.25,235.8906 Q524.4844,235.8906 523.8438,236.2188 Q523.2188,236.5469 522.7188,237.2969 Q522.2344,238.0469 522.2344,239.0781 L522.2344,240.1719 Q522.2344,241.4063 523.125,242.2344 Q524.0156,243.0469 525.6094,243.0469 Q526.5469,243.0469 527.2031,242.7969 Q527.5938,242.6406 528.0156,242.2031 Q528.2813,241.9375 528.4219,241.8594 Q528.5781,241.7813 528.7813,241.7813 Q529.1094,241.7813 529.3594,242.0469 Q529.625,242.2969 529.625,242.6406 Q529.625,242.9844 529.2813,243.3906 Q528.7813,243.9688 527.9844,244.2969 Q526.9063,244.75 525.6094,244.75 Q524.0938,244.75 522.8906,244.125 Q521.9063,243.625 521.2188,242.5625 Q520.5313,241.4844 520.5313,240.2031 L520.5313,239.0469 Q520.5313,237.7188 521.1406,236.5781 Q521.7656,235.4219 522.8594,234.8125 Q523.9531,234.1875 525.1875,234.1875 Q525.9219,234.1875 526.5625,234.3594 Q527.2188,234.5156 527.7656,234.875 Z " fill="#000000"/><text fill="#000000" font-family="sans-serif" font-size="14" lengthAdjust="spacing" textLength="35" x="539" y="244.7285">Menu</text><line style="stroke:#181818;stroke-width:0.5;" x1="511" x2="576" y1="255" y2="255"/><line style="stroke:#181818;stroke-width:0.5;" x1="511" x2="576" y1="263" y2="263"/></g><!--MD5=[6506bea503710dcab8a6a46b73fb74a1]
class CancelOption--><g id="elem_CancelOption"><rect codeLine="6" fill="#F1F1F1" height="48" id="CancelOption" rx="2.5" ry="2.5" style="stroke:#181818;stroke-width:0.5;" width="118" x="246.5" y="439"/><ellipse cx="261.5" cy="455" fill="#ADD1B2" rx="11" ry="11" style="stroke:#181818;stroke-width:1.0;"/><path d="M264.2656,450.875 Q264.4219,450.6563 264.6094,450.5469 Q264.7969,450.4375 265.0156,450.4375 Q265.3906,450.4375 265.625,450.7031 Q265.8594,450.9531 265.8594,451.5625 L265.8594,453.0156 Q265.8594,453.625 265.625,453.8906 Q265.3906,454.1563 265.0156,454.1563 Q264.6719,454.1563 264.4688,453.9531 Q264.2656,453.7656 264.1563,453.25 Q264.1094,452.8906 263.9219,452.7031 Q263.5938,452.3281 262.9844,452.1094 Q262.375,451.8906 261.75,451.8906 Q260.9844,451.8906 260.3438,452.2188 Q259.7188,452.5469 259.2188,453.2969 Q258.7344,454.0469 258.7344,455.0781 L258.7344,456.1719 Q258.7344,457.4063 259.625,458.2344 Q260.5156,459.0469 262.1094,459.0469 Q263.0469,459.0469 263.7031,458.7969 Q264.0938,458.6406 264.5156,458.2031 Q264.7813,457.9375 264.9219,457.8594 Q265.0781,457.7813 265.2813,457.7813 Q265.6094,457.7813 265.8594,458.0469 Q266.125,458.2969 266.125,458.6406 Q266.125,458.9844 265.7813,459.3906 Q265.2813,459.9688 264.4844,460.2969 Q263.4063,460.75 262.1094,460.75 Q260.5938,460.75 259.3906,460.125 Q258.4063,459.625 257.7188,458.5625 Q257.0313,457.4844 257.0313,456.2031 L257.0313,455.0469 Q257.0313,453.7188 257.6406,452.5781 Q258.2656,451.4219 259.3594,450.8125 Q260.4531,450.1875 261.6875,450.1875 Q262.4219,450.1875 263.0625,450.3594 Q263.7188,450.5156 264.2656,450.875 Z " fill="#000000"/><text fill="#000000" font-family="sans-serif" font-size="14" lengthAdjust="spacing" textLength="86" x="275.5" y="460.7285">CancelOption</text><line style="stroke:#181818;stroke-width:0.5;" x1="247.5" x2="363.5" y1="471" y2="471"/><line style="stroke:#181818;stroke-width:0.5;" x1="247.5" x2="363.5" y1="479" y2="479"/></g><!--MD5=[fdd6ecfabaf96fbf4f00aac0b493efe3]
class ShowOption--><g id="elem_ShowOption"><rect codeLine="7" fill="#F1F1F1" height="48" id="ShowOption" rx="2.5" ry="2.5" style="stroke:#181818;stroke-width:0.5;" width="108" x="399.5" y="439"/><ellipse cx="414.5" cy="455" fill="#ADD1B2" rx="11" ry="11" style="stroke:#181818;stroke-width:1.0;"/><path d="M417.2656,450.875 Q417.4219,450.6563 417.6094,450.5469 Q417.7969,450.4375 418.0156,450.4375 Q418.3906,450.4375 418.625,450.7031 Q418.8594,450.9531 418.8594,451.5625 L418.8594,453.0156 Q418.8594,453.625 418.625,453.8906 Q418.3906,454.1563 418.0156,454.1563 Q417.6719,454.1563 417.4688,453.9531 Q417.2656,453.7656 417.1563,453.25 Q417.1094,452.8906 416.9219,452.7031 Q416.5938,452.3281 415.9844,452.1094 Q415.375,451.8906 414.75,451.8906 Q413.9844,451.8906 413.3438,452.2188 Q412.7188,452.5469 412.2188,453.2969 Q411.7344,454.0469 411.7344,455.0781 L411.7344,456.1719 Q411.7344,457.4063 412.625,458.2344 Q413.5156,459.0469 415.1094,459.0469 Q416.0469,459.0469 416.7031,458.7969 Q417.0938,458.6406 417.5156,458.2031 Q417.7813,457.9375 417.9219,457.8594 Q418.0781,457.7813 418.2813,457.7813 Q418.6094,457.7813 418.8594,458.0469 Q419.125,458.2969 419.125,458.6406 Q419.125,458.9844 418.7813,459.3906 Q418.2813,459.9688 417.4844,460.2969 Q416.4063,460.75 415.1094,460.75 Q413.5938,460.75 412.3906,460.125 Q411.4063,459.625 410.7188,458.5625 Q410.0313,457.4844 410.0313,456.2031 L410.0313,455.0469 Q410.0313,453.7188 410.6406,452.5781 Q411.2656,451.4219 412.3594,450.8125 Q413.4531,450.1875 414.6875,450.1875 Q415.4219,450.1875 416.0625,450.3594 Q416.7188,450.5156 417.2656,450.875 Z " fill="#000000"/><text fill="#000000" font-family="sans-serif" font-size="14" lengthAdjust="spacing" textLength="76" x="428.5" y="460.7285">ShowOption</text><line style="stroke:#181818;stroke-width:0.5;" x1="400.5" x2="506.5" y1="471" y2="471"/><line style="stroke:#181818;stroke-width:0.5;" x1="400.5" x2="506.5" y1="479" y2="479"/></g><!--MD5=[48ff7231d024078491841a820ee16411]
class ExitOption--><g id="elem_ExitOption"><rect codeLine="8" fill="#F1F1F1" height="48" id="ExitOption" rx="2.5" ry="2.5" style="stroke:#181818;stroke-width:0.5;" width="96" x="542.5" y="439"/><ellipse cx="557.5" cy="455" fill="#ADD1B2" rx="11" ry="11" style="stroke:#181818;stroke-width:1.0;"/><path d="M560.2656,450.875 Q560.4219,450.6563 560.6094,450.5469 Q560.7969,450.4375 561.0156,450.4375 Q561.3906,450.4375 561.625,450.7031 Q561.8594,450.9531 561.8594,451.5625 L561.8594,453.0156 Q561.8594,453.625 561.625,453.8906 Q561.3906,454.1563 561.0156,454.1563 Q560.6719,454.1563 560.4688,453.9531 Q560.2656,453.7656 560.1563,453.25 Q560.1094,452.8906 559.9219,452.7031 Q559.5938,452.3281 558.9844,452.1094 Q558.375,451.8906 557.75,451.8906 Q556.9844,451.8906 556.3438,452.2188 Q555.7188,452.5469 555.2188,453.2969 Q554.7344,454.0469 554.7344,455.0781 L554.7344,456.1719 Q554.7344,457.4063 555.625,458.2344 Q556.5156,459.0469 558.1094,459.0469 Q559.0469,459.0469 559.7031,458.7969 Q560.0938,458.6406 560.5156,458.2031 Q560.7813,457.9375 560.9219,457.8594 Q561.0781,457.7813 561.2813,457.7813 Q561.6094,457.7813 561.8594,458.0469 Q562.125,458.2969 562.125,458.6406 Q562.125,458.9844 561.7813,459.3906 Q561.2813,459.9688 560.4844,460.2969 Q559.4063,460.75 558.1094,460.75 Q556.5938,460.75 555.3906,460.125 Q554.4063,459.625 553.7188,458.5625 Q553.0313,457.4844 553.0313,456.2031 L553.0313,455.0469 Q553.0313,453.7188 553.6406,452.5781 Q554.2656,451.4219 555.3594,450.8125 Q556.4531,450.1875 557.6875,450.1875 Q558.4219,450.1875 559.0625,450.3594 Q559.7188,450.5156 560.2656,450.875 Z " fill="#000000"/><text fill="#000000" font-family="sans-serif" font-size="14" lengthAdjust="spacing" textLength="64" x="571.5" y="460.7285">ExitOption</text><line style="stroke:#181818;stroke-width:0.5;" x1="543.5" x2="637.5" y1="471" y2="471"/><line style="stroke:#181818;stroke-width:0.5;" x1="543.5" x2="637.5" y1="479" y2="479"/></g><!--MD5=[a819b5cb5440bf47c68e0253f1faedfb]
class EnlargeOption--><g id="elem_EnlargeOption"><rect codeLine="9" fill="#F1F1F1" height="48" id="EnlargeOption" rx="2.5" ry="2.5" style="stroke:#181818;stroke-width:0.5;" width="123" x="674" y="439"/><ellipse cx="689" cy="455" fill="#ADD1B2" rx="11" ry="11" style="stroke:#181818;stroke-width:1.0;"/><path d="M691.7656,450.875 Q691.9219,450.6563 692.1094,450.5469 Q692.2969,450.4375 692.5156,450.4375 Q692.8906,450.4375 693.125,450.7031 Q693.3594,450.9531 693.3594,451.5625 L693.3594,453.0156 Q693.3594,453.625 693.125,453.8906 Q692.8906,454.1563 692.5156,454.1563 Q692.1719,454.1563 691.9688,453.9531 Q691.7656,453.7656 691.6563,453.25 Q691.6094,452.8906 691.4219,452.7031 Q691.0938,452.3281 690.4844,452.1094 Q689.875,451.8906 689.25,451.8906 Q688.4844,451.8906 687.8438,452.2188 Q687.2188,452.5469 686.7188,453.2969 Q686.2344,454.0469 686.2344,455.0781 L686.2344,456.1719 Q686.2344,457.4063 687.125,458.2344 Q688.0156,459.0469 689.6094,459.0469 Q690.5469,459.0469 691.2031,458.7969 Q691.5938,458.6406 692.0156,458.2031 Q692.2813,457.9375 692.4219,457.8594 Q692.5781,457.7813 692.7813,457.7813 Q693.1094,457.7813 693.3594,458.0469 Q693.625,458.2969 693.625,458.6406 Q693.625,458.9844 693.2813,459.3906 Q692.7813,459.9688 691.9844,460.2969 Q690.9063,460.75 689.6094,460.75 Q688.0938,460.75 686.8906,460.125 Q685.9063,459.625 685.2188,458.5625 Q684.5313,457.4844 684.5313,456.2031 L684.5313,455.0469 Q684.5313,453.7188 685.1406,452.5781 Q685.7656,451.4219 686.8594,450.8125 Q687.9531,450.1875 689.1875,450.1875 Q689.9219,450.1875 690.5625,450.3594 Q691.2188,450.5156 691.7656,450.875 Z " fill="#000000"/><text fill="#000000" font-family="sans-serif" font-size="14" lengthAdjust="spacing" textLength="91" x="703" y="460.7285">EnlargeOption</text><line style="stroke:#181818;stroke-width:0.5;" x1="675" x2="796" y1="471" y2="471"/><line style="stroke:#181818;stroke-width:0.5;" x1="675" x2="796" y1="479" y2="479"/></g><!--MD5=[03a279042868af39cebd3e3290aa818a]
class ShiftOption--><g id="elem_ShiftOption"><rect codeLine="10" fill="#F1F1F1" height="48" id="ShiftOption" rx="2.5" ry="2.5" style="stroke:#181818;stroke-width:0.5;" width="102" x="832.5" y="439"/><ellipse cx="847.5" cy="455" fill="#ADD1B2" rx="11" ry="11" style="stroke:#181818;stroke-width:1.0;"/><path d="M850.2656,450.875 Q850.4219,450.6563 850.6094,450.5469 Q850.7969,450.4375 851.0156,450.4375 Q851.3906,450.4375 851.625,450.7031 Q851.8594,450.9531 851.8594,451.5625 L851.8594,453.0156 Q851.8594,453.625 851.625,453.8906 Q851.3906,454.1563 851.0156,454.1563 Q850.6719,454.1563 850.4688,453.9531 Q850.2656,453.7656 850.1563,453.25 Q850.1094,452.8906 849.9219,452.7031 Q849.5938,452.3281 848.9844,452.1094 Q848.375,451.8906 847.75,451.8906 Q846.9844,451.8906 846.3438,452.2188 Q845.7188,452.5469 845.2188,453.2969 Q844.7344,454.0469 844.7344,455.0781 L844.7344,456.1719 Q844.7344,457.4063 845.625,458.2344 Q846.5156,459.0469 848.1094,459.0469 Q849.0469,459.0469 849.7031,458.7969 Q850.0938,458.6406 850.5156,458.2031 Q850.7813,457.9375 850.9219,457.8594 Q851.0781,457.7813 851.2813,457.7813 Q851.6094,457.7813 851.8594,458.0469 Q852.125,458.2969 852.125,458.6406 Q852.125,458.9844 851.7813,459.3906 Q851.2813,459.9688 850.4844,460.2969 Q849.4063,460.75 848.1094,460.75 Q846.5938,460.75 845.3906,460.125 Q844.4063,459.625 843.7188,458.5625 Q843.0313,457.4844 843.0313,456.2031 L843.0313,455.0469 Q843.0313,453.7188 843.6406,452.5781 Q844.2656,451.4219 845.3594,450.8125 Q846.4531,450.1875 847.6875,450.1875 Q848.4219,450.1875 849.0625,450.3594 Q849.7188,450.5156 850.2656,450.875 Z " fill="#000000"/><text fill="#000000" font-family="sans-serif" font-size="14" lengthAdjust="spacing" textLength="70" x="861.5" y="460.7285">ShiftOption</text><line style="stroke:#181818;stroke-width:0.5;" x1="833.5" x2="933.5" y1="471" y2="471"/><line style="stroke:#181818;stroke-width:0.5;" x1="833.5" x2="933.5" y1="479" y2="479"/></g><!--MD5=[90dc96bfd633d7918e72cd3f4daac441]
class GetCostOption--><g id="elem_GetCostOption"><rect codeLine="11" fill="#F1F1F1" height="48" id="GetCostOption" rx="2.5" ry="2.5" style="stroke:#181818;stroke-width:0.5;" width="126" x="969.5" y="439"/><ellipse cx="984.5" cy="455" fill="#ADD1B2" rx="11" ry="11" style="stroke:#181818;stroke-width:1.0;"/><path d="M987.2656,450.875 Q987.4219,450.6563 987.6094,450.5469 Q987.7969,450.4375 988.0156,450.4375 Q988.3906,450.4375 988.625,450.7031 Q988.8594,450.9531 988.8594,451.5625 L988.8594,453.0156 Q988.8594,453.625 988.625,453.8906 Q988.3906,454.1563 988.0156,454.1563 Q987.6719,454.1563 987.4688,453.9531 Q987.2656,453.7656 987.1563,453.25 Q987.1094,452.8906 986.9219,452.7031 Q986.5938,452.3281 985.9844,452.1094 Q985.375,451.8906 984.75,451.8906 Q983.9844,451.8906 983.3438,452.2188 Q982.7188,452.5469 982.2188,453.2969 Q981.7344,454.0469 981.7344,455.0781 L981.7344,456.1719 Q981.7344,457.4063 982.625,458.2344 Q983.5156,459.0469 985.1094,459.0469 Q986.0469,459.0469 986.7031,458.7969 Q987.0938,458.6406 987.5156,458.2031 Q987.7813,457.9375 987.9219,457.8594 Q988.0781,457.7813 988.2813,457.7813 Q988.6094,457.7813 988.8594,458.0469 Q989.125,458.2969 989.125,458.6406 Q989.125,458.9844 988.7813,459.3906 Q988.2813,459.9688 987.4844,460.2969 Q986.4063,460.75 985.1094,460.75 Q983.5938,460.75 982.3906,460.125 Q981.4063,459.625 980.7188,458.5625 Q980.0313,457.4844 980.0313,456.2031 L980.0313,455.0469 Q980.0313,453.7188 980.6406,452.5781 Q981.2656,451.4219 982.3594,450.8125 Q983.4531,450.1875 984.6875,450.1875 Q985.4219,450.1875 986.0625,450.3594 Q986.7188,450.5156 987.2656,450.875 Z " fill="#000000"/><text fill="#000000" font-family="sans-serif" font-size="14" lengthAdjust="spacing" textLength="94" x="998.5" y="460.7285">GetCostOption</text><line style="stroke:#181818;stroke-width:0.5;" x1="970.5" x2="1094.5" y1="471" y2="471"/><line style="stroke:#181818;stroke-width:0.5;" x1="970.5" x2="1094.5" y1="479" y2="479"/></g><!--MD5=[7829b64950ce38e0487c4015ea331f97]
class Date--><g id="elem_Date"><rect codeLine="13" fill="#F1F1F1" height="48" id="Date" rx="2.5" ry="2.5" style="stroke:#181818;stroke-width:0.5;" width="62" x="154.5" y="547"/><ellipse cx="169.5" cy="563" fill="#ADD1B2" rx="11" ry="11" style="stroke:#181818;stroke-width:1.0;"/><path d="M172.2656,558.875 Q172.4219,558.6563 172.6094,558.5469 Q172.7969,558.4375 173.0156,558.4375 Q173.3906,558.4375 173.625,558.7031 Q173.8594,558.9531 173.8594,559.5625 L173.8594,561.0156 Q173.8594,561.625 173.625,561.8906 Q173.3906,562.1563 173.0156,562.1563 Q172.6719,562.1563 172.4688,561.9531 Q172.2656,561.7656 172.1563,561.25 Q172.1094,560.8906 171.9219,560.7031 Q171.5938,560.3281 170.9844,560.1094 Q170.375,559.8906 169.75,559.8906 Q168.9844,559.8906 168.3438,560.2188 Q167.7188,560.5469 167.2188,561.2969 Q166.7344,562.0469 166.7344,563.0781 L166.7344,564.1719 Q166.7344,565.4063 167.625,566.2344 Q168.5156,567.0469 170.1094,567.0469 Q171.0469,567.0469 171.7031,566.7969 Q172.0938,566.6406 172.5156,566.2031 Q172.7813,565.9375 172.9219,565.8594 Q173.0781,565.7813 173.2813,565.7813 Q173.6094,565.7813 173.8594,566.0469 Q174.125,566.2969 174.125,566.6406 Q174.125,566.9844 173.7813,567.3906 Q173.2813,567.9688 172.4844,568.2969 Q171.4063,568.75 170.1094,568.75 Q168.5938,568.75 167.3906,568.125 Q166.4063,567.625 165.7188,566.5625 Q165.0313,565.4844 165.0313,564.2031 L165.0313,563.0469 Q165.0313,561.7188 165.6406,560.5781 Q166.2656,559.4219 167.3594,558.8125 Q168.4531,558.1875 169.6875,558.1875 Q170.4219,558.1875 171.0625,558.3594 Q171.7188,558.5156 172.2656,558.875 Z " fill="#000000"/><text fill="#000000" font-family="sans-serif" font-size="14" lengthAdjust="spacing" textLength="30" x="183.5" y="568.7285">Date</text><line style="stroke:#181818;stroke-width:0.5;" x1="155.5" x2="215.5" y1="579" y2="579"/><line style="stroke:#181818;stroke-width:0.5;" x1="155.5" x2="215.5" y1="587" y2="587"/></g><!--MD5=[94b2979dc8db7061b05b681130e8ecb6]
class Interval--><g id="elem_Interval"><rect codeLine="14" fill="#F1F1F1" height="48" id="Interval" rx="2.5" ry="2.5" style="stroke:#181818;stroke-width:0.5;" width="78" x="34.5" y="547"/><ellipse cx="49.5" cy="563" fill="#ADD1B2" rx="11" ry="11" style="stroke:#181818;stroke-width:1.0;"/><path d="M52.2656,558.875 Q52.4219,558.6563 52.6094,558.5469 Q52.7969,558.4375 53.0156,558.4375 Q53.3906,558.4375 53.625,558.7031 Q53.8594,558.9531 53.8594,559.5625 L53.8594,561.0156 Q53.8594,561.625 53.625,561.8906 Q53.3906,562.1563 53.0156,562.1563 Q52.6719,562.1563 52.4688,561.9531 Q52.2656,561.7656 52.1563,561.25 Q52.1094,560.8906 51.9219,560.7031 Q51.5938,560.3281 50.9844,560.1094 Q50.375,559.8906 49.75,559.8906 Q48.9844,559.8906 48.3438,560.2188 Q47.7188,560.5469 47.2188,561.2969 Q46.7344,562.0469 46.7344,563.0781 L46.7344,564.1719 Q46.7344,565.4063 47.625,566.2344 Q48.5156,567.0469 50.1094,567.0469 Q51.0469,567.0469 51.7031,566.7969 Q52.0938,566.6406 52.5156,566.2031 Q52.7813,565.9375 52.9219,565.8594 Q53.0781,565.7813 53.2813,565.7813 Q53.6094,565.7813 53.8594,566.0469 Q54.125,566.2969 54.125,566.6406 Q54.125,566.9844 53.7813,567.3906 Q53.2813,567.9688 52.4844,568.2969 Q51.4063,568.75 50.1094,568.75 Q48.5938,568.75 47.3906,568.125 Q46.4063,567.625 45.7188,566.5625 Q45.0313,565.4844 45.0313,564.2031 L45.0313,563.0469 Q45.0313,561.7188 45.6406,560.5781 Q46.2656,559.4219 47.3594,558.8125 Q48.4531,558.1875 49.6875,558.1875 Q50.4219,558.1875 51.0625,558.3594 Q51.7188,558.5156 52.2656,558.875 Z " fill="#000000"/><text fill="#000000" font-family="sans-serif" font-size="14" lengthAdjust="spacing" textLength="46" x="63.5" y="568.7285">Interval</text><line style="stroke:#181818;stroke-width:0.5;" x1="35.5" x2="111.5" y1="579" y2="579"/><line style="stroke:#181818;stroke-width:0.5;" x1="35.5" x2="111.5" y1="587" y2="587"/></g><!--MD5=[b07065dfc0d0e09965ec10bfc328bb3e]
class Option--><g id="elem_Option"><rect codeLine="16" fill="#F1F1F1" height="48" id="Option" rx="2.5" ry="2.5" style="stroke:#181818;stroke-width:0.5;" width="74" x="596.5" y="331"/><ellipse cx="611.5" cy="347" fill="#B4A7E5" rx="11" ry="11" style="stroke:#181818;stroke-width:1.0;"/><path d="M612.4531,343.6406 L612.4531,350.2969 L614.1719,350.2969 Q614.7813,350.2969 615.0469,350.5313 Q615.3125,350.7656 615.3125,351.1563 Q615.3125,351.5313 615.0469,351.7656 Q614.7813,352 614.1719,352 L609.0313,352 Q608.4219,352 608.1563,351.7656 Q607.8906,351.5313 607.8906,351.1406 Q607.8906,350.7656 608.1563,350.5313 Q608.4219,350.2969 609.0313,350.2969 L610.75,350.2969 L610.75,343.6406 L609.0313,343.6406 Q608.4219,343.6406 608.1563,343.4063 Q607.8906,343.1719 607.8906,342.7813 Q607.8906,342.4063 608.1563,342.1719 Q608.4219,341.9375 609.0313,341.9375 L614.1719,341.9375 Q614.7813,341.9375 615.0469,342.1719 Q615.3125,342.4063 615.3125,342.7813 Q615.3125,343.1719 615.0469,343.4063 Q614.7813,343.6406 614.1719,343.6406 L612.4531,343.6406 Z " fill="#000000"/><text fill="#000000" font-family="sans-serif" font-size="14" font-style="italic" lengthAdjust="spacing" textLength="42" x="625.5" y="352.7285">Option</text><line style="stroke:#181818;stroke-width:0.5;" x1="597.5" x2="669.5" y1="363" y2="363"/><line style="stroke:#181818;stroke-width:0.5;" x1="597.5" x2="669.5" y1="371" y2="371"/></g><!--MD5=[db9a76f5ceec3d416a4a0daeaf552bb6]
link CompanyManagement to ServiceContract--><g id="link_CompanyManagement_ServiceContract"><path codeLine="18" d="M167.2495,66.7958 C167.2495,66.7958 101.31,344.77 82.07,425.89 " fill="none" id="CompanyManagement-ServiceContract" style="stroke:#181818;stroke-width:1.0;"/><polygon fill="#181818" points="79.01,438.77,84.9778,430.9351,80.1632,433.9048,77.1935,429.0901,79.01,438.77" style="stroke:#181818;stroke-width:1.0;"/><line style="stroke:#181818;stroke-width:1.0;" x1="80.1632" x2="82.01" y1="433.9048" y2="426.12"/><polygon fill="#181818" points="170.02,55.12,164.7428,60.0344,167.2495,66.7958,172.5267,61.8814,170.02,55.12" style="stroke:#181818;stroke-width:1.0;"/></g><!--MD5=[cbcc7e0af6073e4b1ee22bbd58d9b8d8]
link CompanyManagement to ServiceContractView--><g id="link_CompanyManagement_ServiceContractView"><path codeLine="19" d="M177.8,55.16 C183.53,112.8 198.42,262.61 204.67,325.52 " fill="none" id="CompanyManagement-to-ServiceContractView" style="stroke:#181818;stroke-width:1.0;stroke-dasharray:7.0,7.0;"/><polygon fill="#181818" points="205.18,330.62,208.2593,321.2649,204.6797,325.6451,200.2994,322.0655,205.18,330.62" style="stroke:#181818;stroke-width:1.0;"/></g><!--MD5=[b675fbcbdf96fa0ca0e45da8a95e9d8f]
link CompanyManagement to MenuView--><g id="link_CompanyManagement_MenuView"><path codeLine="20" d="M197.42,55 C213.06,71.42 234.16,93.56 250.63,110.84 " fill="none" id="CompanyManagement-to-MenuView" style="stroke:#181818;stroke-width:1.0;stroke-dasharray:7.0,7.0;"/><polygon fill="#181818" points="254.28,114.68,250.9678,105.4048,250.831,111.06,245.1758,110.9232,254.28,114.68" style="stroke:#181818;stroke-width:1.0;"/></g><!--MD5=[70157a02eda89a0c6130e7d52c2f2f74]
link ServiceContractView to ServiceContract--><g id="link_ServiceContractView_ServiceContract"><path codeLine="22" d="M178.42,379 C157.41,395.62 128.97,418.12 107.01,435.5 " fill="none" id="ServiceContractView-to-ServiceContract" style="stroke:#181818;stroke-width:1.0;stroke-dasharray:7.0,7.0;"/><polygon fill="#181818" points="102.98,438.68,112.5231,436.245,106.9051,435.5827,107.5674,429.9648,102.98,438.68" style="stroke:#181818;stroke-width:1.0;"/></g><!--MD5=[dbcab9a35781dbee05fea1de5b58871d]
link ServiceContractView to Date--><g id="link_ServiceContractView_Date"><path codeLine="23" d="M205.1,379.31 C201.04,418.87 192.8,498.99 188.41,541.7 " fill="none" id="ServiceContractView-to-Date" style="stroke:#181818;stroke-width:1.0;stroke-dasharray:7.0,7.0;"/><polygon fill="#181818" points="187.89,546.72,192.7681,538.1641,188.3889,541.745,184.808,537.3658,187.89,546.72" style="stroke:#181818;stroke-width:1.0;"/></g><!--MD5=[aed3b4e61f0aadc93823d15e8705445f]
link ServiceContract to Date--><g id="link_ServiceContract_Date"><path codeLine="25" d="M97.8,487 C115.15,503.42 138.54,525.56 156.81,542.84 " fill="none" id="ServiceContract-to-Date" style="stroke:#181818;stroke-width:1.0;stroke-dasharray:7.0,7.0;"/><polygon fill="#181818" points="160.86,546.68,157.0844,537.5836,157.2329,543.2385,151.578,543.387,160.86,546.68" style="stroke:#181818;stroke-width:1.0;"/></g><!--MD5=[df8aa8658773f52091bcc1df68fac1d7]
link ServiceContract to Interval--><g id="link_ServiceContract_Interval"><path codeLine="26" d="M73.5,487 C73.5,503 73.5,524.45 73.5,541.53 " fill="none" id="ServiceContract-to-Interval" style="stroke:#181818;stroke-width:1.0;"/><polygon fill="#181818" points="73.5,546.68,77.5,537.68,73.5,541.68,69.5,537.68,73.5,546.68" style="stroke:#181818;stroke-width:1.0;"/><text fill="#000000" font-family="sans-serif" font-size="13" lengthAdjust="spacing" textLength="21" x="49.9406" y="536.34">360</text></g><!--MD5=[dcc2e4004a81e930d0bba2f4a2a42a1d]
link MenuView to Menu--><g id="link_MenuView_Menu"><path codeLine="28" d="M324.54,159.07 C376.22,179.59 457.36,211.8 505,230.72 " fill="none" id="MenuView-to-Menu" style="stroke:#181818;stroke-width:1.0;"/><polygon fill="#181818" points="509.79,232.62,502.9006,225.5818,505.1427,230.7754,499.9492,233.0175,509.79,232.62" style="stroke:#181818;stroke-width:1.0;"/></g><!--MD5=[e3badc2849a377e674bef8e011aa0b5c]
link MenuView to ServiceContractView--><g id="link_MenuView_ServiceContractView"><path codeLine="29" d="M268.98,163.31 C256.23,202.87 230.39,282.99 216.62,325.7 " fill="none" id="MenuView-to-ServiceContractView" style="stroke:#181818;stroke-width:1.0;stroke-dasharray:7.0,7.0;"/><polygon fill="#181818" points="215.01,330.72,221.5914,323.393,216.5525,325.9639,213.9817,320.925,215.01,330.72" style="stroke:#181818;stroke-width:1.0;"/></g><!--MD5=[9439b529e99e67230efbdccb3508defa]
link Menu to ServiceContractView--><g id="link_Menu_ServiceContractView"><path codeLine="31" d="M509.74,258.65 C457.74,275.06 356.62,306.96 285.72,329.32 " fill="none" id="Menu-to-ServiceContractView" style="stroke:#181818;stroke-width:1.0;stroke-dasharray:7.0,7.0;"/><polygon fill="#181818" points="280.67,330.92,290.4553,332.0368,285.4399,329.4205,288.0561,324.405,280.67,330.92" style="stroke:#181818;stroke-width:1.0;"/></g><!--MD5=[8daeaf3eedd6c08a0f80d4a90846b3b4]
link Menu to Option--><g id="link_Menu_Option"><path codeLine="32" d="M563.03,271 C576.97,287.42 595.77,309.56 610.44,326.84 " fill="none" id="Menu-to-Option" style="stroke:#181818;stroke-width:1.0;"/><polygon fill="#181818" points="613.7,330.68,610.9179,321.2323,610.4613,326.8707,604.8229,326.4141,613.7,330.68" style="stroke:#181818;stroke-width:1.0;"/></g><!--MD5=[db27c364c76abc55725547699ffa083f]
link Menu to CancelOption--><g id="link_Menu_CancelOption"><path codeLine="33" d="M517.58,271.31 C473.05,311.35 382.29,392.95 335.25,435.25 " fill="none" id="Menu-to-CancelOption" style="stroke:#181818;stroke-width:1.0;"/><polygon fill="#181818" points="331.39,438.72,340.7555,435.6725,335.1065,435.3752,335.4038,429.7261,331.39,438.72" style="stroke:#181818;stroke-width:1.0;"/></g><!--MD5=[4fa9ab25f67b4b87f3be576228ebd3af]
link Menu to EnlargeOption--><g id="link_Menu_EnlargeOption"><path codeLine="34" d="M577.13,259.6 C609.56,272.38 657.96,295.9 687.5,331 C712.61,360.83 725.12,404.95 730.95,433.59 " fill="none" id="Menu-to-EnlargeOption" style="stroke:#181818;stroke-width:1.0;"/><polygon fill="#181818" points="731.96,438.75,734.1334,429.144,730.9877,433.8455,726.2862,430.6997,731.96,438.75" style="stroke:#181818;stroke-width:1.0;"/></g><!--MD5=[34472ef7d93d45876669c188e05bd016]
link Menu to ExitOption--><g id="link_Menu_ExitOption"><path codeLine="35" d="M548.62,271.31 C557.31,310.87 574.91,390.99 584.29,433.7 " fill="none" id="Menu-to-ExitOption" style="stroke:#181818;stroke-width:1.0;"/><polygon fill="#181818" points="585.39,438.72,587.3634,429.0709,584.316,433.8367,579.5501,430.7893,585.39,438.72" style="stroke:#181818;stroke-width:1.0;"/></g><!--MD5=[07af14581a148e641fd603cb40c2280e]
link Menu to GetCostOption--><g id="link_Menu_GetCostOption"><path codeLine="36" d="M577.01,257.66 C624.3,271.71 712.96,299.56 785.5,331 C859.06,362.89 940.52,408.16 989.06,436.27 " fill="none" id="Menu-to-GetCostOption" style="stroke:#181818;stroke-width:1.0;"/><polygon fill="#181818" points="993.66,438.94,987.867,430.975,989.3303,436.4393,983.8659,437.9026,993.66,438.94" style="stroke:#181818;stroke-width:1.0;"/></g><!--MD5=[27f893628d86aab74ab3b09a64ae1a9a]
link Menu to ShiftOption--><g id="link_Menu_ShiftOption"><path codeLine="37" d="M577.13,259.96 C615.12,274.18 678.1,299.95 727.5,331 C776.5,361.8 826.6,406.76 856.38,435.18 " fill="none" id="Menu-to-ShiftOption" style="stroke:#181818;stroke-width:1.0;"/><polygon fill="#181818" points="860.26,438.91,856.5211,429.7984,856.6468,435.4539,850.9913,435.5796,860.26,438.91" style="stroke:#181818;stroke-width:1.0;"/></g><!--MD5=[803738a30755b5dfec10f31a19e63733]
link Menu to ShowOption--><g id="link_Menu_ShowOption"><path codeLine="38" d="M533.7,271.31 C517.03,310.95 483.23,391.32 465.29,433.96 " fill="none" id="Menu-to-ShowOption" style="stroke:#181818;stroke-width:1.0;"/><polygon fill="#181818" points="463.29,438.72,470.4765,431.9855,465.2354,434.114,463.1069,428.8728,463.29,438.72" style="stroke:#181818;stroke-width:1.0;"/></g><!--MD5=[e3fd346c3516c724fc4a640bffce4df1]
reverse link Option to CancelOption--><g id="link_Option_CancelOption"><path codeLine="40" d="M577.1,374.23 C517.81,393.39 424.93,423.4 364.63,442.89 " fill="none" id="Option-backto-CancelOption" style="stroke:#181818;stroke-width:1.0;stroke-dasharray:7.0,7.0;"/><polygon fill="none" points="575.01,367.55,596.19,368.06,579.32,380.87,575.01,367.55" style="stroke:#181818;stroke-width:1.0;"/></g><!--MD5=[19046170cf5041572bf6c16b030fecc3]
reverse link Option to EnlargeOption--><g id="link_Option_EnlargeOption"><path codeLine="41" d="M669.83,393.75 C684.25,408.74 700.39,425.51 713.06,438.68 " fill="none" id="Option-backto-EnlargeOption" style="stroke:#181818;stroke-width:1.0;stroke-dasharray:7.0,7.0;"/><polygon fill="none" points="664.46,398.27,655.63,379,674.54,388.56,664.46,398.27" style="stroke:#181818;stroke-width:1.0;"/></g><!--MD5=[526edcfd2429839a623b8ea8e99bb633]
reverse link Option to ExitOption--><g id="link_Option_ExitOption"><path codeLine="42" d="M616.63,397.57 C610.97,411.54 604.85,426.62 599.96,438.68 " fill="none" id="Option-backto-ExitOption" style="stroke:#181818;stroke-width:1.0;stroke-dasharray:7.0,7.0;"/><polygon fill="none" points="610.16,394.9,624.17,379,623.14,400.16,610.16,394.9" style="stroke:#181818;stroke-width:1.0;"/></g><!--MD5=[79c6f7e96243453265e07bfea24cadbc]
reverse link Option to GetCostOption--><g id="link_Option_GetCostOption"><path codeLine="43" d="M690.47,370.36 C754.37,386.57 861.06,413.96 952.5,439 C957.94,440.49 963.57,442.06 969.22,443.65 " fill="none" id="Option-backto-GetCostOption" style="stroke:#181818;stroke-width:1.0;stroke-dasharray:7.0,7.0;"/><polygon fill="none" points="688.58,377.1,670.91,365.4,692.01,363.53,688.58,377.1" style="stroke:#181818;stroke-width:1.0;"/></g><!--MD5=[cbf13adba2a8be8001390b77ecbc040d]
reverse link Option to ShiftOption--><g id="link_Option_ShiftOption"><path codeLine="44" d="M689.08,379.57 C731.88,397.71 790.58,422.6 832.25,440.27 " fill="none" id="Option-backto-ShiftOption" style="stroke:#181818;stroke-width:1.0;stroke-dasharray:7.0,7.0;"/><polygon fill="none" points="686.34,386.01,670.66,371.75,691.8,373.12,686.34,386.01" style="stroke:#181818;stroke-width:1.0;"/></g><!--MD5=[e23ea6afece6cda16f274ef1ae533cf1]
reverse link Option to ShowOption--><g id="link_Option_ShowOption"><path codeLine="45" d="M578.83,388.19 C551.02,404.57 517.84,424.11 492.62,438.96 " fill="none" id="Option-backto-ShowOption" style="stroke:#181818;stroke-width:1.0;stroke-dasharray:7.0,7.0;"/><polygon fill="none" points="575.42,382.08,596.2,377.96,582.52,394.14,575.42,382.08" style="stroke:#181818;stroke-width:1.0;"/></g><!--MD5=[0d3757ffa1e6f1576f433409751578cd]
@startuml Diagrama de clases
class CompanyManagement
class ServiceContract
class ServiceContractView
class MenuView
class Menu
class CancelOption
class ShowOption
class ExitOption
class EnlargeOption
class ShiftOption
class GetCostOption

class Date
class Interval

interface Option

CompanyManagement *- -> ServiceContract
CompanyManagement ..> ServiceContractView
CompanyManagement ..> MenuView

ServiceContractView ..> ServiceContract
ServiceContractView ..> Date

ServiceContract ..> Date
ServiceContract - -> "360" Interval

MenuView - -> Menu
MenuView ..> ServiceContractView

Menu ..> ServiceContractView
Menu - -> Option
Menu - -> CancelOption
Menu - -> EnlargeOption
Menu - -> ExitOption
Menu - -> GetCostOption
Menu - -> ShiftOption
Menu - -> ShowOption

Option <|.. CancelOption
Option <|.. EnlargeOption
Option <|.. ExitOption
Option <|.. GetCostOption
Option <|.. ShiftOption
Option <|.. ShowOption

@enduml

PlantUML version 1.2022.7(Mon Aug 22 19:01:30 CEST 2022)
(GPL source distribution)
Java Runtime: OpenJDK Runtime Environment
JVM: OpenJDK 64-Bit Server VM
Default Encoding: UTF-8
Language: es
Country: ES
--></g></svg>